<?xml version="1.0" encoding="utf-8" standalone="no"?>
<!DOCTYPE svg PUBLIC "-//W3C//DTD SVG 1.1//EN"
  "http://www.w3.org/Graphics/SVG/1.1/DTD/svg11.dtd">
<!-- Created with matplotlib (https://matplotlib.org/) -->
<svg height="432pt" version="1.1" viewBox="0 0 720 432" width="720pt" xmlns="http://www.w3.org/2000/svg" xmlns:xlink="http://www.w3.org/1999/xlink">
 <defs>
  <style type="text/css">
*{stroke-linecap:butt;stroke-linejoin:round;}
  </style>
 </defs>
 <g id="figure_1">
  <g id="patch_1">
   <path d="M 0 432 
L 720 432 
L 720 0 
L 0 0 
z
" style="fill:#ffffff;"/>
  </g>
  <g id="axes_1">
   <g id="patch_2">
    <path d="M 90 378 
L 648 378 
L 648 51.84 
L 90 51.84 
z
" style="fill:#ffffff;"/>
   </g>
   <g id="matplotlib.axis_1">
    <g id="xtick_1">
     <g id="line2d_1">
      <defs>
       <path d="M 0 0 
L 0 3.5 
" id="m2d54a73dad" style="stroke:#000000;stroke-width:0.8;"/>
      </defs>
      <g>
       <use style="stroke:#000000;stroke-width:0.8;" x="115.363636" xlink:href="#m2d54a73dad" y="378"/>
      </g>
     </g>
     <g id="text_1">
      <!-- 0 -->
      <defs>
       <path d="M 31.78125 3.421875 
Q 39.265625 3.421875 42.96875 11.625 
Q 46.6875 19.828125 46.6875 36.375 
Q 46.6875 52.984375 42.96875 61.1875 
Q 39.265625 69.390625 31.78125 69.390625 
Q 24.3125 69.390625 20.59375 61.1875 
Q 16.890625 52.984375 16.890625 36.375 
Q 16.890625 19.828125 20.59375 11.625 
Q 24.3125 3.421875 31.78125 3.421875 
z
M 31.78125 -1.421875 
Q 19.921875 -1.421875 13.25 8.53125 
Q 6.59375 18.5 6.59375 36.375 
Q 6.59375 54.296875 13.25 64.25 
Q 19.921875 74.21875 31.78125 74.21875 
Q 43.703125 74.21875 50.34375 64.25 
Q 56.984375 54.296875 56.984375 36.375 
Q 56.984375 18.5 50.34375 8.53125 
Q 43.703125 -1.421875 31.78125 -1.421875 
z
" id="DejaVuSerif-48"/>
      </defs>
      <g transform="translate(111.546136 394.118125)scale(0.12 -0.12)">
       <use xlink:href="#DejaVuSerif-48"/>
      </g>
     </g>
    </g>
    <g id="xtick_2">
     <g id="line2d_2">
      <g>
       <use style="stroke:#000000;stroke-width:0.8;" x="187.831169" xlink:href="#m2d54a73dad" y="378"/>
      </g>
     </g>
     <g id="text_2">
      <!-- 2 -->
      <defs>
       <path d="M 12.796875 55.515625 
L 7.328125 55.515625 
L 7.328125 68.5 
Q 12.546875 71.296875 17.84375 72.75 
Q 23.140625 74.21875 28.21875 74.21875 
Q 39.59375 74.21875 46.1875 68.703125 
Q 52.78125 63.1875 52.78125 53.71875 
Q 52.78125 43.015625 37.84375 28.125 
Q 36.671875 27 36.078125 26.421875 
L 17.671875 8.015625 
L 48.09375 8.015625 
L 48.09375 17 
L 53.8125 17 
L 53.8125 0 
L 6.78125 0 
L 6.78125 5.328125 
L 28.90625 27.390625 
Q 36.234375 34.71875 39.359375 40.84375 
Q 42.484375 46.96875 42.484375 53.71875 
Q 42.484375 61.078125 38.640625 65.234375 
Q 34.8125 69.390625 28.078125 69.390625 
Q 21.09375 69.390625 17.28125 65.921875 
Q 13.484375 62.453125 12.796875 55.515625 
z
" id="DejaVuSerif-50"/>
      </defs>
      <g transform="translate(184.013669 394.118125)scale(0.12 -0.12)">
       <use xlink:href="#DejaVuSerif-50"/>
      </g>
     </g>
    </g>
    <g id="xtick_3">
     <g id="line2d_3">
      <g>
       <use style="stroke:#000000;stroke-width:0.8;" x="260.298701" xlink:href="#m2d54a73dad" y="378"/>
      </g>
     </g>
     <g id="text_3">
      <!-- 4 -->
      <defs>
       <path d="M 34.90625 24.703125 
L 34.90625 63.484375 
L 10.015625 24.703125 
z
M 56.390625 0 
L 23.1875 0 
L 23.1875 5.171875 
L 34.90625 5.171875 
L 34.90625 19.484375 
L 3.078125 19.484375 
L 3.078125 24.8125 
L 35.015625 74.21875 
L 44.671875 74.21875 
L 44.671875 24.703125 
L 58.59375 24.703125 
L 58.59375 19.484375 
L 44.671875 19.484375 
L 44.671875 5.171875 
L 56.390625 5.171875 
z
" id="DejaVuSerif-52"/>
      </defs>
      <g transform="translate(256.481201 394.118125)scale(0.12 -0.12)">
       <use xlink:href="#DejaVuSerif-52"/>
      </g>
     </g>
    </g>
    <g id="xtick_4">
     <g id="line2d_4">
      <g>
       <use style="stroke:#000000;stroke-width:0.8;" x="332.766234" xlink:href="#m2d54a73dad" y="378"/>
      </g>
     </g>
     <g id="text_4">
      <!-- 6 -->
      <defs>
       <path d="M 32.71875 3.421875 
Q 39.59375 3.421875 43.296875 8.46875 
Q 47.015625 13.53125 47.015625 23 
Q 47.015625 32.46875 43.296875 37.515625 
Q 39.59375 42.578125 32.71875 42.578125 
Q 25.734375 42.578125 22.0625 37.6875 
Q 18.40625 32.8125 18.40625 23.578125 
Q 18.40625 13.875 22.109375 8.640625 
Q 25.828125 3.421875 32.71875 3.421875 
z
M 16.796875 40.140625 
Q 20.125 43.796875 24.3125 45.59375 
Q 28.515625 47.40625 33.796875 47.40625 
Q 44.671875 47.40625 51 40.859375 
Q 57.328125 34.328125 57.328125 23 
Q 57.328125 11.921875 50.515625 5.25 
Q 43.703125 -1.421875 32.328125 -1.421875 
Q 19.96875 -1.421875 13.328125 7.78125 
Q 6.6875 17 6.6875 34.078125 
Q 6.6875 53.21875 14.546875 63.71875 
Q 22.40625 74.21875 36.71875 74.21875 
Q 40.578125 74.21875 44.828125 73.484375 
Q 49.078125 72.75 53.515625 71.296875 
L 53.515625 59.28125 
L 48 59.28125 
Q 47.40625 64.203125 44.234375 66.796875 
Q 41.0625 69.390625 35.6875 69.390625 
Q 26.21875 69.390625 21.578125 62.203125 
Q 16.9375 55.03125 16.796875 40.140625 
z
" id="DejaVuSerif-54"/>
      </defs>
      <g transform="translate(328.948734 394.118125)scale(0.12 -0.12)">
       <use xlink:href="#DejaVuSerif-54"/>
      </g>
     </g>
    </g>
    <g id="xtick_5">
     <g id="line2d_5">
      <g>
       <use style="stroke:#000000;stroke-width:0.8;" x="405.233766" xlink:href="#m2d54a73dad" y="378"/>
      </g>
     </g>
     <g id="text_5">
      <!-- 8 -->
      <defs>
       <path d="M 46.578125 19.921875 
Q 46.578125 27.734375 42.6875 32.046875 
Q 38.8125 36.375 31.78125 36.375 
Q 24.75 36.375 20.875 32.046875 
Q 17 27.734375 17 19.921875 
Q 17 12.0625 20.875 7.734375 
Q 24.75 3.421875 31.78125 3.421875 
Q 38.8125 3.421875 42.6875 7.734375 
Q 46.578125 12.0625 46.578125 19.921875 
z
M 44.578125 55.328125 
Q 44.578125 61.96875 41.203125 65.671875 
Q 37.84375 69.390625 31.78125 69.390625 
Q 25.78125 69.390625 22.390625 65.671875 
Q 19 61.96875 19 55.328125 
Q 19 48.640625 22.390625 44.921875 
Q 25.78125 41.21875 31.78125 41.21875 
Q 37.84375 41.21875 41.203125 44.921875 
Q 44.578125 48.640625 44.578125 55.328125 
z
M 39.3125 38.8125 
Q 47.609375 37.703125 52.25 32.6875 
Q 56.890625 27.6875 56.890625 19.921875 
Q 56.890625 9.671875 50.390625 4.125 
Q 43.890625 -1.421875 31.78125 -1.421875 
Q 19.734375 -1.421875 13.203125 4.125 
Q 6.6875 9.671875 6.6875 19.921875 
Q 6.6875 27.6875 11.328125 32.6875 
Q 15.96875 37.703125 24.3125 38.8125 
Q 16.9375 40.140625 13 44.40625 
Q 9.078125 48.6875 9.078125 55.328125 
Q 9.078125 64.109375 15.125 69.15625 
Q 21.1875 74.21875 31.78125 74.21875 
Q 42.390625 74.21875 48.4375 69.15625 
Q 54.5 64.109375 54.5 55.328125 
Q 54.5 48.6875 50.5625 44.40625 
Q 46.625 40.140625 39.3125 38.8125 
z
" id="DejaVuSerif-56"/>
      </defs>
      <g transform="translate(401.416266 394.118125)scale(0.12 -0.12)">
       <use xlink:href="#DejaVuSerif-56"/>
      </g>
     </g>
    </g>
    <g id="xtick_6">
     <g id="line2d_6">
      <g>
       <use style="stroke:#000000;stroke-width:0.8;" x="477.701299" xlink:href="#m2d54a73dad" y="378"/>
      </g>
     </g>
     <g id="text_6">
      <!-- 10 -->
      <defs>
       <path d="M 14.203125 0 
L 14.203125 5.171875 
L 26.90625 5.171875 
L 26.90625 65.828125 
L 12.203125 56.296875 
L 12.203125 62.703125 
L 29.984375 74.21875 
L 36.71875 74.21875 
L 36.71875 5.171875 
L 49.421875 5.171875 
L 49.421875 0 
z
" id="DejaVuSerif-49"/>
      </defs>
      <g transform="translate(470.066299 394.118125)scale(0.12 -0.12)">
       <use xlink:href="#DejaVuSerif-49"/>
       <use x="63.623047" xlink:href="#DejaVuSerif-48"/>
      </g>
     </g>
    </g>
    <g id="xtick_7">
     <g id="line2d_7">
      <g>
       <use style="stroke:#000000;stroke-width:0.8;" x="550.168831" xlink:href="#m2d54a73dad" y="378"/>
      </g>
     </g>
     <g id="text_7">
      <!-- 12 -->
      <g transform="translate(542.533831 394.118125)scale(0.12 -0.12)">
       <use xlink:href="#DejaVuSerif-49"/>
       <use x="63.623047" xlink:href="#DejaVuSerif-50"/>
      </g>
     </g>
    </g>
    <g id="xtick_8">
     <g id="line2d_8">
      <g>
       <use style="stroke:#000000;stroke-width:0.8;" x="622.636364" xlink:href="#m2d54a73dad" y="378"/>
      </g>
     </g>
     <g id="text_8">
      <!-- 14 -->
      <g transform="translate(615.001364 394.118125)scale(0.12 -0.12)">
       <use xlink:href="#DejaVuSerif-49"/>
       <use x="63.623047" xlink:href="#DejaVuSerif-52"/>
      </g>
     </g>
    </g>
    <g id="text_9">
     <!-- Time [d] -->
     <defs>
      <path d="M 19.09375 0 
L 19.09375 5.171875 
L 28.421875 5.171875 
L 28.421875 67.09375 
L 6.984375 67.09375 
L 6.984375 55.71875 
L 0.984375 55.71875 
L 0.984375 72.90625 
L 65.71875 72.90625 
L 65.71875 55.71875 
L 59.71875 55.71875 
L 59.71875 67.09375 
L 38.28125 67.09375 
L 38.28125 5.171875 
L 47.609375 5.171875 
L 47.609375 0 
z
" id="DejaVuSerif-84"/>
      <path d="M 9.71875 68.015625 
Q 9.71875 70.265625 11.34375 71.921875 
Q 12.984375 73.578125 15.28125 73.578125 
Q 17.53125 73.578125 19.15625 71.921875 
Q 20.796875 70.265625 20.796875 68.015625 
Q 20.796875 65.71875 19.1875 64.109375 
Q 17.578125 62.5 15.28125 62.5 
Q 12.984375 62.5 11.34375 64.109375 
Q 9.71875 65.71875 9.71875 68.015625 
z
M 21.1875 5.171875 
L 29.6875 5.171875 
L 29.6875 0 
L 3.609375 0 
L 3.609375 5.171875 
L 12.203125 5.171875 
L 12.203125 46.6875 
L 3.609375 46.6875 
L 3.609375 51.90625 
L 21.1875 51.90625 
z
" id="DejaVuSerif-105"/>
      <path d="M 51.8125 41.796875 
Q 54.390625 47.515625 58.421875 50.421875 
Q 62.453125 53.328125 67.828125 53.328125 
Q 75.984375 53.328125 79.984375 48.265625 
Q 83.984375 43.21875 83.984375 33.015625 
L 83.984375 5.171875 
L 92.09375 5.171875 
L 92.09375 0 
L 67.1875 0 
L 67.1875 5.171875 
L 75 5.171875 
L 75 31.984375 
Q 75 39.9375 72.65625 43.3125 
Q 70.3125 46.6875 64.890625 46.6875 
Q 58.890625 46.6875 55.734375 42.140625 
Q 52.59375 37.59375 52.59375 28.90625 
L 52.59375 5.171875 
L 60.40625 5.171875 
L 60.40625 0 
L 35.796875 0 
L 35.796875 5.171875 
L 43.609375 5.171875 
L 43.609375 32.328125 
Q 43.609375 40.09375 41.265625 43.390625 
Q 38.921875 46.6875 33.5 46.6875 
Q 27.484375 46.6875 24.328125 42.140625 
Q 21.1875 37.59375 21.1875 28.90625 
L 21.1875 5.171875 
L 29 5.171875 
L 29 0 
L 4.109375 0 
L 4.109375 5.171875 
L 12.203125 5.171875 
L 12.203125 46.78125 
L 3.609375 46.78125 
L 3.609375 51.90625 
L 21.1875 51.90625 
L 21.1875 42.671875 
Q 23.6875 47.859375 27.53125 50.59375 
Q 31.390625 53.328125 36.28125 53.328125 
Q 42.328125 53.328125 46.375 50.3125 
Q 50.4375 47.3125 51.8125 41.796875 
z
" id="DejaVuSerif-109"/>
      <path d="M 54.203125 25 
L 15.484375 25 
L 15.484375 24.609375 
Q 15.484375 14.109375 19.4375 8.765625 
Q 23.390625 3.421875 31.109375 3.421875 
Q 37.015625 3.421875 40.796875 6.515625 
Q 44.578125 9.625 46.09375 15.71875 
L 53.328125 15.71875 
Q 51.171875 7.171875 45.375 2.875 
Q 39.59375 -1.421875 30.171875 -1.421875 
Q 18.796875 -1.421875 11.890625 6.078125 
Q 4.984375 13.578125 4.984375 25.984375 
Q 4.984375 38.28125 11.765625 45.796875 
Q 18.5625 53.328125 29.59375 53.328125 
Q 41.359375 53.328125 47.65625 46.0625 
Q 53.953125 38.8125 54.203125 25 
z
M 43.609375 30.171875 
Q 43.3125 39.265625 39.765625 43.875 
Q 36.234375 48.484375 29.59375 48.484375 
Q 23.390625 48.484375 19.828125 43.84375 
Q 16.265625 39.203125 15.484375 30.171875 
z
" id="DejaVuSerif-101"/>
      <path id="DejaVuSerif-32"/>
      <path d="M 8.59375 75.984375 
L 31.296875 75.984375 
L 31.296875 70.796875 
L 17.921875 70.796875 
L 17.921875 -8.015625 
L 31.296875 -8.015625 
L 31.296875 -13.1875 
L 8.59375 -13.1875 
z
" id="DejaVuSerif-91"/>
      <path d="M 52.484375 5.171875 
L 61.078125 5.171875 
L 61.078125 0 
L 43.5 0 
L 43.5 8.109375 
Q 40.875 3.21875 36.796875 0.890625 
Q 32.71875 -1.421875 26.703125 -1.421875 
Q 17.140625 -1.421875 11.0625 6.171875 
Q 4.984375 13.765625 4.984375 25.984375 
Q 4.984375 38.1875 11.03125 45.75 
Q 17.09375 53.328125 26.703125 53.328125 
Q 32.71875 53.328125 36.796875 51 
Q 40.875 48.6875 43.5 43.796875 
L 43.5 70.796875 
L 35.015625 70.796875 
L 35.015625 75.984375 
L 52.484375 75.984375 
z
M 43.5 23.390625 
L 43.5 28.515625 
Q 43.5 37.84375 39.90625 42.765625 
Q 36.328125 47.703125 29.5 47.703125 
Q 22.5625 47.703125 19.015625 42.234375 
Q 15.484375 36.765625 15.484375 25.984375 
Q 15.484375 15.234375 19.015625 9.71875 
Q 22.5625 4.203125 29.5 4.203125 
Q 36.328125 4.203125 39.90625 9.109375 
Q 43.5 14.015625 43.5 23.390625 
z
" id="DejaVuSerif-100"/>
      <path d="M 30.421875 75.984375 
L 30.421875 -13.1875 
L 7.71875 -13.1875 
L 7.71875 -8.015625 
L 21.09375 -8.015625 
L 21.09375 70.796875 
L 7.71875 70.796875 
L 7.71875 75.984375 
z
" id="DejaVuSerif-93"/>
     </defs>
     <g transform="translate(332.744844 413.531094)scale(0.17 -0.17)">
      <use xlink:href="#DejaVuSerif-84"/>
      <use x="66.699219" xlink:href="#DejaVuSerif-105"/>
      <use x="98.681641" xlink:href="#DejaVuSerif-109"/>
      <use x="193.505859" xlink:href="#DejaVuSerif-101"/>
      <use x="252.685547" xlink:href="#DejaVuSerif-32"/>
      <use x="284.472656" xlink:href="#DejaVuSerif-91"/>
      <use x="323.486328" xlink:href="#DejaVuSerif-100"/>
      <use x="387.5" xlink:href="#DejaVuSerif-93"/>
     </g>
    </g>
   </g>
   <g id="matplotlib.axis_2">
    <g id="ytick_1">
     <g id="line2d_9">
      <defs>
       <path d="M 0 0 
L -3.5 0 
" id="m9c50ccd281" style="stroke:#000000;stroke-width:0.8;"/>
      </defs>
      <g>
       <use style="stroke:#000000;stroke-width:0.8;" x="90" xlink:href="#m9c50ccd281" y="362.468571"/>
      </g>
     </g>
     <g id="text_10">
      <!-- 0 -->
      <g transform="translate(75.365 367.027634)scale(0.12 -0.12)">
       <use xlink:href="#DejaVuSerif-48"/>
      </g>
     </g>
    </g>
    <g id="ytick_2">
     <g id="line2d_10">
      <g>
       <use style="stroke:#000000;stroke-width:0.8;" x="90" xlink:href="#m9c50ccd281" y="300.342857"/>
      </g>
     </g>
     <g id="text_11">
      <!-- 20 -->
      <g transform="translate(67.73 304.90192)scale(0.12 -0.12)">
       <use xlink:href="#DejaVuSerif-50"/>
       <use x="63.623047" xlink:href="#DejaVuSerif-48"/>
      </g>
     </g>
    </g>
    <g id="ytick_3">
     <g id="line2d_11">
      <g>
       <use style="stroke:#000000;stroke-width:0.8;" x="90" xlink:href="#m9c50ccd281" y="238.217143"/>
      </g>
     </g>
     <g id="text_12">
      <!-- 40 -->
      <g transform="translate(67.73 242.776205)scale(0.12 -0.12)">
       <use xlink:href="#DejaVuSerif-52"/>
       <use x="63.623047" xlink:href="#DejaVuSerif-48"/>
      </g>
     </g>
    </g>
    <g id="ytick_4">
     <g id="line2d_12">
      <g>
       <use style="stroke:#000000;stroke-width:0.8;" x="90" xlink:href="#m9c50ccd281" y="176.091429"/>
      </g>
     </g>
     <g id="text_13">
      <!-- 60 -->
      <g transform="translate(67.73 180.650491)scale(0.12 -0.12)">
       <use xlink:href="#DejaVuSerif-54"/>
       <use x="63.623047" xlink:href="#DejaVuSerif-48"/>
      </g>
     </g>
    </g>
    <g id="ytick_5">
     <g id="line2d_13">
      <g>
       <use style="stroke:#000000;stroke-width:0.8;" x="90" xlink:href="#m9c50ccd281" y="113.965714"/>
      </g>
     </g>
     <g id="text_14">
      <!-- 80 -->
      <g transform="translate(67.73 118.524777)scale(0.12 -0.12)">
       <use xlink:href="#DejaVuSerif-56"/>
       <use x="63.623047" xlink:href="#DejaVuSerif-48"/>
      </g>
     </g>
    </g>
    <g id="ytick_6">
     <g id="line2d_14">
      <g>
       <use style="stroke:#000000;stroke-width:0.8;" x="90" xlink:href="#m9c50ccd281" y="51.84"/>
      </g>
     </g>
     <g id="text_15">
      <!-- 100 -->
      <g transform="translate(60.095 56.399062)scale(0.12 -0.12)">
       <use xlink:href="#DejaVuSerif-49"/>
       <use x="63.623047" xlink:href="#DejaVuSerif-48"/>
       <use x="127.246094" xlink:href="#DejaVuSerif-48"/>
      </g>
     </g>
    </g>
    <g id="text_16">
     <!-- BPS in maternal blood [ng/ml] -->
     <defs>
      <path d="M 24.703125 5.171875 
L 39.3125 5.171875 
Q 48.09375 5.171875 52.140625 8.984375 
Q 56.203125 12.796875 56.203125 21.09375 
Q 56.203125 29.34375 52.171875 33.125 
Q 48.140625 36.921875 39.3125 36.921875 
L 24.703125 36.921875 
z
M 24.703125 42.09375 
L 37.109375 42.09375 
Q 45.125 42.09375 48.796875 45.171875 
Q 52.484375 48.25 52.484375 54.890625 
Q 52.484375 61.578125 48.796875 64.625 
Q 45.125 67.671875 37.109375 67.671875 
L 24.703125 67.671875 
z
M 5.515625 0 
L 5.515625 5.171875 
L 14.796875 5.171875 
L 14.796875 67.671875 
L 5.515625 67.671875 
L 5.515625 72.90625 
L 41.5 72.90625 
Q 52.546875 72.90625 58.125 68.390625 
Q 63.71875 63.875 63.71875 54.890625 
Q 63.71875 48.390625 59.828125 44.53125 
Q 55.953125 40.671875 48.484375 39.796875 
Q 57.765625 38.625 62.578125 33.859375 
Q 67.390625 29.109375 67.390625 21.09375 
Q 67.390625 10.25 60.546875 5.125 
Q 53.71875 0 39.203125 0 
z
" id="DejaVuSerif-66"/>
      <path d="M 24.703125 37.109375 
L 37.59375 37.109375 
Q 44.875 37.109375 48.671875 41.03125 
Q 52.484375 44.96875 52.484375 52.390625 
Q 52.484375 59.859375 48.671875 63.765625 
Q 44.875 67.671875 37.59375 67.671875 
L 24.703125 67.671875 
z
M 5.515625 0 
L 5.515625 5.171875 
L 14.796875 5.171875 
L 14.796875 67.671875 
L 5.515625 67.671875 
L 5.515625 72.90625 
L 39.984375 72.90625 
Q 50.921875 72.90625 57.3125 67.359375 
Q 63.71875 61.8125 63.71875 52.390625 
Q 63.71875 43.015625 57.3125 37.453125 
Q 50.921875 31.890625 39.984375 31.890625 
L 24.703125 31.890625 
L 24.703125 5.171875 
L 35.984375 5.171875 
L 35.984375 0 
z
" id="DejaVuSerif-80"/>
      <path d="M 9.28125 3.515625 
L 9.28125 20.125 
L 14.890625 20.0625 
Q 15.140625 11.765625 19.703125 7.78125 
Q 24.265625 3.8125 33.59375 3.8125 
Q 42.28125 3.8125 46.84375 7.25 
Q 51.421875 10.6875 51.421875 17.28125 
Q 51.421875 22.5625 48.65625 25.390625 
Q 45.90625 28.21875 37.015625 30.90625 
L 27.390625 33.796875 
Q 16.9375 36.96875 12.671875 41.703125 
Q 8.40625 46.4375 8.40625 54.6875 
Q 8.40625 63.96875 14.984375 69.09375 
Q 21.578125 74.21875 33.5 74.21875 
Q 38.578125 74.21875 44.625 73.109375 
Q 50.6875 72.015625 57.515625 69.921875 
L 57.515625 54.390625 
L 52 54.390625 
Q 51.171875 62.109375 46.84375 65.546875 
Q 42.53125 69 33.6875 69 
Q 25.984375 69 21.953125 65.84375 
Q 17.921875 62.703125 17.921875 56.6875 
Q 17.921875 51.46875 20.9375 48.484375 
Q 23.96875 45.515625 33.796875 42.578125 
L 42.828125 39.890625 
Q 52.734375 36.921875 56.953125 32.296875 
Q 61.1875 27.6875 61.1875 19.921875 
Q 61.1875 9.328125 54.390625 3.953125 
Q 47.609375 -1.421875 34.1875 -1.421875 
Q 28.171875 -1.421875 21.9375 -0.1875 
Q 15.71875 1.03125 9.28125 3.515625 
z
" id="DejaVuSerif-83"/>
      <path d="M 4.109375 0 
L 4.109375 5.171875 
L 12.203125 5.171875 
L 12.203125 46.6875 
L 3.609375 46.6875 
L 3.609375 51.90625 
L 21.1875 51.90625 
L 21.1875 42.671875 
Q 23.6875 47.953125 27.65625 50.640625 
Q 31.640625 53.328125 36.921875 53.328125 
Q 45.515625 53.328125 49.5625 48.390625 
Q 53.609375 43.453125 53.609375 33.015625 
L 53.609375 5.171875 
L 61.625 5.171875 
L 61.625 0 
L 36.8125 0 
L 36.8125 5.171875 
L 44.578125 5.171875 
L 44.578125 30.171875 
Q 44.578125 39.703125 42.234375 43.234375 
Q 39.890625 46.78125 33.984375 46.78125 
Q 27.734375 46.78125 24.453125 42.203125 
Q 21.1875 37.640625 21.1875 28.90625 
L 21.1875 5.171875 
L 29 5.171875 
L 29 0 
z
" id="DejaVuSerif-110"/>
      <path d="M 39.796875 16.3125 
L 39.796875 27.296875 
L 28.21875 27.296875 
Q 21.53125 27.296875 18.25 24.40625 
Q 14.984375 21.53125 14.984375 15.578125 
Q 14.984375 10.15625 18.296875 6.984375 
Q 21.625 3.8125 27.296875 3.8125 
Q 32.90625 3.8125 36.34375 7.28125 
Q 39.796875 10.75 39.796875 16.3125 
z
M 48.78125 32.421875 
L 48.78125 5.171875 
L 56.78125 5.171875 
L 56.78125 0 
L 39.796875 0 
L 39.796875 5.609375 
Q 36.8125 2 32.90625 0.28125 
Q 29 -1.421875 23.78125 -1.421875 
Q 15.140625 -1.421875 10.0625 3.171875 
Q 4.984375 7.765625 4.984375 15.578125 
Q 4.984375 23.640625 10.796875 28.078125 
Q 16.609375 32.515625 27.203125 32.515625 
L 39.796875 32.515625 
L 39.796875 36.078125 
Q 39.796875 42 36.203125 45.234375 
Q 32.625 48.484375 26.125 48.484375 
Q 20.75 48.484375 17.578125 46.046875 
Q 14.40625 43.609375 13.625 38.8125 
L 8.984375 38.8125 
L 8.984375 49.3125 
Q 13.671875 51.3125 18.09375 52.3125 
Q 22.515625 53.328125 26.703125 53.328125 
Q 37.5 53.328125 43.140625 47.96875 
Q 48.78125 42.625 48.78125 32.421875 
z
" id="DejaVuSerif-97"/>
      <path d="M 10.796875 46.6875 
L 2.875 46.6875 
L 2.875 51.90625 
L 10.796875 51.90625 
L 10.796875 68.015625 
L 19.828125 68.015625 
L 19.828125 51.90625 
L 36.71875 51.90625 
L 36.71875 46.6875 
L 19.828125 46.6875 
L 19.828125 13.71875 
Q 19.828125 7.125 21.09375 5.265625 
Q 22.359375 3.421875 25.78125 3.421875 
Q 29.296875 3.421875 30.90625 5.484375 
Q 32.515625 7.5625 32.625 12.203125 
L 39.40625 12.203125 
Q 39.015625 5.125 35.546875 1.84375 
Q 32.078125 -1.421875 25 -1.421875 
Q 17.234375 -1.421875 14.015625 2.015625 
Q 10.796875 5.46875 10.796875 13.71875 
z
" id="DejaVuSerif-116"/>
      <path d="M 47.796875 52 
L 47.796875 39.015625 
L 42.625 39.015625 
Q 42.390625 42.875 40.484375 44.78125 
Q 38.578125 46.6875 34.90625 46.6875 
Q 28.265625 46.6875 24.71875 42.09375 
Q 21.1875 37.5 21.1875 28.90625 
L 21.1875 5.171875 
L 31.59375 5.171875 
L 31.59375 0 
L 4.109375 0 
L 4.109375 5.171875 
L 12.203125 5.171875 
L 12.203125 46.78125 
L 3.609375 46.78125 
L 3.609375 51.90625 
L 21.1875 51.90625 
L 21.1875 42.671875 
Q 23.828125 48.09375 27.96875 50.703125 
Q 32.125 53.328125 38.09375 53.328125 
Q 40.28125 53.328125 42.703125 52.984375 
Q 45.125 52.640625 47.796875 52 
z
" id="DejaVuSerif-114"/>
      <path d="M 20.515625 5.171875 
L 29 5.171875 
L 29 0 
L 2.875 0 
L 2.875 5.171875 
L 11.53125 5.171875 
L 11.53125 70.796875 
L 2.875 70.796875 
L 2.875 75.984375 
L 20.515625 75.984375 
z
" id="DejaVuSerif-108"/>
      <path d="M 11.53125 5.171875 
L 11.53125 70.796875 
L 2.875 70.796875 
L 2.875 75.984375 
L 20.515625 75.984375 
L 20.515625 43.796875 
Q 23.140625 48.6875 27.21875 51 
Q 31.296875 53.328125 37.3125 53.328125 
Q 46.875 53.328125 52.921875 45.75 
Q 58.984375 38.1875 58.984375 25.984375 
Q 58.984375 13.765625 52.921875 6.171875 
Q 46.875 -1.421875 37.3125 -1.421875 
Q 31.296875 -1.421875 27.21875 0.890625 
Q 23.140625 3.21875 20.515625 8.109375 
L 20.515625 0 
L 2.875 0 
L 2.875 5.171875 
z
M 20.515625 23.390625 
Q 20.515625 14.015625 24.09375 9.109375 
Q 27.6875 4.203125 34.515625 4.203125 
Q 41.40625 4.203125 44.9375 9.71875 
Q 48.484375 15.234375 48.484375 25.984375 
Q 48.484375 36.765625 44.9375 42.234375 
Q 41.40625 47.703125 34.515625 47.703125 
Q 27.6875 47.703125 24.09375 42.765625 
Q 20.515625 37.84375 20.515625 28.515625 
z
" id="DejaVuSerif-98"/>
      <path d="M 30.078125 3.421875 
Q 37.3125 3.421875 40.984375 9.125 
Q 44.671875 14.84375 44.671875 25.984375 
Q 44.671875 37.109375 40.984375 42.796875 
Q 37.3125 48.484375 30.078125 48.484375 
Q 22.859375 48.484375 19.171875 42.796875 
Q 15.484375 37.109375 15.484375 25.984375 
Q 15.484375 14.84375 19.1875 9.125 
Q 22.90625 3.421875 30.078125 3.421875 
z
M 30.078125 -1.421875 
Q 18.75 -1.421875 11.859375 6.078125 
Q 4.984375 13.578125 4.984375 25.984375 
Q 4.984375 38.375 11.84375 45.84375 
Q 18.703125 53.328125 30.078125 53.328125 
Q 41.453125 53.328125 48.3125 45.84375 
Q 55.171875 38.375 55.171875 25.984375 
Q 55.171875 13.578125 48.3125 6.078125 
Q 41.453125 -1.421875 30.078125 -1.421875 
z
" id="DejaVuSerif-111"/>
      <path d="M 52.484375 46.6875 
L 52.484375 1.125 
Q 52.484375 -10.0625 46.328125 -16.140625 
Q 40.1875 -22.21875 28.8125 -22.21875 
Q 23.6875 -22.21875 19 -21.28125 
Q 14.3125 -20.359375 10.015625 -18.5 
L 10.015625 -7.625 
L 14.703125 -7.625 
Q 15.578125 -12.703125 18.84375 -15.046875 
Q 22.125 -17.390625 28.21875 -17.390625 
Q 36.140625 -17.390625 39.8125 -12.921875 
Q 43.5 -8.453125 43.5 1.125 
L 43.5 8.109375 
Q 40.875 3.21875 36.796875 0.890625 
Q 32.71875 -1.421875 26.703125 -1.421875 
Q 17.140625 -1.421875 11.0625 6.171875 
Q 4.984375 13.765625 4.984375 25.984375 
Q 4.984375 38.1875 11.03125 45.75 
Q 17.09375 53.328125 26.703125 53.328125 
Q 32.71875 53.328125 36.796875 51 
Q 40.875 48.6875 43.5 43.796875 
L 43.5 51.90625 
L 61.078125 51.90625 
L 61.078125 46.6875 
z
M 43.5 28.515625 
Q 43.5 37.84375 39.90625 42.765625 
Q 36.328125 47.703125 29.5 47.703125 
Q 22.5625 47.703125 19.015625 42.234375 
Q 15.484375 36.765625 15.484375 25.984375 
Q 15.484375 15.234375 19.015625 9.71875 
Q 22.5625 4.203125 29.5 4.203125 
Q 36.328125 4.203125 39.90625 9.109375 
Q 43.5 14.015625 43.5 23.390625 
z
" id="DejaVuSerif-103"/>
      <path d="M 25.875 72.90625 
L 33.6875 72.90625 
L 7.8125 -9.28125 
L 0 -9.28125 
z
" id="DejaVuSerif-47"/>
     </defs>
     <g transform="translate(52.317812 345.632734)rotate(-90)scale(0.17 -0.17)">
      <use xlink:href="#DejaVuSerif-66"/>
      <use x="73.486328" xlink:href="#DejaVuSerif-80"/>
      <use x="140.771484" xlink:href="#DejaVuSerif-83"/>
      <use x="209.277344" xlink:href="#DejaVuSerif-32"/>
      <use x="241.064453" xlink:href="#DejaVuSerif-105"/>
      <use x="273.046875" xlink:href="#DejaVuSerif-110"/>
      <use x="337.451172" xlink:href="#DejaVuSerif-32"/>
      <use x="369.238281" xlink:href="#DejaVuSerif-109"/>
      <use x="464.0625" xlink:href="#DejaVuSerif-97"/>
      <use x="523.681641" xlink:href="#DejaVuSerif-116"/>
      <use x="563.867188" xlink:href="#DejaVuSerif-101"/>
      <use x="623.046875" xlink:href="#DejaVuSerif-114"/>
      <use x="670.849609" xlink:href="#DejaVuSerif-110"/>
      <use x="735.253906" xlink:href="#DejaVuSerif-97"/>
      <use x="794.873047" xlink:href="#DejaVuSerif-108"/>
      <use x="826.855469" xlink:href="#DejaVuSerif-32"/>
      <use x="858.642578" xlink:href="#DejaVuSerif-98"/>
      <use x="922.65625" xlink:href="#DejaVuSerif-108"/>
      <use x="954.638672" xlink:href="#DejaVuSerif-111"/>
      <use x="1014.84375" xlink:href="#DejaVuSerif-111"/>
      <use x="1075.048828" xlink:href="#DejaVuSerif-100"/>
      <use x="1139.0625" xlink:href="#DejaVuSerif-32"/>
      <use x="1170.849609" xlink:href="#DejaVuSerif-91"/>
      <use x="1209.863281" xlink:href="#DejaVuSerif-110"/>
      <use x="1274.267578" xlink:href="#DejaVuSerif-103"/>
      <use x="1338.28125" xlink:href="#DejaVuSerif-47"/>
      <use x="1371.972656" xlink:href="#DejaVuSerif-109"/>
      <use x="1466.796875" xlink:href="#DejaVuSerif-108"/>
      <use x="1498.779297" xlink:href="#DejaVuSerif-93"/>
     </g>
    </g>
   </g>
   <g id="line2d_15">
    <path clip-path="url(#pe19aee2268)" d="M 115.363636 362.468571 
L 116.378182 238.078614 
L 116.885455 197.241371 
L 117.392727 168.464539 
L 117.9 149.125099 
L 118.407273 137.11089 
L 118.914545 130.755833 
L 119.168182 129.2736 
L 119.421818 128.731749 
L 119.675455 129.008165 
L 119.929091 129.993897 
L 120.436364 133.715675 
L 121.197273 142.518356 
L 122.211818 157.86634 
L 127.284545 240.450686 
L 128.806364 260.126488 
L 130.328182 276.934628 
L 131.85 291.130864 
L 133.371818 303.046725 
L 134.893636 313.01438 
L 136.415455 321.331711 
L 137.937273 328.25833 
L 139.459091 334.021733 
L 140.980909 338.817234 
L 142.502727 342.806226 
L 144.024545 346.122673 
L 145.546364 348.879519 
L 147.068182 351.17155 
L 148.59 353.077004 
L 150.111818 354.660745 
L 151.38 355.774237 
L 151.633636 351.673909 
L 152.648182 228.931514 
L 153.155455 189.405098 
L 153.662727 161.70188 
L 154.17 143.257743 
L 154.677273 131.988135 
L 155.184545 126.25297 
L 155.438182 125.043371 
L 155.691818 124.751252 
L 155.945455 125.256178 
L 156.199091 126.450256 
L 156.706364 130.539771 
L 157.467273 139.805394 
L 158.481818 155.632614 
L 163.300909 235.810885 
L 164.822727 256.181704 
L 166.344545 273.60354 
L 167.866364 288.33505 
L 169.388182 300.711024 
L 170.91 311.063266 
L 172.431818 319.702718 
L 173.953636 326.902212 
L 175.475455 332.894723 
L 176.997273 337.878951 
L 178.519091 342.023885 
L 180.040909 345.470819 
L 181.562727 348.336635 
L 183.084545 350.718787 
L 184.606364 352.698975 
L 186.128182 354.3451 
L 187.65 355.713408 
L 187.903636 347.494085 
L 188.664545 250.19616 
L 189.425455 186.994442 
L 189.932727 160.034005 
L 190.44 142.169747 
L 190.947273 131.349029 
L 191.454545 125.959232 
L 191.708182 124.890313 
L 191.961818 124.720701 
L 192.215455 125.332013 
L 192.469091 126.618558 
L 192.976364 130.854457 
L 193.737273 140.261904 
L 194.751818 156.191001 
L 199.317273 232.62272 
L 200.839091 253.425748 
L 202.360909 271.259371 
L 203.882727 286.361129 
L 205.404545 299.055261 
L 206.926364 309.681227 
L 208.448182 318.550583 
L 209.97 325.939454 
L 211.491818 332.090498 
L 213.013636 337.209342 
L 214.535455 341.46662 
L 216.057273 345.006083 
L 217.579091 347.948847 
L 219.100909 350.395447 
L 220.622727 352.429126 
L 222.144545 354.119498 
L 223.92 355.734602 
L 224.173636 342.940712 
L 224.934545 246.426368 
L 225.695455 184.709693 
L 226.202727 158.475639 
L 226.71 141.177204 
L 227.217273 130.793773 
L 227.724545 125.738828 
L 227.978182 124.806242 
L 228.231818 124.756577 
L 228.485455 125.472338 
L 228.992727 128.795666 
L 229.5 134.078076 
L 230.260909 144.522074 
L 231.529091 165.530596 
L 234.826364 221.656459 
L 236.348182 243.893302 
L 237.87 263.126023 
L 239.391818 279.492775 
L 240.913636 293.284866 
L 242.435455 304.853239 
L 243.957273 314.519854 
L 245.479091 322.580388 
L 247.000909 329.295355 
L 248.522727 334.884752 
L 250.044545 339.533217 
L 251.566364 343.39708 
L 253.088182 346.609224 
L 254.61 349.280317 
L 256.131818 351.501194 
L 257.653636 353.347138 
L 259.175455 354.881364 
L 260.19 355.757526 
L 260.443636 338.04578 
L 261.204545 242.742041 
L 261.711818 199.26914 
L 262.219091 168.483729 
L 262.726364 147.630897 
L 263.233636 134.500826 
L 263.740909 127.333812 
L 263.994545 125.540507 
L 264.248182 124.741794 
L 264.501818 124.80836 
L 264.755455 125.624615 
L 265.262727 129.109168 
L 265.77 134.509362 
L 266.530909 145.068207 
L 268.052727 170.607218 
L 270.842727 218.234258 
L 272.618182 244.380041 
L 274.14 263.54201 
L 275.661818 279.8434 
L 277.183636 293.578876 
L 278.705455 305.098429 
L 280.227273 314.723523 
L 281.749091 322.748376 
L 283.270909 329.43228 
L 284.792727 334.995853 
L 286.314545 339.624287 
L 287.836364 343.472832 
L 289.358182 346.672301 
L 290.88 349.332247 
L 292.401818 351.543507 
L 293.923636 353.381531 
L 295.445455 354.909284 
L 296.46 355.781702 
L 296.713636 332.956146 
L 297.474545 239.141134 
L 297.981818 196.681086 
L 298.489091 166.688155 
L 298.996364 146.455321 
L 299.503636 133.80442 
L 300.010909 127.006243 
L 300.264545 125.363606 
L 300.518182 124.696135 
L 300.771818 124.876574 
L 301.025455 125.791229 
L 301.532727 129.43336 
L 302.04 134.948583 
L 302.800909 145.619314 
L 304.322727 171.240308 
L 307.112727 218.802577 
L 308.888182 244.866056 
L 310.41 263.957461 
L 311.931818 280.193783 
L 313.453636 293.872658 
L 314.975455 305.343522 
L 316.497273 314.927253 
L 318.019091 322.917318 
L 319.540909 329.571982 
L 321.062727 335.111205 
L 322.584545 339.719507 
L 324.106364 343.551364 
L 325.628182 346.736847 
L 327.15 349.385108 
L 328.671818 351.586712 
L 330.193636 353.416734 
L 331.715455 354.937815 
L 332.73 355.80641 
L 334.251818 194.157083 
L 334.759091 164.942682 
L 335.266364 145.318859 
L 335.773636 133.13842 
L 336.280909 126.702335 
L 336.534545 125.207234 
L 336.788182 124.668425 
L 337.041818 124.960443 
L 337.295455 125.971464 
L 337.802727 129.767735 
L 338.563636 138.731046 
L 339.578182 154.356328 
L 344.650909 238.344806 
L 346.172727 258.35881 
L 347.694545 275.453464 
L 349.216364 289.886497 
L 350.738182 302.004808 
L 352.26 312.140161 
L 353.781818 320.594152 
L 355.303636 327.636758 
L 356.825455 333.499885 
L 358.347273 338.378661 
L 359.869091 342.436025 
L 361.390909 345.809064 
L 362.912727 348.61311 
L 364.434545 350.944289 
L 365.956364 352.882159 
L 367.478182 354.492874 
L 369 355.831709 
L 370.014545 232.182266 
L 370.521818 191.697722 
L 371.029091 163.246708 
L 371.536364 144.220122 
L 372.043636 132.501284 
L 372.550909 126.420857 
L 372.804545 125.07101 
L 373.058182 124.657307 
L 373.311818 125.056886 
L 373.565455 126.160949 
L 374.072727 130.105427 
L 374.833636 139.220782 
L 375.848182 154.949903 
L 380.667273 235.232757 
L 382.189091 255.675622 
L 383.710909 273.169239 
L 385.232727 287.966577 
L 386.754545 300.397058 
L 388.276364 310.797274 
L 389.798182 319.476023 
L 391.32 326.706772 
L 392.841818 332.726022 
L 394.363636 337.733952 
L 395.885455 341.898789 
L 397.407273 345.361777 
L 398.929091 348.240891 
L 400.450909 350.634323 
L 401.972727 352.623814 
L 403.494545 354.277452 
L 405.016364 355.651987 
L 405.27 351.554221 
L 406.284545 228.821321 
L 406.791818 189.299279 
L 407.299091 161.599494 
L 407.806364 143.159428 
L 408.313636 131.893972 
L 408.820909 126.162418 
L 409.074545 124.954444 
L 409.328182 124.664052 
L 409.581818 125.170622 
L 409.835455 126.367056 
L 410.342727 130.459226 
L 411.103636 139.722961 
L 412.118182 155.553777 
L 416.937273 235.751681 
L 418.459091 256.122627 
L 419.980909 273.548679 
L 421.502727 288.285706 
L 423.024545 300.66404 
L 424.546364 311.019843 
L 426.068182 319.661083 
L 427.59 326.860421 
L 429.111818 332.85343 
L 430.633636 337.839472 
L 432.155455 341.986075 
L 433.677273 345.433901 
L 435.199091 348.300403 
L 436.720909 350.683346 
L 438.242727 352.664115 
L 439.764545 354.310516 
L 441.286364 355.679033 
L 441.54 347.459778 
L 442.300909 250.162068 
L 443.061818 186.960572 
L 443.569091 160.000046 
L 444.076364 142.136032 
L 444.583636 131.315611 
L 445.090909 125.926025 
L 445.344545 124.85716 
L 445.598182 124.687645 
L 445.851818 125.299045 
L 446.105455 126.585884 
L 446.612727 130.822534 
L 447.373636 140.231001 
L 448.388182 156.160365 
L 452.953636 232.591711 
L 454.475455 253.394477 
L 455.997273 271.228504 
L 457.519091 286.33036 
L 459.040909 299.024672 
L 460.562727 309.649743 
L 462.084545 318.518453 
L 463.606364 325.908473 
L 465.128182 332.060817 
L 466.65 337.179786 
L 468.171818 341.437135 
L 469.693636 344.977105 
L 471.215455 347.920265 
L 472.737273 350.366974 
L 474.259091 352.400771 
L 475.780909 354.091239 
L 477.556364 355.706373 
L 477.81 342.91251 
L 478.570909 246.398269 
L 479.331818 184.681713 
L 479.839091 158.447616 
L 480.346364 141.149331 
L 480.853636 130.766067 
L 481.360909 125.71124 
L 481.614545 124.778664 
L 481.868182 124.729029 
L 482.121818 125.444874 
L 482.629091 128.768303 
L 483.136364 134.05117 
L 483.897273 144.495176 
L 485.165455 165.503706 
L 488.462727 221.629837 
L 489.984545 243.866887 
L 491.506364 263.09928 
L 493.028182 279.465879 
L 494.55 293.258812 
L 496.071818 304.827428 
L 497.593636 314.494271 
L 499.115455 322.554095 
L 500.637273 329.266857 
L 502.159091 334.854686 
L 503.680909 339.503856 
L 505.202727 343.369952 
L 506.724545 346.583792 
L 508.246364 349.255468 
L 509.768182 351.476613 
L 511.29 353.323001 
L 512.811818 354.857667 
L 513.826364 355.734002 
L 514.08 338.022274 
L 514.840909 242.718613 
L 515.348182 199.245765 
L 515.855455 168.460365 
L 516.362727 147.60757 
L 516.87 134.477624 
L 517.377273 127.31073 
L 517.630909 125.517431 
L 517.884545 124.718727 
L 518.138182 124.785316 
L 518.391818 125.601627 
L 518.899091 129.086292 
L 519.406364 134.486707 
L 520.167273 145.045557 
L 521.689091 170.584625 
L 524.479091 218.211863 
L 526.254545 244.357831 
L 527.776364 263.519651 
L 529.298182 279.821058 
L 530.82 293.557025 
L 532.341818 305.076742 
L 533.863636 314.70202 
L 535.385455 322.726916 
L 536.907273 329.41046 
L 538.429091 334.973902 
L 539.950909 339.602731 
L 541.472727 343.451895 
L 542.994545 346.651641 
L 544.516364 349.311603 
L 546.038182 351.523011 
L 547.56 353.361304 
L 549.081818 354.889241 
L 550.096364 355.761735 
L 550.35 332.936199 
L 551.110909 239.121264 
L 551.618182 196.661267 
L 552.125455 166.668365 
L 552.632727 146.435573 
L 553.14 133.784766 
L 553.647273 126.98666 
L 553.900909 125.344058 
L 554.154545 124.676599 
L 554.408182 124.857061 
L 554.661818 125.771758 
L 555.169091 129.413983 
L 555.676364 134.929354 
L 556.437273 145.600102 
L 557.959091 171.221179 
L 560.749091 218.783648 
L 562.524545 244.84729 
L 564.046364 263.938631 
L 565.568182 280.175023 
L 567.09 293.854237 
L 568.611818 305.325232 
L 570.133636 314.909118 
L 571.655455 322.899234 
L 573.177273 329.553687 
L 574.699091 335.092845 
L 576.220909 339.701427 
L 577.742727 343.533727 
L 579.264545 346.71944 
L 580.786364 349.367737 
L 582.308182 351.569451 
L 583.83 353.399683 
L 585.351818 354.920919 
L 586.366364 355.789588 
L 587.888182 194.140383 
L 588.395455 164.926001 
L 588.902727 145.302225 
L 589.41 133.121855 
L 589.917273 126.685823 
L 590.170909 125.190755 
L 590.424545 124.651957 
L 590.678182 124.943991 
L 590.931818 125.955043 
L 591.439091 129.751392 
L 592.2 138.714819 
L 593.214545 154.340124 
L 598.287273 238.328939 
L 599.809091 258.342999 
L 601.330909 275.437625 
L 602.852727 289.870893 
L 604.374545 301.989362 
L 605.896364 312.124821 
L 607.418182 320.578917 
L 608.94 327.621471 
L 610.461818 333.48449 
L 611.983636 338.363394 
L 613.505455 342.421075 
L 615.027273 345.794321 
L 616.549091 348.598453 
L 618.070909 350.929705 
L 619.592727 352.867725 
L 621.114545 354.478599 
L 622.636364 355.817526 
L 622.636364 355.817526 
" style="fill:none;stroke:#0f2080;stroke-linecap:square;stroke-width:3;"/>
   </g>
   <g id="line2d_16">
    <path clip-path="url(#pe19aee2268)" d="M 115.363636 362.468571 
L 115.617273 352.915859 
L 115.870909 352.823369 
L 118.660909 355.579646 
L 120.436364 356.916417 
L 122.211818 357.993783 
L 124.240909 358.971527 
L 126.523636 359.818554 
L 129.06 360.521344 
L 132.103636 361.123247 
L 135.654545 361.594615 
L 140.22 361.966609 
L 146.560909 362.236122 
L 151.38 362.339027 
L 151.633636 358.447843 
L 151.887273 352.685133 
L 152.140909 352.735305 
L 154.17 354.853177 
L 155.945455 356.33087 
L 157.720909 357.521814 
L 159.75 358.602635 
L 162.032727 359.538961 
L 164.569091 360.31584 
L 167.359091 360.934662 
L 170.656364 361.440863 
L 174.968182 361.859762 
L 180.548182 362.159277 
L 187.65 362.337788 
L 188.157273 352.631348 
L 188.410909 352.772299 
L 190.186364 354.647949 
L 191.961818 356.165424 
L 193.737273 357.388433 
L 195.766364 358.498354 
L 198.049091 359.459889 
L 200.585455 360.257687 
L 203.375455 360.893172 
L 206.672727 361.413 
L 210.730909 361.823627 
L 216.057273 362.130602 
L 223.92 362.338147 
L 224.173636 354.753562 
L 224.427273 352.613646 
L 224.934545 353.100836 
L 226.456364 354.682095 
L 228.231818 356.192907 
L 230.007273 357.410545 
L 232.036364 358.515593 
L 234.319091 359.472908 
L 236.855455 360.267204 
L 239.645455 360.899898 
L 242.942727 361.41745 
L 247.000909 361.826282 
L 252.327273 362.131906 
L 260.19 362.338547 
L 260.443636 353.865331 
L 260.697273 352.61777 
L 261.711818 353.699142 
L 263.233636 355.179492 
L 265.009091 356.593753 
L 266.784545 357.733576 
L 268.813636 358.768004 
L 271.096364 359.66414 
L 273.632727 360.407676 
L 276.676364 361.044479 
L 280.227273 361.543186 
L 284.792727 361.936759 
L 290.88 362.214224 
L 296.46 362.338978 
L 296.713636 353.317523 
L 296.967273 352.636056 
L 300.264545 355.852175 
L 302.04 357.135876 
L 304.069091 358.300881 
L 306.098182 359.211318 
L 308.380909 360.000038 
L 311.170909 360.709471 
L 314.468182 361.289796 
L 318.272727 361.725706 
L 323.345455 362.066975 
L 330.447273 362.298489 
L 332.73 362.339424 
L 332.983636 352.98531 
L 333.237273 352.663411 
L 335.773636 355.243134 
L 337.549091 356.644998 
L 339.324545 357.77483 
L 341.353636 358.800191 
L 343.636364 359.688473 
L 346.172727 360.425493 
L 349.216364 361.056717 
L 352.767273 361.551056 
L 357.332727 361.941183 
L 363.42 362.216221 
L 369 362.339887 
L 369.253636 352.790228 
L 369.507273 352.696388 
L 371.536364 354.817492 
L 373.311818 356.301935 
L 375.087273 357.498322 
L 377.116364 358.584085 
L 379.399091 359.524693 
L 381.935455 360.305131 
L 384.725455 360.926788 
L 388.022727 361.435311 
L 392.334545 361.85614 
L 397.914545 362.157045 
L 405.016364 362.336385 
L 405.27 358.445251 
L 405.523636 352.682589 
L 405.777273 352.732809 
L 407.806364 354.851011 
L 409.581818 356.328935 
L 411.357273 357.520068 
L 413.386364 358.601062 
L 415.669091 359.537539 
L 418.205455 360.314549 
L 420.995455 360.933477 
L 424.292727 361.439767 
L 428.604545 361.858749 
L 434.184545 362.158334 
L 441.286364 362.33689 
L 441.793636 352.630453 
L 442.047273 352.771405 
L 443.822727 354.647068 
L 445.598182 356.164554 
L 447.373636 357.387572 
L 449.402727 358.497504 
L 451.685455 359.45905 
L 454.221818 360.25686 
L 457.011818 360.892357 
L 460.309091 361.412201 
L 464.367273 361.822846 
L 469.693636 362.129841 
L 477.556364 362.337403 
L 477.81 354.752818 
L 478.063636 352.612904 
L 478.570909 353.100096 
L 480.092727 354.681361 
L 481.868182 356.192181 
L 483.643636 357.409826 
L 485.672727 358.514881 
L 487.955455 359.472205 
L 490.491818 360.266509 
L 493.281818 360.899213 
L 496.579091 361.416776 
L 500.637273 361.825618 
L 505.963636 362.131262 
L 513.826364 362.337927 
L 514.08 353.864711 
L 514.333636 352.617151 
L 515.348182 353.698526 
L 516.87 355.17888 
L 518.645455 356.593146 
L 520.420909 357.732974 
L 522.45 358.767408 
L 524.732727 359.66355 
L 527.269091 360.407093 
L 530.312727 361.043904 
L 533.863636 361.542621 
L 538.429091 361.936204 
L 544.516364 362.213684 
L 550.096364 362.338452 
L 550.35 353.316998 
L 550.603636 352.635531 
L 553.900909 355.851659 
L 555.676364 357.135365 
L 557.705455 358.300375 
L 559.734545 359.210817 
L 562.017273 359.999542 
L 564.807273 360.708982 
L 568.104545 361.289315 
L 571.909091 361.725233 
L 576.981818 362.066511 
L 584.083636 362.29804 
L 586.366364 362.338981 
L 586.62 352.984867 
L 586.873636 352.662969 
L 589.41 355.242697 
L 591.185455 356.644565 
L 592.960909 357.7744 
L 594.99 358.799766 
L 597.272727 359.688053 
L 599.809091 360.425078 
L 602.852727 361.056308 
L 606.403636 361.550653 
L 610.969091 361.940788 
L 617.056364 362.215837 
L 622.636364 362.339513 
L 622.636364 362.339513 
" style="fill:none;stroke:#f57938;stroke-linecap:square;stroke-width:3;"/>
   </g>
   <g id="line2d_17">
    <path clip-path="url(#pe19aee2268)" d="M 115.363636 362.468571 
L 115.617273 338.57339 
L 116.378182 247.16968 
L 116.885455 205.788937 
L 117.392727 176.501156 
L 117.9 156.681318 
L 118.407273 144.215428 
L 118.914545 137.43569 
L 119.168182 135.750734 
L 119.421818 135.012312 
L 119.675455 135.098123 
L 119.929091 135.899034 
L 120.436364 139.267829 
L 120.943636 144.463338 
L 121.704545 154.587167 
L 123.226364 179.045519 
L 126.016364 224.611943 
L 127.791818 249.609911 
L 129.313636 267.926012 
L 130.835455 283.510948 
L 132.357273 296.643702 
L 133.879091 307.654504 
L 135.400909 316.858201 
L 136.922727 324.532663 
L 138.444545 330.921129 
L 139.966364 336.236825 
L 141.488182 340.659696 
L 143.01 344.33818 
L 144.531818 347.396101 
L 146.053636 349.938195 
L 147.575455 352.051719 
L 149.097273 353.808645 
L 150.872727 355.487066 
L 151.38 355.903781 
L 151.633636 355.694638 
L 152.901818 216.38462 
L 153.409091 182.602063 
L 153.916364 159.318051 
L 154.423636 144.222102 
L 154.930909 135.459674 
L 155.438182 131.571267 
L 155.691818 131.081045 
L 155.945455 131.39388 
L 156.199091 132.401695 
L 156.706364 136.135474 
L 157.467273 144.906966 
L 158.481818 160.142551 
L 163.554545 241.850954 
L 165.076364 261.309441 
L 166.598182 277.919161 
L 168.12 291.950699 
L 169.641818 303.730606 
L 171.163636 313.580557 
L 172.685455 321.79914 
L 174.207273 328.646735 
L 175.729091 334.345538 
L 177.250909 339.085365 
L 178.772727 343.027055 
L 180.294545 346.304931 
L 181.816364 349.030059 
L 183.338182 351.29526 
L 184.86 353.178242 
L 186.381818 354.743567 
L 187.65 355.844191 
L 187.903636 353.7864 
L 188.918182 234.695257 
L 189.425455 195.572585 
L 189.932727 168.099386 
L 190.44 149.753039 
L 190.947273 138.47905 
L 191.454545 132.663078 
L 191.708182 131.390722 
L 191.961818 131.023849 
L 192.215455 131.443884 
L 192.469091 132.544958 
L 192.976364 136.426631 
L 193.737273 145.342043 
L 194.751818 160.682014 
L 199.570909 238.801304 
L 201.092727 258.67838 
L 202.614545 275.685773 
L 204.136364 290.071083 
L 205.658182 302.154821 
L 207.18 312.266074 
L 208.701818 320.702848 
L 210.223636 327.730439 
L 211.745455 333.580542 
L 213.267273 338.44861 
L 214.789091 342.496993 
L 216.310909 345.862747 
L 217.832727 348.661151 
L 219.354545 350.98766 
L 220.876364 352.921475 
L 222.398182 354.528858 
L 223.92 355.865026 
L 224.173636 350.655722 
L 224.934545 255.794103 
L 225.695455 193.250361 
L 226.202727 166.505799 
L 226.71 148.727392 
L 227.217273 137.892681 
L 227.724545 132.413432 
L 227.978182 131.278302 
L 228.231818 131.032242 
L 228.485455 131.557567 
L 228.739091 132.749876 
L 229.246364 136.776557 
L 230.007273 145.836441 
L 231.021818 161.275084 
L 235.840909 239.3048 
L 237.362727 259.113228 
L 238.884545 276.060728 
L 240.406364 290.381968 
L 241.928182 302.41242 
L 243.45 312.478512 
L 244.971818 320.87667 
L 246.493636 327.875129 
L 248.015455 333.702308 
L 249.537273 338.550142 
L 251.059091 342.580206 
L 252.580909 345.930121 
L 254.102727 348.715621 
L 255.624545 351.03185 
L 257.146364 352.957191 
L 258.668182 354.55737 
L 260.19 355.88755 
L 260.443636 346.64902 
L 261.204545 252.068949 
L 261.965455 190.986357 
L 262.472727 164.959011 
L 262.98 147.738065 
L 263.487273 137.334237 
L 263.994545 132.185957 
L 264.248182 131.185591 
L 264.501818 131.056623 
L 264.755455 131.683279 
L 265.262727 134.80572 
L 265.77 139.865448 
L 266.530909 149.951372 
L 267.799091 170.343147 
L 271.096364 225.018661 
L 272.618182 246.711186 
L 274.14 265.479773 
L 275.661818 281.454196 
L 277.183636 294.917902 
L 278.705455 306.211567 
L 280.227273 315.648909 
L 281.749091 323.517706 
L 283.270909 330.071902 
L 284.792727 335.527665 
L 286.314545 340.066488 
L 287.836364 343.840549 
L 289.358182 346.978108 
L 290.88 349.586594 
L 292.401818 351.755081 
L 293.923636 353.557551 
L 295.445455 355.055752 
L 296.46 355.911296 
L 296.713636 342.107194 
L 297.474545 248.427381 
L 298.235455 188.781373 
L 298.742727 163.458099 
L 299.25 146.784435 
L 299.757273 136.8036 
L 300.264545 131.980002 
L 300.518182 131.111763 
L 300.771818 131.097528 
L 301.025455 131.823416 
L 301.532727 135.105026 
L 302.04 140.281279 
L 302.800909 150.481166 
L 304.069091 170.953419 
L 307.366364 225.563649 
L 308.888182 247.187096 
L 310.41 265.886847 
L 311.931818 281.797636 
L 313.453636 295.205935 
L 314.975455 306.451903 
L 316.497273 315.848705 
L 318.019091 323.683399 
L 319.540909 330.208924 
L 321.062727 335.64081 
L 322.584545 340.159894 
L 324.106364 343.917593 
L 325.628182 347.041437 
L 327.15 349.638464 
L 328.671818 351.797482 
L 330.193636 353.592106 
L 331.715455 355.083764 
L 332.73 355.935557 
L 332.983636 337.25885 
L 333.744545 244.867277 
L 334.251818 202.849915 
L 334.759091 173.115921 
L 335.266364 153.003596 
L 335.773636 140.363858 
L 336.280909 133.495929 
L 336.534545 131.794685 
L 336.788182 131.05599 
L 337.041818 131.154188 
L 337.295455 131.977272 
L 337.802727 135.414606 
L 338.31 140.70472 
L 339.070909 151.01557 
L 340.592727 175.89811 
L 343.382727 222.237144 
L 345.158182 247.662054 
L 346.68 266.2931 
L 348.201818 282.140471 
L 349.723636 295.493496 
L 351.245455 306.691926 
L 352.767273 316.048353 
L 354.289091 323.849097 
L 355.810909 330.346145 
L 357.332727 335.754282 
L 358.854545 340.253663 
L 360.376364 343.995005 
L 361.898182 347.10519 
L 363.42 349.69082 
L 364.941818 351.840391 
L 366.463636 353.627188 
L 367.985455 355.112324 
L 369 355.960393 
L 369.253636 332.256233 
L 370.014545 241.387382 
L 370.521818 200.352471 
L 371.029091 171.384144 
L 371.536364 151.871201 
L 372.043636 139.695082 
L 372.550909 133.184707 
L 372.804545 131.629623 
L 373.058182 131.016913 
L 373.311818 131.223522 
L 373.565455 132.140473 
L 374.072727 135.727589 
L 374.833636 144.346554 
L 375.848182 159.481335 
L 380.920909 241.297602 
L 382.442727 260.824944 
L 383.964545 277.505343 
L 385.486364 291.599157 
L 387.008182 303.43132 
L 388.53 313.32703 
L 390.051818 321.582619 
L 391.573636 328.459896 
L 393.095455 334.184452 
L 394.617273 338.94692 
L 396.139091 342.907457 
L 397.660909 346.200536 
L 399.182727 348.938355 
L 400.704545 351.214288 
L 402.226364 353.106088 
L 403.748182 354.67854 
L 405.016364 355.784173 
L 405.27 355.577542 
L 406.538182 216.278991 
L 407.045455 182.500377 
L 407.552727 159.219843 
L 408.06 144.1282 
L 408.567273 135.369569 
L 409.074545 131.484336 
L 409.328182 130.99581 
L 409.581818 131.310259 
L 409.835455 132.320402 
L 410.342727 136.05678 
L 411.103636 144.826304 
L 412.118182 160.065392 
L 417.190909 241.793818 
L 418.712727 261.251416 
L 420.234545 277.866831 
L 421.756364 291.90294 
L 423.278182 303.685333 
L 424.8 313.538694 
L 426.321818 321.75859 
L 427.843636 328.605967 
L 429.365455 334.305556 
L 430.887273 339.047203 
L 432.409091 342.990403 
L 433.930909 346.26906 
L 435.452727 348.994886 
L 436.974545 351.260845 
L 438.496364 353.144352 
L 440.018182 354.709916 
L 441.286364 355.810715 
L 441.54 353.75299 
L 442.554545 234.662126 
L 443.061818 195.539602 
L 443.569091 168.06631 
L 444.076364 149.720203 
L 444.583636 138.446509 
L 445.090909 132.630745 
L 445.344545 131.358441 
L 445.598182 130.991663 
L 445.851818 131.411785 
L 446.105455 132.513152 
L 446.612727 136.395573 
L 447.373636 145.312 
L 448.388182 160.652234 
L 453.207273 238.771109 
L 454.729091 258.64806 
L 456.250909 275.655846 
L 457.772727 290.041141 
L 459.294545 302.125131 
L 460.816364 312.23523 
L 462.338182 320.671669 
L 463.86 327.700539 
L 465.381818 333.551729 
L 466.903636 338.419817 
L 468.425455 342.46834 
L 469.947273 345.834631 
L 471.469091 348.633355 
L 472.990909 350.959955 
L 474.512727 352.893892 
L 476.034545 354.501372 
L 477.556364 355.837542 
L 477.81 350.628263 
L 478.570909 255.766744 
L 479.331818 193.223117 
L 479.839091 166.478512 
L 480.346364 148.700252 
L 480.853636 137.865705 
L 481.360909 132.386572 
L 481.614545 131.251452 
L 481.868182 131.00542 
L 482.121818 131.530828 
L 482.375455 132.723216 
L 482.882727 136.750223 
L 483.643636 145.810299 
L 484.658182 161.248877 
L 489.477273 239.27902 
L 490.999091 259.087465 
L 492.520909 276.034418 
L 494.042727 290.356318 
L 495.564545 302.387268 
L 497.086364 312.453502 
L 498.608182 320.851589 
L 500.13 327.848268 
L 501.651818 333.67346 
L 503.173636 338.521135 
L 504.695455 342.553019 
L 506.217273 345.904889 
L 507.739091 348.691263 
L 509.260909 351.00776 
L 510.782727 352.933514 
L 512.304545 354.534197 
L 513.826364 355.864647 
L 514.08 346.626135 
L 514.840909 252.046139 
L 515.601818 190.963624 
L 516.109091 164.936266 
L 516.616364 147.715429 
L 517.123636 137.311699 
L 517.630909 132.163491 
L 517.884545 131.163133 
L 518.138182 131.034188 
L 518.391818 131.660898 
L 518.899091 134.78345 
L 519.406364 139.843398 
L 520.167273 149.929325 
L 521.435455 170.321138 
L 524.732727 224.996882 
L 526.254545 246.689562 
L 527.776364 265.457996 
L 529.298182 281.43243 
L 530.82 294.896625 
L 532.341818 306.19045 
L 533.863636 315.627971 
L 535.385455 323.496807 
L 536.907273 330.05064 
L 538.429091 335.50627 
L 539.950909 340.045485 
L 541.472727 343.820161 
L 542.994545 346.957992 
L 544.516364 349.56649 
L 546.038182 351.735122 
L 547.56 353.537858 
L 549.081818 355.036238 
L 550.096364 355.891855 
L 550.35 342.087772 
L 551.110909 248.408034 
L 551.871818 188.762103 
L 552.379091 163.438838 
L 552.886364 146.765269 
L 553.393636 136.784509 
L 553.900909 131.960971 
L 554.154545 131.092743 
L 554.408182 131.078529 
L 554.661818 131.804459 
L 555.169091 135.086162 
L 555.676364 140.262561 
L 556.437273 150.462463 
L 557.705455 170.93478 
L 561.002727 225.545243 
L 562.524545 247.168824 
L 564.046364 265.868507 
L 565.568182 281.779363 
L 567.09 295.187998 
L 568.611818 306.434093 
L 570.133636 315.831046 
L 571.655455 323.665789 
L 573.177273 330.1911 
L 574.699091 335.622919 
L 576.220909 340.142281 
L 577.742727 343.900419 
L 579.264545 347.024488 
L 580.786364 349.621549 
L 582.308182 351.780673 
L 583.83 353.575504 
L 585.351818 355.067313 
L 586.366364 355.919179 
L 586.62 337.24249 
L 587.380909 244.850977 
L 587.888182 202.833655 
L 588.395455 173.09968 
L 588.902727 152.9874 
L 589.41 140.34773 
L 589.917273 133.479852 
L 590.170909 131.778641 
L 590.424545 131.039956 
L 590.678182 131.138171 
L 590.931818 131.961285 
L 591.439091 135.398695 
L 591.946364 140.688909 
L 592.707273 150.999776 
L 594.229091 175.882394 
L 597.019091 222.221598 
L 598.794545 247.646642 
L 600.316364 266.277655 
L 601.838182 282.125106 
L 603.36 295.478372 
L 604.881818 306.676911 
L 606.403636 316.033463 
L 607.925455 323.834256 
L 609.447273 330.331171 
L 610.969091 335.739281 
L 612.490909 340.238871 
L 614.012727 343.980537 
L 615.534545 347.090902 
L 617.056364 349.676574 
L 618.578182 351.826231 
L 620.1 353.613189 
L 621.621818 355.098455 
L 622.636364 355.946585 
L 622.636364 355.946585 
" style="fill:none;stroke:#85c0f9;stroke-dasharray:11.1,4.8;stroke-dashoffset:0;stroke-width:3;"/>
   </g>
   <g id="patch_3">
    <path d="M 90 378 
L 90 51.84 
" style="fill:none;stroke:#000000;stroke-linecap:square;stroke-linejoin:miter;stroke-width:0.8;"/>
   </g>
   <g id="patch_4">
    <path d="M 648 378 
L 648 51.84 
" style="fill:none;stroke:#000000;stroke-linecap:square;stroke-linejoin:miter;stroke-width:0.8;"/>
   </g>
   <g id="patch_5">
    <path d="M 90 378 
L 648 378 
" style="fill:none;stroke:#000000;stroke-linecap:square;stroke-linejoin:miter;stroke-width:0.8;"/>
   </g>
   <g id="patch_6">
    <path d="M 90 51.84 
L 648 51.84 
" style="fill:none;stroke:#000000;stroke-linecap:square;stroke-linejoin:miter;stroke-width:0.8;"/>
   </g>
  </g>
 </g>
 <defs>
  <clipPath id="pe19aee2268">
   <rect height="326.16" width="558" x="90" y="51.84"/>
  </clipPath>
 </defs>
</svg>
