<?xml version="1.0" encoding="utf-8" standalone="no"?>
<!DOCTYPE svg PUBLIC "-//W3C//DTD SVG 1.1//EN"
  "http://www.w3.org/Graphics/SVG/1.1/DTD/svg11.dtd">
<!-- Created with matplotlib (https://matplotlib.org/) -->
<svg height="432pt" version="1.1" viewBox="0 0 720 432" width="720pt" xmlns="http://www.w3.org/2000/svg" xmlns:xlink="http://www.w3.org/1999/xlink">
 <defs>
  <style type="text/css">
*{stroke-linecap:butt;stroke-linejoin:round;}
  </style>
 </defs>
 <g id="figure_1">
  <g id="patch_1">
   <path d="M 0 432 
L 720 432 
L 720 0 
L 0 0 
z
" style="fill:#ffffff;"/>
  </g>
  <g id="axes_1">
   <g id="patch_2">
    <path d="M 90 378 
L 648 378 
L 648 51.84 
L 90 51.84 
z
" style="fill:#ffffff;"/>
   </g>
   <g id="matplotlib.axis_1">
    <g id="xtick_1">
     <g id="line2d_1">
      <defs>
       <path d="M 0 0 
L 0 3.5 
" id="m3020f8f429" style="stroke:#000000;stroke-width:0.8;"/>
      </defs>
      <g>
       <use style="stroke:#000000;stroke-width:0.8;" x="115.363636" xlink:href="#m3020f8f429" y="378"/>
      </g>
     </g>
     <g id="text_1">
      <!-- 0 -->
      <defs>
       <path d="M 31.78125 3.421875 
Q 39.265625 3.421875 42.96875 11.625 
Q 46.6875 19.828125 46.6875 36.375 
Q 46.6875 52.984375 42.96875 61.1875 
Q 39.265625 69.390625 31.78125 69.390625 
Q 24.3125 69.390625 20.59375 61.1875 
Q 16.890625 52.984375 16.890625 36.375 
Q 16.890625 19.828125 20.59375 11.625 
Q 24.3125 3.421875 31.78125 3.421875 
z
M 31.78125 -1.421875 
Q 19.921875 -1.421875 13.25 8.53125 
Q 6.59375 18.5 6.59375 36.375 
Q 6.59375 54.296875 13.25 64.25 
Q 19.921875 74.21875 31.78125 74.21875 
Q 43.703125 74.21875 50.34375 64.25 
Q 56.984375 54.296875 56.984375 36.375 
Q 56.984375 18.5 50.34375 8.53125 
Q 43.703125 -1.421875 31.78125 -1.421875 
z
" id="DejaVuSerif-48"/>
      </defs>
      <g transform="translate(111.546136 394.118125)scale(0.12 -0.12)">
       <use xlink:href="#DejaVuSerif-48"/>
      </g>
     </g>
    </g>
    <g id="xtick_2">
     <g id="line2d_2">
      <g>
       <use style="stroke:#000000;stroke-width:0.8;" x="187.831169" xlink:href="#m3020f8f429" y="378"/>
      </g>
     </g>
     <g id="text_2">
      <!-- 2 -->
      <defs>
       <path d="M 12.796875 55.515625 
L 7.328125 55.515625 
L 7.328125 68.5 
Q 12.546875 71.296875 17.84375 72.75 
Q 23.140625 74.21875 28.21875 74.21875 
Q 39.59375 74.21875 46.1875 68.703125 
Q 52.78125 63.1875 52.78125 53.71875 
Q 52.78125 43.015625 37.84375 28.125 
Q 36.671875 27 36.078125 26.421875 
L 17.671875 8.015625 
L 48.09375 8.015625 
L 48.09375 17 
L 53.8125 17 
L 53.8125 0 
L 6.78125 0 
L 6.78125 5.328125 
L 28.90625 27.390625 
Q 36.234375 34.71875 39.359375 40.84375 
Q 42.484375 46.96875 42.484375 53.71875 
Q 42.484375 61.078125 38.640625 65.234375 
Q 34.8125 69.390625 28.078125 69.390625 
Q 21.09375 69.390625 17.28125 65.921875 
Q 13.484375 62.453125 12.796875 55.515625 
z
" id="DejaVuSerif-50"/>
      </defs>
      <g transform="translate(184.013669 394.118125)scale(0.12 -0.12)">
       <use xlink:href="#DejaVuSerif-50"/>
      </g>
     </g>
    </g>
    <g id="xtick_3">
     <g id="line2d_3">
      <g>
       <use style="stroke:#000000;stroke-width:0.8;" x="260.298701" xlink:href="#m3020f8f429" y="378"/>
      </g>
     </g>
     <g id="text_3">
      <!-- 4 -->
      <defs>
       <path d="M 34.90625 24.703125 
L 34.90625 63.484375 
L 10.015625 24.703125 
z
M 56.390625 0 
L 23.1875 0 
L 23.1875 5.171875 
L 34.90625 5.171875 
L 34.90625 19.484375 
L 3.078125 19.484375 
L 3.078125 24.8125 
L 35.015625 74.21875 
L 44.671875 74.21875 
L 44.671875 24.703125 
L 58.59375 24.703125 
L 58.59375 19.484375 
L 44.671875 19.484375 
L 44.671875 5.171875 
L 56.390625 5.171875 
z
" id="DejaVuSerif-52"/>
      </defs>
      <g transform="translate(256.481201 394.118125)scale(0.12 -0.12)">
       <use xlink:href="#DejaVuSerif-52"/>
      </g>
     </g>
    </g>
    <g id="xtick_4">
     <g id="line2d_4">
      <g>
       <use style="stroke:#000000;stroke-width:0.8;" x="332.766234" xlink:href="#m3020f8f429" y="378"/>
      </g>
     </g>
     <g id="text_4">
      <!-- 6 -->
      <defs>
       <path d="M 32.71875 3.421875 
Q 39.59375 3.421875 43.296875 8.46875 
Q 47.015625 13.53125 47.015625 23 
Q 47.015625 32.46875 43.296875 37.515625 
Q 39.59375 42.578125 32.71875 42.578125 
Q 25.734375 42.578125 22.0625 37.6875 
Q 18.40625 32.8125 18.40625 23.578125 
Q 18.40625 13.875 22.109375 8.640625 
Q 25.828125 3.421875 32.71875 3.421875 
z
M 16.796875 40.140625 
Q 20.125 43.796875 24.3125 45.59375 
Q 28.515625 47.40625 33.796875 47.40625 
Q 44.671875 47.40625 51 40.859375 
Q 57.328125 34.328125 57.328125 23 
Q 57.328125 11.921875 50.515625 5.25 
Q 43.703125 -1.421875 32.328125 -1.421875 
Q 19.96875 -1.421875 13.328125 7.78125 
Q 6.6875 17 6.6875 34.078125 
Q 6.6875 53.21875 14.546875 63.71875 
Q 22.40625 74.21875 36.71875 74.21875 
Q 40.578125 74.21875 44.828125 73.484375 
Q 49.078125 72.75 53.515625 71.296875 
L 53.515625 59.28125 
L 48 59.28125 
Q 47.40625 64.203125 44.234375 66.796875 
Q 41.0625 69.390625 35.6875 69.390625 
Q 26.21875 69.390625 21.578125 62.203125 
Q 16.9375 55.03125 16.796875 40.140625 
z
" id="DejaVuSerif-54"/>
      </defs>
      <g transform="translate(328.948734 394.118125)scale(0.12 -0.12)">
       <use xlink:href="#DejaVuSerif-54"/>
      </g>
     </g>
    </g>
    <g id="xtick_5">
     <g id="line2d_5">
      <g>
       <use style="stroke:#000000;stroke-width:0.8;" x="405.233766" xlink:href="#m3020f8f429" y="378"/>
      </g>
     </g>
     <g id="text_5">
      <!-- 8 -->
      <defs>
       <path d="M 46.578125 19.921875 
Q 46.578125 27.734375 42.6875 32.046875 
Q 38.8125 36.375 31.78125 36.375 
Q 24.75 36.375 20.875 32.046875 
Q 17 27.734375 17 19.921875 
Q 17 12.0625 20.875 7.734375 
Q 24.75 3.421875 31.78125 3.421875 
Q 38.8125 3.421875 42.6875 7.734375 
Q 46.578125 12.0625 46.578125 19.921875 
z
M 44.578125 55.328125 
Q 44.578125 61.96875 41.203125 65.671875 
Q 37.84375 69.390625 31.78125 69.390625 
Q 25.78125 69.390625 22.390625 65.671875 
Q 19 61.96875 19 55.328125 
Q 19 48.640625 22.390625 44.921875 
Q 25.78125 41.21875 31.78125 41.21875 
Q 37.84375 41.21875 41.203125 44.921875 
Q 44.578125 48.640625 44.578125 55.328125 
z
M 39.3125 38.8125 
Q 47.609375 37.703125 52.25 32.6875 
Q 56.890625 27.6875 56.890625 19.921875 
Q 56.890625 9.671875 50.390625 4.125 
Q 43.890625 -1.421875 31.78125 -1.421875 
Q 19.734375 -1.421875 13.203125 4.125 
Q 6.6875 9.671875 6.6875 19.921875 
Q 6.6875 27.6875 11.328125 32.6875 
Q 15.96875 37.703125 24.3125 38.8125 
Q 16.9375 40.140625 13 44.40625 
Q 9.078125 48.6875 9.078125 55.328125 
Q 9.078125 64.109375 15.125 69.15625 
Q 21.1875 74.21875 31.78125 74.21875 
Q 42.390625 74.21875 48.4375 69.15625 
Q 54.5 64.109375 54.5 55.328125 
Q 54.5 48.6875 50.5625 44.40625 
Q 46.625 40.140625 39.3125 38.8125 
z
" id="DejaVuSerif-56"/>
      </defs>
      <g transform="translate(401.416266 394.118125)scale(0.12 -0.12)">
       <use xlink:href="#DejaVuSerif-56"/>
      </g>
     </g>
    </g>
    <g id="xtick_6">
     <g id="line2d_6">
      <g>
       <use style="stroke:#000000;stroke-width:0.8;" x="477.701299" xlink:href="#m3020f8f429" y="378"/>
      </g>
     </g>
     <g id="text_6">
      <!-- 10 -->
      <defs>
       <path d="M 14.203125 0 
L 14.203125 5.171875 
L 26.90625 5.171875 
L 26.90625 65.828125 
L 12.203125 56.296875 
L 12.203125 62.703125 
L 29.984375 74.21875 
L 36.71875 74.21875 
L 36.71875 5.171875 
L 49.421875 5.171875 
L 49.421875 0 
z
" id="DejaVuSerif-49"/>
      </defs>
      <g transform="translate(470.066299 394.118125)scale(0.12 -0.12)">
       <use xlink:href="#DejaVuSerif-49"/>
       <use x="63.623047" xlink:href="#DejaVuSerif-48"/>
      </g>
     </g>
    </g>
    <g id="xtick_7">
     <g id="line2d_7">
      <g>
       <use style="stroke:#000000;stroke-width:0.8;" x="550.168831" xlink:href="#m3020f8f429" y="378"/>
      </g>
     </g>
     <g id="text_7">
      <!-- 12 -->
      <g transform="translate(542.533831 394.118125)scale(0.12 -0.12)">
       <use xlink:href="#DejaVuSerif-49"/>
       <use x="63.623047" xlink:href="#DejaVuSerif-50"/>
      </g>
     </g>
    </g>
    <g id="xtick_8">
     <g id="line2d_8">
      <g>
       <use style="stroke:#000000;stroke-width:0.8;" x="622.636364" xlink:href="#m3020f8f429" y="378"/>
      </g>
     </g>
     <g id="text_8">
      <!-- 14 -->
      <g transform="translate(615.001364 394.118125)scale(0.12 -0.12)">
       <use xlink:href="#DejaVuSerif-49"/>
       <use x="63.623047" xlink:href="#DejaVuSerif-52"/>
      </g>
     </g>
    </g>
    <g id="text_9">
     <!-- Time [d] -->
     <defs>
      <path d="M 19.09375 0 
L 19.09375 5.171875 
L 28.421875 5.171875 
L 28.421875 67.09375 
L 6.984375 67.09375 
L 6.984375 55.71875 
L 0.984375 55.71875 
L 0.984375 72.90625 
L 65.71875 72.90625 
L 65.71875 55.71875 
L 59.71875 55.71875 
L 59.71875 67.09375 
L 38.28125 67.09375 
L 38.28125 5.171875 
L 47.609375 5.171875 
L 47.609375 0 
z
" id="DejaVuSerif-84"/>
      <path d="M 9.71875 68.015625 
Q 9.71875 70.265625 11.34375 71.921875 
Q 12.984375 73.578125 15.28125 73.578125 
Q 17.53125 73.578125 19.15625 71.921875 
Q 20.796875 70.265625 20.796875 68.015625 
Q 20.796875 65.71875 19.1875 64.109375 
Q 17.578125 62.5 15.28125 62.5 
Q 12.984375 62.5 11.34375 64.109375 
Q 9.71875 65.71875 9.71875 68.015625 
z
M 21.1875 5.171875 
L 29.6875 5.171875 
L 29.6875 0 
L 3.609375 0 
L 3.609375 5.171875 
L 12.203125 5.171875 
L 12.203125 46.6875 
L 3.609375 46.6875 
L 3.609375 51.90625 
L 21.1875 51.90625 
z
" id="DejaVuSerif-105"/>
      <path d="M 51.8125 41.796875 
Q 54.390625 47.515625 58.421875 50.421875 
Q 62.453125 53.328125 67.828125 53.328125 
Q 75.984375 53.328125 79.984375 48.265625 
Q 83.984375 43.21875 83.984375 33.015625 
L 83.984375 5.171875 
L 92.09375 5.171875 
L 92.09375 0 
L 67.1875 0 
L 67.1875 5.171875 
L 75 5.171875 
L 75 31.984375 
Q 75 39.9375 72.65625 43.3125 
Q 70.3125 46.6875 64.890625 46.6875 
Q 58.890625 46.6875 55.734375 42.140625 
Q 52.59375 37.59375 52.59375 28.90625 
L 52.59375 5.171875 
L 60.40625 5.171875 
L 60.40625 0 
L 35.796875 0 
L 35.796875 5.171875 
L 43.609375 5.171875 
L 43.609375 32.328125 
Q 43.609375 40.09375 41.265625 43.390625 
Q 38.921875 46.6875 33.5 46.6875 
Q 27.484375 46.6875 24.328125 42.140625 
Q 21.1875 37.59375 21.1875 28.90625 
L 21.1875 5.171875 
L 29 5.171875 
L 29 0 
L 4.109375 0 
L 4.109375 5.171875 
L 12.203125 5.171875 
L 12.203125 46.78125 
L 3.609375 46.78125 
L 3.609375 51.90625 
L 21.1875 51.90625 
L 21.1875 42.671875 
Q 23.6875 47.859375 27.53125 50.59375 
Q 31.390625 53.328125 36.28125 53.328125 
Q 42.328125 53.328125 46.375 50.3125 
Q 50.4375 47.3125 51.8125 41.796875 
z
" id="DejaVuSerif-109"/>
      <path d="M 54.203125 25 
L 15.484375 25 
L 15.484375 24.609375 
Q 15.484375 14.109375 19.4375 8.765625 
Q 23.390625 3.421875 31.109375 3.421875 
Q 37.015625 3.421875 40.796875 6.515625 
Q 44.578125 9.625 46.09375 15.71875 
L 53.328125 15.71875 
Q 51.171875 7.171875 45.375 2.875 
Q 39.59375 -1.421875 30.171875 -1.421875 
Q 18.796875 -1.421875 11.890625 6.078125 
Q 4.984375 13.578125 4.984375 25.984375 
Q 4.984375 38.28125 11.765625 45.796875 
Q 18.5625 53.328125 29.59375 53.328125 
Q 41.359375 53.328125 47.65625 46.0625 
Q 53.953125 38.8125 54.203125 25 
z
M 43.609375 30.171875 
Q 43.3125 39.265625 39.765625 43.875 
Q 36.234375 48.484375 29.59375 48.484375 
Q 23.390625 48.484375 19.828125 43.84375 
Q 16.265625 39.203125 15.484375 30.171875 
z
" id="DejaVuSerif-101"/>
      <path id="DejaVuSerif-32"/>
      <path d="M 8.59375 75.984375 
L 31.296875 75.984375 
L 31.296875 70.796875 
L 17.921875 70.796875 
L 17.921875 -8.015625 
L 31.296875 -8.015625 
L 31.296875 -13.1875 
L 8.59375 -13.1875 
z
" id="DejaVuSerif-91"/>
      <path d="M 52.484375 5.171875 
L 61.078125 5.171875 
L 61.078125 0 
L 43.5 0 
L 43.5 8.109375 
Q 40.875 3.21875 36.796875 0.890625 
Q 32.71875 -1.421875 26.703125 -1.421875 
Q 17.140625 -1.421875 11.0625 6.171875 
Q 4.984375 13.765625 4.984375 25.984375 
Q 4.984375 38.1875 11.03125 45.75 
Q 17.09375 53.328125 26.703125 53.328125 
Q 32.71875 53.328125 36.796875 51 
Q 40.875 48.6875 43.5 43.796875 
L 43.5 70.796875 
L 35.015625 70.796875 
L 35.015625 75.984375 
L 52.484375 75.984375 
z
M 43.5 23.390625 
L 43.5 28.515625 
Q 43.5 37.84375 39.90625 42.765625 
Q 36.328125 47.703125 29.5 47.703125 
Q 22.5625 47.703125 19.015625 42.234375 
Q 15.484375 36.765625 15.484375 25.984375 
Q 15.484375 15.234375 19.015625 9.71875 
Q 22.5625 4.203125 29.5 4.203125 
Q 36.328125 4.203125 39.90625 9.109375 
Q 43.5 14.015625 43.5 23.390625 
z
" id="DejaVuSerif-100"/>
      <path d="M 30.421875 75.984375 
L 30.421875 -13.1875 
L 7.71875 -13.1875 
L 7.71875 -8.015625 
L 21.09375 -8.015625 
L 21.09375 70.796875 
L 7.71875 70.796875 
L 7.71875 75.984375 
z
" id="DejaVuSerif-93"/>
     </defs>
     <g transform="translate(332.744844 413.531094)scale(0.17 -0.17)">
      <use xlink:href="#DejaVuSerif-84"/>
      <use x="66.699219" xlink:href="#DejaVuSerif-105"/>
      <use x="98.681641" xlink:href="#DejaVuSerif-109"/>
      <use x="193.505859" xlink:href="#DejaVuSerif-101"/>
      <use x="252.685547" xlink:href="#DejaVuSerif-32"/>
      <use x="284.472656" xlink:href="#DejaVuSerif-91"/>
      <use x="323.486328" xlink:href="#DejaVuSerif-100"/>
      <use x="387.5" xlink:href="#DejaVuSerif-93"/>
     </g>
    </g>
   </g>
   <g id="matplotlib.axis_2">
    <g id="ytick_1">
     <g id="line2d_9">
      <defs>
       <path d="M 0 0 
L -3.5 0 
" id="m2a976ba58e" style="stroke:#000000;stroke-width:0.8;"/>
      </defs>
      <g>
       <use style="stroke:#000000;stroke-width:0.8;" x="90" xlink:href="#m2a976ba58e" y="362.468571"/>
      </g>
     </g>
     <g id="text_10">
      <!-- 0.0 -->
      <defs>
       <path d="M 9.421875 5.078125 
Q 9.421875 7.8125 11.28125 9.71875 
Q 13.140625 11.625 15.921875 11.625 
Q 18.609375 11.625 20.5 9.71875 
Q 22.40625 7.8125 22.40625 5.078125 
Q 22.40625 2.390625 20.5 0.484375 
Q 18.609375 -1.421875 15.921875 -1.421875 
Q 13.140625 -1.421875 11.28125 0.453125 
Q 9.421875 2.34375 9.421875 5.078125 
z
" id="DejaVuSerif-46"/>
      </defs>
      <g transform="translate(63.91625 367.027634)scale(0.12 -0.12)">
       <use xlink:href="#DejaVuSerif-48"/>
       <use x="63.623047" xlink:href="#DejaVuSerif-46"/>
       <use x="95.410156" xlink:href="#DejaVuSerif-48"/>
      </g>
     </g>
    </g>
    <g id="ytick_2">
     <g id="line2d_10">
      <g>
       <use style="stroke:#000000;stroke-width:0.8;" x="90" xlink:href="#m2a976ba58e" y="300.342857"/>
      </g>
     </g>
     <g id="text_11">
      <!-- 0.2 -->
      <g transform="translate(63.91625 304.90192)scale(0.12 -0.12)">
       <use xlink:href="#DejaVuSerif-48"/>
       <use x="63.623047" xlink:href="#DejaVuSerif-46"/>
       <use x="95.410156" xlink:href="#DejaVuSerif-50"/>
      </g>
     </g>
    </g>
    <g id="ytick_3">
     <g id="line2d_11">
      <g>
       <use style="stroke:#000000;stroke-width:0.8;" x="90" xlink:href="#m2a976ba58e" y="238.217143"/>
      </g>
     </g>
     <g id="text_12">
      <!-- 0.4 -->
      <g transform="translate(63.91625 242.776205)scale(0.12 -0.12)">
       <use xlink:href="#DejaVuSerif-48"/>
       <use x="63.623047" xlink:href="#DejaVuSerif-46"/>
       <use x="95.410156" xlink:href="#DejaVuSerif-52"/>
      </g>
     </g>
    </g>
    <g id="ytick_4">
     <g id="line2d_12">
      <g>
       <use style="stroke:#000000;stroke-width:0.8;" x="90" xlink:href="#m2a976ba58e" y="176.091429"/>
      </g>
     </g>
     <g id="text_13">
      <!-- 0.6 -->
      <g transform="translate(63.91625 180.650491)scale(0.12 -0.12)">
       <use xlink:href="#DejaVuSerif-48"/>
       <use x="63.623047" xlink:href="#DejaVuSerif-46"/>
       <use x="95.410156" xlink:href="#DejaVuSerif-54"/>
      </g>
     </g>
    </g>
    <g id="ytick_5">
     <g id="line2d_13">
      <g>
       <use style="stroke:#000000;stroke-width:0.8;" x="90" xlink:href="#m2a976ba58e" y="113.965714"/>
      </g>
     </g>
     <g id="text_14">
      <!-- 0.8 -->
      <g transform="translate(63.91625 118.524777)scale(0.12 -0.12)">
       <use xlink:href="#DejaVuSerif-48"/>
       <use x="63.623047" xlink:href="#DejaVuSerif-46"/>
       <use x="95.410156" xlink:href="#DejaVuSerif-56"/>
      </g>
     </g>
    </g>
    <g id="ytick_6">
     <g id="line2d_14">
      <g>
       <use style="stroke:#000000;stroke-width:0.8;" x="90" xlink:href="#m2a976ba58e" y="51.84"/>
      </g>
     </g>
     <g id="text_15">
      <!-- 1.0 -->
      <g transform="translate(63.91625 56.399062)scale(0.12 -0.12)">
       <use xlink:href="#DejaVuSerif-49"/>
       <use x="63.623047" xlink:href="#DejaVuSerif-46"/>
       <use x="95.410156" xlink:href="#DejaVuSerif-48"/>
      </g>
     </g>
    </g>
   </g>
   <g id="line2d_15">
    <path clip-path="url(#pbd558b12d3)" d="M 115.363636 362.468571 
L 115.617273 348.259238 
L 115.870909 345.421 
L 116.378182 344.745092 
L 117.9 343.470975 
L 119.675455 342.291001 
L 121.450909 341.380279 
L 123.48 340.602195 
L 125.762727 339.988402 
L 128.299091 339.552104 
L 131.342727 339.276212 
L 134.893636 339.189271 
L 139.459091 339.312271 
L 145.8 339.723473 
L 151.38 340.196924 
L 151.633636 339.250513 
L 151.887273 325.130862 
L 152.140909 323.111993 
L 152.648182 322.554847 
L 154.17 321.426414 
L 155.945455 320.418378 
L 157.720909 319.680229 
L 159.75 319.099635 
L 162.032727 318.707792 
L 164.569091 318.517227 
L 167.612727 318.534299 
L 171.163636 318.785737 
L 175.729091 319.337451 
L 182.323636 320.373919 
L 187.65 321.303815 
L 187.903636 317.759415 
L 188.157273 305.640572 
L 188.410909 304.210227 
L 188.918182 303.739509 
L 190.44 302.75091 
L 191.961818 302.006466 
L 193.737273 301.391424 
L 195.766364 300.957184 
L 197.795455 300.748162 
L 200.331818 300.727839 
L 203.121818 300.932994 
L 206.672727 301.431076 
L 211.238182 302.315586 
L 217.832727 303.844378 
L 223.92 305.363988 
L 224.173636 298.881443 
L 224.427273 289.283088 
L 224.680909 288.264433 
L 225.441818 287.697423 
L 226.963636 286.870764 
L 228.485455 286.279448 
L 230.260909 285.833167 
L 232.29 285.58103 
L 234.572727 285.552851 
L 237.109091 285.759805 
L 240.152727 286.245669 
L 243.957273 287.096644 
L 249.03 288.479932 
L 257.146364 290.958011 
L 260.19 291.917602 
L 260.697273 275.546285 
L 260.950909 274.812351 
L 261.965455 274.175154 
L 263.487273 273.491733 
L 265.009091 273.034411 
L 266.784545 272.73503 
L 268.813636 272.640542 
L 271.096364 272.779214 
L 273.632727 273.161264 
L 276.676364 273.846201 
L 280.480909 274.933311 
L 285.807273 276.704058 
L 294.938182 280.013541 
L 296.46 280.575318 
L 296.713636 269.324111 
L 296.967273 263.99928 
L 297.220909 263.463014 
L 298.235455 262.896045 
L 299.757273 262.298426 
L 301.279091 261.925333 
L 303.054545 261.722468 
L 305.083636 261.73625 
L 307.366364 261.994446 
L 309.902727 262.506817 
L 312.946364 263.345103 
L 317.004545 264.711162 
L 322.584545 266.848219 
L 332.73 271.00856 
L 332.983636 258.118735 
L 333.237273 254.285707 
L 333.490909 253.88771 
L 334.759091 253.273196 
L 336.280909 252.789026 
L 337.802727 252.520965 
L 339.578182 252.431781 
L 341.607273 252.565917 
L 343.89 252.94976 
L 346.68 253.666505 
L 349.977273 254.757905 
L 354.289091 256.436034 
L 360.63 259.170198 
L 369 262.940027 
L 369.253636 248.834995 
L 369.507273 246.110521 
L 370.014545 245.674631 
L 371.536364 245.084612 
L 373.058182 244.739065 
L 374.833636 244.588101 
L 376.609091 244.656879 
L 378.638182 244.948245 
L 381.174545 245.55647 
L 384.218182 246.544501 
L 388.022727 248.041507 
L 393.095455 250.29883 
L 401.972727 254.538466 
L 405.016364 256.01296 
L 405.27 255.166459 
L 405.523636 241.146246 
L 405.777273 239.2268 
L 406.284545 238.868387 
L 407.806364 238.33349 
L 409.328182 238.041041 
L 411.103636 237.950463 
L 412.879091 238.078179 
L 414.908182 238.435375 
L 417.444545 239.123933 
L 420.488182 240.205949 
L 424.292727 241.817339 
L 429.619091 244.347699 
L 439.257273 249.230635 
L 441.286364 250.268555 
L 441.54 246.808488 
L 441.793636 234.773562 
L 442.047273 233.427175 
L 442.554545 233.12423 
L 444.076364 232.636669 
L 445.598182 232.389814 
L 447.373636 232.350939 
L 449.149091 232.528982 
L 451.178182 232.942258 
L 453.714545 233.699096 
L 456.758182 234.860821 
L 460.562727 236.56904 
L 465.889091 239.230687 
L 476.034545 244.612269 
L 477.556364 245.425333 
L 477.81 239.013925 
L 478.063636 229.486374 
L 478.317273 228.538584 
L 479.078182 228.183817 
L 480.6 227.779466 
L 482.121818 227.607547 
L 483.897273 227.64689 
L 485.926364 227.944925 
L 488.209091 228.529562 
L 490.745455 229.409869 
L 494.042727 230.808833 
L 498.354545 232.912873 
L 504.695455 236.294458 
L 513.826364 241.342511 
L 514.333636 225.090943 
L 514.587273 224.416818 
L 515.348182 224.098111 
L 516.87 223.72869 
L 518.391818 223.590484 
L 520.167273 223.667815 
L 522.196364 224.007773 
L 524.479091 224.637996 
L 527.269091 225.670837 
L 530.566364 227.149274 
L 534.878182 229.344787 
L 541.472727 232.988399 
L 550.096364 237.901306 
L 550.35 226.700689 
L 550.603636 221.426296 
L 550.857273 220.940503 
L 551.871818 220.574917 
L 553.393636 220.277646 
L 554.915455 220.202828 
L 556.690909 220.345335 
L 558.72 220.75039 
L 561.002727 221.444409 
L 563.792727 222.544906 
L 567.09 224.092652 
L 571.655455 226.506624 
L 578.757273 230.557504 
L 586.366364 235.001477 
L 586.62 222.154311 
L 586.873636 218.363858 
L 587.127273 218.008454 
L 588.141818 217.668606 
L 589.663636 217.397705 
L 591.185455 217.348097 
L 592.960909 217.518787 
L 594.99 217.954701 
L 597.272727 218.682024 
L 600.062727 219.821597 
L 603.36 221.413708 
L 607.925455 223.886631 
L 615.027273 228.025003 
L 622.636364 232.558443 
L 622.636364 232.558443 
" style="fill:none;stroke:#f57938;stroke-linecap:square;stroke-width:1.5;"/>
   </g>
   <g id="line2d_16">
    <path clip-path="url(#pbd558b12d3)" d="M 115.363636 362.468571 
L 115.617273 348.259238 
L 115.870909 345.421 
L 116.378182 344.745092 
L 117.9 343.470975 
L 119.675455 342.291001 
L 121.450909 341.380279 
L 123.48 340.602195 
L 125.762727 339.988402 
L 128.299091 339.552104 
L 131.342727 339.276212 
L 134.893636 339.189271 
L 139.459091 339.312271 
L 145.8 339.723473 
L 156.706364 340.689894 
L 196.527273 344.341705 
L 220.876364 346.294754 
L 246.24 348.104918 
L 272.110909 349.735359 
L 299.25 351.238989 
L 330.954545 352.787697 
L 361.898182 354.091986 
L 393.602727 355.225442 
L 436.467273 356.53763 
L 479.078182 357.611228 
L 526.508182 358.577259 
L 580.025455 359.439078 
L 622.636364 359.986483 
L 622.636364 359.986483 
" style="fill:none;stroke:#f57938;stroke-dasharray:5.55,2.4;stroke-dashoffset:0;stroke-width:1.5;"/>
   </g>
   <g id="line2d_17">
    <path clip-path="url(#pbd558b12d3)" d="M 115.363636 340.286349 
L 120.487603 337.604704 
L 125.61157 334.92306 
L 130.735537 332.241415 
L 135.859504 329.559771 
L 140.983471 326.878126 
L 146.107438 324.196481 
L 151.231405 321.514837 
L 156.355372 318.986067 
L 161.479339 316.701898 
L 166.603306 314.417728 
L 171.727273 312.133559 
L 176.85124 309.849389 
L 181.975207 307.56522 
L 187.099174 305.28105 
L 192.22314 302.996881 
L 197.347107 300.986932 
L 202.471074 299.059249 
L 207.595041 297.131567 
L 212.719008 295.203884 
L 217.842975 293.276202 
L 222.966942 291.348519 
L 228.090909 289.420837 
L 233.214876 287.539521 
L 238.338843 285.913221 
L 243.46281 284.286921 
L 248.586777 282.660621 
L 253.710744 281.034321 
L 258.834711 279.408021 
L 263.958678 277.781721 
L 269.082645 276.155422 
L 274.206612 274.66617 
L 279.330579 273.294388 
L 284.454545 271.922606 
L 289.578512 270.550825 
L 294.702479 269.179043 
L 299.826446 267.807261 
L 304.950413 266.43548 
L 310.07438 265.063698 
L 315.198347 263.884423 
L 320.322314 262.72119 
L 325.446281 261.557957 
L 330.570248 260.394724 
L 335.694215 259.231491 
L 340.818182 258.068258 
L 345.942149 256.905025 
L 351.066116 255.799323 
L 356.190083 254.823064 
L 361.31405 253.846805 
L 366.438017 252.870546 
L 371.561983 251.894287 
L 376.68595 250.918028 
L 381.809917 249.941769 
L 386.933884 248.96551 
L 392.057851 248.103306 
L 397.181818 247.291793 
L 402.305785 246.480281 
L 407.429752 245.668768 
L 412.553719 244.857255 
L 417.677686 244.045742 
L 422.801653 243.234229 
L 427.92562 242.431527 
L 433.049587 241.734551 
L 438.173554 241.037575 
L 443.297521 240.340598 
L 448.421488 239.643622 
L 453.545455 238.946646 
L 458.669421 238.249669 
L 463.793388 237.552693 
L 468.917355 236.905863 
L 474.041322 236.317536 
L 479.165289 235.72921 
L 484.289256 235.140883 
L 489.413223 234.552557 
L 494.53719 233.96423 
L 499.661157 233.375903 
L 504.785124 232.787577 
L 509.909091 232.277263 
L 515.033058 231.781133 
L 520.157025 231.285003 
L 525.280992 230.788874 
L 530.404959 230.292744 
L 535.528926 229.796614 
L 540.652893 229.300484 
L 545.77686 228.822352 
L 550.900826 228.404214 
L 556.024793 227.986076 
L 561.14876 227.567938 
L 566.272727 227.149799 
L 571.396694 226.731661 
L 576.520661 226.313523 
L 581.644628 225.895384 
L 586.768595 225.51237 
L 591.892562 225.151307 
L 597.016529 224.790245 
L 602.140496 224.429183 
L 607.264463 224.06812 
L 612.38843 223.707058 
L 617.512397 223.345996 
L 622.636364 222.984933 
" style="fill:none;stroke:#000000;stroke-linecap:square;stroke-width:1.5;"/>
   </g>
   <g id="patch_3">
    <path d="M 90 378 
L 90 51.84 
" style="fill:none;stroke:#000000;stroke-linecap:square;stroke-linejoin:miter;stroke-width:0.8;"/>
   </g>
   <g id="patch_4">
    <path d="M 648 378 
L 648 51.84 
" style="fill:none;stroke:#000000;stroke-linecap:square;stroke-linejoin:miter;stroke-width:0.8;"/>
   </g>
   <g id="patch_5">
    <path d="M 90 378 
L 648 378 
" style="fill:none;stroke:#000000;stroke-linecap:square;stroke-linejoin:miter;stroke-width:0.8;"/>
   </g>
   <g id="patch_6">
    <path d="M 90 51.84 
L 648 51.84 
" style="fill:none;stroke:#000000;stroke-linecap:square;stroke-linejoin:miter;stroke-width:0.8;"/>
   </g>
  </g>
 </g>
 <defs>
  <clipPath id="pbd558b12d3">
   <rect height="326.16" width="558" x="90" y="51.84"/>
  </clipPath>
 </defs>
</svg>
