<?xml version="1.0" encoding="utf-8" standalone="no"?>
<!DOCTYPE svg PUBLIC "-//W3C//DTD SVG 1.1//EN"
  "http://www.w3.org/Graphics/SVG/1.1/DTD/svg11.dtd">
<!-- Created with matplotlib (https://matplotlib.org/) -->
<svg height="576pt" version="1.1" viewBox="0 0 1080 576" width="1080pt" xmlns="http://www.w3.org/2000/svg" xmlns:xlink="http://www.w3.org/1999/xlink">
 <defs>
  <style type="text/css">
*{stroke-linecap:butt;stroke-linejoin:round;}
  </style>
 </defs>
 <g id="figure_1">
  <g id="patch_1">
   <path d="M 0 576 
L 1080 576 
L 1080 0 
L 0 0 
z
" style="fill:#ffffff;"/>
  </g>
  <g id="axes_1">
   <g id="patch_2">
    <path d="M 65.425 240.6 
L 347.4 240.6 
L 347.4 27.643324 
L 65.425 27.643324 
z
" style="fill:#ffffff;"/>
   </g>
   <g id="matplotlib.axis_1">
    <g id="xtick_1">
     <g id="line2d_1">
      <defs>
       <path d="M 0 0 
L 0 3.5 
" id="m73e72a9714" style="stroke:#000000;stroke-width:0.8;"/>
      </defs>
      <g>
       <use style="stroke:#000000;stroke-width:0.8;" x="78.242045" xlink:href="#m73e72a9714" y="240.6"/>
      </g>
     </g>
     <g id="text_1">
      <!-- 0 -->
      <defs>
       <path d="M 31.78125 3.421875 
Q 39.265625 3.421875 42.96875 11.625 
Q 46.6875 19.828125 46.6875 36.375 
Q 46.6875 52.984375 42.96875 61.1875 
Q 39.265625 69.390625 31.78125 69.390625 
Q 24.3125 69.390625 20.59375 61.1875 
Q 16.890625 52.984375 16.890625 36.375 
Q 16.890625 19.828125 20.59375 11.625 
Q 24.3125 3.421875 31.78125 3.421875 
z
M 31.78125 -1.421875 
Q 19.921875 -1.421875 13.25 8.53125 
Q 6.59375 18.5 6.59375 36.375 
Q 6.59375 54.296875 13.25 64.25 
Q 19.921875 74.21875 31.78125 74.21875 
Q 43.703125 74.21875 50.34375 64.25 
Q 56.984375 54.296875 56.984375 36.375 
Q 56.984375 18.5 50.34375 8.53125 
Q 43.703125 -1.421875 31.78125 -1.421875 
z
" id="DejaVuSerif-48"/>
      </defs>
      <g transform="translate(73.788295 258.237813)scale(0.14 -0.14)">
       <use xlink:href="#DejaVuSerif-48"/>
      </g>
     </g>
    </g>
    <g id="xtick_2">
     <g id="line2d_2">
      <g>
       <use style="stroke:#000000;stroke-width:0.8;" x="147.523372" xlink:href="#m73e72a9714" y="240.6"/>
      </g>
     </g>
     <g id="text_2">
      <!-- 20 -->
      <defs>
       <path d="M 12.796875 55.515625 
L 7.328125 55.515625 
L 7.328125 68.5 
Q 12.546875 71.296875 17.84375 72.75 
Q 23.140625 74.21875 28.21875 74.21875 
Q 39.59375 74.21875 46.1875 68.703125 
Q 52.78125 63.1875 52.78125 53.71875 
Q 52.78125 43.015625 37.84375 28.125 
Q 36.671875 27 36.078125 26.421875 
L 17.671875 8.015625 
L 48.09375 8.015625 
L 48.09375 17 
L 53.8125 17 
L 53.8125 0 
L 6.78125 0 
L 6.78125 5.328125 
L 28.90625 27.390625 
Q 36.234375 34.71875 39.359375 40.84375 
Q 42.484375 46.96875 42.484375 53.71875 
Q 42.484375 61.078125 38.640625 65.234375 
Q 34.8125 69.390625 28.078125 69.390625 
Q 21.09375 69.390625 17.28125 65.921875 
Q 13.484375 62.453125 12.796875 55.515625 
z
" id="DejaVuSerif-50"/>
      </defs>
      <g transform="translate(138.615872 258.237813)scale(0.14 -0.14)">
       <use xlink:href="#DejaVuSerif-50"/>
       <use x="63.623047" xlink:href="#DejaVuSerif-48"/>
      </g>
     </g>
    </g>
    <g id="xtick_3">
     <g id="line2d_3">
      <g>
       <use style="stroke:#000000;stroke-width:0.8;" x="216.804699" xlink:href="#m73e72a9714" y="240.6"/>
      </g>
     </g>
     <g id="text_3">
      <!-- 40 -->
      <defs>
       <path d="M 34.90625 24.703125 
L 34.90625 63.484375 
L 10.015625 24.703125 
z
M 56.390625 0 
L 23.1875 0 
L 23.1875 5.171875 
L 34.90625 5.171875 
L 34.90625 19.484375 
L 3.078125 19.484375 
L 3.078125 24.8125 
L 35.015625 74.21875 
L 44.671875 74.21875 
L 44.671875 24.703125 
L 58.59375 24.703125 
L 58.59375 19.484375 
L 44.671875 19.484375 
L 44.671875 5.171875 
L 56.390625 5.171875 
z
" id="DejaVuSerif-52"/>
      </defs>
      <g transform="translate(207.897199 258.237813)scale(0.14 -0.14)">
       <use xlink:href="#DejaVuSerif-52"/>
       <use x="63.623047" xlink:href="#DejaVuSerif-48"/>
      </g>
     </g>
    </g>
    <g id="xtick_4">
     <g id="line2d_4">
      <g>
       <use style="stroke:#000000;stroke-width:0.8;" x="286.086026" xlink:href="#m73e72a9714" y="240.6"/>
      </g>
     </g>
     <g id="text_4">
      <!-- 60 -->
      <defs>
       <path d="M 32.71875 3.421875 
Q 39.59375 3.421875 43.296875 8.46875 
Q 47.015625 13.53125 47.015625 23 
Q 47.015625 32.46875 43.296875 37.515625 
Q 39.59375 42.578125 32.71875 42.578125 
Q 25.734375 42.578125 22.0625 37.6875 
Q 18.40625 32.8125 18.40625 23.578125 
Q 18.40625 13.875 22.109375 8.640625 
Q 25.828125 3.421875 32.71875 3.421875 
z
M 16.796875 40.140625 
Q 20.125 43.796875 24.3125 45.59375 
Q 28.515625 47.40625 33.796875 47.40625 
Q 44.671875 47.40625 51 40.859375 
Q 57.328125 34.328125 57.328125 23 
Q 57.328125 11.921875 50.515625 5.25 
Q 43.703125 -1.421875 32.328125 -1.421875 
Q 19.96875 -1.421875 13.328125 7.78125 
Q 6.6875 17 6.6875 34.078125 
Q 6.6875 53.21875 14.546875 63.71875 
Q 22.40625 74.21875 36.71875 74.21875 
Q 40.578125 74.21875 44.828125 73.484375 
Q 49.078125 72.75 53.515625 71.296875 
L 53.515625 59.28125 
L 48 59.28125 
Q 47.40625 64.203125 44.234375 66.796875 
Q 41.0625 69.390625 35.6875 69.390625 
Q 26.21875 69.390625 21.578125 62.203125 
Q 16.9375 55.03125 16.796875 40.140625 
z
" id="DejaVuSerif-54"/>
      </defs>
      <g transform="translate(277.178526 258.237813)scale(0.14 -0.14)">
       <use xlink:href="#DejaVuSerif-54"/>
       <use x="63.623047" xlink:href="#DejaVuSerif-48"/>
      </g>
     </g>
    </g>
    <g id="text_5">
     <!-- Time [h] -->
     <defs>
      <path d="M 19.09375 0 
L 19.09375 5.171875 
L 28.421875 5.171875 
L 28.421875 67.09375 
L 6.984375 67.09375 
L 6.984375 55.71875 
L 0.984375 55.71875 
L 0.984375 72.90625 
L 65.71875 72.90625 
L 65.71875 55.71875 
L 59.71875 55.71875 
L 59.71875 67.09375 
L 38.28125 67.09375 
L 38.28125 5.171875 
L 47.609375 5.171875 
L 47.609375 0 
z
" id="DejaVuSerif-84"/>
      <path d="M 9.71875 68.015625 
Q 9.71875 70.265625 11.34375 71.921875 
Q 12.984375 73.578125 15.28125 73.578125 
Q 17.53125 73.578125 19.15625 71.921875 
Q 20.796875 70.265625 20.796875 68.015625 
Q 20.796875 65.71875 19.1875 64.109375 
Q 17.578125 62.5 15.28125 62.5 
Q 12.984375 62.5 11.34375 64.109375 
Q 9.71875 65.71875 9.71875 68.015625 
z
M 21.1875 5.171875 
L 29.6875 5.171875 
L 29.6875 0 
L 3.609375 0 
L 3.609375 5.171875 
L 12.203125 5.171875 
L 12.203125 46.6875 
L 3.609375 46.6875 
L 3.609375 51.90625 
L 21.1875 51.90625 
z
" id="DejaVuSerif-105"/>
      <path d="M 51.8125 41.796875 
Q 54.390625 47.515625 58.421875 50.421875 
Q 62.453125 53.328125 67.828125 53.328125 
Q 75.984375 53.328125 79.984375 48.265625 
Q 83.984375 43.21875 83.984375 33.015625 
L 83.984375 5.171875 
L 92.09375 5.171875 
L 92.09375 0 
L 67.1875 0 
L 67.1875 5.171875 
L 75 5.171875 
L 75 31.984375 
Q 75 39.9375 72.65625 43.3125 
Q 70.3125 46.6875 64.890625 46.6875 
Q 58.890625 46.6875 55.734375 42.140625 
Q 52.59375 37.59375 52.59375 28.90625 
L 52.59375 5.171875 
L 60.40625 5.171875 
L 60.40625 0 
L 35.796875 0 
L 35.796875 5.171875 
L 43.609375 5.171875 
L 43.609375 32.328125 
Q 43.609375 40.09375 41.265625 43.390625 
Q 38.921875 46.6875 33.5 46.6875 
Q 27.484375 46.6875 24.328125 42.140625 
Q 21.1875 37.59375 21.1875 28.90625 
L 21.1875 5.171875 
L 29 5.171875 
L 29 0 
L 4.109375 0 
L 4.109375 5.171875 
L 12.203125 5.171875 
L 12.203125 46.78125 
L 3.609375 46.78125 
L 3.609375 51.90625 
L 21.1875 51.90625 
L 21.1875 42.671875 
Q 23.6875 47.859375 27.53125 50.59375 
Q 31.390625 53.328125 36.28125 53.328125 
Q 42.328125 53.328125 46.375 50.3125 
Q 50.4375 47.3125 51.8125 41.796875 
z
" id="DejaVuSerif-109"/>
      <path d="M 54.203125 25 
L 15.484375 25 
L 15.484375 24.609375 
Q 15.484375 14.109375 19.4375 8.765625 
Q 23.390625 3.421875 31.109375 3.421875 
Q 37.015625 3.421875 40.796875 6.515625 
Q 44.578125 9.625 46.09375 15.71875 
L 53.328125 15.71875 
Q 51.171875 7.171875 45.375 2.875 
Q 39.59375 -1.421875 30.171875 -1.421875 
Q 18.796875 -1.421875 11.890625 6.078125 
Q 4.984375 13.578125 4.984375 25.984375 
Q 4.984375 38.28125 11.765625 45.796875 
Q 18.5625 53.328125 29.59375 53.328125 
Q 41.359375 53.328125 47.65625 46.0625 
Q 53.953125 38.8125 54.203125 25 
z
M 43.609375 30.171875 
Q 43.3125 39.265625 39.765625 43.875 
Q 36.234375 48.484375 29.59375 48.484375 
Q 23.390625 48.484375 19.828125 43.84375 
Q 16.265625 39.203125 15.484375 30.171875 
z
" id="DejaVuSerif-101"/>
      <path id="DejaVuSerif-32"/>
      <path d="M 8.59375 75.984375 
L 31.296875 75.984375 
L 31.296875 70.796875 
L 17.921875 70.796875 
L 17.921875 -8.015625 
L 31.296875 -8.015625 
L 31.296875 -13.1875 
L 8.59375 -13.1875 
z
" id="DejaVuSerif-91"/>
      <path d="M 4.109375 0 
L 4.109375 5.171875 
L 12.203125 5.171875 
L 12.203125 70.796875 
L 3.609375 70.796875 
L 3.609375 75.984375 
L 21.1875 75.984375 
L 21.1875 42.671875 
Q 23.6875 47.953125 27.65625 50.640625 
Q 31.640625 53.328125 36.921875 53.328125 
Q 45.515625 53.328125 49.5625 48.390625 
Q 53.609375 43.453125 53.609375 33.015625 
L 53.609375 5.171875 
L 61.625 5.171875 
L 61.625 0 
L 36.8125 0 
L 36.8125 5.171875 
L 44.578125 5.171875 
L 44.578125 30.171875 
Q 44.578125 39.703125 42.25 43.1875 
Q 39.9375 46.6875 33.984375 46.6875 
Q 27.734375 46.6875 24.453125 42.140625 
Q 21.1875 37.59375 21.1875 28.90625 
L 21.1875 5.171875 
L 29 5.171875 
L 29 0 
z
" id="DejaVuSerif-104"/>
      <path d="M 30.421875 75.984375 
L 30.421875 -13.1875 
L 7.71875 -13.1875 
L 7.71875 -8.015625 
L 21.09375 -8.015625 
L 21.09375 70.796875 
L 7.71875 70.796875 
L 7.71875 75.984375 
z
" id="DejaVuSerif-93"/>
     </defs>
     <g transform="translate(170.124141 278.066719)scale(0.17 -0.17)">
      <use xlink:href="#DejaVuSerif-84"/>
      <use x="66.699219" xlink:href="#DejaVuSerif-105"/>
      <use x="98.681641" xlink:href="#DejaVuSerif-109"/>
      <use x="193.505859" xlink:href="#DejaVuSerif-101"/>
      <use x="252.685547" xlink:href="#DejaVuSerif-32"/>
      <use x="284.472656" xlink:href="#DejaVuSerif-91"/>
      <use x="323.486328" xlink:href="#DejaVuSerif-104"/>
      <use x="387.890625" xlink:href="#DejaVuSerif-93"/>
     </g>
    </g>
   </g>
   <g id="matplotlib.axis_2">
    <g id="ytick_1">
     <g id="line2d_5">
      <defs>
       <path d="M 0 0 
L -3.5 0 
" id="m37260cf836" style="stroke:#000000;stroke-width:0.8;"/>
      </defs>
      <g>
       <use style="stroke:#000000;stroke-width:0.8;" x="65.425" xlink:href="#m37260cf836" y="230.459206"/>
      </g>
     </g>
     <g id="text_6">
      <!-- 0 -->
      <g transform="translate(49.5175 235.778112)scale(0.14 -0.14)">
       <use xlink:href="#DejaVuSerif-48"/>
      </g>
     </g>
    </g>
    <g id="ytick_2">
     <g id="line2d_6">
      <g>
       <use style="stroke:#000000;stroke-width:0.8;" x="65.425" xlink:href="#m37260cf836" y="179.755235"/>
      </g>
     </g>
     <g id="text_7">
      <!-- 20 -->
      <g transform="translate(40.61 185.074142)scale(0.14 -0.14)">
       <use xlink:href="#DejaVuSerif-50"/>
       <use x="63.623047" xlink:href="#DejaVuSerif-48"/>
      </g>
     </g>
    </g>
    <g id="ytick_3">
     <g id="line2d_7">
      <g>
       <use style="stroke:#000000;stroke-width:0.8;" x="65.425" xlink:href="#m37260cf836" y="129.051265"/>
      </g>
     </g>
     <g id="text_8">
      <!-- 40 -->
      <g transform="translate(40.61 134.370171)scale(0.14 -0.14)">
       <use xlink:href="#DejaVuSerif-52"/>
       <use x="63.623047" xlink:href="#DejaVuSerif-48"/>
      </g>
     </g>
    </g>
    <g id="ytick_4">
     <g id="line2d_8">
      <g>
       <use style="stroke:#000000;stroke-width:0.8;" x="65.425" xlink:href="#m37260cf836" y="78.347294"/>
      </g>
     </g>
     <g id="text_9">
      <!-- 60 -->
      <g transform="translate(40.61 83.666201)scale(0.14 -0.14)">
       <use xlink:href="#DejaVuSerif-54"/>
       <use x="63.623047" xlink:href="#DejaVuSerif-48"/>
      </g>
     </g>
    </g>
    <g id="ytick_5">
     <g id="line2d_9">
      <g>
       <use style="stroke:#000000;stroke-width:0.8;" x="65.425" xlink:href="#m37260cf836" y="27.643324"/>
      </g>
     </g>
     <g id="text_10">
      <!-- 80 -->
      <defs>
       <path d="M 46.578125 19.921875 
Q 46.578125 27.734375 42.6875 32.046875 
Q 38.8125 36.375 31.78125 36.375 
Q 24.75 36.375 20.875 32.046875 
Q 17 27.734375 17 19.921875 
Q 17 12.0625 20.875 7.734375 
Q 24.75 3.421875 31.78125 3.421875 
Q 38.8125 3.421875 42.6875 7.734375 
Q 46.578125 12.0625 46.578125 19.921875 
z
M 44.578125 55.328125 
Q 44.578125 61.96875 41.203125 65.671875 
Q 37.84375 69.390625 31.78125 69.390625 
Q 25.78125 69.390625 22.390625 65.671875 
Q 19 61.96875 19 55.328125 
Q 19 48.640625 22.390625 44.921875 
Q 25.78125 41.21875 31.78125 41.21875 
Q 37.84375 41.21875 41.203125 44.921875 
Q 44.578125 48.640625 44.578125 55.328125 
z
M 39.3125 38.8125 
Q 47.609375 37.703125 52.25 32.6875 
Q 56.890625 27.6875 56.890625 19.921875 
Q 56.890625 9.671875 50.390625 4.125 
Q 43.890625 -1.421875 31.78125 -1.421875 
Q 19.734375 -1.421875 13.203125 4.125 
Q 6.6875 9.671875 6.6875 19.921875 
Q 6.6875 27.6875 11.328125 32.6875 
Q 15.96875 37.703125 24.3125 38.8125 
Q 16.9375 40.140625 13 44.40625 
Q 9.078125 48.6875 9.078125 55.328125 
Q 9.078125 64.109375 15.125 69.15625 
Q 21.1875 74.21875 31.78125 74.21875 
Q 42.390625 74.21875 48.4375 69.15625 
Q 54.5 64.109375 54.5 55.328125 
Q 54.5 48.6875 50.5625 44.40625 
Q 46.625 40.140625 39.3125 38.8125 
z
" id="DejaVuSerif-56"/>
      </defs>
      <g transform="translate(40.61 32.96223)scale(0.14 -0.14)">
       <use xlink:href="#DejaVuSerif-56"/>
       <use x="63.623047" xlink:href="#DejaVuSerif-48"/>
      </g>
     </g>
    </g>
    <g id="text_11">
     <!-- Total BPA [ng/ml] -->
     <defs>
      <path d="M 30.078125 3.421875 
Q 37.3125 3.421875 40.984375 9.125 
Q 44.671875 14.84375 44.671875 25.984375 
Q 44.671875 37.109375 40.984375 42.796875 
Q 37.3125 48.484375 30.078125 48.484375 
Q 22.859375 48.484375 19.171875 42.796875 
Q 15.484375 37.109375 15.484375 25.984375 
Q 15.484375 14.84375 19.1875 9.125 
Q 22.90625 3.421875 30.078125 3.421875 
z
M 30.078125 -1.421875 
Q 18.75 -1.421875 11.859375 6.078125 
Q 4.984375 13.578125 4.984375 25.984375 
Q 4.984375 38.375 11.84375 45.84375 
Q 18.703125 53.328125 30.078125 53.328125 
Q 41.453125 53.328125 48.3125 45.84375 
Q 55.171875 38.375 55.171875 25.984375 
Q 55.171875 13.578125 48.3125 6.078125 
Q 41.453125 -1.421875 30.078125 -1.421875 
z
" id="DejaVuSerif-111"/>
      <path d="M 10.796875 46.6875 
L 2.875 46.6875 
L 2.875 51.90625 
L 10.796875 51.90625 
L 10.796875 68.015625 
L 19.828125 68.015625 
L 19.828125 51.90625 
L 36.71875 51.90625 
L 36.71875 46.6875 
L 19.828125 46.6875 
L 19.828125 13.71875 
Q 19.828125 7.125 21.09375 5.265625 
Q 22.359375 3.421875 25.78125 3.421875 
Q 29.296875 3.421875 30.90625 5.484375 
Q 32.515625 7.5625 32.625 12.203125 
L 39.40625 12.203125 
Q 39.015625 5.125 35.546875 1.84375 
Q 32.078125 -1.421875 25 -1.421875 
Q 17.234375 -1.421875 14.015625 2.015625 
Q 10.796875 5.46875 10.796875 13.71875 
z
" id="DejaVuSerif-116"/>
      <path d="M 39.796875 16.3125 
L 39.796875 27.296875 
L 28.21875 27.296875 
Q 21.53125 27.296875 18.25 24.40625 
Q 14.984375 21.53125 14.984375 15.578125 
Q 14.984375 10.15625 18.296875 6.984375 
Q 21.625 3.8125 27.296875 3.8125 
Q 32.90625 3.8125 36.34375 7.28125 
Q 39.796875 10.75 39.796875 16.3125 
z
M 48.78125 32.421875 
L 48.78125 5.171875 
L 56.78125 5.171875 
L 56.78125 0 
L 39.796875 0 
L 39.796875 5.609375 
Q 36.8125 2 32.90625 0.28125 
Q 29 -1.421875 23.78125 -1.421875 
Q 15.140625 -1.421875 10.0625 3.171875 
Q 4.984375 7.765625 4.984375 15.578125 
Q 4.984375 23.640625 10.796875 28.078125 
Q 16.609375 32.515625 27.203125 32.515625 
L 39.796875 32.515625 
L 39.796875 36.078125 
Q 39.796875 42 36.203125 45.234375 
Q 32.625 48.484375 26.125 48.484375 
Q 20.75 48.484375 17.578125 46.046875 
Q 14.40625 43.609375 13.625 38.8125 
L 8.984375 38.8125 
L 8.984375 49.3125 
Q 13.671875 51.3125 18.09375 52.3125 
Q 22.515625 53.328125 26.703125 53.328125 
Q 37.5 53.328125 43.140625 47.96875 
Q 48.78125 42.625 48.78125 32.421875 
z
" id="DejaVuSerif-97"/>
      <path d="M 20.515625 5.171875 
L 29 5.171875 
L 29 0 
L 2.875 0 
L 2.875 5.171875 
L 11.53125 5.171875 
L 11.53125 70.796875 
L 2.875 70.796875 
L 2.875 75.984375 
L 20.515625 75.984375 
z
" id="DejaVuSerif-108"/>
      <path d="M 24.703125 5.171875 
L 39.3125 5.171875 
Q 48.09375 5.171875 52.140625 8.984375 
Q 56.203125 12.796875 56.203125 21.09375 
Q 56.203125 29.34375 52.171875 33.125 
Q 48.140625 36.921875 39.3125 36.921875 
L 24.703125 36.921875 
z
M 24.703125 42.09375 
L 37.109375 42.09375 
Q 45.125 42.09375 48.796875 45.171875 
Q 52.484375 48.25 52.484375 54.890625 
Q 52.484375 61.578125 48.796875 64.625 
Q 45.125 67.671875 37.109375 67.671875 
L 24.703125 67.671875 
z
M 5.515625 0 
L 5.515625 5.171875 
L 14.796875 5.171875 
L 14.796875 67.671875 
L 5.515625 67.671875 
L 5.515625 72.90625 
L 41.5 72.90625 
Q 52.546875 72.90625 58.125 68.390625 
Q 63.71875 63.875 63.71875 54.890625 
Q 63.71875 48.390625 59.828125 44.53125 
Q 55.953125 40.671875 48.484375 39.796875 
Q 57.765625 38.625 62.578125 33.859375 
Q 67.390625 29.109375 67.390625 21.09375 
Q 67.390625 10.25 60.546875 5.125 
Q 53.71875 0 39.203125 0 
z
" id="DejaVuSerif-66"/>
      <path d="M 24.703125 37.109375 
L 37.59375 37.109375 
Q 44.875 37.109375 48.671875 41.03125 
Q 52.484375 44.96875 52.484375 52.390625 
Q 52.484375 59.859375 48.671875 63.765625 
Q 44.875 67.671875 37.59375 67.671875 
L 24.703125 67.671875 
z
M 5.515625 0 
L 5.515625 5.171875 
L 14.796875 5.171875 
L 14.796875 67.671875 
L 5.515625 67.671875 
L 5.515625 72.90625 
L 39.984375 72.90625 
Q 50.921875 72.90625 57.3125 67.359375 
Q 63.71875 61.8125 63.71875 52.390625 
Q 63.71875 43.015625 57.3125 37.453125 
Q 50.921875 31.890625 39.984375 31.890625 
L 24.703125 31.890625 
L 24.703125 5.171875 
L 35.984375 5.171875 
L 35.984375 0 
z
" id="DejaVuSerif-80"/>
      <path d="M 20.015625 26.421875 
L 46.78125 26.421875 
L 33.40625 61.078125 
z
M -0.59375 0 
L -0.59375 5.171875 
L 5.8125 5.171875 
L 31.78125 72.90625 
L 39.984375 72.90625 
L 66.015625 5.171875 
L 73.1875 5.171875 
L 73.1875 0 
L 46.6875 0 
L 46.6875 5.171875 
L 54.78125 5.171875 
L 48.6875 21.1875 
L 18.015625 21.1875 
L 11.921875 5.171875 
L 19.921875 5.171875 
L 19.921875 0 
z
" id="DejaVuSerif-65"/>
      <path d="M 4.109375 0 
L 4.109375 5.171875 
L 12.203125 5.171875 
L 12.203125 46.6875 
L 3.609375 46.6875 
L 3.609375 51.90625 
L 21.1875 51.90625 
L 21.1875 42.671875 
Q 23.6875 47.953125 27.65625 50.640625 
Q 31.640625 53.328125 36.921875 53.328125 
Q 45.515625 53.328125 49.5625 48.390625 
Q 53.609375 43.453125 53.609375 33.015625 
L 53.609375 5.171875 
L 61.625 5.171875 
L 61.625 0 
L 36.8125 0 
L 36.8125 5.171875 
L 44.578125 5.171875 
L 44.578125 30.171875 
Q 44.578125 39.703125 42.234375 43.234375 
Q 39.890625 46.78125 33.984375 46.78125 
Q 27.734375 46.78125 24.453125 42.203125 
Q 21.1875 37.640625 21.1875 28.90625 
L 21.1875 5.171875 
L 29 5.171875 
L 29 0 
z
" id="DejaVuSerif-110"/>
      <path d="M 52.484375 46.6875 
L 52.484375 1.125 
Q 52.484375 -10.0625 46.328125 -16.140625 
Q 40.1875 -22.21875 28.8125 -22.21875 
Q 23.6875 -22.21875 19 -21.28125 
Q 14.3125 -20.359375 10.015625 -18.5 
L 10.015625 -7.625 
L 14.703125 -7.625 
Q 15.578125 -12.703125 18.84375 -15.046875 
Q 22.125 -17.390625 28.21875 -17.390625 
Q 36.140625 -17.390625 39.8125 -12.921875 
Q 43.5 -8.453125 43.5 1.125 
L 43.5 8.109375 
Q 40.875 3.21875 36.796875 0.890625 
Q 32.71875 -1.421875 26.703125 -1.421875 
Q 17.140625 -1.421875 11.0625 6.171875 
Q 4.984375 13.765625 4.984375 25.984375 
Q 4.984375 38.1875 11.03125 45.75 
Q 17.09375 53.328125 26.703125 53.328125 
Q 32.71875 53.328125 36.796875 51 
Q 40.875 48.6875 43.5 43.796875 
L 43.5 51.90625 
L 61.078125 51.90625 
L 61.078125 46.6875 
z
M 43.5 28.515625 
Q 43.5 37.84375 39.90625 42.765625 
Q 36.328125 47.703125 29.5 47.703125 
Q 22.5625 47.703125 19.015625 42.234375 
Q 15.484375 36.765625 15.484375 25.984375 
Q 15.484375 15.234375 19.015625 9.71875 
Q 22.5625 4.203125 29.5 4.203125 
Q 36.328125 4.203125 39.90625 9.109375 
Q 43.5 14.015625 43.5 23.390625 
z
" id="DejaVuSerif-103"/>
      <path d="M 25.875 72.90625 
L 33.6875 72.90625 
L 7.8125 -9.28125 
L 0 -9.28125 
z
" id="DejaVuSerif-47"/>
     </defs>
     <g transform="translate(32.832812 210.787678)rotate(-90)scale(0.17 -0.17)">
      <use xlink:href="#DejaVuSerif-84"/>
      <use x="66.589844" xlink:href="#DejaVuSerif-111"/>
      <use x="126.794922" xlink:href="#DejaVuSerif-116"/>
      <use x="166.980469" xlink:href="#DejaVuSerif-97"/>
      <use x="226.599609" xlink:href="#DejaVuSerif-108"/>
      <use x="258.582031" xlink:href="#DejaVuSerif-32"/>
      <use x="290.369141" xlink:href="#DejaVuSerif-66"/>
      <use x="363.855469" xlink:href="#DejaVuSerif-80"/>
      <use x="431" xlink:href="#DejaVuSerif-65"/>
      <use x="503.216797" xlink:href="#DejaVuSerif-32"/>
      <use x="535.003906" xlink:href="#DejaVuSerif-91"/>
      <use x="574.017578" xlink:href="#DejaVuSerif-110"/>
      <use x="638.421875" xlink:href="#DejaVuSerif-103"/>
      <use x="702.435547" xlink:href="#DejaVuSerif-47"/>
      <use x="736.126953" xlink:href="#DejaVuSerif-109"/>
      <use x="830.951172" xlink:href="#DejaVuSerif-108"/>
      <use x="862.933594" xlink:href="#DejaVuSerif-93"/>
     </g>
    </g>
   </g>
   <g id="LineCollection_1">
    <path clip-path="url(#pc12aea9f93)" d="M 81.706112 194.180515 
L 81.706112 99.566906 
" style="fill:none;stroke:#000000;stroke-width:1.5;"/>
    <path clip-path="url(#pc12aea9f93)" d="M 88.634244 68.941708 
L 88.634244 53.730517 
" style="fill:none;stroke:#000000;stroke-width:1.5;"/>
    <path clip-path="url(#pc12aea9f93)" d="M 95.562377 98.451419 
L 95.562377 86.282466 
" style="fill:none;stroke:#000000;stroke-width:1.5;"/>
    <path clip-path="url(#pc12aea9f93)" d="M 109.418643 169.969369 
L 109.418643 147.76103 
" style="fill:none;stroke:#000000;stroke-width:1.5;"/>
    <path clip-path="url(#pc12aea9f93)" d="M 161.379638 214.056471 
L 161.379638 205.183277 
" style="fill:none;stroke:#000000;stroke-width:1.5;"/>
    <path clip-path="url(#pc12aea9f93)" d="M 202.948434 229.62259 
L 202.948434 229.62259 
" style="fill:none;stroke:#000000;stroke-width:1.5;"/>
    <path clip-path="url(#pc12aea9f93)" d="M 244.51723 229.62259 
L 244.51723 229.62259 
" style="fill:none;stroke:#000000;stroke-width:1.5;"/>
   </g>
   <g id="line2d_10">
    <path clip-path="url(#pc12aea9f93)" d="M 78.242045 230.459206 
L 78.498386 214.027415 
L 79.65192 175.547169 
L 80.933625 138.551295 
L 81.958989 114.670001 
L 82.984352 95.949118 
L 83.881545 83.467834 
L 84.778739 74.204248 
L 85.547761 68.49813 
L 86.188614 65.116314 
L 86.829466 62.829807 
L 87.342148 61.699551 
L 87.85483 61.122053 
L 88.239341 61.016397 
L 88.623852 61.165802 
L 89.008364 61.548722 
L 89.521045 62.387811 
L 90.161898 63.903019 
L 90.93092 66.303313 
L 91.956284 70.300209 
L 93.237989 76.25056 
L 95.032375 85.721248 
L 98.749318 106.899931 
L 102.20992 126.027188 
L 104.77333 139.002722 
L 107.208568 150.178528 
L 109.515636 159.699271 
L 111.694534 167.764286 
L 113.873432 174.980351 
L 116.05233 181.41064 
L 118.231227 187.123005 
L 120.410125 192.185872 
L 122.589023 196.665413 
L 124.76792 200.623642 
L 126.946818 204.117685 
L 129.125716 207.19965 
L 131.304614 209.916611 
L 133.611682 212.442404 
L 135.91875 214.650822 
L 138.353989 216.681029 
L 140.917398 218.528041 
L 143.608977 220.191528 
L 146.428727 221.675105 
L 149.504818 223.037648 
L 152.83725 224.261949 
L 156.426023 225.339481 
L 160.399307 226.296833 
L 164.885273 227.142445 
L 170.012091 227.874403 
L 175.907932 228.487221 
L 183.085477 229.001365 
L 192.057409 229.409987 
L 203.977261 229.717807 
L 221.792955 229.934549 
L 255.117273 230.079577 
L 334.582955 230.2073 
L 334.582955 230.2073 
" style="fill:none;stroke:#0f2080;stroke-linecap:square;stroke-width:1.5;"/>
   </g>
   <g id="line2d_11">
    <defs>
     <path d="M 4 0 
L -4 -0 
" id="m029c0c317f" style="stroke:#000000;"/>
    </defs>
    <g clip-path="url(#pc12aea9f93)">
     <use style="stroke:#000000;" x="81.706112" xlink:href="#m029c0c317f" y="194.180515"/>
     <use style="stroke:#000000;" x="88.634244" xlink:href="#m029c0c317f" y="68.941708"/>
     <use style="stroke:#000000;" x="95.562377" xlink:href="#m029c0c317f" y="98.451419"/>
     <use style="stroke:#000000;" x="109.418643" xlink:href="#m029c0c317f" y="169.969369"/>
     <use style="stroke:#000000;" x="161.379638" xlink:href="#m029c0c317f" y="214.056471"/>
     <use style="stroke:#000000;" x="202.948434" xlink:href="#m029c0c317f" y="229.62259"/>
     <use style="stroke:#000000;" x="244.51723" xlink:href="#m029c0c317f" y="229.62259"/>
    </g>
   </g>
   <g id="line2d_12">
    <g clip-path="url(#pc12aea9f93)">
     <use style="stroke:#000000;" x="81.706112" xlink:href="#m029c0c317f" y="99.566906"/>
     <use style="stroke:#000000;" x="88.634244" xlink:href="#m029c0c317f" y="53.730517"/>
     <use style="stroke:#000000;" x="95.562377" xlink:href="#m029c0c317f" y="86.282466"/>
     <use style="stroke:#000000;" x="109.418643" xlink:href="#m029c0c317f" y="147.76103"/>
     <use style="stroke:#000000;" x="161.379638" xlink:href="#m029c0c317f" y="205.183277"/>
     <use style="stroke:#000000;" x="202.948434" xlink:href="#m029c0c317f" y="229.62259"/>
     <use style="stroke:#000000;" x="244.51723" xlink:href="#m029c0c317f" y="229.62259"/>
    </g>
   </g>
   <g id="line2d_13">
    <defs>
     <path d="M 0 6.363961 
L 3.818377 0 
L 0 -6.363961 
L -3.818377 0 
z
" id="m958ecce074" style="stroke:#000000;stroke-linejoin:miter;"/>
    </defs>
    <g clip-path="url(#pc12aea9f93)">
     <use style="fill-opacity:0;stroke:#000000;stroke-linejoin:miter;" x="81.706112" xlink:href="#m958ecce074" y="146.873711"/>
     <use style="fill-opacity:0;stroke:#000000;stroke-linejoin:miter;" x="88.634244" xlink:href="#m958ecce074" y="61.336112"/>
     <use style="fill-opacity:0;stroke:#000000;stroke-linejoin:miter;" x="95.562377" xlink:href="#m958ecce074" y="92.366942"/>
     <use style="fill-opacity:0;stroke:#000000;stroke-linejoin:miter;" x="109.418643" xlink:href="#m958ecce074" y="158.8652"/>
     <use style="fill-opacity:0;stroke:#000000;stroke-linejoin:miter;" x="161.379638" xlink:href="#m958ecce074" y="209.619874"/>
     <use style="fill-opacity:0;stroke:#000000;stroke-linejoin:miter;" x="202.948434" xlink:href="#m958ecce074" y="229.62259"/>
     <use style="fill-opacity:0;stroke:#000000;stroke-linejoin:miter;" x="244.51723" xlink:href="#m958ecce074" y="229.62259"/>
    </g>
   </g>
   <g id="patch_3">
    <path d="M 65.425 240.6 
L 65.425 27.643324 
" style="fill:none;stroke:#000000;stroke-linecap:square;stroke-linejoin:miter;stroke-width:0.8;"/>
   </g>
   <g id="patch_4">
    <path d="M 347.4 240.6 
L 347.4 27.643324 
" style="fill:none;stroke:#000000;stroke-linecap:square;stroke-linejoin:miter;stroke-width:0.8;"/>
   </g>
   <g id="patch_5">
    <path d="M 65.425 240.6 
L 347.4 240.6 
" style="fill:none;stroke:#000000;stroke-linecap:square;stroke-linejoin:miter;stroke-width:0.8;"/>
   </g>
   <g id="patch_6">
    <path d="M 65.425 27.643324 
L 347.4 27.643324 
" style="fill:none;stroke:#000000;stroke-linecap:square;stroke-linejoin:miter;stroke-width:0.8;"/>
   </g>
  </g>
  <g id="axes_2">
   <g id="patch_7">
    <path d="M 426.325 240.6 
L 708.3 240.6 
L 708.3 27.643324 
L 426.325 27.643324 
z
" style="fill:#ffffff;"/>
   </g>
   <g id="matplotlib.axis_3">
    <g id="xtick_5">
     <g id="line2d_14">
      <g>
       <use style="stroke:#000000;stroke-width:0.8;" x="439.142045" xlink:href="#m73e72a9714" y="240.6"/>
      </g>
     </g>
     <g id="text_12">
      <!-- 0 -->
      <g transform="translate(434.688295 258.237813)scale(0.14 -0.14)">
       <use xlink:href="#DejaVuSerif-48"/>
      </g>
     </g>
    </g>
    <g id="xtick_6">
     <g id="line2d_15">
      <g>
       <use style="stroke:#000000;stroke-width:0.8;" x="492.546402" xlink:href="#m73e72a9714" y="240.6"/>
      </g>
     </g>
     <g id="text_13">
      <!-- 10 -->
      <defs>
       <path d="M 14.203125 0 
L 14.203125 5.171875 
L 26.90625 5.171875 
L 26.90625 65.828125 
L 12.203125 56.296875 
L 12.203125 62.703125 
L 29.984375 74.21875 
L 36.71875 74.21875 
L 36.71875 5.171875 
L 49.421875 5.171875 
L 49.421875 0 
z
" id="DejaVuSerif-49"/>
      </defs>
      <g transform="translate(483.638902 258.237813)scale(0.14 -0.14)">
       <use xlink:href="#DejaVuSerif-49"/>
       <use x="63.623047" xlink:href="#DejaVuSerif-48"/>
      </g>
     </g>
    </g>
    <g id="xtick_7">
     <g id="line2d_16">
      <g>
       <use style="stroke:#000000;stroke-width:0.8;" x="545.950758" xlink:href="#m73e72a9714" y="240.6"/>
      </g>
     </g>
     <g id="text_14">
      <!-- 20 -->
      <g transform="translate(537.043258 258.237813)scale(0.14 -0.14)">
       <use xlink:href="#DejaVuSerif-50"/>
       <use x="63.623047" xlink:href="#DejaVuSerif-48"/>
      </g>
     </g>
    </g>
    <g id="xtick_8">
     <g id="line2d_17">
      <g>
       <use style="stroke:#000000;stroke-width:0.8;" x="599.355114" xlink:href="#m73e72a9714" y="240.6"/>
      </g>
     </g>
     <g id="text_15">
      <!-- 30 -->
      <defs>
       <path d="M 9.71875 69.828125 
Q 15.4375 71.96875 20.671875 73.09375 
Q 25.921875 74.21875 30.515625 74.21875 
Q 41.21875 74.21875 47.21875 69.59375 
Q 53.21875 64.984375 53.21875 56.78125 
Q 53.21875 50.203125 49.0625 45.78125 
Q 44.921875 41.359375 37.3125 39.796875 
Q 46.296875 38.53125 51.25 33.28125 
Q 56.203125 28.03125 56.203125 19.671875 
Q 56.203125 9.46875 49.34375 4.015625 
Q 42.484375 -1.421875 29.59375 -1.421875 
Q 23.875 -1.421875 18.421875 -0.1875 
Q 12.984375 1.03125 7.625 3.515625 
L 7.625 17.671875 
L 13.09375 17.671875 
Q 13.578125 10.640625 17.828125 7.03125 
Q 22.078125 3.421875 29.78125 3.421875 
Q 37.25 3.421875 41.578125 7.734375 
Q 45.90625 12.0625 45.90625 19.578125 
Q 45.90625 28.171875 41.453125 32.59375 
Q 37.015625 37.015625 28.421875 37.015625 
L 23.78125 37.015625 
L 23.78125 42 
L 26.21875 42 
Q 34.765625 42 39.03125 45.53125 
Q 43.3125 49.078125 43.3125 56.203125 
Q 43.3125 62.59375 39.796875 65.984375 
Q 36.28125 69.390625 29.6875 69.390625 
Q 23.09375 69.390625 19.453125 66.265625 
Q 15.828125 63.140625 15.1875 56.984375 
L 9.71875 56.984375 
z
" id="DejaVuSerif-51"/>
      </defs>
      <g transform="translate(590.447614 258.237813)scale(0.14 -0.14)">
       <use xlink:href="#DejaVuSerif-51"/>
       <use x="63.623047" xlink:href="#DejaVuSerif-48"/>
      </g>
     </g>
    </g>
    <g id="xtick_9">
     <g id="line2d_18">
      <g>
       <use style="stroke:#000000;stroke-width:0.8;" x="652.75947" xlink:href="#m73e72a9714" y="240.6"/>
      </g>
     </g>
     <g id="text_16">
      <!-- 40 -->
      <g transform="translate(643.85197 258.237813)scale(0.14 -0.14)">
       <use xlink:href="#DejaVuSerif-52"/>
       <use x="63.623047" xlink:href="#DejaVuSerif-48"/>
      </g>
     </g>
    </g>
    <g id="xtick_10">
     <g id="line2d_19">
      <g>
       <use style="stroke:#000000;stroke-width:0.8;" x="706.163826" xlink:href="#m73e72a9714" y="240.6"/>
      </g>
     </g>
     <g id="text_17">
      <!-- 50 -->
      <defs>
       <path d="M 50.296875 72.90625 
L 50.296875 64.890625 
L 16.890625 64.890625 
L 16.890625 44 
Q 19.4375 45.75 22.828125 46.625 
Q 26.21875 47.515625 30.421875 47.515625 
Q 42.234375 47.515625 49.0625 40.96875 
Q 55.90625 34.421875 55.90625 23.09375 
Q 55.90625 11.53125 49 5.046875 
Q 42.09375 -1.421875 29.59375 -1.421875 
Q 24.5625 -1.421875 19.28125 -0.1875 
Q 14.015625 1.03125 8.5 3.515625 
L 8.5 17.671875 
L 14.015625 17.671875 
Q 14.453125 10.75 18.421875 7.078125 
Q 22.40625 3.421875 29.59375 3.421875 
Q 37.3125 3.421875 41.453125 8.5 
Q 45.609375 13.578125 45.609375 23.09375 
Q 45.609375 32.5625 41.484375 37.609375 
Q 37.359375 42.671875 29.59375 42.671875 
Q 25.203125 42.671875 21.84375 41.109375 
Q 18.5 39.546875 15.921875 36.28125 
L 11.71875 36.28125 
L 11.71875 72.90625 
z
" id="DejaVuSerif-53"/>
      </defs>
      <g transform="translate(697.256326 258.237813)scale(0.14 -0.14)">
       <use xlink:href="#DejaVuSerif-53"/>
       <use x="63.623047" xlink:href="#DejaVuSerif-48"/>
      </g>
     </g>
    </g>
    <g id="text_18">
     <!-- Time [h] -->
     <g transform="translate(531.024141 278.066719)scale(0.17 -0.17)">
      <use xlink:href="#DejaVuSerif-84"/>
      <use x="66.699219" xlink:href="#DejaVuSerif-105"/>
      <use x="98.681641" xlink:href="#DejaVuSerif-109"/>
      <use x="193.505859" xlink:href="#DejaVuSerif-101"/>
      <use x="252.685547" xlink:href="#DejaVuSerif-32"/>
      <use x="284.472656" xlink:href="#DejaVuSerif-91"/>
      <use x="323.486328" xlink:href="#DejaVuSerif-104"/>
      <use x="387.890625" xlink:href="#DejaVuSerif-93"/>
     </g>
    </g>
   </g>
   <g id="matplotlib.axis_4">
    <g id="ytick_6">
     <g id="line2d_20">
      <g>
       <use style="stroke:#000000;stroke-width:0.8;" x="426.325" xlink:href="#m37260cf836" y="230.459206"/>
      </g>
     </g>
     <g id="text_19">
      <!-- 0 -->
      <g transform="translate(410.4175 235.778112)scale(0.14 -0.14)">
       <use xlink:href="#DejaVuSerif-48"/>
      </g>
     </g>
    </g>
    <g id="ytick_7">
     <g id="line2d_21">
      <g>
       <use style="stroke:#000000;stroke-width:0.8;" x="426.325" xlink:href="#m37260cf836" y="179.755235"/>
      </g>
     </g>
     <g id="text_20">
      <!-- 20 -->
      <g transform="translate(401.51 185.074142)scale(0.14 -0.14)">
       <use xlink:href="#DejaVuSerif-50"/>
       <use x="63.623047" xlink:href="#DejaVuSerif-48"/>
      </g>
     </g>
    </g>
    <g id="ytick_8">
     <g id="line2d_22">
      <g>
       <use style="stroke:#000000;stroke-width:0.8;" x="426.325" xlink:href="#m37260cf836" y="129.051265"/>
      </g>
     </g>
     <g id="text_21">
      <!-- 40 -->
      <g transform="translate(401.51 134.370171)scale(0.14 -0.14)">
       <use xlink:href="#DejaVuSerif-52"/>
       <use x="63.623047" xlink:href="#DejaVuSerif-48"/>
      </g>
     </g>
    </g>
    <g id="ytick_9">
     <g id="line2d_23">
      <g>
       <use style="stroke:#000000;stroke-width:0.8;" x="426.325" xlink:href="#m37260cf836" y="78.347294"/>
      </g>
     </g>
     <g id="text_22">
      <!-- 60 -->
      <g transform="translate(401.51 83.666201)scale(0.14 -0.14)">
       <use xlink:href="#DejaVuSerif-54"/>
       <use x="63.623047" xlink:href="#DejaVuSerif-48"/>
      </g>
     </g>
    </g>
    <g id="ytick_10">
     <g id="line2d_24">
      <g>
       <use style="stroke:#000000;stroke-width:0.8;" x="426.325" xlink:href="#m37260cf836" y="27.643324"/>
      </g>
     </g>
     <g id="text_23">
      <!-- 80 -->
      <g transform="translate(401.51 32.96223)scale(0.14 -0.14)">
       <use xlink:href="#DejaVuSerif-56"/>
       <use x="63.623047" xlink:href="#DejaVuSerif-48"/>
      </g>
     </g>
    </g>
    <g id="text_24">
     <!-- Unconjugated BPA [ng/ml] -->
     <defs>
      <path d="M 14.015625 67.671875 
L 4.6875 67.671875 
L 4.6875 72.90625 
L 33.203125 72.90625 
L 33.203125 67.671875 
L 23.875 67.671875 
L 23.875 29.984375 
Q 23.875 16.015625 28.4375 10.5 
Q 33.015625 4.984375 44.1875 4.984375 
Q 55.375 4.984375 59.9375 10.5 
Q 64.5 16.015625 64.5 29.984375 
L 64.5 67.671875 
L 55.171875 67.671875 
L 55.171875 72.90625 
L 79.78125 72.90625 
L 79.78125 67.671875 
L 70.515625 67.671875 
L 70.515625 29 
Q 70.515625 12.359375 64.109375 5.46875 
Q 57.71875 -1.421875 42.390625 -1.421875 
Q 27.046875 -1.421875 20.53125 5.515625 
Q 14.015625 12.453125 14.015625 29 
z
" id="DejaVuSerif-85"/>
      <path d="M 51.421875 15.578125 
Q 49.515625 7.28125 44.09375 2.921875 
Q 38.671875 -1.421875 30.078125 -1.421875 
Q 18.75 -1.421875 11.859375 6.078125 
Q 4.984375 13.578125 4.984375 25.984375 
Q 4.984375 38.421875 11.859375 45.875 
Q 18.75 53.328125 30.078125 53.328125 
Q 35.015625 53.328125 39.890625 52.171875 
Q 44.78125 51.03125 49.703125 48.6875 
L 49.703125 35.40625 
L 44.484375 35.40625 
Q 43.453125 42.234375 40.015625 45.359375 
Q 36.578125 48.484375 30.171875 48.484375 
Q 22.90625 48.484375 19.1875 42.84375 
Q 15.484375 37.203125 15.484375 25.984375 
Q 15.484375 14.75 19.171875 9.078125 
Q 22.859375 3.421875 30.171875 3.421875 
Q 35.984375 3.421875 39.453125 6.4375 
Q 42.921875 9.46875 44.1875 15.578125 
z
" id="DejaVuSerif-99"/>
      <path d="M 10.015625 68.015625 
Q 10.015625 70.265625 11.640625 71.921875 
Q 13.28125 73.578125 15.578125 73.578125 
Q 17.828125 73.578125 19.453125 71.921875 
Q 21.09375 70.265625 21.09375 68.015625 
Q 21.09375 65.71875 19.5 64.109375 
Q 17.921875 62.5 15.578125 62.5 
Q 13.28125 62.5 11.640625 64.109375 
Q 10.015625 65.71875 10.015625 68.015625 
z
M 12.203125 46.6875 
L 3.71875 46.6875 
L 3.71875 51.90625 
L 21.1875 51.90625 
L 21.1875 -5.078125 
Q 21.1875 -13.09375 16.421875 -17.65625 
Q 11.671875 -22.21875 3.328125 -22.21875 
Q -0.203125 -22.21875 -3.390625 -21.40625 
Q -6.59375 -20.609375 -9.625 -19 
L -9.625 -8.296875 
L -4.984375 -8.296875 
Q -4.640625 -12.984375 -2.5625 -15.1875 
Q -0.484375 -17.390625 3.515625 -17.390625 
Q 7.953125 -17.390625 10.078125 -14.375 
Q 12.203125 -11.375 12.203125 -5.078125 
z
" id="DejaVuSerif-106"/>
      <path d="M 35.40625 51.90625 
L 52.203125 51.90625 
L 52.203125 5.171875 
L 60.6875 5.171875 
L 60.6875 0 
L 43.21875 0 
L 43.21875 9.1875 
Q 40.71875 4 36.765625 1.28125 
Q 32.8125 -1.421875 27.59375 -1.421875 
Q 18.953125 -1.421875 14.875 3.484375 
Q 10.796875 8.40625 10.796875 18.890625 
L 10.796875 46.6875 
L 2.6875 46.6875 
L 2.6875 51.90625 
L 19.828125 51.90625 
L 19.828125 21.6875 
Q 19.828125 12.203125 22.140625 8.6875 
Q 24.46875 5.171875 30.421875 5.171875 
Q 36.671875 5.171875 39.9375 9.765625 
Q 43.21875 14.359375 43.21875 23.09375 
L 43.21875 46.6875 
L 35.40625 46.6875 
z
" id="DejaVuSerif-117"/>
      <path d="M 52.484375 5.171875 
L 61.078125 5.171875 
L 61.078125 0 
L 43.5 0 
L 43.5 8.109375 
Q 40.875 3.21875 36.796875 0.890625 
Q 32.71875 -1.421875 26.703125 -1.421875 
Q 17.140625 -1.421875 11.0625 6.171875 
Q 4.984375 13.765625 4.984375 25.984375 
Q 4.984375 38.1875 11.03125 45.75 
Q 17.09375 53.328125 26.703125 53.328125 
Q 32.71875 53.328125 36.796875 51 
Q 40.875 48.6875 43.5 43.796875 
L 43.5 70.796875 
L 35.015625 70.796875 
L 35.015625 75.984375 
L 52.484375 75.984375 
z
M 43.5 23.390625 
L 43.5 28.515625 
Q 43.5 37.84375 39.90625 42.765625 
Q 36.328125 47.703125 29.5 47.703125 
Q 22.5625 47.703125 19.015625 42.234375 
Q 15.484375 36.765625 15.484375 25.984375 
Q 15.484375 15.234375 19.015625 9.71875 
Q 22.5625 4.203125 29.5 4.203125 
Q 36.328125 4.203125 39.90625 9.109375 
Q 43.5 14.015625 43.5 23.390625 
z
" id="DejaVuSerif-100"/>
     </defs>
     <g transform="translate(393.732812 249.304631)rotate(-90)scale(0.17 -0.17)">
      <use xlink:href="#DejaVuSerif-85"/>
      <use x="84.277344" xlink:href="#DejaVuSerif-110"/>
      <use x="148.681641" xlink:href="#DejaVuSerif-99"/>
      <use x="204.6875" xlink:href="#DejaVuSerif-111"/>
      <use x="264.892578" xlink:href="#DejaVuSerif-110"/>
      <use x="329.296875" xlink:href="#DejaVuSerif-106"/>
      <use x="360.302734" xlink:href="#DejaVuSerif-117"/>
      <use x="424.707031" xlink:href="#DejaVuSerif-103"/>
      <use x="488.720703" xlink:href="#DejaVuSerif-97"/>
      <use x="548.339844" xlink:href="#DejaVuSerif-116"/>
      <use x="588.525391" xlink:href="#DejaVuSerif-101"/>
      <use x="647.705078" xlink:href="#DejaVuSerif-100"/>
      <use x="711.71875" xlink:href="#DejaVuSerif-32"/>
      <use x="743.505859" xlink:href="#DejaVuSerif-66"/>
      <use x="816.992188" xlink:href="#DejaVuSerif-80"/>
      <use x="884.136719" xlink:href="#DejaVuSerif-65"/>
      <use x="956.353516" xlink:href="#DejaVuSerif-32"/>
      <use x="988.140625" xlink:href="#DejaVuSerif-91"/>
      <use x="1027.154297" xlink:href="#DejaVuSerif-110"/>
      <use x="1091.558594" xlink:href="#DejaVuSerif-103"/>
      <use x="1155.572266" xlink:href="#DejaVuSerif-47"/>
      <use x="1189.263672" xlink:href="#DejaVuSerif-109"/>
      <use x="1284.087891" xlink:href="#DejaVuSerif-108"/>
      <use x="1316.070312" xlink:href="#DejaVuSerif-93"/>
     </g>
    </g>
   </g>
   <g id="LineCollection_2">
    <path clip-path="url(#pc59305f09d)" d="M 567.3125 145.873363 
L 567.3125 92.905205 
" style="fill:none;stroke:#000000;stroke-width:1.5;"/>
   </g>
   <g id="line2d_25">
    <path clip-path="url(#pc59305f09d)" d="M 439.142045 230.459206 
L 439.398386 156.461714 
L 439.782898 124.150609 
L 440.167409 110.337098 
L 440.680091 99.225903 
L 441.320943 89.686141 
L 442.089966 81.379758 
L 442.858989 75.239404 
L 443.628011 70.64094 
L 444.397034 67.186236 
L 445.166057 64.586927 
L 446.06325 62.355093 
L 446.960443 60.750383 
L 447.857636 59.593378 
L 448.883 58.657903 
L 450.036534 57.94362 
L 451.318239 57.423739 
L 452.984455 57.008252 
L 455.291523 56.692058 
L 459.008466 56.440001 
L 468.236739 56.109386 
L 503.483614 55.128093 
L 545.651693 54.172651 
L 567.3125 53.759261 
L 567.568841 127.755371 
L 567.953352 160.061614 
L 568.337864 173.868404 
L 568.850545 184.971327 
L 569.491398 194.49965 
L 570.26042 202.793962 
L 571.029443 208.920185 
L 571.798466 213.504906 
L 572.567489 216.946049 
L 573.336511 219.531436 
L 574.233705 221.747398 
L 575.130898 223.336825 
L 576.028091 224.478121 
L 577.053455 225.395999 
L 578.206989 226.091036 
L 579.488693 226.589557 
L 581.154909 226.977235 
L 583.461977 227.256003 
L 587.17892 227.448411 
L 596.407193 227.635204 
L 644.471114 228.281585 
L 695.482955 228.804724 
L 695.482955 228.804724 
" style="fill:none;stroke:#f57938;stroke-linecap:square;stroke-width:1.5;"/>
   </g>
   <g id="line2d_26">
    <g clip-path="url(#pc59305f09d)">
     <use style="stroke:#000000;" x="567.3125" xlink:href="#m029c0c317f" y="145.873363"/>
    </g>
   </g>
   <g id="line2d_27">
    <g clip-path="url(#pc59305f09d)">
     <use style="stroke:#000000;" x="567.3125" xlink:href="#m029c0c317f" y="92.905205"/>
    </g>
   </g>
   <g id="line2d_28">
    <g clip-path="url(#pc59305f09d)">
     <use style="fill-opacity:0;stroke:#000000;stroke-linejoin:miter;" x="567.3125" xlink:href="#m958ecce074" y="119.389284"/>
    </g>
   </g>
   <g id="patch_8">
    <path d="M 426.325 240.6 
L 426.325 27.643324 
" style="fill:none;stroke:#000000;stroke-linecap:square;stroke-linejoin:miter;stroke-width:0.8;"/>
   </g>
   <g id="patch_9">
    <path d="M 708.3 240.6 
L 708.3 27.643324 
" style="fill:none;stroke:#000000;stroke-linecap:square;stroke-linejoin:miter;stroke-width:0.8;"/>
   </g>
   <g id="patch_10">
    <path d="M 426.325 240.6 
L 708.3 240.6 
" style="fill:none;stroke:#000000;stroke-linecap:square;stroke-linejoin:miter;stroke-width:0.8;"/>
   </g>
   <g id="patch_11">
    <path d="M 426.325 27.643324 
L 708.3 27.643324 
" style="fill:none;stroke:#000000;stroke-linecap:square;stroke-linejoin:miter;stroke-width:0.8;"/>
   </g>
  </g>
  <g id="axes_3">
   <g id="patch_12">
    <path d="M 787.225 240.6 
L 1069.2 240.6 
L 1069.2 27.643324 
L 787.225 27.643324 
z
" style="fill:#ffffff;"/>
   </g>
   <g id="matplotlib.axis_5">
    <g id="xtick_11">
     <g id="line2d_29">
      <g>
       <use style="stroke:#000000;stroke-width:0.8;" x="800.042045" xlink:href="#m73e72a9714" y="240.6"/>
      </g>
     </g>
     <g id="text_25">
      <!-- 0 -->
      <g transform="translate(795.588295 258.237813)scale(0.14 -0.14)">
       <use xlink:href="#DejaVuSerif-48"/>
      </g>
     </g>
    </g>
    <g id="xtick_12">
     <g id="line2d_30">
      <g>
       <use style="stroke:#000000;stroke-width:0.8;" x="853.446402" xlink:href="#m73e72a9714" y="240.6"/>
      </g>
     </g>
     <g id="text_26">
      <!-- 10 -->
      <g transform="translate(844.538902 258.237813)scale(0.14 -0.14)">
       <use xlink:href="#DejaVuSerif-49"/>
       <use x="63.623047" xlink:href="#DejaVuSerif-48"/>
      </g>
     </g>
    </g>
    <g id="xtick_13">
     <g id="line2d_31">
      <g>
       <use style="stroke:#000000;stroke-width:0.8;" x="906.850758" xlink:href="#m73e72a9714" y="240.6"/>
      </g>
     </g>
     <g id="text_27">
      <!-- 20 -->
      <g transform="translate(897.943258 258.237813)scale(0.14 -0.14)">
       <use xlink:href="#DejaVuSerif-50"/>
       <use x="63.623047" xlink:href="#DejaVuSerif-48"/>
      </g>
     </g>
    </g>
    <g id="xtick_14">
     <g id="line2d_32">
      <g>
       <use style="stroke:#000000;stroke-width:0.8;" x="960.255114" xlink:href="#m73e72a9714" y="240.6"/>
      </g>
     </g>
     <g id="text_28">
      <!-- 30 -->
      <g transform="translate(951.347614 258.237813)scale(0.14 -0.14)">
       <use xlink:href="#DejaVuSerif-51"/>
       <use x="63.623047" xlink:href="#DejaVuSerif-48"/>
      </g>
     </g>
    </g>
    <g id="xtick_15">
     <g id="line2d_33">
      <g>
       <use style="stroke:#000000;stroke-width:0.8;" x="1013.65947" xlink:href="#m73e72a9714" y="240.6"/>
      </g>
     </g>
     <g id="text_29">
      <!-- 40 -->
      <g transform="translate(1004.75197 258.237813)scale(0.14 -0.14)">
       <use xlink:href="#DejaVuSerif-52"/>
       <use x="63.623047" xlink:href="#DejaVuSerif-48"/>
      </g>
     </g>
    </g>
    <g id="xtick_16">
     <g id="line2d_34">
      <g>
       <use style="stroke:#000000;stroke-width:0.8;" x="1067.063826" xlink:href="#m73e72a9714" y="240.6"/>
      </g>
     </g>
     <g id="text_30">
      <!-- 50 -->
      <g transform="translate(1058.156326 258.237813)scale(0.14 -0.14)">
       <use xlink:href="#DejaVuSerif-53"/>
       <use x="63.623047" xlink:href="#DejaVuSerif-48"/>
      </g>
     </g>
    </g>
    <g id="text_31">
     <!-- Time [h] -->
     <g transform="translate(891.924141 278.066719)scale(0.17 -0.17)">
      <use xlink:href="#DejaVuSerif-84"/>
      <use x="66.699219" xlink:href="#DejaVuSerif-105"/>
      <use x="98.681641" xlink:href="#DejaVuSerif-109"/>
      <use x="193.505859" xlink:href="#DejaVuSerif-101"/>
      <use x="252.685547" xlink:href="#DejaVuSerif-32"/>
      <use x="284.472656" xlink:href="#DejaVuSerif-91"/>
      <use x="323.486328" xlink:href="#DejaVuSerif-104"/>
      <use x="387.890625" xlink:href="#DejaVuSerif-93"/>
     </g>
    </g>
   </g>
   <g id="matplotlib.axis_6">
    <g id="ytick_11">
     <g id="line2d_35">
      <g>
       <use style="stroke:#000000;stroke-width:0.8;" x="787.225" xlink:href="#m37260cf836" y="231.673672"/>
      </g>
     </g>
     <g id="text_32">
      <!-- 0 -->
      <g transform="translate(771.3175 236.992579)scale(0.14 -0.14)">
       <use xlink:href="#DejaVuSerif-48"/>
      </g>
     </g>
    </g>
    <g id="ytick_12">
     <g id="line2d_36">
      <g>
       <use style="stroke:#000000;stroke-width:0.8;" x="787.225" xlink:href="#m37260cf836" y="180.666085"/>
      </g>
     </g>
     <g id="text_33">
      <!-- 400 -->
      <g transform="translate(753.5025 185.984991)scale(0.14 -0.14)">
       <use xlink:href="#DejaVuSerif-52"/>
       <use x="63.623047" xlink:href="#DejaVuSerif-48"/>
       <use x="127.246094" xlink:href="#DejaVuSerif-48"/>
      </g>
     </g>
    </g>
    <g id="ytick_13">
     <g id="line2d_37">
      <g>
       <use style="stroke:#000000;stroke-width:0.8;" x="787.225" xlink:href="#m37260cf836" y="129.658498"/>
      </g>
     </g>
     <g id="text_34">
      <!-- 800 -->
      <g transform="translate(753.5025 134.977404)scale(0.14 -0.14)">
       <use xlink:href="#DejaVuSerif-56"/>
       <use x="63.623047" xlink:href="#DejaVuSerif-48"/>
       <use x="127.246094" xlink:href="#DejaVuSerif-48"/>
      </g>
     </g>
    </g>
    <g id="ytick_14">
     <g id="line2d_38">
      <g>
       <use style="stroke:#000000;stroke-width:0.8;" x="787.225" xlink:href="#m37260cf836" y="78.650911"/>
      </g>
     </g>
     <g id="text_35">
      <!-- 1,200 -->
      <defs>
       <path d="M 3.609375 -9.71875 
Q 8.203125 -6.34375 10.34375 -1.78125 
Q 12.5 2.78125 12.5 9.28125 
L 12.5 11.078125 
L 22.125 11.078125 
Q 21.734375 2.734375 18.1875 -3.25 
Q 14.65625 -9.234375 7.515625 -13.625 
z
" id="DejaVuSerif-44"/>
      </defs>
      <g transform="translate(740.145625 83.969817)scale(0.14 -0.14)">
       <use xlink:href="#DejaVuSerif-49"/>
       <use x="63.623047" xlink:href="#DejaVuSerif-44"/>
       <use x="95.410156" xlink:href="#DejaVuSerif-50"/>
       <use x="159.033203" xlink:href="#DejaVuSerif-48"/>
       <use x="222.65625" xlink:href="#DejaVuSerif-48"/>
      </g>
     </g>
    </g>
    <g id="ytick_15">
     <g id="line2d_39">
      <g>
       <use style="stroke:#000000;stroke-width:0.8;" x="787.225" xlink:href="#m37260cf836" y="27.643324"/>
      </g>
     </g>
     <g id="text_36">
      <!-- 1,600 -->
      <g transform="translate(740.145625 32.96223)scale(0.14 -0.14)">
       <use xlink:href="#DejaVuSerif-49"/>
       <use x="63.623047" xlink:href="#DejaVuSerif-44"/>
       <use x="95.410156" xlink:href="#DejaVuSerif-54"/>
       <use x="159.033203" xlink:href="#DejaVuSerif-48"/>
       <use x="222.65625" xlink:href="#DejaVuSerif-48"/>
      </g>
     </g>
    </g>
    <g id="text_37">
     <!-- Conjugated BPA [ng/ml] -->
     <defs>
      <path d="M 70.515625 19.28125 
Q 67.28125 9.078125 59.6875 3.828125 
Q 52.09375 -1.421875 40.484375 -1.421875 
Q 33.34375 -1.421875 27.234375 1.015625 
Q 21.140625 3.46875 16.40625 8.203125 
Q 10.9375 13.671875 8.265625 20.625 
Q 5.609375 27.59375 5.609375 36.375 
Q 5.609375 53.375 15.421875 63.796875 
Q 25.25 74.21875 41.3125 74.21875 
Q 47.265625 74.21875 54 72.65625 
Q 60.75 71.09375 68.5 67.921875 
L 68.5 51.125 
L 62.984375 51.125 
Q 61.1875 60.296875 55.734375 64.640625 
Q 50.296875 69 40.484375 69 
Q 28.8125 69 22.796875 60.71875 
Q 16.796875 52.4375 16.796875 36.375 
Q 16.796875 20.359375 22.796875 12.078125 
Q 28.8125 3.8125 40.484375 3.8125 
Q 48.640625 3.8125 53.90625 7.6875 
Q 59.1875 11.578125 61.53125 19.28125 
z
" id="DejaVuSerif-67"/>
     </defs>
     <g transform="translate(732.368437 238.410021)rotate(-90)scale(0.17 -0.17)">
      <use xlink:href="#DejaVuSerif-67"/>
      <use x="76.513672" xlink:href="#DejaVuSerif-111"/>
      <use x="136.71875" xlink:href="#DejaVuSerif-110"/>
      <use x="201.123047" xlink:href="#DejaVuSerif-106"/>
      <use x="232.128906" xlink:href="#DejaVuSerif-117"/>
      <use x="296.533203" xlink:href="#DejaVuSerif-103"/>
      <use x="360.546875" xlink:href="#DejaVuSerif-97"/>
      <use x="420.166016" xlink:href="#DejaVuSerif-116"/>
      <use x="460.351562" xlink:href="#DejaVuSerif-101"/>
      <use x="519.53125" xlink:href="#DejaVuSerif-100"/>
      <use x="583.544922" xlink:href="#DejaVuSerif-32"/>
      <use x="615.332031" xlink:href="#DejaVuSerif-66"/>
      <use x="688.818359" xlink:href="#DejaVuSerif-80"/>
      <use x="755.962891" xlink:href="#DejaVuSerif-65"/>
      <use x="828.179688" xlink:href="#DejaVuSerif-32"/>
      <use x="859.966797" xlink:href="#DejaVuSerif-91"/>
      <use x="898.980469" xlink:href="#DejaVuSerif-110"/>
      <use x="963.384766" xlink:href="#DejaVuSerif-103"/>
      <use x="1027.398438" xlink:href="#DejaVuSerif-47"/>
      <use x="1061.089844" xlink:href="#DejaVuSerif-109"/>
      <use x="1155.914062" xlink:href="#DejaVuSerif-108"/>
      <use x="1187.896484" xlink:href="#DejaVuSerif-93"/>
     </g>
    </g>
   </g>
   <g id="LineCollection_3">
    <path clip-path="url(#p0f4feadff7)" d="M 928.2125 162.104095 
L 928.2125 75.877014 
" style="fill:none;stroke:#000000;stroke-width:1.5;"/>
   </g>
   <g id="line2d_40">
    <path clip-path="url(#p0f4feadff7)" d="M 800.042045 231.673672 
L 800.298386 226.509843 
L 801.32375 215.459619 
L 802.733625 202.541302 
L 804.1435 191.602485 
L 805.553375 182.336921 
L 806.96325 174.488219 
L 808.373125 167.840523 
L 809.783 162.209644 
L 811.192875 157.440037 
L 812.60275 153.399801 
L 814.012625 149.977564 
L 815.55067 146.838303 
L 817.088716 144.21899 
L 818.626761 142.033576 
L 820.164807 140.210199 
L 821.831023 138.574048 
L 823.625409 137.13636 
L 825.547966 135.898447 
L 827.598693 134.853274 
L 829.905761 133.942975 
L 832.46917 133.183061 
L 835.417091 132.550741 
L 838.877693 132.040828 
L 843.235489 131.633614 
L 849.003159 131.334297 
L 857.462409 131.140069 
L 872.971034 131.044823 
L 928.2125 131.026226 
L 928.468841 136.189985 
L 929.494205 147.240293 
L 930.90408 160.15861 
L 932.313955 171.097412 
L 933.72383 180.362904 
L 935.133705 188.211884 
L 936.54358 194.85946 
L 937.953455 200.490253 
L 939.36333 205.259797 
L 940.773205 209.299801 
L 942.18308 212.722098 
L 943.721125 215.861539 
L 945.25917 218.48075 
L 946.797216 220.66618 
L 948.335261 222.489588 
L 950.001477 224.125689 
L 951.795864 225.563251 
L 953.71842 226.801113 
L 955.769148 227.846404 
L 958.076216 228.756856 
L 960.639625 229.516842 
L 963.587545 230.14935 
L 967.048148 230.659484 
L 971.405943 231.066465 
L 977.173614 231.36577 
L 985.632864 231.559932 
L 1001.141489 231.655296 
L 1056.382955 231.673569 
L 1056.382955 231.673569 
" style="fill:none;stroke:#85c0f9;stroke-dasharray:5.55,2.4;stroke-dashoffset:0;stroke-width:1.5;"/>
   </g>
   <g id="line2d_41">
    <g clip-path="url(#p0f4feadff7)">
     <use style="stroke:#000000;" x="928.2125" xlink:href="#m029c0c317f" y="162.104095"/>
    </g>
   </g>
   <g id="line2d_42">
    <g clip-path="url(#p0f4feadff7)">
     <use style="stroke:#000000;" x="928.2125" xlink:href="#m029c0c317f" y="75.877014"/>
    </g>
   </g>
   <g id="line2d_43">
    <g clip-path="url(#p0f4feadff7)">
     <use style="fill-opacity:0;stroke:#000000;stroke-linejoin:miter;" x="928.2125" xlink:href="#m958ecce074" y="118.990555"/>
    </g>
   </g>
   <g id="patch_13">
    <path d="M 787.225 240.6 
L 787.225 27.643324 
" style="fill:none;stroke:#000000;stroke-linecap:square;stroke-linejoin:miter;stroke-width:0.8;"/>
   </g>
   <g id="patch_14">
    <path d="M 1069.2 240.6 
L 1069.2 27.643324 
" style="fill:none;stroke:#000000;stroke-linecap:square;stroke-linejoin:miter;stroke-width:0.8;"/>
   </g>
   <g id="patch_15">
    <path d="M 787.225 240.6 
L 1069.2 240.6 
" style="fill:none;stroke:#000000;stroke-linecap:square;stroke-linejoin:miter;stroke-width:0.8;"/>
   </g>
   <g id="patch_16">
    <path d="M 787.225 27.643324 
L 1069.2 27.643324 
" style="fill:none;stroke:#000000;stroke-linecap:square;stroke-linejoin:miter;stroke-width:0.8;"/>
   </g>
  </g>
  <g id="axes_4">
   <g id="patch_17">
    <path d="M 65.425 523.2 
L 347.4 523.2 
L 347.4 310.243324 
L 65.425 310.243324 
z
" style="fill:#ffffff;"/>
   </g>
   <g id="matplotlib.axis_7">
    <g id="xtick_17">
     <g id="line2d_44">
      <g>
       <use style="stroke:#000000;stroke-width:0.8;" x="78.242045" xlink:href="#m73e72a9714" y="523.2"/>
      </g>
     </g>
     <g id="text_38">
      <!-- 0 -->
      <g transform="translate(73.788295 540.837813)scale(0.14 -0.14)">
       <use xlink:href="#DejaVuSerif-48"/>
      </g>
     </g>
    </g>
    <g id="xtick_18">
     <g id="line2d_45">
      <g>
       <use style="stroke:#000000;stroke-width:0.8;" x="147.523372" xlink:href="#m73e72a9714" y="523.2"/>
      </g>
     </g>
     <g id="text_39">
      <!-- 20 -->
      <g transform="translate(138.615872 540.837813)scale(0.14 -0.14)">
       <use xlink:href="#DejaVuSerif-50"/>
       <use x="63.623047" xlink:href="#DejaVuSerif-48"/>
      </g>
     </g>
    </g>
    <g id="xtick_19">
     <g id="line2d_46">
      <g>
       <use style="stroke:#000000;stroke-width:0.8;" x="216.804699" xlink:href="#m73e72a9714" y="523.2"/>
      </g>
     </g>
     <g id="text_40">
      <!-- 40 -->
      <g transform="translate(207.897199 540.837813)scale(0.14 -0.14)">
       <use xlink:href="#DejaVuSerif-52"/>
       <use x="63.623047" xlink:href="#DejaVuSerif-48"/>
      </g>
     </g>
    </g>
    <g id="xtick_20">
     <g id="line2d_47">
      <g>
       <use style="stroke:#000000;stroke-width:0.8;" x="286.086026" xlink:href="#m73e72a9714" y="523.2"/>
      </g>
     </g>
     <g id="text_41">
      <!-- 60 -->
      <g transform="translate(277.178526 540.837813)scale(0.14 -0.14)">
       <use xlink:href="#DejaVuSerif-54"/>
       <use x="63.623047" xlink:href="#DejaVuSerif-48"/>
      </g>
     </g>
    </g>
    <g id="text_42">
     <!-- Time [h] -->
     <g transform="translate(170.124141 560.666719)scale(0.17 -0.17)">
      <use xlink:href="#DejaVuSerif-84"/>
      <use x="66.699219" xlink:href="#DejaVuSerif-105"/>
      <use x="98.681641" xlink:href="#DejaVuSerif-109"/>
      <use x="193.505859" xlink:href="#DejaVuSerif-101"/>
      <use x="252.685547" xlink:href="#DejaVuSerif-32"/>
      <use x="284.472656" xlink:href="#DejaVuSerif-91"/>
      <use x="323.486328" xlink:href="#DejaVuSerif-104"/>
      <use x="387.890625" xlink:href="#DejaVuSerif-93"/>
     </g>
    </g>
   </g>
   <g id="matplotlib.axis_8">
    <g id="ytick_16">
     <g id="line2d_48">
      <g>
       <use style="stroke:#000000;stroke-width:0.8;" x="65.425" xlink:href="#m37260cf836" y="514.681733"/>
      </g>
     </g>
     <g id="text_43">
      <!-- 0 -->
      <g transform="translate(49.5175 520.000639)scale(0.14 -0.14)">
       <use xlink:href="#DejaVuSerif-48"/>
      </g>
     </g>
    </g>
    <g id="ytick_17">
     <g id="line2d_49">
      <g>
       <use style="stroke:#000000;stroke-width:0.8;" x="65.425" xlink:href="#m37260cf836" y="472.090398"/>
      </g>
     </g>
     <g id="text_44">
      <!-- 25 -->
      <g transform="translate(40.61 477.409304)scale(0.14 -0.14)">
       <use xlink:href="#DejaVuSerif-50"/>
       <use x="63.623047" xlink:href="#DejaVuSerif-53"/>
      </g>
     </g>
    </g>
    <g id="ytick_18">
     <g id="line2d_50">
      <g>
       <use style="stroke:#000000;stroke-width:0.8;" x="65.425" xlink:href="#m37260cf836" y="429.499062"/>
      </g>
     </g>
     <g id="text_45">
      <!-- 50 -->
      <g transform="translate(40.61 434.817969)scale(0.14 -0.14)">
       <use xlink:href="#DejaVuSerif-53"/>
       <use x="63.623047" xlink:href="#DejaVuSerif-48"/>
      </g>
     </g>
    </g>
    <g id="ytick_19">
     <g id="line2d_51">
      <g>
       <use style="stroke:#000000;stroke-width:0.8;" x="65.425" xlink:href="#m37260cf836" y="386.907727"/>
      </g>
     </g>
     <g id="text_46">
      <!-- 75 -->
      <defs>
       <path d="M 56.390625 67.921875 
L 27.875 0 
L 20.609375 0 
L 47.796875 64.890625 
L 14.109375 64.890625 
L 14.109375 55.90625 
L 8.40625 55.90625 
L 8.40625 72.90625 
L 56.390625 72.90625 
z
" id="DejaVuSerif-55"/>
      </defs>
      <g transform="translate(40.61 392.226634)scale(0.14 -0.14)">
       <use xlink:href="#DejaVuSerif-55"/>
       <use x="63.623047" xlink:href="#DejaVuSerif-53"/>
      </g>
     </g>
    </g>
    <g id="ytick_20">
     <g id="line2d_52">
      <g>
       <use style="stroke:#000000;stroke-width:0.8;" x="65.425" xlink:href="#m37260cf836" y="344.316392"/>
      </g>
     </g>
     <g id="text_47">
      <!-- 100 -->
      <g transform="translate(31.7025 349.635298)scale(0.14 -0.14)">
       <use xlink:href="#DejaVuSerif-49"/>
       <use x="63.623047" xlink:href="#DejaVuSerif-48"/>
       <use x="127.246094" xlink:href="#DejaVuSerif-48"/>
      </g>
     </g>
    </g>
    <g id="text_48">
     <!-- Total BPA [ng/ml] -->
     <g transform="translate(23.925312 493.387678)rotate(-90)scale(0.17 -0.17)">
      <use xlink:href="#DejaVuSerif-84"/>
      <use x="66.589844" xlink:href="#DejaVuSerif-111"/>
      <use x="126.794922" xlink:href="#DejaVuSerif-116"/>
      <use x="166.980469" xlink:href="#DejaVuSerif-97"/>
      <use x="226.599609" xlink:href="#DejaVuSerif-108"/>
      <use x="258.582031" xlink:href="#DejaVuSerif-32"/>
      <use x="290.369141" xlink:href="#DejaVuSerif-66"/>
      <use x="363.855469" xlink:href="#DejaVuSerif-80"/>
      <use x="431" xlink:href="#DejaVuSerif-65"/>
      <use x="503.216797" xlink:href="#DejaVuSerif-32"/>
      <use x="535.003906" xlink:href="#DejaVuSerif-91"/>
      <use x="574.017578" xlink:href="#DejaVuSerif-110"/>
      <use x="638.421875" xlink:href="#DejaVuSerif-103"/>
      <use x="702.435547" xlink:href="#DejaVuSerif-47"/>
      <use x="736.126953" xlink:href="#DejaVuSerif-109"/>
      <use x="830.951172" xlink:href="#DejaVuSerif-108"/>
      <use x="862.933594" xlink:href="#DejaVuSerif-93"/>
     </g>
    </g>
   </g>
   <g id="LineCollection_4">
    <path clip-path="url(#pfb13428d37)" d="M 88.634244 449.448844 
L 88.634244 408.970039 
" style="fill:none;stroke:#000000;stroke-width:1.5;"/>
    <path clip-path="url(#pfb13428d37)" d="M 109.418643 376.32804 
L 109.418643 337.280303 
" style="fill:none;stroke:#000000;stroke-width:1.5;"/>
    <path clip-path="url(#pfb13428d37)" d="M 161.379638 390.212815 
L 161.379638 373.482938 
" style="fill:none;stroke:#000000;stroke-width:1.5;"/>
    <path clip-path="url(#pfb13428d37)" d="M 202.948434 423.451093 
L 202.948434 402.257644 
" style="fill:none;stroke:#000000;stroke-width:1.5;"/>
    <path clip-path="url(#pfb13428d37)" d="M 244.51723 441.952769 
L 244.51723 415.443922 
" style="fill:none;stroke:#000000;stroke-width:1.5;"/>
    <path clip-path="url(#pfb13428d37)" d="M 327.654822 468.086812 
L 327.654822 422.803705 
" style="fill:none;stroke:#000000;stroke-width:1.5;"/>
   </g>
   <g id="line2d_53">
    <path clip-path="url(#pfb13428d37)" d="M 78.242045 514.681733 
L 78.370216 514.066601 
L 79.39558 501.841512 
L 81.574477 482.527765 
L 83.753375 464.889697 
L 85.675932 451.034536 
L 87.598489 438.762446 
L 89.521045 427.951918 
L 91.443602 418.461415 
L 93.237989 410.673195 
L 95.032375 403.812048 
L 96.826761 397.784287 
L 98.621148 392.505299 
L 100.415534 387.898845 
L 102.20992 383.896286 
L 104.004307 380.435869 
L 105.798693 377.462039 
L 107.59308 374.92482 
L 109.387466 372.779257 
L 111.181852 370.984915 
L 112.976239 369.505424 
L 114.770625 368.308072 
L 116.565011 367.363435 
L 118.487568 366.601747 
L 120.410125 366.070654 
L 122.460852 365.729047 
L 124.63975 365.589787 
L 126.946818 365.66125 
L 129.510227 365.968019 
L 132.329977 366.5398 
L 135.406068 367.396351 
L 138.86667 368.59571 
L 142.839955 370.214835 
L 147.582261 372.401094 
L 153.349932 375.318473 
L 161.040159 379.473627 
L 176.164273 387.961644 
L 191.416557 396.412546 
L 203.080068 402.619415 
L 214.102727 408.233184 
L 224.869045 413.467947 
L 235.635364 418.45731 
L 246.529852 423.260845 
L 257.552511 427.879508 
L 268.831511 432.368464 
L 280.366852 436.720409 
L 292.158534 440.9316 
L 304.206557 444.999656 
L 316.639091 448.962525 
L 329.456136 452.812131 
L 334.582955 454.288005 
L 334.582955 454.288005 
" style="fill:none;stroke:#0f2080;stroke-linecap:square;stroke-width:1.5;"/>
   </g>
   <g id="line2d_54">
    <g clip-path="url(#pfb13428d37)">
     <use style="stroke:#000000;" x="88.634244" xlink:href="#m029c0c317f" y="449.448844"/>
     <use style="stroke:#000000;" x="109.418643" xlink:href="#m029c0c317f" y="376.32804"/>
     <use style="stroke:#000000;" x="161.379638" xlink:href="#m029c0c317f" y="390.212815"/>
     <use style="stroke:#000000;" x="202.948434" xlink:href="#m029c0c317f" y="423.451093"/>
     <use style="stroke:#000000;" x="244.51723" xlink:href="#m029c0c317f" y="441.952769"/>
     <use style="stroke:#000000;" x="327.654822" xlink:href="#m029c0c317f" y="468.086812"/>
    </g>
   </g>
   <g id="line2d_55">
    <g clip-path="url(#pfb13428d37)">
     <use style="stroke:#000000;" x="88.634244" xlink:href="#m029c0c317f" y="408.970039"/>
     <use style="stroke:#000000;" x="109.418643" xlink:href="#m029c0c317f" y="337.280303"/>
     <use style="stroke:#000000;" x="161.379638" xlink:href="#m029c0c317f" y="373.482938"/>
     <use style="stroke:#000000;" x="202.948434" xlink:href="#m029c0c317f" y="402.257644"/>
     <use style="stroke:#000000;" x="244.51723" xlink:href="#m029c0c317f" y="415.443922"/>
     <use style="stroke:#000000;" x="327.654822" xlink:href="#m029c0c317f" y="422.803705"/>
    </g>
   </g>
   <g id="line2d_56">
    <g clip-path="url(#pfb13428d37)">
     <use style="fill-opacity:0;stroke:#000000;stroke-linejoin:miter;" x="88.634244" xlink:href="#m958ecce074" y="429.209441"/>
     <use style="fill-opacity:0;stroke:#000000;stroke-linejoin:miter;" x="109.418643" xlink:href="#m958ecce074" y="356.804172"/>
     <use style="fill-opacity:0;stroke:#000000;stroke-linejoin:miter;" x="161.379638" xlink:href="#m958ecce074" y="381.847877"/>
     <use style="fill-opacity:0;stroke:#000000;stroke-linejoin:miter;" x="202.948434" xlink:href="#m958ecce074" y="412.854369"/>
     <use style="fill-opacity:0;stroke:#000000;stroke-linejoin:miter;" x="244.51723" xlink:href="#m958ecce074" y="428.698345"/>
     <use style="fill-opacity:0;stroke:#000000;stroke-linejoin:miter;" x="327.654822" xlink:href="#m958ecce074" y="445.445258"/>
    </g>
   </g>
   <g id="patch_18">
    <path d="M 65.425 523.2 
L 65.425 310.243324 
" style="fill:none;stroke:#000000;stroke-linecap:square;stroke-linejoin:miter;stroke-width:0.8;"/>
   </g>
   <g id="patch_19">
    <path d="M 347.4 523.2 
L 347.4 310.243324 
" style="fill:none;stroke:#000000;stroke-linecap:square;stroke-linejoin:miter;stroke-width:0.8;"/>
   </g>
   <g id="patch_20">
    <path d="M 65.425 523.2 
L 347.4 523.2 
" style="fill:none;stroke:#000000;stroke-linecap:square;stroke-linejoin:miter;stroke-width:0.8;"/>
   </g>
   <g id="patch_21">
    <path d="M 65.425 310.243324 
L 347.4 310.243324 
" style="fill:none;stroke:#000000;stroke-linecap:square;stroke-linejoin:miter;stroke-width:0.8;"/>
   </g>
  </g>
  <g id="axes_5">
   <g id="patch_22">
    <path d="M 426.325 523.2 
L 708.3 523.2 
L 708.3 310.243324 
L 426.325 310.243324 
z
" style="fill:#ffffff;"/>
   </g>
   <g id="matplotlib.axis_9">
    <g id="xtick_21">
     <g id="line2d_57">
      <g>
       <use style="stroke:#000000;stroke-width:0.8;" x="439.142045" xlink:href="#m73e72a9714" y="523.2"/>
      </g>
     </g>
     <g id="text_49">
      <!-- 0 -->
      <g transform="translate(434.688295 540.837813)scale(0.14 -0.14)">
       <use xlink:href="#DejaVuSerif-48"/>
      </g>
     </g>
    </g>
    <g id="xtick_22">
     <g id="line2d_58">
      <g>
       <use style="stroke:#000000;stroke-width:0.8;" x="492.546402" xlink:href="#m73e72a9714" y="523.2"/>
      </g>
     </g>
     <g id="text_50">
      <!-- 10 -->
      <g transform="translate(483.638902 540.837813)scale(0.14 -0.14)">
       <use xlink:href="#DejaVuSerif-49"/>
       <use x="63.623047" xlink:href="#DejaVuSerif-48"/>
      </g>
     </g>
    </g>
    <g id="xtick_23">
     <g id="line2d_59">
      <g>
       <use style="stroke:#000000;stroke-width:0.8;" x="545.950758" xlink:href="#m73e72a9714" y="523.2"/>
      </g>
     </g>
     <g id="text_51">
      <!-- 20 -->
      <g transform="translate(537.043258 540.837813)scale(0.14 -0.14)">
       <use xlink:href="#DejaVuSerif-50"/>
       <use x="63.623047" xlink:href="#DejaVuSerif-48"/>
      </g>
     </g>
    </g>
    <g id="xtick_24">
     <g id="line2d_60">
      <g>
       <use style="stroke:#000000;stroke-width:0.8;" x="599.355114" xlink:href="#m73e72a9714" y="523.2"/>
      </g>
     </g>
     <g id="text_52">
      <!-- 30 -->
      <g transform="translate(590.447614 540.837813)scale(0.14 -0.14)">
       <use xlink:href="#DejaVuSerif-51"/>
       <use x="63.623047" xlink:href="#DejaVuSerif-48"/>
      </g>
     </g>
    </g>
    <g id="xtick_25">
     <g id="line2d_61">
      <g>
       <use style="stroke:#000000;stroke-width:0.8;" x="652.75947" xlink:href="#m73e72a9714" y="523.2"/>
      </g>
     </g>
     <g id="text_53">
      <!-- 40 -->
      <g transform="translate(643.85197 540.837813)scale(0.14 -0.14)">
       <use xlink:href="#DejaVuSerif-52"/>
       <use x="63.623047" xlink:href="#DejaVuSerif-48"/>
      </g>
     </g>
    </g>
    <g id="xtick_26">
     <g id="line2d_62">
      <g>
       <use style="stroke:#000000;stroke-width:0.8;" x="706.163826" xlink:href="#m73e72a9714" y="523.2"/>
      </g>
     </g>
     <g id="text_54">
      <!-- 50 -->
      <g transform="translate(697.256326 540.837813)scale(0.14 -0.14)">
       <use xlink:href="#DejaVuSerif-53"/>
       <use x="63.623047" xlink:href="#DejaVuSerif-48"/>
      </g>
     </g>
    </g>
    <g id="text_55">
     <!-- Time [h] -->
     <g transform="translate(531.024141 560.666719)scale(0.17 -0.17)">
      <use xlink:href="#DejaVuSerif-84"/>
      <use x="66.699219" xlink:href="#DejaVuSerif-105"/>
      <use x="98.681641" xlink:href="#DejaVuSerif-109"/>
      <use x="193.505859" xlink:href="#DejaVuSerif-101"/>
      <use x="252.685547" xlink:href="#DejaVuSerif-32"/>
      <use x="284.472656" xlink:href="#DejaVuSerif-91"/>
      <use x="323.486328" xlink:href="#DejaVuSerif-104"/>
      <use x="387.890625" xlink:href="#DejaVuSerif-93"/>
     </g>
    </g>
   </g>
   <g id="matplotlib.axis_10">
    <g id="ytick_21">
     <g id="line2d_63">
      <g>
       <use style="stroke:#000000;stroke-width:0.8;" x="426.325" xlink:href="#m37260cf836" y="516.33043"/>
      </g>
     </g>
     <g id="text_56">
      <!-- 0 -->
      <g transform="translate(410.4175 521.649336)scale(0.14 -0.14)">
       <use xlink:href="#DejaVuSerif-48"/>
      </g>
     </g>
    </g>
    <g id="ytick_22">
     <g id="line2d_64">
      <g>
       <use style="stroke:#000000;stroke-width:0.8;" x="426.325" xlink:href="#m37260cf836" y="473.395616"/>
      </g>
     </g>
     <g id="text_57">
      <!-- 25 -->
      <g transform="translate(401.51 478.714522)scale(0.14 -0.14)">
       <use xlink:href="#DejaVuSerif-50"/>
       <use x="63.623047" xlink:href="#DejaVuSerif-53"/>
      </g>
     </g>
    </g>
    <g id="ytick_23">
     <g id="line2d_65">
      <g>
       <use style="stroke:#000000;stroke-width:0.8;" x="426.325" xlink:href="#m37260cf836" y="430.460802"/>
      </g>
     </g>
     <g id="text_58">
      <!-- 50 -->
      <g transform="translate(401.51 435.779709)scale(0.14 -0.14)">
       <use xlink:href="#DejaVuSerif-53"/>
       <use x="63.623047" xlink:href="#DejaVuSerif-48"/>
      </g>
     </g>
    </g>
    <g id="ytick_24">
     <g id="line2d_66">
      <g>
       <use style="stroke:#000000;stroke-width:0.8;" x="426.325" xlink:href="#m37260cf836" y="387.525989"/>
      </g>
     </g>
     <g id="text_59">
      <!-- 75 -->
      <g transform="translate(401.51 392.844895)scale(0.14 -0.14)">
       <use xlink:href="#DejaVuSerif-55"/>
       <use x="63.623047" xlink:href="#DejaVuSerif-53"/>
      </g>
     </g>
    </g>
    <g id="ytick_25">
     <g id="line2d_67">
      <g>
       <use style="stroke:#000000;stroke-width:0.8;" x="426.325" xlink:href="#m37260cf836" y="344.591175"/>
      </g>
     </g>
     <g id="text_60">
      <!-- 100 -->
      <g transform="translate(392.6025 349.910081)scale(0.14 -0.14)">
       <use xlink:href="#DejaVuSerif-49"/>
       <use x="63.623047" xlink:href="#DejaVuSerif-48"/>
       <use x="127.246094" xlink:href="#DejaVuSerif-48"/>
      </g>
     </g>
    </g>
    <g id="text_61">
     <!-- Unconjugated BPA [ng/ml] -->
     <g transform="translate(384.825312 531.904631)rotate(-90)scale(0.17 -0.17)">
      <use xlink:href="#DejaVuSerif-85"/>
      <use x="84.277344" xlink:href="#DejaVuSerif-110"/>
      <use x="148.681641" xlink:href="#DejaVuSerif-99"/>
      <use x="204.6875" xlink:href="#DejaVuSerif-111"/>
      <use x="264.892578" xlink:href="#DejaVuSerif-110"/>
      <use x="329.296875" xlink:href="#DejaVuSerif-106"/>
      <use x="360.302734" xlink:href="#DejaVuSerif-117"/>
      <use x="424.707031" xlink:href="#DejaVuSerif-103"/>
      <use x="488.720703" xlink:href="#DejaVuSerif-97"/>
      <use x="548.339844" xlink:href="#DejaVuSerif-116"/>
      <use x="588.525391" xlink:href="#DejaVuSerif-101"/>
      <use x="647.705078" xlink:href="#DejaVuSerif-100"/>
      <use x="711.71875" xlink:href="#DejaVuSerif-32"/>
      <use x="743.505859" xlink:href="#DejaVuSerif-66"/>
      <use x="816.992188" xlink:href="#DejaVuSerif-80"/>
      <use x="884.136719" xlink:href="#DejaVuSerif-65"/>
      <use x="956.353516" xlink:href="#DejaVuSerif-32"/>
      <use x="988.140625" xlink:href="#DejaVuSerif-91"/>
      <use x="1027.154297" xlink:href="#DejaVuSerif-110"/>
      <use x="1091.558594" xlink:href="#DejaVuSerif-103"/>
      <use x="1155.572266" xlink:href="#DejaVuSerif-47"/>
      <use x="1189.263672" xlink:href="#DejaVuSerif-109"/>
      <use x="1284.087891" xlink:href="#DejaVuSerif-108"/>
      <use x="1316.070312" xlink:href="#DejaVuSerif-93"/>
     </g>
    </g>
   </g>
   <g id="LineCollection_5">
    <path clip-path="url(#pbb011bfc67)" d="M 567.3125 481.319155 
L 567.3125 465.793439 
" style="fill:none;stroke:#000000;stroke-width:1.5;"/>
   </g>
   <g id="line2d_68">
    <path clip-path="url(#pbb011bfc67)" d="M 439.142045 516.33043 
L 439.398386 404.659527 
L 439.654727 390.21033 
L 440.039239 381.867822 
L 440.42375 378.450592 
L 440.808261 376.72529 
L 441.320943 375.502329 
L 441.961795 374.571787 
L 443.11533 373.37119 
L 444.781545 371.984402 
L 447.088614 370.365208 
L 450.677386 368.147848 
L 456.957739 364.563224 
L 465.92967 359.69899 
L 475.542455 354.737725 
L 485.41158 349.8968 
L 495.408875 345.241618 
L 505.662511 340.714474 
L 516.044318 336.373415 
L 526.682466 332.165643 
L 537.576955 328.095654 
L 548.727784 324.167117 
L 560.134955 320.382916 
L 567.3125 318.117472 
L 567.568841 429.777791 
L 567.825182 444.158727 
L 568.209693 452.30064 
L 568.594205 455.708985 
L 568.978716 457.315979 
L 569.491398 458.388747 
L 570.13225 459.129986 
L 571.157614 459.910333 
L 572.695659 460.771029 
L 574.746386 461.653631 
L 577.950648 462.760036 
L 583.718318 464.477731 
L 594.612807 467.471011 
L 607.301682 470.728696 
L 620.375068 473.854607 
L 633.961136 476.873161 
L 648.059886 479.776141 
L 662.671318 482.556875 
L 677.923602 485.231736 
L 693.816739 487.791618 
L 695.482955 488.047353 
L 695.482955 488.047353 
" style="fill:none;stroke:#f57938;stroke-linecap:square;stroke-width:1.5;"/>
   </g>
   <g id="line2d_69">
    <g clip-path="url(#pbb011bfc67)">
     <use style="stroke:#000000;" x="567.3125" xlink:href="#m029c0c317f" y="481.319155"/>
    </g>
   </g>
   <g id="line2d_70">
    <g clip-path="url(#pbb011bfc67)">
     <use style="stroke:#000000;" x="567.3125" xlink:href="#m029c0c317f" y="465.793439"/>
    </g>
   </g>
   <g id="line2d_71">
    <g clip-path="url(#pbb011bfc67)">
     <use style="fill-opacity:0;stroke:#000000;stroke-linejoin:miter;" x="567.3125" xlink:href="#m958ecce074" y="473.556297"/>
    </g>
   </g>
   <g id="patch_23">
    <path d="M 426.325 523.2 
L 426.325 310.243324 
" style="fill:none;stroke:#000000;stroke-linecap:square;stroke-linejoin:miter;stroke-width:0.8;"/>
   </g>
   <g id="patch_24">
    <path d="M 708.3 523.2 
L 708.3 310.243324 
" style="fill:none;stroke:#000000;stroke-linecap:square;stroke-linejoin:miter;stroke-width:0.8;"/>
   </g>
   <g id="patch_25">
    <path d="M 426.325 523.2 
L 708.3 523.2 
" style="fill:none;stroke:#000000;stroke-linecap:square;stroke-linejoin:miter;stroke-width:0.8;"/>
   </g>
   <g id="patch_26">
    <path d="M 426.325 310.243324 
L 708.3 310.243324 
" style="fill:none;stroke:#000000;stroke-linecap:square;stroke-linejoin:miter;stroke-width:0.8;"/>
   </g>
  </g>
  <g id="axes_6">
   <g id="patch_27">
    <path d="M 787.225 523.2 
L 1069.2 523.2 
L 1069.2 310.243324 
L 787.225 310.243324 
z
" style="fill:#ffffff;"/>
   </g>
   <g id="matplotlib.axis_11">
    <g id="xtick_27">
     <g id="line2d_72">
      <g>
       <use style="stroke:#000000;stroke-width:0.8;" x="800.042045" xlink:href="#m73e72a9714" y="523.2"/>
      </g>
     </g>
     <g id="text_62">
      <!-- 0 -->
      <g transform="translate(795.588295 540.837813)scale(0.14 -0.14)">
       <use xlink:href="#DejaVuSerif-48"/>
      </g>
     </g>
    </g>
    <g id="xtick_28">
     <g id="line2d_73">
      <g>
       <use style="stroke:#000000;stroke-width:0.8;" x="853.446402" xlink:href="#m73e72a9714" y="523.2"/>
      </g>
     </g>
     <g id="text_63">
      <!-- 10 -->
      <g transform="translate(844.538902 540.837813)scale(0.14 -0.14)">
       <use xlink:href="#DejaVuSerif-49"/>
       <use x="63.623047" xlink:href="#DejaVuSerif-48"/>
      </g>
     </g>
    </g>
    <g id="xtick_29">
     <g id="line2d_74">
      <g>
       <use style="stroke:#000000;stroke-width:0.8;" x="906.850758" xlink:href="#m73e72a9714" y="523.2"/>
      </g>
     </g>
     <g id="text_64">
      <!-- 20 -->
      <g transform="translate(897.943258 540.837813)scale(0.14 -0.14)">
       <use xlink:href="#DejaVuSerif-50"/>
       <use x="63.623047" xlink:href="#DejaVuSerif-48"/>
      </g>
     </g>
    </g>
    <g id="xtick_30">
     <g id="line2d_75">
      <g>
       <use style="stroke:#000000;stroke-width:0.8;" x="960.255114" xlink:href="#m73e72a9714" y="523.2"/>
      </g>
     </g>
     <g id="text_65">
      <!-- 30 -->
      <g transform="translate(951.347614 540.837813)scale(0.14 -0.14)">
       <use xlink:href="#DejaVuSerif-51"/>
       <use x="63.623047" xlink:href="#DejaVuSerif-48"/>
      </g>
     </g>
    </g>
    <g id="xtick_31">
     <g id="line2d_76">
      <g>
       <use style="stroke:#000000;stroke-width:0.8;" x="1013.65947" xlink:href="#m73e72a9714" y="523.2"/>
      </g>
     </g>
     <g id="text_66">
      <!-- 40 -->
      <g transform="translate(1004.75197 540.837813)scale(0.14 -0.14)">
       <use xlink:href="#DejaVuSerif-52"/>
       <use x="63.623047" xlink:href="#DejaVuSerif-48"/>
      </g>
     </g>
    </g>
    <g id="xtick_32">
     <g id="line2d_77">
      <g>
       <use style="stroke:#000000;stroke-width:0.8;" x="1067.063826" xlink:href="#m73e72a9714" y="523.2"/>
      </g>
     </g>
     <g id="text_67">
      <!-- 50 -->
      <g transform="translate(1058.156326 540.837813)scale(0.14 -0.14)">
       <use xlink:href="#DejaVuSerif-53"/>
       <use x="63.623047" xlink:href="#DejaVuSerif-48"/>
      </g>
     </g>
    </g>
    <g id="text_68">
     <!-- Time [h] -->
     <g transform="translate(891.924141 560.666719)scale(0.17 -0.17)">
      <use xlink:href="#DejaVuSerif-84"/>
      <use x="66.699219" xlink:href="#DejaVuSerif-105"/>
      <use x="98.681641" xlink:href="#DejaVuSerif-109"/>
      <use x="193.505859" xlink:href="#DejaVuSerif-101"/>
      <use x="252.685547" xlink:href="#DejaVuSerif-32"/>
      <use x="284.472656" xlink:href="#DejaVuSerif-91"/>
      <use x="323.486328" xlink:href="#DejaVuSerif-104"/>
      <use x="387.890625" xlink:href="#DejaVuSerif-93"/>
     </g>
    </g>
   </g>
   <g id="matplotlib.axis_12">
    <g id="ytick_26">
     <g id="line2d_78">
      <g>
       <use style="stroke:#000000;stroke-width:0.8;" x="787.225" xlink:href="#m37260cf836" y="512.775547"/>
      </g>
     </g>
     <g id="text_69">
      <!-- 0 -->
      <g transform="translate(771.3175 518.094454)scale(0.14 -0.14)">
       <use xlink:href="#DejaVuSerif-48"/>
      </g>
     </g>
    </g>
    <g id="ytick_27">
     <g id="line2d_79">
      <g>
       <use style="stroke:#000000;stroke-width:0.8;" x="787.225" xlink:href="#m37260cf836" y="468.099322"/>
      </g>
     </g>
     <g id="text_70">
      <!-- 1,500 -->
      <g transform="translate(740.145625 473.418228)scale(0.14 -0.14)">
       <use xlink:href="#DejaVuSerif-49"/>
       <use x="63.623047" xlink:href="#DejaVuSerif-44"/>
       <use x="95.410156" xlink:href="#DejaVuSerif-53"/>
       <use x="159.033203" xlink:href="#DejaVuSerif-48"/>
       <use x="222.65625" xlink:href="#DejaVuSerif-48"/>
      </g>
     </g>
    </g>
    <g id="ytick_28">
     <g id="line2d_80">
      <g>
       <use style="stroke:#000000;stroke-width:0.8;" x="787.225" xlink:href="#m37260cf836" y="423.423096"/>
      </g>
     </g>
     <g id="text_71">
      <!-- 3,000 -->
      <g transform="translate(740.145625 428.742002)scale(0.14 -0.14)">
       <use xlink:href="#DejaVuSerif-51"/>
       <use x="63.623047" xlink:href="#DejaVuSerif-44"/>
       <use x="95.410156" xlink:href="#DejaVuSerif-48"/>
       <use x="159.033203" xlink:href="#DejaVuSerif-48"/>
       <use x="222.65625" xlink:href="#DejaVuSerif-48"/>
      </g>
     </g>
    </g>
    <g id="ytick_29">
     <g id="line2d_81">
      <g>
       <use style="stroke:#000000;stroke-width:0.8;" x="787.225" xlink:href="#m37260cf836" y="378.74687"/>
      </g>
     </g>
     <g id="text_72">
      <!-- 4,500 -->
      <g transform="translate(740.145625 384.065776)scale(0.14 -0.14)">
       <use xlink:href="#DejaVuSerif-52"/>
       <use x="63.623047" xlink:href="#DejaVuSerif-44"/>
       <use x="95.410156" xlink:href="#DejaVuSerif-53"/>
       <use x="159.033203" xlink:href="#DejaVuSerif-48"/>
       <use x="222.65625" xlink:href="#DejaVuSerif-48"/>
      </g>
     </g>
    </g>
    <g id="ytick_30">
     <g id="line2d_82">
      <g>
       <use style="stroke:#000000;stroke-width:0.8;" x="787.225" xlink:href="#m37260cf836" y="334.070644"/>
      </g>
     </g>
     <g id="text_73">
      <!-- 6,000 -->
      <g transform="translate(740.145625 339.389551)scale(0.14 -0.14)">
       <use xlink:href="#DejaVuSerif-54"/>
       <use x="63.623047" xlink:href="#DejaVuSerif-44"/>
       <use x="95.410156" xlink:href="#DejaVuSerif-48"/>
       <use x="159.033203" xlink:href="#DejaVuSerif-48"/>
       <use x="222.65625" xlink:href="#DejaVuSerif-48"/>
      </g>
     </g>
    </g>
    <g id="text_74">
     <!-- Conjugated BPA [ng/ml] -->
     <g transform="translate(732.368437 521.010021)rotate(-90)scale(0.17 -0.17)">
      <use xlink:href="#DejaVuSerif-67"/>
      <use x="76.513672" xlink:href="#DejaVuSerif-111"/>
      <use x="136.71875" xlink:href="#DejaVuSerif-110"/>
      <use x="201.123047" xlink:href="#DejaVuSerif-106"/>
      <use x="232.128906" xlink:href="#DejaVuSerif-117"/>
      <use x="296.533203" xlink:href="#DejaVuSerif-103"/>
      <use x="360.546875" xlink:href="#DejaVuSerif-97"/>
      <use x="420.166016" xlink:href="#DejaVuSerif-116"/>
      <use x="460.351562" xlink:href="#DejaVuSerif-101"/>
      <use x="519.53125" xlink:href="#DejaVuSerif-100"/>
      <use x="583.544922" xlink:href="#DejaVuSerif-32"/>
      <use x="615.332031" xlink:href="#DejaVuSerif-66"/>
      <use x="688.818359" xlink:href="#DejaVuSerif-80"/>
      <use x="755.962891" xlink:href="#DejaVuSerif-65"/>
      <use x="828.179688" xlink:href="#DejaVuSerif-32"/>
      <use x="859.966797" xlink:href="#DejaVuSerif-91"/>
      <use x="898.980469" xlink:href="#DejaVuSerif-110"/>
      <use x="963.384766" xlink:href="#DejaVuSerif-103"/>
      <use x="1027.398438" xlink:href="#DejaVuSerif-47"/>
      <use x="1061.089844" xlink:href="#DejaVuSerif-109"/>
      <use x="1155.914062" xlink:href="#DejaVuSerif-108"/>
      <use x="1187.896484" xlink:href="#DejaVuSerif-93"/>
     </g>
    </g>
   </g>
   <g id="LineCollection_6">
    <path clip-path="url(#pa01466fa68)" d="M 928.2125 434.529239 
L 928.2125 321.038364 
" style="fill:none;stroke:#000000;stroke-width:1.5;"/>
   </g>
   <g id="line2d_83">
    <path clip-path="url(#pa01466fa68)" d="M 800.042045 512.775547 
L 800.298386 511.849652 
L 807.475932 502.104585 
L 814.781648 492.564248 
L 822.087364 483.390611 
L 829.39308 474.569956 
L 836.826966 465.94327 
L 844.260852 457.655021 
L 851.822909 449.557786 
L 859.384966 441.784297 
L 867.075193 434.198066 
L 874.76542 426.920826 
L 882.583818 419.826385 
L 890.530386 412.917089 
L 898.476955 406.299219 
L 906.551693 399.860717 
L 914.754602 393.60292 
L 923.085682 387.526691 
L 928.2125 383.922121 
L 928.468841 384.670547 
L 938.081625 391.146334 
L 946.797216 396.730933 
L 955.640977 402.133589 
L 964.612909 407.355707 
L 973.841182 412.468225 
L 983.197625 417.397012 
L 992.810409 422.207144 
L 1002.551364 426.832543 
L 1012.548659 431.332765 
L 1022.802295 435.702402 
L 1033.312273 439.936865 
L 1044.078591 444.032354 
L 1055.10125 447.985835 
L 1056.382955 448.430463 
L 1056.382955 448.430463 
" style="fill:none;stroke:#85c0f9;stroke-dasharray:5.55,2.4;stroke-dashoffset:0;stroke-width:1.5;"/>
   </g>
   <g id="line2d_84">
    <g clip-path="url(#pa01466fa68)">
     <use style="stroke:#000000;" x="928.2125" xlink:href="#m029c0c317f" y="434.529239"/>
    </g>
   </g>
   <g id="line2d_85">
    <g clip-path="url(#pa01466fa68)">
     <use style="stroke:#000000;" x="928.2125" xlink:href="#m029c0c317f" y="321.038364"/>
    </g>
   </g>
   <g id="line2d_86">
    <g clip-path="url(#pa01466fa68)">
     <use style="fill-opacity:0;stroke:#000000;stroke-linejoin:miter;" x="928.2125" xlink:href="#m958ecce074" y="377.783801"/>
    </g>
   </g>
   <g id="patch_28">
    <path d="M 787.225 523.2 
L 787.225 310.243324 
" style="fill:none;stroke:#000000;stroke-linecap:square;stroke-linejoin:miter;stroke-width:0.8;"/>
   </g>
   <g id="patch_29">
    <path d="M 1069.2 523.2 
L 1069.2 310.243324 
" style="fill:none;stroke:#000000;stroke-linecap:square;stroke-linejoin:miter;stroke-width:0.8;"/>
   </g>
   <g id="patch_30">
    <path d="M 787.225 523.2 
L 1069.2 523.2 
" style="fill:none;stroke:#000000;stroke-linecap:square;stroke-linejoin:miter;stroke-width:0.8;"/>
   </g>
   <g id="patch_31">
    <path d="M 787.225 310.243324 
L 1069.2 310.243324 
" style="fill:none;stroke:#000000;stroke-linecap:square;stroke-linejoin:miter;stroke-width:0.8;"/>
   </g>
  </g>
 </g>
 <defs>
  <clipPath id="pc12aea9f93">
   <rect height="212.956676" width="281.975" x="65.425" y="27.643324"/>
  </clipPath>
  <clipPath id="pc59305f09d">
   <rect height="212.956676" width="281.975" x="426.325" y="27.643324"/>
  </clipPath>
  <clipPath id="p0f4feadff7">
   <rect height="212.956676" width="281.975" x="787.225" y="27.643324"/>
  </clipPath>
  <clipPath id="pfb13428d37">
   <rect height="212.956676" width="281.975" x="65.425" y="310.243324"/>
  </clipPath>
  <clipPath id="pbb011bfc67">
   <rect height="212.956676" width="281.975" x="426.325" y="310.243324"/>
  </clipPath>
  <clipPath id="pa01466fa68">
   <rect height="212.956676" width="281.975" x="787.225" y="310.243324"/>
  </clipPath>
 </defs>
</svg>
