<?xml version="1.0" encoding="utf-8" standalone="no"?>
<!DOCTYPE svg PUBLIC "-//W3C//DTD SVG 1.1//EN"
  "http://www.w3.org/Graphics/SVG/1.1/DTD/svg11.dtd">
<!-- Created with matplotlib (https://matplotlib.org/) -->
<svg height="432pt" version="1.1" viewBox="0 0 720 432" width="720pt" xmlns="http://www.w3.org/2000/svg" xmlns:xlink="http://www.w3.org/1999/xlink">
 <defs>
  <style type="text/css">
*{stroke-linecap:butt;stroke-linejoin:round;}
  </style>
 </defs>
 <g id="figure_1">
  <g id="patch_1">
   <path d="M 0 432 
L 720 432 
L 720 0 
L 0 0 
z
" style="fill:#ffffff;"/>
  </g>
  <g id="axes_1">
   <g id="patch_2">
    <path d="M 90 378 
L 648 378 
L 648 51.84 
L 90 51.84 
z
" style="fill:#ffffff;"/>
   </g>
   <g id="matplotlib.axis_1">
    <g id="xtick_1">
     <g id="line2d_1">
      <defs>
       <path d="M 0 0 
L 0 3.5 
" id="m53e5eb5a9f" style="stroke:#000000;stroke-width:0.8;"/>
      </defs>
      <g>
       <use style="stroke:#000000;stroke-width:0.8;" x="115.363636" xlink:href="#m53e5eb5a9f" y="378"/>
      </g>
     </g>
     <g id="text_1">
      <!-- 0 -->
      <defs>
       <path d="M 31.78125 3.421875 
Q 39.265625 3.421875 42.96875 11.625 
Q 46.6875 19.828125 46.6875 36.375 
Q 46.6875 52.984375 42.96875 61.1875 
Q 39.265625 69.390625 31.78125 69.390625 
Q 24.3125 69.390625 20.59375 61.1875 
Q 16.890625 52.984375 16.890625 36.375 
Q 16.890625 19.828125 20.59375 11.625 
Q 24.3125 3.421875 31.78125 3.421875 
z
M 31.78125 -1.421875 
Q 19.921875 -1.421875 13.25 8.53125 
Q 6.59375 18.5 6.59375 36.375 
Q 6.59375 54.296875 13.25 64.25 
Q 19.921875 74.21875 31.78125 74.21875 
Q 43.703125 74.21875 50.34375 64.25 
Q 56.984375 54.296875 56.984375 36.375 
Q 56.984375 18.5 50.34375 8.53125 
Q 43.703125 -1.421875 31.78125 -1.421875 
z
" id="DejaVuSerif-48"/>
      </defs>
      <g transform="translate(111.546136 394.118125)scale(0.12 -0.12)">
       <use xlink:href="#DejaVuSerif-48"/>
      </g>
     </g>
    </g>
    <g id="xtick_2">
     <g id="line2d_2">
      <g>
       <use style="stroke:#000000;stroke-width:0.8;" x="187.831169" xlink:href="#m53e5eb5a9f" y="378"/>
      </g>
     </g>
     <g id="text_2">
      <!-- 2 -->
      <defs>
       <path d="M 12.796875 55.515625 
L 7.328125 55.515625 
L 7.328125 68.5 
Q 12.546875 71.296875 17.84375 72.75 
Q 23.140625 74.21875 28.21875 74.21875 
Q 39.59375 74.21875 46.1875 68.703125 
Q 52.78125 63.1875 52.78125 53.71875 
Q 52.78125 43.015625 37.84375 28.125 
Q 36.671875 27 36.078125 26.421875 
L 17.671875 8.015625 
L 48.09375 8.015625 
L 48.09375 17 
L 53.8125 17 
L 53.8125 0 
L 6.78125 0 
L 6.78125 5.328125 
L 28.90625 27.390625 
Q 36.234375 34.71875 39.359375 40.84375 
Q 42.484375 46.96875 42.484375 53.71875 
Q 42.484375 61.078125 38.640625 65.234375 
Q 34.8125 69.390625 28.078125 69.390625 
Q 21.09375 69.390625 17.28125 65.921875 
Q 13.484375 62.453125 12.796875 55.515625 
z
" id="DejaVuSerif-50"/>
      </defs>
      <g transform="translate(184.013669 394.118125)scale(0.12 -0.12)">
       <use xlink:href="#DejaVuSerif-50"/>
      </g>
     </g>
    </g>
    <g id="xtick_3">
     <g id="line2d_3">
      <g>
       <use style="stroke:#000000;stroke-width:0.8;" x="260.298701" xlink:href="#m53e5eb5a9f" y="378"/>
      </g>
     </g>
     <g id="text_3">
      <!-- 4 -->
      <defs>
       <path d="M 34.90625 24.703125 
L 34.90625 63.484375 
L 10.015625 24.703125 
z
M 56.390625 0 
L 23.1875 0 
L 23.1875 5.171875 
L 34.90625 5.171875 
L 34.90625 19.484375 
L 3.078125 19.484375 
L 3.078125 24.8125 
L 35.015625 74.21875 
L 44.671875 74.21875 
L 44.671875 24.703125 
L 58.59375 24.703125 
L 58.59375 19.484375 
L 44.671875 19.484375 
L 44.671875 5.171875 
L 56.390625 5.171875 
z
" id="DejaVuSerif-52"/>
      </defs>
      <g transform="translate(256.481201 394.118125)scale(0.12 -0.12)">
       <use xlink:href="#DejaVuSerif-52"/>
      </g>
     </g>
    </g>
    <g id="xtick_4">
     <g id="line2d_4">
      <g>
       <use style="stroke:#000000;stroke-width:0.8;" x="332.766234" xlink:href="#m53e5eb5a9f" y="378"/>
      </g>
     </g>
     <g id="text_4">
      <!-- 6 -->
      <defs>
       <path d="M 32.71875 3.421875 
Q 39.59375 3.421875 43.296875 8.46875 
Q 47.015625 13.53125 47.015625 23 
Q 47.015625 32.46875 43.296875 37.515625 
Q 39.59375 42.578125 32.71875 42.578125 
Q 25.734375 42.578125 22.0625 37.6875 
Q 18.40625 32.8125 18.40625 23.578125 
Q 18.40625 13.875 22.109375 8.640625 
Q 25.828125 3.421875 32.71875 3.421875 
z
M 16.796875 40.140625 
Q 20.125 43.796875 24.3125 45.59375 
Q 28.515625 47.40625 33.796875 47.40625 
Q 44.671875 47.40625 51 40.859375 
Q 57.328125 34.328125 57.328125 23 
Q 57.328125 11.921875 50.515625 5.25 
Q 43.703125 -1.421875 32.328125 -1.421875 
Q 19.96875 -1.421875 13.328125 7.78125 
Q 6.6875 17 6.6875 34.078125 
Q 6.6875 53.21875 14.546875 63.71875 
Q 22.40625 74.21875 36.71875 74.21875 
Q 40.578125 74.21875 44.828125 73.484375 
Q 49.078125 72.75 53.515625 71.296875 
L 53.515625 59.28125 
L 48 59.28125 
Q 47.40625 64.203125 44.234375 66.796875 
Q 41.0625 69.390625 35.6875 69.390625 
Q 26.21875 69.390625 21.578125 62.203125 
Q 16.9375 55.03125 16.796875 40.140625 
z
" id="DejaVuSerif-54"/>
      </defs>
      <g transform="translate(328.948734 394.118125)scale(0.12 -0.12)">
       <use xlink:href="#DejaVuSerif-54"/>
      </g>
     </g>
    </g>
    <g id="xtick_5">
     <g id="line2d_5">
      <g>
       <use style="stroke:#000000;stroke-width:0.8;" x="405.233766" xlink:href="#m53e5eb5a9f" y="378"/>
      </g>
     </g>
     <g id="text_5">
      <!-- 8 -->
      <defs>
       <path d="M 46.578125 19.921875 
Q 46.578125 27.734375 42.6875 32.046875 
Q 38.8125 36.375 31.78125 36.375 
Q 24.75 36.375 20.875 32.046875 
Q 17 27.734375 17 19.921875 
Q 17 12.0625 20.875 7.734375 
Q 24.75 3.421875 31.78125 3.421875 
Q 38.8125 3.421875 42.6875 7.734375 
Q 46.578125 12.0625 46.578125 19.921875 
z
M 44.578125 55.328125 
Q 44.578125 61.96875 41.203125 65.671875 
Q 37.84375 69.390625 31.78125 69.390625 
Q 25.78125 69.390625 22.390625 65.671875 
Q 19 61.96875 19 55.328125 
Q 19 48.640625 22.390625 44.921875 
Q 25.78125 41.21875 31.78125 41.21875 
Q 37.84375 41.21875 41.203125 44.921875 
Q 44.578125 48.640625 44.578125 55.328125 
z
M 39.3125 38.8125 
Q 47.609375 37.703125 52.25 32.6875 
Q 56.890625 27.6875 56.890625 19.921875 
Q 56.890625 9.671875 50.390625 4.125 
Q 43.890625 -1.421875 31.78125 -1.421875 
Q 19.734375 -1.421875 13.203125 4.125 
Q 6.6875 9.671875 6.6875 19.921875 
Q 6.6875 27.6875 11.328125 32.6875 
Q 15.96875 37.703125 24.3125 38.8125 
Q 16.9375 40.140625 13 44.40625 
Q 9.078125 48.6875 9.078125 55.328125 
Q 9.078125 64.109375 15.125 69.15625 
Q 21.1875 74.21875 31.78125 74.21875 
Q 42.390625 74.21875 48.4375 69.15625 
Q 54.5 64.109375 54.5 55.328125 
Q 54.5 48.6875 50.5625 44.40625 
Q 46.625 40.140625 39.3125 38.8125 
z
" id="DejaVuSerif-56"/>
      </defs>
      <g transform="translate(401.416266 394.118125)scale(0.12 -0.12)">
       <use xlink:href="#DejaVuSerif-56"/>
      </g>
     </g>
    </g>
    <g id="xtick_6">
     <g id="line2d_6">
      <g>
       <use style="stroke:#000000;stroke-width:0.8;" x="477.701299" xlink:href="#m53e5eb5a9f" y="378"/>
      </g>
     </g>
     <g id="text_6">
      <!-- 10 -->
      <defs>
       <path d="M 14.203125 0 
L 14.203125 5.171875 
L 26.90625 5.171875 
L 26.90625 65.828125 
L 12.203125 56.296875 
L 12.203125 62.703125 
L 29.984375 74.21875 
L 36.71875 74.21875 
L 36.71875 5.171875 
L 49.421875 5.171875 
L 49.421875 0 
z
" id="DejaVuSerif-49"/>
      </defs>
      <g transform="translate(470.066299 394.118125)scale(0.12 -0.12)">
       <use xlink:href="#DejaVuSerif-49"/>
       <use x="63.623047" xlink:href="#DejaVuSerif-48"/>
      </g>
     </g>
    </g>
    <g id="xtick_7">
     <g id="line2d_7">
      <g>
       <use style="stroke:#000000;stroke-width:0.8;" x="550.168831" xlink:href="#m53e5eb5a9f" y="378"/>
      </g>
     </g>
     <g id="text_7">
      <!-- 12 -->
      <g transform="translate(542.533831 394.118125)scale(0.12 -0.12)">
       <use xlink:href="#DejaVuSerif-49"/>
       <use x="63.623047" xlink:href="#DejaVuSerif-50"/>
      </g>
     </g>
    </g>
    <g id="xtick_8">
     <g id="line2d_8">
      <g>
       <use style="stroke:#000000;stroke-width:0.8;" x="622.636364" xlink:href="#m53e5eb5a9f" y="378"/>
      </g>
     </g>
     <g id="text_8">
      <!-- 14 -->
      <g transform="translate(615.001364 394.118125)scale(0.12 -0.12)">
       <use xlink:href="#DejaVuSerif-49"/>
       <use x="63.623047" xlink:href="#DejaVuSerif-52"/>
      </g>
     </g>
    </g>
    <g id="text_9">
     <!-- Time [d] -->
     <defs>
      <path d="M 19.09375 0 
L 19.09375 5.171875 
L 28.421875 5.171875 
L 28.421875 67.09375 
L 6.984375 67.09375 
L 6.984375 55.71875 
L 0.984375 55.71875 
L 0.984375 72.90625 
L 65.71875 72.90625 
L 65.71875 55.71875 
L 59.71875 55.71875 
L 59.71875 67.09375 
L 38.28125 67.09375 
L 38.28125 5.171875 
L 47.609375 5.171875 
L 47.609375 0 
z
" id="DejaVuSerif-84"/>
      <path d="M 9.71875 68.015625 
Q 9.71875 70.265625 11.34375 71.921875 
Q 12.984375 73.578125 15.28125 73.578125 
Q 17.53125 73.578125 19.15625 71.921875 
Q 20.796875 70.265625 20.796875 68.015625 
Q 20.796875 65.71875 19.1875 64.109375 
Q 17.578125 62.5 15.28125 62.5 
Q 12.984375 62.5 11.34375 64.109375 
Q 9.71875 65.71875 9.71875 68.015625 
z
M 21.1875 5.171875 
L 29.6875 5.171875 
L 29.6875 0 
L 3.609375 0 
L 3.609375 5.171875 
L 12.203125 5.171875 
L 12.203125 46.6875 
L 3.609375 46.6875 
L 3.609375 51.90625 
L 21.1875 51.90625 
z
" id="DejaVuSerif-105"/>
      <path d="M 51.8125 41.796875 
Q 54.390625 47.515625 58.421875 50.421875 
Q 62.453125 53.328125 67.828125 53.328125 
Q 75.984375 53.328125 79.984375 48.265625 
Q 83.984375 43.21875 83.984375 33.015625 
L 83.984375 5.171875 
L 92.09375 5.171875 
L 92.09375 0 
L 67.1875 0 
L 67.1875 5.171875 
L 75 5.171875 
L 75 31.984375 
Q 75 39.9375 72.65625 43.3125 
Q 70.3125 46.6875 64.890625 46.6875 
Q 58.890625 46.6875 55.734375 42.140625 
Q 52.59375 37.59375 52.59375 28.90625 
L 52.59375 5.171875 
L 60.40625 5.171875 
L 60.40625 0 
L 35.796875 0 
L 35.796875 5.171875 
L 43.609375 5.171875 
L 43.609375 32.328125 
Q 43.609375 40.09375 41.265625 43.390625 
Q 38.921875 46.6875 33.5 46.6875 
Q 27.484375 46.6875 24.328125 42.140625 
Q 21.1875 37.59375 21.1875 28.90625 
L 21.1875 5.171875 
L 29 5.171875 
L 29 0 
L 4.109375 0 
L 4.109375 5.171875 
L 12.203125 5.171875 
L 12.203125 46.78125 
L 3.609375 46.78125 
L 3.609375 51.90625 
L 21.1875 51.90625 
L 21.1875 42.671875 
Q 23.6875 47.859375 27.53125 50.59375 
Q 31.390625 53.328125 36.28125 53.328125 
Q 42.328125 53.328125 46.375 50.3125 
Q 50.4375 47.3125 51.8125 41.796875 
z
" id="DejaVuSerif-109"/>
      <path d="M 54.203125 25 
L 15.484375 25 
L 15.484375 24.609375 
Q 15.484375 14.109375 19.4375 8.765625 
Q 23.390625 3.421875 31.109375 3.421875 
Q 37.015625 3.421875 40.796875 6.515625 
Q 44.578125 9.625 46.09375 15.71875 
L 53.328125 15.71875 
Q 51.171875 7.171875 45.375 2.875 
Q 39.59375 -1.421875 30.171875 -1.421875 
Q 18.796875 -1.421875 11.890625 6.078125 
Q 4.984375 13.578125 4.984375 25.984375 
Q 4.984375 38.28125 11.765625 45.796875 
Q 18.5625 53.328125 29.59375 53.328125 
Q 41.359375 53.328125 47.65625 46.0625 
Q 53.953125 38.8125 54.203125 25 
z
M 43.609375 30.171875 
Q 43.3125 39.265625 39.765625 43.875 
Q 36.234375 48.484375 29.59375 48.484375 
Q 23.390625 48.484375 19.828125 43.84375 
Q 16.265625 39.203125 15.484375 30.171875 
z
" id="DejaVuSerif-101"/>
      <path id="DejaVuSerif-32"/>
      <path d="M 8.59375 75.984375 
L 31.296875 75.984375 
L 31.296875 70.796875 
L 17.921875 70.796875 
L 17.921875 -8.015625 
L 31.296875 -8.015625 
L 31.296875 -13.1875 
L 8.59375 -13.1875 
z
" id="DejaVuSerif-91"/>
      <path d="M 52.484375 5.171875 
L 61.078125 5.171875 
L 61.078125 0 
L 43.5 0 
L 43.5 8.109375 
Q 40.875 3.21875 36.796875 0.890625 
Q 32.71875 -1.421875 26.703125 -1.421875 
Q 17.140625 -1.421875 11.0625 6.171875 
Q 4.984375 13.765625 4.984375 25.984375 
Q 4.984375 38.1875 11.03125 45.75 
Q 17.09375 53.328125 26.703125 53.328125 
Q 32.71875 53.328125 36.796875 51 
Q 40.875 48.6875 43.5 43.796875 
L 43.5 70.796875 
L 35.015625 70.796875 
L 35.015625 75.984375 
L 52.484375 75.984375 
z
M 43.5 23.390625 
L 43.5 28.515625 
Q 43.5 37.84375 39.90625 42.765625 
Q 36.328125 47.703125 29.5 47.703125 
Q 22.5625 47.703125 19.015625 42.234375 
Q 15.484375 36.765625 15.484375 25.984375 
Q 15.484375 15.234375 19.015625 9.71875 
Q 22.5625 4.203125 29.5 4.203125 
Q 36.328125 4.203125 39.90625 9.109375 
Q 43.5 14.015625 43.5 23.390625 
z
" id="DejaVuSerif-100"/>
      <path d="M 30.421875 75.984375 
L 30.421875 -13.1875 
L 7.71875 -13.1875 
L 7.71875 -8.015625 
L 21.09375 -8.015625 
L 21.09375 70.796875 
L 7.71875 70.796875 
L 7.71875 75.984375 
z
" id="DejaVuSerif-93"/>
     </defs>
     <g transform="translate(332.744844 413.531094)scale(0.17 -0.17)">
      <use xlink:href="#DejaVuSerif-84"/>
      <use x="66.699219" xlink:href="#DejaVuSerif-105"/>
      <use x="98.681641" xlink:href="#DejaVuSerif-109"/>
      <use x="193.505859" xlink:href="#DejaVuSerif-101"/>
      <use x="252.685547" xlink:href="#DejaVuSerif-32"/>
      <use x="284.472656" xlink:href="#DejaVuSerif-91"/>
      <use x="323.486328" xlink:href="#DejaVuSerif-100"/>
      <use x="387.5" xlink:href="#DejaVuSerif-93"/>
     </g>
    </g>
   </g>
   <g id="matplotlib.axis_2">
    <g id="ytick_1">
     <g id="line2d_9">
      <defs>
       <path d="M 0 0 
L -3.5 0 
" id="m0b0a4a9e89" style="stroke:#000000;stroke-width:0.8;"/>
      </defs>
      <g>
       <use style="stroke:#000000;stroke-width:0.8;" x="90" xlink:href="#m0b0a4a9e89" y="361.334891"/>
      </g>
     </g>
     <g id="text_10">
      <!-- 0 -->
      <g transform="translate(75.365 365.893953)scale(0.12 -0.12)">
       <use xlink:href="#DejaVuSerif-48"/>
      </g>
     </g>
    </g>
    <g id="ytick_2">
     <g id="line2d_10">
      <g>
       <use style="stroke:#000000;stroke-width:0.8;" x="90" xlink:href="#m0b0a4a9e89" y="313.720292"/>
      </g>
     </g>
     <g id="text_11">
      <!-- 2 -->
      <g transform="translate(75.365 318.279354)scale(0.12 -0.12)">
       <use xlink:href="#DejaVuSerif-50"/>
      </g>
     </g>
    </g>
    <g id="ytick_3">
     <g id="line2d_11">
      <g>
       <use style="stroke:#000000;stroke-width:0.8;" x="90" xlink:href="#m0b0a4a9e89" y="266.105693"/>
      </g>
     </g>
     <g id="text_12">
      <!-- 4 -->
      <g transform="translate(75.365 270.664756)scale(0.12 -0.12)">
       <use xlink:href="#DejaVuSerif-52"/>
      </g>
     </g>
    </g>
    <g id="ytick_4">
     <g id="line2d_12">
      <g>
       <use style="stroke:#000000;stroke-width:0.8;" x="90" xlink:href="#m0b0a4a9e89" y="218.491095"/>
      </g>
     </g>
     <g id="text_13">
      <!-- 6 -->
      <g transform="translate(75.365 223.050157)scale(0.12 -0.12)">
       <use xlink:href="#DejaVuSerif-54"/>
      </g>
     </g>
    </g>
    <g id="ytick_5">
     <g id="line2d_13">
      <g>
       <use style="stroke:#000000;stroke-width:0.8;" x="90" xlink:href="#m0b0a4a9e89" y="170.876496"/>
      </g>
     </g>
     <g id="text_14">
      <!-- 8 -->
      <g transform="translate(75.365 175.435559)scale(0.12 -0.12)">
       <use xlink:href="#DejaVuSerif-56"/>
      </g>
     </g>
    </g>
    <g id="ytick_6">
     <g id="line2d_14">
      <g>
       <use style="stroke:#000000;stroke-width:0.8;" x="90" xlink:href="#m0b0a4a9e89" y="123.261898"/>
      </g>
     </g>
     <g id="text_15">
      <!-- 10 -->
      <g transform="translate(67.73 127.82096)scale(0.12 -0.12)">
       <use xlink:href="#DejaVuSerif-49"/>
       <use x="63.623047" xlink:href="#DejaVuSerif-48"/>
      </g>
     </g>
    </g>
    <g id="ytick_7">
     <g id="line2d_15">
      <g>
       <use style="stroke:#000000;stroke-width:0.8;" x="90" xlink:href="#m0b0a4a9e89" y="75.647299"/>
      </g>
     </g>
     <g id="text_16">
      <!-- 12 -->
      <g transform="translate(67.73 80.206362)scale(0.12 -0.12)">
       <use xlink:href="#DejaVuSerif-49"/>
       <use x="63.623047" xlink:href="#DejaVuSerif-50"/>
      </g>
     </g>
    </g>
    <g id="text_17">
     <!-- BPS in fetal blood [ng/ml] -->
     <defs>
      <path d="M 24.703125 5.171875 
L 39.3125 5.171875 
Q 48.09375 5.171875 52.140625 8.984375 
Q 56.203125 12.796875 56.203125 21.09375 
Q 56.203125 29.34375 52.171875 33.125 
Q 48.140625 36.921875 39.3125 36.921875 
L 24.703125 36.921875 
z
M 24.703125 42.09375 
L 37.109375 42.09375 
Q 45.125 42.09375 48.796875 45.171875 
Q 52.484375 48.25 52.484375 54.890625 
Q 52.484375 61.578125 48.796875 64.625 
Q 45.125 67.671875 37.109375 67.671875 
L 24.703125 67.671875 
z
M 5.515625 0 
L 5.515625 5.171875 
L 14.796875 5.171875 
L 14.796875 67.671875 
L 5.515625 67.671875 
L 5.515625 72.90625 
L 41.5 72.90625 
Q 52.546875 72.90625 58.125 68.390625 
Q 63.71875 63.875 63.71875 54.890625 
Q 63.71875 48.390625 59.828125 44.53125 
Q 55.953125 40.671875 48.484375 39.796875 
Q 57.765625 38.625 62.578125 33.859375 
Q 67.390625 29.109375 67.390625 21.09375 
Q 67.390625 10.25 60.546875 5.125 
Q 53.71875 0 39.203125 0 
z
" id="DejaVuSerif-66"/>
      <path d="M 24.703125 37.109375 
L 37.59375 37.109375 
Q 44.875 37.109375 48.671875 41.03125 
Q 52.484375 44.96875 52.484375 52.390625 
Q 52.484375 59.859375 48.671875 63.765625 
Q 44.875 67.671875 37.59375 67.671875 
L 24.703125 67.671875 
z
M 5.515625 0 
L 5.515625 5.171875 
L 14.796875 5.171875 
L 14.796875 67.671875 
L 5.515625 67.671875 
L 5.515625 72.90625 
L 39.984375 72.90625 
Q 50.921875 72.90625 57.3125 67.359375 
Q 63.71875 61.8125 63.71875 52.390625 
Q 63.71875 43.015625 57.3125 37.453125 
Q 50.921875 31.890625 39.984375 31.890625 
L 24.703125 31.890625 
L 24.703125 5.171875 
L 35.984375 5.171875 
L 35.984375 0 
z
" id="DejaVuSerif-80"/>
      <path d="M 9.28125 3.515625 
L 9.28125 20.125 
L 14.890625 20.0625 
Q 15.140625 11.765625 19.703125 7.78125 
Q 24.265625 3.8125 33.59375 3.8125 
Q 42.28125 3.8125 46.84375 7.25 
Q 51.421875 10.6875 51.421875 17.28125 
Q 51.421875 22.5625 48.65625 25.390625 
Q 45.90625 28.21875 37.015625 30.90625 
L 27.390625 33.796875 
Q 16.9375 36.96875 12.671875 41.703125 
Q 8.40625 46.4375 8.40625 54.6875 
Q 8.40625 63.96875 14.984375 69.09375 
Q 21.578125 74.21875 33.5 74.21875 
Q 38.578125 74.21875 44.625 73.109375 
Q 50.6875 72.015625 57.515625 69.921875 
L 57.515625 54.390625 
L 52 54.390625 
Q 51.171875 62.109375 46.84375 65.546875 
Q 42.53125 69 33.6875 69 
Q 25.984375 69 21.953125 65.84375 
Q 17.921875 62.703125 17.921875 56.6875 
Q 17.921875 51.46875 20.9375 48.484375 
Q 23.96875 45.515625 33.796875 42.578125 
L 42.828125 39.890625 
Q 52.734375 36.921875 56.953125 32.296875 
Q 61.1875 27.6875 61.1875 19.921875 
Q 61.1875 9.328125 54.390625 3.953125 
Q 47.609375 -1.421875 34.1875 -1.421875 
Q 28.171875 -1.421875 21.9375 -0.1875 
Q 15.71875 1.03125 9.28125 3.515625 
z
" id="DejaVuSerif-83"/>
      <path d="M 4.109375 0 
L 4.109375 5.171875 
L 12.203125 5.171875 
L 12.203125 46.6875 
L 3.609375 46.6875 
L 3.609375 51.90625 
L 21.1875 51.90625 
L 21.1875 42.671875 
Q 23.6875 47.953125 27.65625 50.640625 
Q 31.640625 53.328125 36.921875 53.328125 
Q 45.515625 53.328125 49.5625 48.390625 
Q 53.609375 43.453125 53.609375 33.015625 
L 53.609375 5.171875 
L 61.625 5.171875 
L 61.625 0 
L 36.8125 0 
L 36.8125 5.171875 
L 44.578125 5.171875 
L 44.578125 30.171875 
Q 44.578125 39.703125 42.234375 43.234375 
Q 39.890625 46.78125 33.984375 46.78125 
Q 27.734375 46.78125 24.453125 42.203125 
Q 21.1875 37.640625 21.1875 28.90625 
L 21.1875 5.171875 
L 29 5.171875 
L 29 0 
z
" id="DejaVuSerif-110"/>
      <path d="M 43.015625 63.71875 
L 38.28125 63.71875 
Q 38.234375 67.390625 36.203125 69.28125 
Q 34.1875 71.1875 30.328125 71.1875 
Q 25.296875 71.1875 23.234375 68.421875 
Q 21.1875 65.671875 21.1875 58.59375 
L 21.1875 51.90625 
L 35.6875 51.90625 
L 35.6875 46.6875 
L 21.1875 46.6875 
L 21.1875 5.171875 
L 32.71875 5.171875 
L 32.71875 0 
L 3.609375 0 
L 3.609375 5.171875 
L 12.203125 5.171875 
L 12.203125 46.6875 
L 3.609375 46.6875 
L 3.609375 51.90625 
L 12.203125 51.90625 
L 12.203125 58.40625 
Q 12.203125 67.09375 16.71875 71.53125 
Q 21.234375 75.984375 29.984375 75.984375 
Q 33.25 75.984375 36.515625 75.390625 
Q 39.796875 74.8125 43.015625 73.578125 
z
" id="DejaVuSerif-102"/>
      <path d="M 10.796875 46.6875 
L 2.875 46.6875 
L 2.875 51.90625 
L 10.796875 51.90625 
L 10.796875 68.015625 
L 19.828125 68.015625 
L 19.828125 51.90625 
L 36.71875 51.90625 
L 36.71875 46.6875 
L 19.828125 46.6875 
L 19.828125 13.71875 
Q 19.828125 7.125 21.09375 5.265625 
Q 22.359375 3.421875 25.78125 3.421875 
Q 29.296875 3.421875 30.90625 5.484375 
Q 32.515625 7.5625 32.625 12.203125 
L 39.40625 12.203125 
Q 39.015625 5.125 35.546875 1.84375 
Q 32.078125 -1.421875 25 -1.421875 
Q 17.234375 -1.421875 14.015625 2.015625 
Q 10.796875 5.46875 10.796875 13.71875 
z
" id="DejaVuSerif-116"/>
      <path d="M 39.796875 16.3125 
L 39.796875 27.296875 
L 28.21875 27.296875 
Q 21.53125 27.296875 18.25 24.40625 
Q 14.984375 21.53125 14.984375 15.578125 
Q 14.984375 10.15625 18.296875 6.984375 
Q 21.625 3.8125 27.296875 3.8125 
Q 32.90625 3.8125 36.34375 7.28125 
Q 39.796875 10.75 39.796875 16.3125 
z
M 48.78125 32.421875 
L 48.78125 5.171875 
L 56.78125 5.171875 
L 56.78125 0 
L 39.796875 0 
L 39.796875 5.609375 
Q 36.8125 2 32.90625 0.28125 
Q 29 -1.421875 23.78125 -1.421875 
Q 15.140625 -1.421875 10.0625 3.171875 
Q 4.984375 7.765625 4.984375 15.578125 
Q 4.984375 23.640625 10.796875 28.078125 
Q 16.609375 32.515625 27.203125 32.515625 
L 39.796875 32.515625 
L 39.796875 36.078125 
Q 39.796875 42 36.203125 45.234375 
Q 32.625 48.484375 26.125 48.484375 
Q 20.75 48.484375 17.578125 46.046875 
Q 14.40625 43.609375 13.625 38.8125 
L 8.984375 38.8125 
L 8.984375 49.3125 
Q 13.671875 51.3125 18.09375 52.3125 
Q 22.515625 53.328125 26.703125 53.328125 
Q 37.5 53.328125 43.140625 47.96875 
Q 48.78125 42.625 48.78125 32.421875 
z
" id="DejaVuSerif-97"/>
      <path d="M 20.515625 5.171875 
L 29 5.171875 
L 29 0 
L 2.875 0 
L 2.875 5.171875 
L 11.53125 5.171875 
L 11.53125 70.796875 
L 2.875 70.796875 
L 2.875 75.984375 
L 20.515625 75.984375 
z
" id="DejaVuSerif-108"/>
      <path d="M 11.53125 5.171875 
L 11.53125 70.796875 
L 2.875 70.796875 
L 2.875 75.984375 
L 20.515625 75.984375 
L 20.515625 43.796875 
Q 23.140625 48.6875 27.21875 51 
Q 31.296875 53.328125 37.3125 53.328125 
Q 46.875 53.328125 52.921875 45.75 
Q 58.984375 38.1875 58.984375 25.984375 
Q 58.984375 13.765625 52.921875 6.171875 
Q 46.875 -1.421875 37.3125 -1.421875 
Q 31.296875 -1.421875 27.21875 0.890625 
Q 23.140625 3.21875 20.515625 8.109375 
L 20.515625 0 
L 2.875 0 
L 2.875 5.171875 
z
M 20.515625 23.390625 
Q 20.515625 14.015625 24.09375 9.109375 
Q 27.6875 4.203125 34.515625 4.203125 
Q 41.40625 4.203125 44.9375 9.71875 
Q 48.484375 15.234375 48.484375 25.984375 
Q 48.484375 36.765625 44.9375 42.234375 
Q 41.40625 47.703125 34.515625 47.703125 
Q 27.6875 47.703125 24.09375 42.765625 
Q 20.515625 37.84375 20.515625 28.515625 
z
" id="DejaVuSerif-98"/>
      <path d="M 30.078125 3.421875 
Q 37.3125 3.421875 40.984375 9.125 
Q 44.671875 14.84375 44.671875 25.984375 
Q 44.671875 37.109375 40.984375 42.796875 
Q 37.3125 48.484375 30.078125 48.484375 
Q 22.859375 48.484375 19.171875 42.796875 
Q 15.484375 37.109375 15.484375 25.984375 
Q 15.484375 14.84375 19.1875 9.125 
Q 22.90625 3.421875 30.078125 3.421875 
z
M 30.078125 -1.421875 
Q 18.75 -1.421875 11.859375 6.078125 
Q 4.984375 13.578125 4.984375 25.984375 
Q 4.984375 38.375 11.84375 45.84375 
Q 18.703125 53.328125 30.078125 53.328125 
Q 41.453125 53.328125 48.3125 45.84375 
Q 55.171875 38.375 55.171875 25.984375 
Q 55.171875 13.578125 48.3125 6.078125 
Q 41.453125 -1.421875 30.078125 -1.421875 
z
" id="DejaVuSerif-111"/>
      <path d="M 52.484375 46.6875 
L 52.484375 1.125 
Q 52.484375 -10.0625 46.328125 -16.140625 
Q 40.1875 -22.21875 28.8125 -22.21875 
Q 23.6875 -22.21875 19 -21.28125 
Q 14.3125 -20.359375 10.015625 -18.5 
L 10.015625 -7.625 
L 14.703125 -7.625 
Q 15.578125 -12.703125 18.84375 -15.046875 
Q 22.125 -17.390625 28.21875 -17.390625 
Q 36.140625 -17.390625 39.8125 -12.921875 
Q 43.5 -8.453125 43.5 1.125 
L 43.5 8.109375 
Q 40.875 3.21875 36.796875 0.890625 
Q 32.71875 -1.421875 26.703125 -1.421875 
Q 17.140625 -1.421875 11.0625 6.171875 
Q 4.984375 13.765625 4.984375 25.984375 
Q 4.984375 38.1875 11.03125 45.75 
Q 17.09375 53.328125 26.703125 53.328125 
Q 32.71875 53.328125 36.796875 51 
Q 40.875 48.6875 43.5 43.796875 
L 43.5 51.90625 
L 61.078125 51.90625 
L 61.078125 46.6875 
z
M 43.5 28.515625 
Q 43.5 37.84375 39.90625 42.765625 
Q 36.328125 47.703125 29.5 47.703125 
Q 22.5625 47.703125 19.015625 42.234375 
Q 15.484375 36.765625 15.484375 25.984375 
Q 15.484375 15.234375 19.015625 9.71875 
Q 22.5625 4.203125 29.5 4.203125 
Q 36.328125 4.203125 39.90625 9.109375 
Q 43.5 14.015625 43.5 23.390625 
z
" id="DejaVuSerif-103"/>
      <path d="M 25.875 72.90625 
L 33.6875 72.90625 
L 7.8125 -9.28125 
L 0 -9.28125 
z
" id="DejaVuSerif-47"/>
     </defs>
     <g transform="translate(59.952812 326.113281)rotate(-90)scale(0.17 -0.17)">
      <use xlink:href="#DejaVuSerif-66"/>
      <use x="73.486328" xlink:href="#DejaVuSerif-80"/>
      <use x="140.771484" xlink:href="#DejaVuSerif-83"/>
      <use x="209.277344" xlink:href="#DejaVuSerif-32"/>
      <use x="241.064453" xlink:href="#DejaVuSerif-105"/>
      <use x="273.046875" xlink:href="#DejaVuSerif-110"/>
      <use x="337.451172" xlink:href="#DejaVuSerif-32"/>
      <use x="369.238281" xlink:href="#DejaVuSerif-102"/>
      <use x="406.25" xlink:href="#DejaVuSerif-101"/>
      <use x="465.429688" xlink:href="#DejaVuSerif-116"/>
      <use x="505.615234" xlink:href="#DejaVuSerif-97"/>
      <use x="565.234375" xlink:href="#DejaVuSerif-108"/>
      <use x="597.216797" xlink:href="#DejaVuSerif-32"/>
      <use x="629.003906" xlink:href="#DejaVuSerif-98"/>
      <use x="693.017578" xlink:href="#DejaVuSerif-108"/>
      <use x="725" xlink:href="#DejaVuSerif-111"/>
      <use x="785.205078" xlink:href="#DejaVuSerif-111"/>
      <use x="845.410156" xlink:href="#DejaVuSerif-100"/>
      <use x="909.423828" xlink:href="#DejaVuSerif-32"/>
      <use x="941.210938" xlink:href="#DejaVuSerif-91"/>
      <use x="980.224609" xlink:href="#DejaVuSerif-110"/>
      <use x="1044.628906" xlink:href="#DejaVuSerif-103"/>
      <use x="1108.642578" xlink:href="#DejaVuSerif-47"/>
      <use x="1142.333984" xlink:href="#DejaVuSerif-109"/>
      <use x="1237.158203" xlink:href="#DejaVuSerif-108"/>
      <use x="1269.140625" xlink:href="#DejaVuSerif-93"/>
     </g>
    </g>
   </g>
   <g id="line2d_16">
    <path clip-path="url(#pbdbf129fb9)" d="M 115.363636 361.334891 
L 116.631818 353.267883 
L 117.9 346.515387 
L 119.168182 340.774048 
L 120.436364 335.899167 
L 121.704545 331.76673 
L 122.972727 328.270444 
L 124.240909 325.319183 
L 125.509091 322.834837 
L 127.030909 320.376376 
L 128.552727 318.396584 
L 130.074545 316.814208 
L 131.596364 315.561698 
L 133.118182 314.582914 
L 134.893636 313.725177 
L 136.669091 313.116127 
L 138.698182 312.662227 
L 140.980909 312.391989 
L 143.517273 312.316677 
L 146.560909 312.451683 
L 150.365455 312.853674 
L 151.633636 312.952144 
L 152.394545 307.870488 
L 153.662727 300.897815 
L 154.930909 295.007651 
L 156.199091 290.04466 
L 157.467273 285.875916 
L 158.735455 282.387498 
L 160.003636 279.481741 
L 161.271818 277.074931 
L 162.54 275.09532 
L 163.808182 273.4814 
L 165.076364 272.180458 
L 166.344545 271.147303 
L 167.866364 270.206863 
L 169.388182 269.540003 
L 170.91 269.099717 
L 172.685455 268.820685 
L 174.714545 268.749912 
L 176.997273 268.915637 
L 179.533636 269.32799 
L 182.577273 270.049426 
L 186.381818 271.18207 
L 187.65 271.598646 
L 187.903636 271.387421 
L 188.664545 266.451598 
L 189.932727 259.755168 
L 191.200909 254.135159 
L 192.469091 249.436935 
L 193.737273 245.528135 
L 195.005455 242.295345 
L 196.273636 239.641317 
L 197.541818 237.482703 
L 198.81 235.748063 
L 200.078182 234.376162 
L 201.346364 233.314508 
L 202.614545 232.518129 
L 203.882727 231.948468 
L 205.404545 231.51794 
L 206.926364 231.318297 
L 208.701818 231.324066 
L 210.730909 231.58246 
L 213.013636 232.121359 
L 215.55 232.949919 
L 218.847273 234.280818 
L 222.905455 236.171033 
L 223.92 236.672307 
L 224.173636 236.219757 
L 224.934545 231.47088 
L 226.202727 225.013499 
L 227.470909 219.626543 
L 228.739091 215.156096 
L 230.007273 211.470378 
L 231.275455 208.456482 
L 232.543636 206.017593 
L 233.811818 204.070736 
L 235.08 202.544797 
L 236.348182 201.378814 
L 237.616364 200.520542 
L 238.884545 199.925203 
L 240.152727 199.554401 
L 241.674545 199.359858 
L 243.196364 199.393513 
L 244.971818 199.668323 
L 247.000909 200.230386 
L 249.283636 201.106404 
L 252.073636 202.434394 
L 255.624545 204.403286 
L 260.19 207.210092 
L 260.443636 206.493588 
L 261.204545 201.929392 
L 262.472727 195.678729 
L 263.740909 190.4927 
L 265.009091 186.218107 
L 266.277273 182.723751 
L 267.545455 179.89723 
L 268.813636 177.642161 
L 270.081818 175.875936 
L 271.35 174.527763 
L 272.618182 173.536951 
L 273.886364 172.851492 
L 275.154545 172.42681 
L 276.422727 172.224682 
L 277.944545 172.230146 
L 279.466364 172.461389 
L 281.241818 172.963912 
L 283.270909 173.782817 
L 285.553636 174.943768 
L 288.343636 176.614688 
L 291.894545 179.012306 
L 296.46 182.358533 
L 296.713636 181.375692 
L 297.474545 176.977733 
L 298.742727 170.906458 
L 300.010909 165.894228 
L 301.279091 161.788533 
L 302.547273 158.458762 
L 303.815455 155.793006 
L 305.083636 153.695315 
L 306.351818 152.083447 
L 307.62 150.886927 
L 308.888182 150.045335 
L 310.156364 149.506896 
L 311.424545 149.227236 
L 312.692727 149.168305 
L 314.214545 149.343403 
L 315.736364 149.742083 
L 317.511818 150.437416 
L 319.540909 151.473626 
L 322.077273 153.043795 
L 325.120909 155.215168 
L 328.925455 158.214145 
L 332.73 161.397456 
L 335.773636 146.951158 
L 337.041818 142.647623 
L 338.31 139.165462 
L 339.578182 136.386167 
L 340.846364 134.208142 
L 342.114545 132.544305 
L 343.129091 131.532927 
L 344.143636 130.769436 
L 345.411818 130.119245 
L 346.68 129.760758 
L 347.948182 129.651132 
L 349.216364 129.753648 
L 350.738182 130.112731 
L 352.513636 130.799976 
L 354.542727 131.867154 
L 356.825455 133.343552 
L 359.615455 135.437499 
L 363.166364 138.412837 
L 367.985455 142.773466 
L 369 143.719095 
L 370.268182 136.841031 
L 371.536364 131.285852 
L 372.804545 126.746802 
L 374.072727 123.077407 
L 375.340909 120.152169 
L 376.609091 117.863519 
L 377.623636 116.428517 
L 378.638182 115.300614 
L 379.652727 114.443523 
L 380.667273 113.825173 
L 381.681818 113.417207 
L 382.95 113.165215 
L 384.218182 113.16038 
L 385.486364 113.366144 
L 387.008182 113.847277 
L 388.783636 114.674629 
L 390.812727 115.899239 
L 393.095455 117.549666 
L 395.885455 119.852461 
L 399.436364 123.088174 
L 404.509091 128.047263 
L 405.27 128.734859 
L 406.030909 124.307765 
L 407.299091 118.421025 
L 408.567273 113.610534 
L 409.835455 109.720964 
L 411.103636 106.619398 
L 412.371818 104.191945 
L 413.386364 102.669239 
L 414.400909 101.471739 
L 415.415455 100.561019 
L 416.43 99.903118 
L 417.444545 99.468012 
L 418.712727 99.197307 
L 419.980909 99.18834 
L 421.249091 99.402405 
L 422.770909 99.907322 
L 424.546364 100.778136 
L 426.575455 102.06891 
L 428.858182 103.809907 
L 431.648182 106.240316 
L 435.199091 109.656556 
L 440.018182 114.625747 
L 441.286364 115.969451 
L 441.54 115.94299 
L 442.300909 111.560125 
L 443.569091 105.780949 
L 444.837273 101.072773 
L 446.105455 97.280991 
L 447.373636 94.273273 
L 448.641818 91.936232 
L 449.656364 90.483675 
L 450.670909 89.354593 
L 451.685455 88.510732 
L 452.7 87.918282 
L 453.714545 87.547351 
L 454.729091 87.371522 
L 455.997273 87.390797 
L 457.265455 87.63891 
L 458.787273 88.191103 
L 460.309091 88.974321 
L 462.084545 90.12536 
L 464.367273 91.899857 
L 466.903636 94.161494 
L 470.200909 97.415918 
L 474.766364 102.276114 
L 477.556364 105.357463 
L 477.81 105.060816 
L 478.570909 100.778525 
L 479.839091 95.095121 
L 481.107273 90.477567 
L 482.375455 86.771971 
L 483.643636 83.846579 
L 484.658182 81.991596 
L 485.672727 80.513118 
L 486.687273 79.366711 
L 487.701818 78.513099 
L 488.716364 77.917569 
L 489.730909 77.549431 
L 490.745455 77.381559 
L 492.013636 77.4171 
L 493.281818 77.687498 
L 494.803636 78.273121 
L 496.325455 79.095819 
L 498.100909 80.299096 
L 500.383636 82.14841 
L 502.92 84.500617 
L 506.217273 87.880628 
L 510.782727 92.923174 
L 513.826364 96.411356 
L 514.08 95.8264 
L 514.840909 91.655905 
L 516.109091 86.058315 
L 517.377273 81.521497 
L 518.645455 77.892274 
L 519.913636 75.03947 
L 520.928182 73.240171 
L 521.942727 71.815497 
L 522.957273 70.721212 
L 523.971818 69.918211 
L 524.986364 69.371937 
L 526.000909 69.051834 
L 527.015455 68.930898 
L 528.283636 69.023722 
L 529.551818 69.350033 
L 531.073636 70.001155 
L 532.595455 70.887828 
L 534.370909 72.164067 
L 536.653636 74.104909 
L 539.443636 76.814832 
L 542.740909 80.342475 
L 547.306364 85.570211 
L 550.096364 88.870902 
L 550.35 87.999057 
L 551.110909 83.933293 
L 552.379091 78.413064 
L 553.647273 73.94862 
L 554.915455 70.387472 
L 556.183636 67.599024 
L 557.198182 65.848868 
L 558.212727 64.471495 
L 559.227273 63.422865 
L 560.241818 62.664046 
L 561.256364 62.160634 
L 562.270909 61.882207 
L 563.285455 61.801882 
L 564.553636 61.94413 
L 565.821818 62.318542 
L 567.343636 63.025861 
L 569.119091 64.143875 
L 571.148182 65.728355 
L 573.430909 67.810141 
L 576.220909 70.666909 
L 579.771818 74.634337 
L 584.844545 80.6635 
L 586.366364 82.516462 
L 587.127273 78.623598 
L 588.395455 72.942722 
L 589.663636 68.34631 
L 590.931818 64.677458 
L 592.2 61.802065 
L 593.214545 59.995268 
L 594.229091 58.571281 
L 595.243636 57.484883 
L 596.258182 56.6961 
L 597.272727 56.169606 
L 598.287273 55.874167 
L 599.301818 55.782176 
L 600.57 55.916402 
L 601.838182 56.289078 
L 603.36 57.001312 
L 604.881818 57.954007 
L 606.657273 59.312239 
L 608.94 61.364522 
L 611.73 64.217189 
L 615.280909 68.214924 
L 620.1 74.017616 
L 622.636364 77.162731 
L 622.636364 77.162731 
" style="fill:none;stroke:#0f2080;stroke-linecap:square;stroke-width:3;"/>
   </g>
   <g id="line2d_17">
    <path clip-path="url(#pbdbf129fb9)" d="M 115.363636 361.334891 
L 115.617273 360.245854 
L 115.870909 360.028325 
L 117.9 359.87887 
L 123.733636 359.652822 
L 132.610909 359.553152 
L 150.619091 359.622727 
L 151.633636 359.555404 
L 151.887273 358.473241 
L 152.394545 358.292804 
L 157.467273 358.062471 
L 164.822727 357.965772 
L 177.758182 358.052018 
L 187.65 358.179927 
L 187.903636 357.908276 
L 188.157273 356.97946 
L 188.664545 356.848866 
L 193.737273 356.653795 
L 201.346364 356.606848 
L 214.789091 356.785888 
L 223.92 356.958262 
L 224.680909 355.647712 
L 228.485455 355.495578 
L 235.333636 355.442884 
L 246.747273 355.614586 
L 260.19 355.927699 
L 260.697273 354.672963 
L 261.458182 354.589749 
L 266.784545 354.457502 
L 274.647273 354.505879 
L 289.611818 354.865709 
L 296.46 355.0584 
L 296.713636 354.196081 
L 296.967273 353.787974 
L 297.981818 353.712999 
L 303.561818 353.612033 
L 311.678182 353.709203 
L 327.910909 354.172394 
L 332.73 354.325182 
L 332.983636 353.337275 
L 333.237273 353.043503 
L 334.759091 352.965902 
L 340.592727 352.904417 
L 349.47 353.065805 
L 369 353.70679 
L 369.253636 352.625748 
L 369.507273 352.416938 
L 371.536364 352.33831 
L 377.37 352.312077 
L 386.500909 352.516969 
L 405.27 353.111006 
L 405.523636 352.036464 
L 405.777273 351.889353 
L 408.313636 351.811525 
L 414.400909 351.820451 
L 424.292727 352.087898 
L 441.286364 352.735619 
L 441.54 352.470432 
L 441.793636 351.548047 
L 442.300909 351.43032 
L 447.373636 351.362371 
L 454.982727 351.500638 
L 469.44 352.032388 
L 477.556364 352.364423 
L 478.317273 351.070183 
L 482.121818 350.998827 
L 488.97 351.088032 
L 500.637273 351.496723 
L 513.826364 352.051506 
L 514.333636 350.805948 
L 515.094545 350.736474 
L 520.674545 350.701646 
L 528.790909 350.900525 
L 545.530909 351.588162 
L 550.096364 351.787764 
L 550.35 350.929323 
L 550.603636 350.525081 
L 551.618182 350.465557 
L 557.198182 350.448316 
L 565.568182 350.67264 
L 583.322727 351.429288 
L 586.366364 351.565515 
L 586.62 350.580878 
L 586.873636 350.290369 
L 588.395455 350.232302 
L 594.229091 350.244462 
L 603.106364 350.514182 
L 622.636364 351.378275 
L 622.636364 351.378275 
" style="fill:none;stroke:#f57938;stroke-linecap:square;stroke-width:3;"/>
   </g>
   <g id="line2d_18">
    <path clip-path="url(#pbdbf129fb9)" d="M 115.363636 361.334891 
L 115.617273 360.690248 
L 117.646364 349.2211 
L 118.914545 343.359179 
L 120.182727 338.379363 
L 121.450909 334.155415 
L 122.719091 330.579126 
L 123.987273 327.557745 
L 125.255455 325.011756 
L 126.777273 322.488834 
L 128.299091 320.453312 
L 129.820909 318.822476 
L 131.342727 317.527569 
L 132.864545 316.511438 
L 134.64 315.615403 
L 136.415455 314.972702 
L 138.444545 314.484927 
L 140.727273 314.181178 
L 143.263636 314.073024 
L 146.307273 314.173153 
L 150.111818 314.536472 
L 151.633636 314.73163 
L 151.887273 313.92775 
L 153.662727 304.016832 
L 154.930909 298.18916 
L 156.199091 293.27673 
L 157.467273 289.148335 
L 158.735455 285.691534 
L 160.003636 282.809923 
L 161.271818 280.420875 
L 162.54 278.45357 
L 163.808182 276.847295 
L 165.076364 275.550022 
L 166.598182 274.338828 
L 168.12 273.443567 
L 169.641818 272.810112 
L 171.417273 272.342389 
L 173.192727 272.111546 
L 175.221818 272.077712 
L 177.504545 272.266964 
L 180.294545 272.740555 
L 183.591818 273.540447 
L 187.903636 274.814035 
L 188.157273 273.8705 
L 189.679091 265.54455 
L 190.947273 259.778647 
L 192.215455 254.951362 
L 193.483636 250.927922 
L 194.751818 247.592878 
L 196.02 244.847239 
L 197.288182 242.606161 
L 198.556364 240.796919 
L 199.824545 239.357179 
L 201.092727 238.233507 
L 202.360909 237.38012 
L 203.629091 236.757771 
L 205.150909 236.268888 
L 206.672727 236.015385 
L 208.448182 235.963058 
L 210.477273 236.16016 
L 212.76 236.6353 
L 215.296364 237.398055 
L 218.34 238.545071 
L 222.398182 240.330028 
L 224.173636 241.093223 
L 224.680909 238.594906 
L 225.949091 231.967986 
L 227.217273 226.428739 
L 228.485455 221.822793 
L 229.753636 218.015977 
L 231.021818 214.893354 
L 232.29 212.356376 
L 233.558182 210.320575 
L 234.826364 208.713559 
L 236.094545 207.473273 
L 237.362727 206.546531 
L 238.630909 205.887753 
L 239.899091 205.457852 
L 241.420909 205.197291 
L 242.942727 205.169462 
L 244.718182 205.377323 
L 246.747273 205.868047 
L 249.03 206.669098 
L 251.82 207.911391 
L 255.117273 209.636985 
L 259.429091 212.153419 
L 260.19 212.617283 
L 260.443636 212.599343 
L 261.204545 208.662396 
L 262.472727 202.465336 
L 263.740909 197.319051 
L 265.009091 193.07255 
L 266.277273 189.596336 
L 267.545455 186.779461 
L 268.813636 184.526791 
L 270.081818 182.756788 
L 271.35 181.399576 
L 272.618182 180.395249 
L 273.886364 179.692474 
L 275.154545 179.247251 
L 276.422727 179.021851 
L 277.944545 178.996376 
L 279.466364 179.193973 
L 281.241818 179.6545 
L 283.270909 180.4226 
L 285.553636 181.523742 
L 288.343636 183.118942 
L 291.894545 185.417691 
L 296.46 188.635023 
L 296.713636 188.514501 
L 299.757273 174.496885 
L 301.025455 170.245872 
L 302.293636 166.785119 
L 303.561818 164.000711 
L 304.83 161.794972 
L 306.098182 160.084186 
L 307.366364 158.796608 
L 308.634545 157.870736 
L 309.902727 157.253861 
L 311.170909 156.900813 
L 312.439091 156.77286 
L 313.960909 156.870068 
L 315.482727 157.195443 
L 317.258182 157.810101 
L 319.287273 158.759388 
L 321.57 160.068894 
L 324.36 161.922857 
L 327.910909 164.554067 
L 332.73 168.407165 
L 332.983636 168.151453 
L 335.266364 157.3162 
L 336.534545 152.673786 
L 337.802727 148.894398 
L 339.070909 145.853587 
L 340.339091 143.444719 
L 341.607273 141.576368 
L 342.875455 140.170175 
L 344.143636 139.158988 
L 345.411818 138.485239 
L 346.68 138.099603 
L 347.948182 137.959789 
L 349.216364 138.029554 
L 350.738182 138.346521 
L 352.513636 138.98149 
L 354.542727 139.985709 
L 356.825455 141.388258 
L 359.615455 143.388984 
L 363.166364 146.242892 
L 367.985455 150.436724 
L 369 151.347195 
L 369.253636 150.9313 
L 371.029091 142.360784 
L 372.297273 137.462305 
L 373.565455 133.477589 
L 374.833636 130.274853 
L 376.101818 127.741185 
L 377.37 125.779773 
L 378.384545 124.566498 
L 379.399091 123.629202 
L 380.413636 122.935233 
L 381.681818 122.366305 
L 382.95 122.083611 
L 384.218182 122.045072 
L 385.486364 122.214601 
L 387.008182 122.649477 
L 388.783636 123.419775 
L 390.812727 124.57603 
L 393.095455 126.146617 
L 395.885455 128.34897 
L 399.436364 131.454219 
L 404.509091 136.225093 
L 405.27 136.958743 
L 405.523636 136.365678 
L 407.299091 127.923607 
L 408.567273 123.13785 
L 409.835455 119.261299 
L 411.103636 116.162756 
L 412.371818 113.729808 
L 413.386364 112.19743 
L 414.400909 110.986179 
L 415.415455 110.05813 
L 416.43 109.379759 
L 417.444545 108.921433 
L 418.712727 108.618354 
L 419.980909 108.573831 
L 421.249091 108.74966 
L 422.770909 109.205756 
L 424.546364 110.016338 
L 426.575455 111.23494 
L 428.858182 112.891624 
L 431.648182 115.215955 
L 435.199091 118.494396 
L 440.018182 123.274723 
L 441.54 124.807449 
L 441.793636 124.042016 
L 443.315455 116.780201 
L 444.583636 111.895304 
L 445.851818 107.943812 
L 447.12 104.790981 
L 448.388182 102.321391 
L 449.402727 100.77066 
L 450.417273 99.549545 
L 451.431818 98.619107 
L 452.446364 97.944924 
L 453.460909 97.496571 
L 454.475455 97.247151 
L 455.743636 97.179193 
L 457.011818 97.344695 
L 458.533636 97.802998 
L 460.055455 98.497203 
L 461.830909 99.549574 
L 463.86 101.006033 
L 466.396364 103.114316 
L 469.44 105.942941 
L 473.498182 110.034452 
L 477.81 114.522668 
L 478.317273 112.324733 
L 479.585455 106.445628 
L 480.853636 101.649769 
L 482.121818 97.782811 
L 483.39 94.710609 
L 484.658182 92.318248 
L 485.672727 90.827149 
L 486.687273 89.663967 
L 487.701818 88.789933 
L 488.716364 88.170784 
L 489.730909 87.776228 
L 490.745455 87.579489 
L 492.013636 87.575971 
L 493.281818 87.804494 
L 494.803636 88.33678 
L 496.325455 89.103393 
L 498.100909 90.238489 
L 500.383636 91.996861 
L 502.92 94.245001 
L 506.217273 97.486846 
L 510.529091 102.059238 
L 514.08 105.80375 
L 514.587273 103.499563 
L 515.855455 97.704322 
L 517.123636 92.987946 
L 518.391818 89.196037 
L 519.66 86.195047 
L 520.674545 84.286269 
L 521.689091 82.759199 
L 522.703636 81.568806 
L 523.718182 80.675282 
L 524.732727 80.043447 
L 525.747273 79.642199 
L 526.761818 79.444045 
L 528.03 79.44522 
L 529.298182 79.684622 
L 530.82 80.236832 
L 532.341818 81.029601 
L 534.117273 82.201605 
L 536.146364 83.799476 
L 538.682727 86.089507 
L 541.98 89.406222 
L 546.291818 94.09881 
L 550.096364 98.418028 
L 550.35 98.404624 
L 553.14 86.513317 
L 554.408182 82.615711 
L 555.676364 79.530225 
L 556.690909 77.567035 
L 557.705455 75.995788 
L 558.72 74.770246 
L 559.734545 73.849535 
L 560.749091 73.197533 
L 561.763636 72.782307 
L 562.778182 72.575626 
L 564.046364 72.572826 
L 565.314545 72.814656 
L 566.836364 73.376901 
L 568.358182 74.186177 
L 570.133636 75.384098 
L 572.162727 77.018558 
L 574.699091 79.362247 
L 577.742727 82.486115 
L 581.800909 86.983716 
L 586.366364 92.285838 
L 586.62 92.120511 
L 588.902727 82.093893 
L 590.170909 77.896998 
L 591.439091 74.560491 
L 592.453636 72.426522 
L 593.468182 70.707852 
L 594.482727 69.35551 
L 595.497273 68.326217 
L 596.511818 67.581715 
L 597.526364 67.088195 
L 598.540909 66.815762 
L 599.555455 66.737997 
L 600.823636 66.879239 
L 602.091818 67.24862 
L 603.613636 67.945425 
L 605.389091 69.046091 
L 607.418182 70.605419 
L 609.700909 72.653704 
L 612.490909 75.464085 
L 616.041818 79.366682 
L 621.114545 85.296868 
L 622.636364 87.119347 
L 622.636364 87.119347 
" style="fill:none;stroke:#85c0f9;stroke-dasharray:11.1,4.8;stroke-dashoffset:0;stroke-width:3;"/>
   </g>
   <g id="patch_3">
    <path d="M 90 378 
L 90 51.84 
" style="fill:none;stroke:#000000;stroke-linecap:square;stroke-linejoin:miter;stroke-width:0.8;"/>
   </g>
   <g id="patch_4">
    <path d="M 648 378 
L 648 51.84 
" style="fill:none;stroke:#000000;stroke-linecap:square;stroke-linejoin:miter;stroke-width:0.8;"/>
   </g>
   <g id="patch_5">
    <path d="M 90 378 
L 648 378 
" style="fill:none;stroke:#000000;stroke-linecap:square;stroke-linejoin:miter;stroke-width:0.8;"/>
   </g>
   <g id="patch_6">
    <path d="M 90 51.84 
L 648 51.84 
" style="fill:none;stroke:#000000;stroke-linecap:square;stroke-linejoin:miter;stroke-width:0.8;"/>
   </g>
  </g>
 </g>
 <defs>
  <clipPath id="pbdbf129fb9">
   <rect height="326.16" width="558" x="90" y="51.84"/>
  </clipPath>
 </defs>
</svg>
