<?xml version="1.0" encoding="utf-8" standalone="no"?>
<!DOCTYPE svg PUBLIC "-//W3C//DTD SVG 1.1//EN"
  "http://www.w3.org/Graphics/SVG/1.1/DTD/svg11.dtd">
<!-- Created with matplotlib (https://matplotlib.org/) -->
<svg height="432pt" version="1.1" viewBox="0 0 720 432" width="720pt" xmlns="http://www.w3.org/2000/svg" xmlns:xlink="http://www.w3.org/1999/xlink">
 <defs>
  <style type="text/css">
*{stroke-linecap:butt;stroke-linejoin:round;}
  </style>
 </defs>
 <g id="figure_1">
  <g id="patch_1">
   <path d="M 0 432 
L 720 432 
L 720 0 
L 0 0 
z
" style="fill:#ffffff;"/>
  </g>
  <g id="axes_1">
   <g id="patch_2">
    <path d="M 90 378 
L 648 378 
L 648 51.84 
L 90 51.84 
z
" style="fill:#ffffff;"/>
   </g>
   <g id="matplotlib.axis_1">
    <g id="xtick_1">
     <g id="line2d_1">
      <defs>
       <path d="M 0 0 
L 0 3.5 
" id="m32299601ed" style="stroke:#000000;stroke-width:0.8;"/>
      </defs>
      <g>
       <use style="stroke:#000000;stroke-width:0.8;" x="115.363636" xlink:href="#m32299601ed" y="378"/>
      </g>
     </g>
     <g id="text_1">
      <!-- 0 -->
      <defs>
       <path d="M 31.78125 3.421875 
Q 39.265625 3.421875 42.96875 11.625 
Q 46.6875 19.828125 46.6875 36.375 
Q 46.6875 52.984375 42.96875 61.1875 
Q 39.265625 69.390625 31.78125 69.390625 
Q 24.3125 69.390625 20.59375 61.1875 
Q 16.890625 52.984375 16.890625 36.375 
Q 16.890625 19.828125 20.59375 11.625 
Q 24.3125 3.421875 31.78125 3.421875 
z
M 31.78125 -1.421875 
Q 19.921875 -1.421875 13.25 8.53125 
Q 6.59375 18.5 6.59375 36.375 
Q 6.59375 54.296875 13.25 64.25 
Q 19.921875 74.21875 31.78125 74.21875 
Q 43.703125 74.21875 50.34375 64.25 
Q 56.984375 54.296875 56.984375 36.375 
Q 56.984375 18.5 50.34375 8.53125 
Q 43.703125 -1.421875 31.78125 -1.421875 
z
" id="DejaVuSerif-48"/>
      </defs>
      <g transform="translate(111.546136 394.118125)scale(0.12 -0.12)">
       <use xlink:href="#DejaVuSerif-48"/>
      </g>
     </g>
    </g>
    <g id="xtick_2">
     <g id="line2d_2">
      <g>
       <use style="stroke:#000000;stroke-width:0.8;" x="187.831169" xlink:href="#m32299601ed" y="378"/>
      </g>
     </g>
     <g id="text_2">
      <!-- 2 -->
      <defs>
       <path d="M 12.796875 55.515625 
L 7.328125 55.515625 
L 7.328125 68.5 
Q 12.546875 71.296875 17.84375 72.75 
Q 23.140625 74.21875 28.21875 74.21875 
Q 39.59375 74.21875 46.1875 68.703125 
Q 52.78125 63.1875 52.78125 53.71875 
Q 52.78125 43.015625 37.84375 28.125 
Q 36.671875 27 36.078125 26.421875 
L 17.671875 8.015625 
L 48.09375 8.015625 
L 48.09375 17 
L 53.8125 17 
L 53.8125 0 
L 6.78125 0 
L 6.78125 5.328125 
L 28.90625 27.390625 
Q 36.234375 34.71875 39.359375 40.84375 
Q 42.484375 46.96875 42.484375 53.71875 
Q 42.484375 61.078125 38.640625 65.234375 
Q 34.8125 69.390625 28.078125 69.390625 
Q 21.09375 69.390625 17.28125 65.921875 
Q 13.484375 62.453125 12.796875 55.515625 
z
" id="DejaVuSerif-50"/>
      </defs>
      <g transform="translate(184.013669 394.118125)scale(0.12 -0.12)">
       <use xlink:href="#DejaVuSerif-50"/>
      </g>
     </g>
    </g>
    <g id="xtick_3">
     <g id="line2d_3">
      <g>
       <use style="stroke:#000000;stroke-width:0.8;" x="260.298701" xlink:href="#m32299601ed" y="378"/>
      </g>
     </g>
     <g id="text_3">
      <!-- 4 -->
      <defs>
       <path d="M 34.90625 24.703125 
L 34.90625 63.484375 
L 10.015625 24.703125 
z
M 56.390625 0 
L 23.1875 0 
L 23.1875 5.171875 
L 34.90625 5.171875 
L 34.90625 19.484375 
L 3.078125 19.484375 
L 3.078125 24.8125 
L 35.015625 74.21875 
L 44.671875 74.21875 
L 44.671875 24.703125 
L 58.59375 24.703125 
L 58.59375 19.484375 
L 44.671875 19.484375 
L 44.671875 5.171875 
L 56.390625 5.171875 
z
" id="DejaVuSerif-52"/>
      </defs>
      <g transform="translate(256.481201 394.118125)scale(0.12 -0.12)">
       <use xlink:href="#DejaVuSerif-52"/>
      </g>
     </g>
    </g>
    <g id="xtick_4">
     <g id="line2d_4">
      <g>
       <use style="stroke:#000000;stroke-width:0.8;" x="332.766234" xlink:href="#m32299601ed" y="378"/>
      </g>
     </g>
     <g id="text_4">
      <!-- 6 -->
      <defs>
       <path d="M 32.71875 3.421875 
Q 39.59375 3.421875 43.296875 8.46875 
Q 47.015625 13.53125 47.015625 23 
Q 47.015625 32.46875 43.296875 37.515625 
Q 39.59375 42.578125 32.71875 42.578125 
Q 25.734375 42.578125 22.0625 37.6875 
Q 18.40625 32.8125 18.40625 23.578125 
Q 18.40625 13.875 22.109375 8.640625 
Q 25.828125 3.421875 32.71875 3.421875 
z
M 16.796875 40.140625 
Q 20.125 43.796875 24.3125 45.59375 
Q 28.515625 47.40625 33.796875 47.40625 
Q 44.671875 47.40625 51 40.859375 
Q 57.328125 34.328125 57.328125 23 
Q 57.328125 11.921875 50.515625 5.25 
Q 43.703125 -1.421875 32.328125 -1.421875 
Q 19.96875 -1.421875 13.328125 7.78125 
Q 6.6875 17 6.6875 34.078125 
Q 6.6875 53.21875 14.546875 63.71875 
Q 22.40625 74.21875 36.71875 74.21875 
Q 40.578125 74.21875 44.828125 73.484375 
Q 49.078125 72.75 53.515625 71.296875 
L 53.515625 59.28125 
L 48 59.28125 
Q 47.40625 64.203125 44.234375 66.796875 
Q 41.0625 69.390625 35.6875 69.390625 
Q 26.21875 69.390625 21.578125 62.203125 
Q 16.9375 55.03125 16.796875 40.140625 
z
" id="DejaVuSerif-54"/>
      </defs>
      <g transform="translate(328.948734 394.118125)scale(0.12 -0.12)">
       <use xlink:href="#DejaVuSerif-54"/>
      </g>
     </g>
    </g>
    <g id="xtick_5">
     <g id="line2d_5">
      <g>
       <use style="stroke:#000000;stroke-width:0.8;" x="405.233766" xlink:href="#m32299601ed" y="378"/>
      </g>
     </g>
     <g id="text_5">
      <!-- 8 -->
      <defs>
       <path d="M 46.578125 19.921875 
Q 46.578125 27.734375 42.6875 32.046875 
Q 38.8125 36.375 31.78125 36.375 
Q 24.75 36.375 20.875 32.046875 
Q 17 27.734375 17 19.921875 
Q 17 12.0625 20.875 7.734375 
Q 24.75 3.421875 31.78125 3.421875 
Q 38.8125 3.421875 42.6875 7.734375 
Q 46.578125 12.0625 46.578125 19.921875 
z
M 44.578125 55.328125 
Q 44.578125 61.96875 41.203125 65.671875 
Q 37.84375 69.390625 31.78125 69.390625 
Q 25.78125 69.390625 22.390625 65.671875 
Q 19 61.96875 19 55.328125 
Q 19 48.640625 22.390625 44.921875 
Q 25.78125 41.21875 31.78125 41.21875 
Q 37.84375 41.21875 41.203125 44.921875 
Q 44.578125 48.640625 44.578125 55.328125 
z
M 39.3125 38.8125 
Q 47.609375 37.703125 52.25 32.6875 
Q 56.890625 27.6875 56.890625 19.921875 
Q 56.890625 9.671875 50.390625 4.125 
Q 43.890625 -1.421875 31.78125 -1.421875 
Q 19.734375 -1.421875 13.203125 4.125 
Q 6.6875 9.671875 6.6875 19.921875 
Q 6.6875 27.6875 11.328125 32.6875 
Q 15.96875 37.703125 24.3125 38.8125 
Q 16.9375 40.140625 13 44.40625 
Q 9.078125 48.6875 9.078125 55.328125 
Q 9.078125 64.109375 15.125 69.15625 
Q 21.1875 74.21875 31.78125 74.21875 
Q 42.390625 74.21875 48.4375 69.15625 
Q 54.5 64.109375 54.5 55.328125 
Q 54.5 48.6875 50.5625 44.40625 
Q 46.625 40.140625 39.3125 38.8125 
z
" id="DejaVuSerif-56"/>
      </defs>
      <g transform="translate(401.416266 394.118125)scale(0.12 -0.12)">
       <use xlink:href="#DejaVuSerif-56"/>
      </g>
     </g>
    </g>
    <g id="xtick_6">
     <g id="line2d_6">
      <g>
       <use style="stroke:#000000;stroke-width:0.8;" x="477.701299" xlink:href="#m32299601ed" y="378"/>
      </g>
     </g>
     <g id="text_6">
      <!-- 10 -->
      <defs>
       <path d="M 14.203125 0 
L 14.203125 5.171875 
L 26.90625 5.171875 
L 26.90625 65.828125 
L 12.203125 56.296875 
L 12.203125 62.703125 
L 29.984375 74.21875 
L 36.71875 74.21875 
L 36.71875 5.171875 
L 49.421875 5.171875 
L 49.421875 0 
z
" id="DejaVuSerif-49"/>
      </defs>
      <g transform="translate(470.066299 394.118125)scale(0.12 -0.12)">
       <use xlink:href="#DejaVuSerif-49"/>
       <use x="63.623047" xlink:href="#DejaVuSerif-48"/>
      </g>
     </g>
    </g>
    <g id="xtick_7">
     <g id="line2d_7">
      <g>
       <use style="stroke:#000000;stroke-width:0.8;" x="550.168831" xlink:href="#m32299601ed" y="378"/>
      </g>
     </g>
     <g id="text_7">
      <!-- 12 -->
      <g transform="translate(542.533831 394.118125)scale(0.12 -0.12)">
       <use xlink:href="#DejaVuSerif-49"/>
       <use x="63.623047" xlink:href="#DejaVuSerif-50"/>
      </g>
     </g>
    </g>
    <g id="xtick_8">
     <g id="line2d_8">
      <g>
       <use style="stroke:#000000;stroke-width:0.8;" x="622.636364" xlink:href="#m32299601ed" y="378"/>
      </g>
     </g>
     <g id="text_8">
      <!-- 14 -->
      <g transform="translate(615.001364 394.118125)scale(0.12 -0.12)">
       <use xlink:href="#DejaVuSerif-49"/>
       <use x="63.623047" xlink:href="#DejaVuSerif-52"/>
      </g>
     </g>
    </g>
    <g id="text_9">
     <!-- Time [d] -->
     <defs>
      <path d="M 19.09375 0 
L 19.09375 5.171875 
L 28.421875 5.171875 
L 28.421875 67.09375 
L 6.984375 67.09375 
L 6.984375 55.71875 
L 0.984375 55.71875 
L 0.984375 72.90625 
L 65.71875 72.90625 
L 65.71875 55.71875 
L 59.71875 55.71875 
L 59.71875 67.09375 
L 38.28125 67.09375 
L 38.28125 5.171875 
L 47.609375 5.171875 
L 47.609375 0 
z
" id="DejaVuSerif-84"/>
      <path d="M 9.71875 68.015625 
Q 9.71875 70.265625 11.34375 71.921875 
Q 12.984375 73.578125 15.28125 73.578125 
Q 17.53125 73.578125 19.15625 71.921875 
Q 20.796875 70.265625 20.796875 68.015625 
Q 20.796875 65.71875 19.1875 64.109375 
Q 17.578125 62.5 15.28125 62.5 
Q 12.984375 62.5 11.34375 64.109375 
Q 9.71875 65.71875 9.71875 68.015625 
z
M 21.1875 5.171875 
L 29.6875 5.171875 
L 29.6875 0 
L 3.609375 0 
L 3.609375 5.171875 
L 12.203125 5.171875 
L 12.203125 46.6875 
L 3.609375 46.6875 
L 3.609375 51.90625 
L 21.1875 51.90625 
z
" id="DejaVuSerif-105"/>
      <path d="M 51.8125 41.796875 
Q 54.390625 47.515625 58.421875 50.421875 
Q 62.453125 53.328125 67.828125 53.328125 
Q 75.984375 53.328125 79.984375 48.265625 
Q 83.984375 43.21875 83.984375 33.015625 
L 83.984375 5.171875 
L 92.09375 5.171875 
L 92.09375 0 
L 67.1875 0 
L 67.1875 5.171875 
L 75 5.171875 
L 75 31.984375 
Q 75 39.9375 72.65625 43.3125 
Q 70.3125 46.6875 64.890625 46.6875 
Q 58.890625 46.6875 55.734375 42.140625 
Q 52.59375 37.59375 52.59375 28.90625 
L 52.59375 5.171875 
L 60.40625 5.171875 
L 60.40625 0 
L 35.796875 0 
L 35.796875 5.171875 
L 43.609375 5.171875 
L 43.609375 32.328125 
Q 43.609375 40.09375 41.265625 43.390625 
Q 38.921875 46.6875 33.5 46.6875 
Q 27.484375 46.6875 24.328125 42.140625 
Q 21.1875 37.59375 21.1875 28.90625 
L 21.1875 5.171875 
L 29 5.171875 
L 29 0 
L 4.109375 0 
L 4.109375 5.171875 
L 12.203125 5.171875 
L 12.203125 46.78125 
L 3.609375 46.78125 
L 3.609375 51.90625 
L 21.1875 51.90625 
L 21.1875 42.671875 
Q 23.6875 47.859375 27.53125 50.59375 
Q 31.390625 53.328125 36.28125 53.328125 
Q 42.328125 53.328125 46.375 50.3125 
Q 50.4375 47.3125 51.8125 41.796875 
z
" id="DejaVuSerif-109"/>
      <path d="M 54.203125 25 
L 15.484375 25 
L 15.484375 24.609375 
Q 15.484375 14.109375 19.4375 8.765625 
Q 23.390625 3.421875 31.109375 3.421875 
Q 37.015625 3.421875 40.796875 6.515625 
Q 44.578125 9.625 46.09375 15.71875 
L 53.328125 15.71875 
Q 51.171875 7.171875 45.375 2.875 
Q 39.59375 -1.421875 30.171875 -1.421875 
Q 18.796875 -1.421875 11.890625 6.078125 
Q 4.984375 13.578125 4.984375 25.984375 
Q 4.984375 38.28125 11.765625 45.796875 
Q 18.5625 53.328125 29.59375 53.328125 
Q 41.359375 53.328125 47.65625 46.0625 
Q 53.953125 38.8125 54.203125 25 
z
M 43.609375 30.171875 
Q 43.3125 39.265625 39.765625 43.875 
Q 36.234375 48.484375 29.59375 48.484375 
Q 23.390625 48.484375 19.828125 43.84375 
Q 16.265625 39.203125 15.484375 30.171875 
z
" id="DejaVuSerif-101"/>
      <path id="DejaVuSerif-32"/>
      <path d="M 8.59375 75.984375 
L 31.296875 75.984375 
L 31.296875 70.796875 
L 17.921875 70.796875 
L 17.921875 -8.015625 
L 31.296875 -8.015625 
L 31.296875 -13.1875 
L 8.59375 -13.1875 
z
" id="DejaVuSerif-91"/>
      <path d="M 52.484375 5.171875 
L 61.078125 5.171875 
L 61.078125 0 
L 43.5 0 
L 43.5 8.109375 
Q 40.875 3.21875 36.796875 0.890625 
Q 32.71875 -1.421875 26.703125 -1.421875 
Q 17.140625 -1.421875 11.0625 6.171875 
Q 4.984375 13.765625 4.984375 25.984375 
Q 4.984375 38.1875 11.03125 45.75 
Q 17.09375 53.328125 26.703125 53.328125 
Q 32.71875 53.328125 36.796875 51 
Q 40.875 48.6875 43.5 43.796875 
L 43.5 70.796875 
L 35.015625 70.796875 
L 35.015625 75.984375 
L 52.484375 75.984375 
z
M 43.5 23.390625 
L 43.5 28.515625 
Q 43.5 37.84375 39.90625 42.765625 
Q 36.328125 47.703125 29.5 47.703125 
Q 22.5625 47.703125 19.015625 42.234375 
Q 15.484375 36.765625 15.484375 25.984375 
Q 15.484375 15.234375 19.015625 9.71875 
Q 22.5625 4.203125 29.5 4.203125 
Q 36.328125 4.203125 39.90625 9.109375 
Q 43.5 14.015625 43.5 23.390625 
z
" id="DejaVuSerif-100"/>
      <path d="M 30.421875 75.984375 
L 30.421875 -13.1875 
L 7.71875 -13.1875 
L 7.71875 -8.015625 
L 21.09375 -8.015625 
L 21.09375 70.796875 
L 7.71875 70.796875 
L 7.71875 75.984375 
z
" id="DejaVuSerif-93"/>
     </defs>
     <g transform="translate(332.744844 413.531094)scale(0.17 -0.17)">
      <use xlink:href="#DejaVuSerif-84"/>
      <use x="66.699219" xlink:href="#DejaVuSerif-105"/>
      <use x="98.681641" xlink:href="#DejaVuSerif-109"/>
      <use x="193.505859" xlink:href="#DejaVuSerif-101"/>
      <use x="252.685547" xlink:href="#DejaVuSerif-32"/>
      <use x="284.472656" xlink:href="#DejaVuSerif-91"/>
      <use x="323.486328" xlink:href="#DejaVuSerif-100"/>
      <use x="387.5" xlink:href="#DejaVuSerif-93"/>
     </g>
    </g>
   </g>
   <g id="matplotlib.axis_2">
    <g id="ytick_1">
     <g id="line2d_9">
      <defs>
       <path d="M 0 0 
L -3.5 0 
" id="ma85eee75ea" style="stroke:#000000;stroke-width:0.8;"/>
      </defs>
      <g>
       <use style="stroke:#000000;stroke-width:0.8;" x="90" xlink:href="#ma85eee75ea" y="363.174545"/>
      </g>
     </g>
     <g id="text_10">
      <!-- 0.0 -->
      <defs>
       <path d="M 9.421875 5.078125 
Q 9.421875 7.8125 11.28125 9.71875 
Q 13.140625 11.625 15.921875 11.625 
Q 18.609375 11.625 20.5 9.71875 
Q 22.40625 7.8125 22.40625 5.078125 
Q 22.40625 2.390625 20.5 0.484375 
Q 18.609375 -1.421875 15.921875 -1.421875 
Q 13.140625 -1.421875 11.28125 0.453125 
Q 9.421875 2.34375 9.421875 5.078125 
z
" id="DejaVuSerif-46"/>
      </defs>
      <g transform="translate(63.91625 367.733608)scale(0.12 -0.12)">
       <use xlink:href="#DejaVuSerif-48"/>
       <use x="63.623047" xlink:href="#DejaVuSerif-46"/>
       <use x="95.410156" xlink:href="#DejaVuSerif-48"/>
      </g>
     </g>
    </g>
    <g id="ytick_2">
     <g id="line2d_10">
      <g>
       <use style="stroke:#000000;stroke-width:0.8;" x="90" xlink:href="#ma85eee75ea" y="316.448034"/>
      </g>
     </g>
     <g id="text_11">
      <!-- 0.5 -->
      <defs>
       <path d="M 50.296875 72.90625 
L 50.296875 64.890625 
L 16.890625 64.890625 
L 16.890625 44 
Q 19.4375 45.75 22.828125 46.625 
Q 26.21875 47.515625 30.421875 47.515625 
Q 42.234375 47.515625 49.0625 40.96875 
Q 55.90625 34.421875 55.90625 23.09375 
Q 55.90625 11.53125 49 5.046875 
Q 42.09375 -1.421875 29.59375 -1.421875 
Q 24.5625 -1.421875 19.28125 -0.1875 
Q 14.015625 1.03125 8.5 3.515625 
L 8.5 17.671875 
L 14.015625 17.671875 
Q 14.453125 10.75 18.421875 7.078125 
Q 22.40625 3.421875 29.59375 3.421875 
Q 37.3125 3.421875 41.453125 8.5 
Q 45.609375 13.578125 45.609375 23.09375 
Q 45.609375 32.5625 41.484375 37.609375 
Q 37.359375 42.671875 29.59375 42.671875 
Q 25.203125 42.671875 21.84375 41.109375 
Q 18.5 39.546875 15.921875 36.28125 
L 11.71875 36.28125 
L 11.71875 72.90625 
z
" id="DejaVuSerif-53"/>
      </defs>
      <g transform="translate(63.91625 321.007096)scale(0.12 -0.12)">
       <use xlink:href="#DejaVuSerif-48"/>
       <use x="63.623047" xlink:href="#DejaVuSerif-46"/>
       <use x="95.410156" xlink:href="#DejaVuSerif-53"/>
      </g>
     </g>
    </g>
    <g id="ytick_3">
     <g id="line2d_11">
      <g>
       <use style="stroke:#000000;stroke-width:0.8;" x="90" xlink:href="#ma85eee75ea" y="269.721522"/>
      </g>
     </g>
     <g id="text_12">
      <!-- 1.0 -->
      <g transform="translate(63.91625 274.280585)scale(0.12 -0.12)">
       <use xlink:href="#DejaVuSerif-49"/>
       <use x="63.623047" xlink:href="#DejaVuSerif-46"/>
       <use x="95.410156" xlink:href="#DejaVuSerif-48"/>
      </g>
     </g>
    </g>
    <g id="ytick_4">
     <g id="line2d_12">
      <g>
       <use style="stroke:#000000;stroke-width:0.8;" x="90" xlink:href="#ma85eee75ea" y="222.995011"/>
      </g>
     </g>
     <g id="text_13">
      <!-- 1.5 -->
      <g transform="translate(63.91625 227.554073)scale(0.12 -0.12)">
       <use xlink:href="#DejaVuSerif-49"/>
       <use x="63.623047" xlink:href="#DejaVuSerif-46"/>
       <use x="95.410156" xlink:href="#DejaVuSerif-53"/>
      </g>
     </g>
    </g>
    <g id="ytick_5">
     <g id="line2d_13">
      <g>
       <use style="stroke:#000000;stroke-width:0.8;" x="90" xlink:href="#ma85eee75ea" y="176.268499"/>
      </g>
     </g>
     <g id="text_14">
      <!-- 2.0 -->
      <g transform="translate(63.91625 180.827562)scale(0.12 -0.12)">
       <use xlink:href="#DejaVuSerif-50"/>
       <use x="63.623047" xlink:href="#DejaVuSerif-46"/>
       <use x="95.410156" xlink:href="#DejaVuSerif-48"/>
      </g>
     </g>
    </g>
    <g id="ytick_6">
     <g id="line2d_14">
      <g>
       <use style="stroke:#000000;stroke-width:0.8;" x="90" xlink:href="#ma85eee75ea" y="129.541988"/>
      </g>
     </g>
     <g id="text_15">
      <!-- 2.5 -->
      <g transform="translate(63.91625 134.10105)scale(0.12 -0.12)">
       <use xlink:href="#DejaVuSerif-50"/>
       <use x="63.623047" xlink:href="#DejaVuSerif-46"/>
       <use x="95.410156" xlink:href="#DejaVuSerif-53"/>
      </g>
     </g>
    </g>
    <g id="ytick_7">
     <g id="line2d_15">
      <g>
       <use style="stroke:#000000;stroke-width:0.8;" x="90" xlink:href="#ma85eee75ea" y="82.815476"/>
      </g>
     </g>
     <g id="text_16">
      <!-- 3.0 -->
      <defs>
       <path d="M 9.71875 69.828125 
Q 15.4375 71.96875 20.671875 73.09375 
Q 25.921875 74.21875 30.515625 74.21875 
Q 41.21875 74.21875 47.21875 69.59375 
Q 53.21875 64.984375 53.21875 56.78125 
Q 53.21875 50.203125 49.0625 45.78125 
Q 44.921875 41.359375 37.3125 39.796875 
Q 46.296875 38.53125 51.25 33.28125 
Q 56.203125 28.03125 56.203125 19.671875 
Q 56.203125 9.46875 49.34375 4.015625 
Q 42.484375 -1.421875 29.59375 -1.421875 
Q 23.875 -1.421875 18.421875 -0.1875 
Q 12.984375 1.03125 7.625 3.515625 
L 7.625 17.671875 
L 13.09375 17.671875 
Q 13.578125 10.640625 17.828125 7.03125 
Q 22.078125 3.421875 29.78125 3.421875 
Q 37.25 3.421875 41.578125 7.734375 
Q 45.90625 12.0625 45.90625 19.578125 
Q 45.90625 28.171875 41.453125 32.59375 
Q 37.015625 37.015625 28.421875 37.015625 
L 23.78125 37.015625 
L 23.78125 42 
L 26.21875 42 
Q 34.765625 42 39.03125 45.53125 
Q 43.3125 49.078125 43.3125 56.203125 
Q 43.3125 62.59375 39.796875 65.984375 
Q 36.28125 69.390625 29.6875 69.390625 
Q 23.09375 69.390625 19.453125 66.265625 
Q 15.828125 63.140625 15.1875 56.984375 
L 9.71875 56.984375 
z
" id="DejaVuSerif-51"/>
      </defs>
      <g transform="translate(63.91625 87.374538)scale(0.12 -0.12)">
       <use xlink:href="#DejaVuSerif-51"/>
       <use x="63.623047" xlink:href="#DejaVuSerif-46"/>
       <use x="95.410156" xlink:href="#DejaVuSerif-48"/>
      </g>
     </g>
    </g>
   </g>
   <g id="line2d_16">
    <path clip-path="url(#p6fcd9fb9b2)" d="M 115.363636 363.174545 
L 115.617273 75.779897 
L 115.870909 72.997331 
L 118.407273 149.433591 
L 119.929091 185.517702 
L 121.450909 215.509826 
L 122.972727 240.438409 
L 124.494545 261.158308 
L 126.016364 278.380075 
L 127.538182 292.694326 
L 129.06 304.591932 
L 130.581818 314.480856 
L 132.103636 322.700265 
L 133.625455 329.532024 
L 135.147273 335.210346 
L 136.669091 339.929937 
L 138.190909 343.852749 
L 139.712727 347.113348 
L 141.234545 349.823497 
L 142.756364 352.076095 
L 144.278182 353.9484 
L 145.8 355.50463 
L 147.575455 356.991416 
L 149.350909 358.189696 
L 151.38 359.277196 
L 151.633636 242.210376 
L 151.887273 68.838498 
L 152.140909 70.347918 
L 153.916364 126.893839 
L 155.438182 166.781916 
L 156.96 199.935877 
L 158.481818 227.492478 
L 160.003636 250.396747 
L 161.525455 269.434126 
L 163.047273 285.257443 
L 164.569091 298.409329 
L 166.090909 309.340806 
L 167.612727 318.426769 
L 169.134545 325.97877 
L 170.656364 332.255798 
L 172.178182 337.473099 
L 173.7 341.809538 
L 175.221818 345.413829 
L 176.743636 348.409653 
L 178.265455 350.899761 
L 179.787273 352.969495 
L 181.309091 354.689808 
L 183.084545 356.33336 
L 184.86 357.658011 
L 186.635455 358.725633 
L 187.65 359.239921 
L 188.157273 67.220356 
L 188.410909 71.460874 
L 189.932727 120.526475 
L 191.454545 161.48843 
L 192.976364 195.534954 
L 194.498182 223.833507 
L 196.02 247.354445 
L 197.541818 266.904385 
L 199.063636 283.153746 
L 200.585455 296.659778 
L 202.107273 307.885647 
L 203.629091 317.216221 
L 205.150909 324.971561 
L 206.672727 331.417541 
L 208.194545 336.775202 
L 209.716364 341.228426 
L 211.238182 344.929896 
L 212.76 348.006458 
L 214.281818 350.563622 
L 215.803636 352.689108 
L 217.325455 354.455786 
L 219.100909 356.143631 
L 220.876364 357.503981 
L 222.651818 358.600385 
L 223.92 359.250719 
L 224.173636 131.06744 
L 224.427273 66.687786 
L 224.680909 72.659244 
L 226.202727 121.586083 
L 227.724545 162.368197 
L 229.246364 196.265193 
L 230.768182 224.439501 
L 232.29 247.857181 
L 233.811818 267.321323 
L 235.333636 283.499357 
L 236.855455 296.946102 
L 238.377273 308.122616 
L 239.899091 317.412267 
L 241.420909 325.133622 
L 242.942727 331.551405 
L 244.464545 336.885719 
L 245.986364 341.319484 
L 247.508182 345.004697 
L 249.03 348.067702 
L 250.551818 350.613586 
L 252.073636 352.729729 
L 253.595455 354.488689 
L 255.370909 356.169178 
L 257.146364 357.523595 
L 258.921818 358.615238 
L 260.19 359.262757 
L 260.443636 104.344902 
L 260.697273 66.811865 
L 261.458182 91.087114 
L 262.98 137.018874 
L 264.501818 175.194708 
L 266.023636 206.925506 
L 267.545455 233.299254 
L 269.067273 255.220388 
L 270.589091 273.440645 
L 272.110909 288.584801 
L 273.632727 301.172216 
L 275.154545 311.63449 
L 276.676364 320.33052 
L 278.198182 327.558452 
L 279.72 333.566125 
L 281.241818 338.559572 
L 282.763636 342.709968 
L 284.285455 346.159647 
L 285.807273 349.02698 
L 287.329091 351.410305 
L 288.850909 353.391303 
L 290.372727 355.037883 
L 292.148182 356.611011 
L 293.923636 357.878933 
L 295.952727 359.029674 
L 296.46 359.2757 
L 296.713636 87.864031 
L 296.967273 67.361996 
L 300.010909 157.890175 
L 301.532727 192.541706 
L 303.054545 221.343205 
L 304.576364 245.282191 
L 306.098182 265.179633 
L 307.62 281.717832 
L 309.141818 295.46394 
L 310.663636 306.889296 
L 312.185455 316.385774 
L 313.707273 324.279051 
L 315.229091 330.839742 
L 316.750909 336.292843 
L 318.272727 340.825329 
L 319.794545 344.592573 
L 321.316364 347.72381 
L 322.838182 350.326487 
L 324.36 352.489839 
L 325.881818 354.287999 
L 327.403636 355.782614 
L 329.179091 357.210578 
L 330.954545 358.3615 
L 332.73 359.289138 
L 332.983636 77.869357 
L 333.237273 68.184972 
L 335.52 138.993687 
L 337.041818 176.834879 
L 338.563636 208.287552 
L 340.085455 234.430133 
L 341.607273 256.159136 
L 343.129091 274.219706 
L 344.650909 289.231146 
L 346.172727 301.708256 
L 347.694545 312.078862 
L 349.216364 320.698708 
L 350.738182 327.863323 
L 352.26 333.818379 
L 353.781818 338.768096 
L 355.303636 342.882143 
L 356.825455 346.301607 
L 358.347273 349.143833 
L 359.869091 351.506309 
L 361.390909 353.469998 
L 362.912727 355.102196 
L 364.688182 356.661589 
L 366.463636 357.918451 
L 368.492727 359.059179 
L 369 359.303064 
L 369.253636 72.000275 
L 369.507273 69.177106 
L 371.536364 132.990783 
L 373.058182 171.844965 
L 374.58 204.139632 
L 376.101818 230.982054 
L 377.623636 253.292739 
L 379.145455 271.836773 
L 380.667273 287.250083 
L 382.189091 300.061261 
L 383.710909 310.709558 
L 385.232727 319.560127 
L 386.754545 326.916525 
L 388.276364 333.030961 
L 389.798182 338.11314 
L 391.32 342.337364 
L 392.841818 345.848474 
L 394.363636 348.766857 
L 395.885455 351.192581 
L 397.407273 353.208828 
L 398.929091 354.884715 
L 400.704545 356.48579 
L 402.48 357.776158 
L 404.509091 358.947301 
L 405.016364 359.197707 
L 405.27 242.132396 
L 405.523636 68.761954 
L 405.777273 70.272816 
L 407.552727 126.827567 
L 409.074545 166.721857 
L 410.596364 199.881024 
L 412.118182 227.442027 
L 413.64 250.349968 
L 415.161818 269.390432 
L 416.683636 285.216358 
L 418.205455 298.370492 
L 419.727273 309.303859 
L 421.249091 318.39136 
L 422.770909 325.944696 
L 424.292727 332.222831 
L 425.814545 337.441062 
L 427.336364 341.778376 
L 428.858182 345.383484 
L 430.38 348.38 
L 431.901818 350.870667 
L 433.423636 352.940894 
L 434.945455 354.661658 
L 436.720909 356.305616 
L 438.496364 357.630542 
L 440.271818 358.698424 
L 441.286364 359.212882 
L 441.793636 67.193421 
L 442.047273 71.434001 
L 443.569091 120.499916 
L 445.090909 161.462155 
L 446.612727 195.508943 
L 448.134545 223.80774 
L 449.656364 247.328917 
L 451.178182 266.879082 
L 452.7 283.128663 
L 454.221818 296.634917 
L 455.743636 307.86098 
L 457.265455 317.191752 
L 458.787273 324.94729 
L 460.309091 331.3935 
L 461.830909 336.751423 
L 463.352727 341.204845 
L 464.874545 344.906465 
L 466.396364 347.983197 
L 467.918182 350.540545 
L 469.44 352.666195 
L 470.961818 354.43303 
L 472.737273 356.121015 
L 474.512727 357.481422 
L 476.288182 358.57789 
L 477.556364 359.228316 
L 477.81 131.04507 
L 478.063636 66.665455 
L 478.317273 72.63694 
L 479.839091 121.563982 
L 481.360909 162.346284 
L 482.882727 196.243461 
L 484.404545 224.417946 
L 485.926364 247.8358 
L 487.448182 267.30011 
L 488.97 283.478309 
L 490.491818 296.925215 
L 492.013636 308.101895 
L 493.535455 317.391701 
L 495.057273 325.113206 
L 496.579091 331.531139 
L 498.100909 336.865601 
L 499.622727 341.299478 
L 501.144545 344.984758 
L 502.666364 348.047886 
L 504.188182 350.593975 
L 505.71 352.710313 
L 507.231818 354.469412 
L 509.007273 356.150049 
L 510.782727 357.504639 
L 512.558182 358.596445 
L 513.826364 359.244078 
L 514.08 104.32624 
L 514.333636 66.793234 
L 515.094545 91.068542 
L 516.616364 137.000439 
L 518.138182 175.176403 
L 519.66 206.907331 
L 521.181818 233.281209 
L 522.703636 255.202471 
L 524.225455 273.422856 
L 525.747273 288.56714 
L 527.269091 301.154681 
L 528.790909 311.617084 
L 530.312727 320.313237 
L 531.834545 327.541291 
L 533.356364 333.549086 
L 534.878182 338.542651 
L 536.4 342.693152 
L 537.921818 346.142915 
L 539.443636 349.010328 
L 540.965455 351.393756 
L 542.487273 353.37488 
L 544.009091 355.021585 
L 545.784545 356.594851 
L 547.56 357.862904 
L 549.589091 359.01381 
L 550.096364 359.259877 
L 550.35 87.848224 
L 550.603636 67.346216 
L 553.647273 157.874634 
L 555.169091 192.526282 
L 556.690909 221.327896 
L 558.212727 245.266996 
L 559.734545 265.164551 
L 561.256364 281.70286 
L 562.778182 295.449077 
L 564.3 306.874544 
L 565.821818 316.37113 
L 567.343636 324.264511 
L 568.865455 330.825307 
L 570.387273 336.278511 
L 571.909091 340.811095 
L 573.430909 344.578428 
L 574.952727 347.709739 
L 576.474545 350.312497 
L 577.996364 352.475947 
L 579.518182 354.274211 
L 581.04 355.768926 
L 582.815455 357.196998 
L 584.590909 358.348043 
L 586.366364 359.275799 
L 586.62 77.856034 
L 586.873636 68.171667 
L 589.156364 138.980533 
L 590.678182 176.821823 
L 592.2 208.274593 
L 593.721818 234.417269 
L 595.243636 256.146367 
L 596.765455 274.207031 
L 598.287273 289.218563 
L 599.809091 301.695765 
L 601.330909 312.066462 
L 602.852727 320.686397 
L 604.374545 327.8511 
L 605.896364 333.806244 
L 607.418182 338.756046 
L 608.94 342.870172 
L 610.461818 346.289704 
L 611.983636 349.131998 
L 613.505455 351.49455 
L 615.027273 353.458324 
L 616.549091 355.090611 
L 618.324545 356.650104 
L 620.1 357.907061 
L 622.129091 359.047901 
L 622.636364 359.291816 
L 622.636364 359.291816 
" style="fill:none;stroke:#f57938;stroke-linecap:square;stroke-width:3;"/>
   </g>
   <g id="line2d_17">
    <path clip-path="url(#p6fcd9fb9b2)" d="M 115.363636 363.174545 
L 115.617273 75.779897 
L 115.870909 72.997331 
L 118.407273 149.433591 
L 119.929091 185.517702 
L 121.450909 215.509826 
L 122.972727 240.438409 
L 124.494545 261.158308 
L 126.016364 278.380075 
L 127.538182 292.694326 
L 129.06 304.591932 
L 130.581818 314.480856 
L 132.103636 322.700265 
L 133.625455 329.532024 
L 135.147273 335.210346 
L 136.669091 339.929937 
L 138.190909 343.852749 
L 139.712727 347.113348 
L 141.234545 349.823497 
L 142.756364 352.076095 
L 144.278182 353.9484 
L 145.8 355.50463 
L 147.575455 356.991416 
L 149.350909 358.189696 
L 151.38 359.277196 
L 153.662727 360.219207 
L 156.199091 361.001924 
L 158.989091 361.624448 
L 162.286364 362.133608 
L 166.344545 362.535682 
L 171.924545 362.84658 
L 180.040909 363.047871 
L 194.751818 363.147794 
L 247.761818 363.169307 
L 622.636364 363.173629 
L 622.636364 363.173629 
" style="fill:none;stroke:#f57938;stroke-dasharray:11.1,4.8;stroke-dashoffset:0;stroke-width:3;"/>
   </g>
   <g id="line2d_18">
    <path clip-path="url(#p6fcd9fb9b2)" d="M 115.363636 294.525 
L 120.487603 294.401752 
L 125.61157 294.278503 
L 130.735537 294.155255 
L 135.859504 294.032006 
L 140.983471 293.908758 
L 146.107438 293.78551 
L 151.231405 293.662261 
L 156.355372 293.575641 
L 161.479339 293.547625 
L 166.603306 293.51961 
L 171.727273 293.491595 
L 176.85124 293.463579 
L 181.975207 293.435564 
L 187.099174 293.407549 
L 192.22314 293.379533 
L 197.347107 293.371298 
L 202.471074 293.368998 
L 207.595041 293.366697 
L 212.719008 293.364396 
L 217.842975 293.362096 
L 222.966942 293.359795 
L 228.090909 293.357494 
L 233.214876 293.357557 
L 238.338843 293.370623 
L 243.46281 293.383688 
L 248.586777 293.396754 
L 253.710744 293.409819 
L 258.834711 293.422885 
L 263.958678 293.43595 
L 269.082645 293.449016 
L 274.206612 293.467326 
L 279.330579 293.490133 
L 284.454545 293.51294 
L 289.578512 293.535747 
L 294.702479 293.558554 
L 299.826446 293.581361 
L 304.950413 293.604168 
L 310.07438 293.626975 
L 315.198347 293.599566 
L 320.322314 293.567973 
L 325.446281 293.536379 
L 330.570248 293.504786 
L 335.694215 293.473193 
L 340.818182 293.441599 
L 345.942149 293.410006 
L 351.066116 293.398293 
L 356.190083 293.43131 
L 361.31405 293.464327 
L 366.438017 293.497343 
L 371.561983 293.53036 
L 376.68595 293.563377 
L 381.809917 293.596394 
L 386.933884 293.629411 
L 392.057851 293.631175 
L 397.181818 293.619048 
L 402.305785 293.606922 
L 407.429752 293.594795 
L 412.553719 293.582669 
L 417.677686 293.570542 
L 422.801653 293.558416 
L 427.92562 293.545218 
L 433.049587 293.519161 
L 438.173554 293.493104 
L 443.297521 293.467048 
L 448.421488 293.440991 
L 453.545455 293.414934 
L 458.669421 293.388877 
L 463.793388 293.362821 
L 468.917355 293.347962 
L 474.041322 293.346168 
L 479.165289 293.344375 
L 484.289256 293.342581 
L 489.413223 293.340787 
L 494.53719 293.338994 
L 499.661157 293.3372 
L 504.785124 293.335406 
L 509.909091 293.346544 
L 515.033058 293.360032 
L 520.157025 293.373521 
L 525.280992 293.38701 
L 530.404959 293.400498 
L 535.528926 293.413987 
L 540.652893 293.427475 
L 545.77686 293.443196 
L 550.900826 293.466354 
L 556.024793 293.489513 
L 561.14876 293.512671 
L 566.272727 293.53583 
L 571.396694 293.558988 
L 576.520661 293.582147 
L 581.644628 293.605305 
L 586.768595 293.594953 
L 591.892562 293.563658 
L 597.016529 293.532362 
L 602.140496 293.501066 
L 607.264463 293.469771 
L 612.38843 293.438475 
L 617.512397 293.407179 
L 622.636364 293.375883 
" style="fill:none;stroke:#000000;stroke-linecap:square;stroke-width:3;"/>
   </g>
   <g id="patch_3">
    <path d="M 90 378 
L 90 51.84 
" style="fill:none;stroke:#000000;stroke-linecap:square;stroke-linejoin:miter;stroke-width:0.8;"/>
   </g>
   <g id="patch_4">
    <path d="M 648 378 
L 648 51.84 
" style="fill:none;stroke:#000000;stroke-linecap:square;stroke-linejoin:miter;stroke-width:0.8;"/>
   </g>
   <g id="patch_5">
    <path d="M 90 378 
L 648 378 
" style="fill:none;stroke:#000000;stroke-linecap:square;stroke-linejoin:miter;stroke-width:0.8;"/>
   </g>
   <g id="patch_6">
    <path d="M 90 51.84 
L 648 51.84 
" style="fill:none;stroke:#000000;stroke-linecap:square;stroke-linejoin:miter;stroke-width:0.8;"/>
   </g>
  </g>
 </g>
 <defs>
  <clipPath id="p6fcd9fb9b2">
   <rect height="326.16" width="558" x="90" y="51.84"/>
  </clipPath>
 </defs>
</svg>
