<?xml version="1.0" encoding="utf-8" standalone="no"?>
<!DOCTYPE svg PUBLIC "-//W3C//DTD SVG 1.1//EN"
  "http://www.w3.org/Graphics/SVG/1.1/DTD/svg11.dtd">
<!-- Created with matplotlib (https://matplotlib.org/) -->
<svg height="432pt" version="1.1" viewBox="0 0 720 432" width="720pt" xmlns="http://www.w3.org/2000/svg" xmlns:xlink="http://www.w3.org/1999/xlink">
 <defs>
  <style type="text/css">
*{stroke-linecap:butt;stroke-linejoin:round;}
  </style>
 </defs>
 <g id="figure_1">
  <g id="patch_1">
   <path d="M 0 432 
L 720 432 
L 720 0 
L 0 0 
z
" style="fill:#ffffff;"/>
  </g>
  <g id="axes_1">
   <g id="patch_2">
    <path d="M 90 378 
L 648 378 
L 648 51.84 
L 90 51.84 
z
" style="fill:#ffffff;"/>
   </g>
   <g id="matplotlib.axis_1">
    <g id="xtick_1">
     <g id="line2d_1">
      <defs>
       <path d="M 0 0 
L 0 3.5 
" id="mabbf42e353" style="stroke:#000000;stroke-width:0.8;"/>
      </defs>
      <g>
       <use style="stroke:#000000;stroke-width:0.8;" x="115.363636" xlink:href="#mabbf42e353" y="378"/>
      </g>
     </g>
     <g id="text_1">
      <!-- 0 -->
      <defs>
       <path d="M 31.78125 3.421875 
Q 39.265625 3.421875 42.96875 11.625 
Q 46.6875 19.828125 46.6875 36.375 
Q 46.6875 52.984375 42.96875 61.1875 
Q 39.265625 69.390625 31.78125 69.390625 
Q 24.3125 69.390625 20.59375 61.1875 
Q 16.890625 52.984375 16.890625 36.375 
Q 16.890625 19.828125 20.59375 11.625 
Q 24.3125 3.421875 31.78125 3.421875 
z
M 31.78125 -1.421875 
Q 19.921875 -1.421875 13.25 8.53125 
Q 6.59375 18.5 6.59375 36.375 
Q 6.59375 54.296875 13.25 64.25 
Q 19.921875 74.21875 31.78125 74.21875 
Q 43.703125 74.21875 50.34375 64.25 
Q 56.984375 54.296875 56.984375 36.375 
Q 56.984375 18.5 50.34375 8.53125 
Q 43.703125 -1.421875 31.78125 -1.421875 
z
" id="DejaVuSerif-48"/>
      </defs>
      <g transform="translate(111.546136 394.118125)scale(0.12 -0.12)">
       <use xlink:href="#DejaVuSerif-48"/>
      </g>
     </g>
    </g>
    <g id="xtick_2">
     <g id="line2d_2">
      <g>
       <use style="stroke:#000000;stroke-width:0.8;" x="187.831169" xlink:href="#mabbf42e353" y="378"/>
      </g>
     </g>
     <g id="text_2">
      <!-- 2 -->
      <defs>
       <path d="M 12.796875 55.515625 
L 7.328125 55.515625 
L 7.328125 68.5 
Q 12.546875 71.296875 17.84375 72.75 
Q 23.140625 74.21875 28.21875 74.21875 
Q 39.59375 74.21875 46.1875 68.703125 
Q 52.78125 63.1875 52.78125 53.71875 
Q 52.78125 43.015625 37.84375 28.125 
Q 36.671875 27 36.078125 26.421875 
L 17.671875 8.015625 
L 48.09375 8.015625 
L 48.09375 17 
L 53.8125 17 
L 53.8125 0 
L 6.78125 0 
L 6.78125 5.328125 
L 28.90625 27.390625 
Q 36.234375 34.71875 39.359375 40.84375 
Q 42.484375 46.96875 42.484375 53.71875 
Q 42.484375 61.078125 38.640625 65.234375 
Q 34.8125 69.390625 28.078125 69.390625 
Q 21.09375 69.390625 17.28125 65.921875 
Q 13.484375 62.453125 12.796875 55.515625 
z
" id="DejaVuSerif-50"/>
      </defs>
      <g transform="translate(184.013669 394.118125)scale(0.12 -0.12)">
       <use xlink:href="#DejaVuSerif-50"/>
      </g>
     </g>
    </g>
    <g id="xtick_3">
     <g id="line2d_3">
      <g>
       <use style="stroke:#000000;stroke-width:0.8;" x="260.298701" xlink:href="#mabbf42e353" y="378"/>
      </g>
     </g>
     <g id="text_3">
      <!-- 4 -->
      <defs>
       <path d="M 34.90625 24.703125 
L 34.90625 63.484375 
L 10.015625 24.703125 
z
M 56.390625 0 
L 23.1875 0 
L 23.1875 5.171875 
L 34.90625 5.171875 
L 34.90625 19.484375 
L 3.078125 19.484375 
L 3.078125 24.8125 
L 35.015625 74.21875 
L 44.671875 74.21875 
L 44.671875 24.703125 
L 58.59375 24.703125 
L 58.59375 19.484375 
L 44.671875 19.484375 
L 44.671875 5.171875 
L 56.390625 5.171875 
z
" id="DejaVuSerif-52"/>
      </defs>
      <g transform="translate(256.481201 394.118125)scale(0.12 -0.12)">
       <use xlink:href="#DejaVuSerif-52"/>
      </g>
     </g>
    </g>
    <g id="xtick_4">
     <g id="line2d_4">
      <g>
       <use style="stroke:#000000;stroke-width:0.8;" x="332.766234" xlink:href="#mabbf42e353" y="378"/>
      </g>
     </g>
     <g id="text_4">
      <!-- 6 -->
      <defs>
       <path d="M 32.71875 3.421875 
Q 39.59375 3.421875 43.296875 8.46875 
Q 47.015625 13.53125 47.015625 23 
Q 47.015625 32.46875 43.296875 37.515625 
Q 39.59375 42.578125 32.71875 42.578125 
Q 25.734375 42.578125 22.0625 37.6875 
Q 18.40625 32.8125 18.40625 23.578125 
Q 18.40625 13.875 22.109375 8.640625 
Q 25.828125 3.421875 32.71875 3.421875 
z
M 16.796875 40.140625 
Q 20.125 43.796875 24.3125 45.59375 
Q 28.515625 47.40625 33.796875 47.40625 
Q 44.671875 47.40625 51 40.859375 
Q 57.328125 34.328125 57.328125 23 
Q 57.328125 11.921875 50.515625 5.25 
Q 43.703125 -1.421875 32.328125 -1.421875 
Q 19.96875 -1.421875 13.328125 7.78125 
Q 6.6875 17 6.6875 34.078125 
Q 6.6875 53.21875 14.546875 63.71875 
Q 22.40625 74.21875 36.71875 74.21875 
Q 40.578125 74.21875 44.828125 73.484375 
Q 49.078125 72.75 53.515625 71.296875 
L 53.515625 59.28125 
L 48 59.28125 
Q 47.40625 64.203125 44.234375 66.796875 
Q 41.0625 69.390625 35.6875 69.390625 
Q 26.21875 69.390625 21.578125 62.203125 
Q 16.9375 55.03125 16.796875 40.140625 
z
" id="DejaVuSerif-54"/>
      </defs>
      <g transform="translate(328.948734 394.118125)scale(0.12 -0.12)">
       <use xlink:href="#DejaVuSerif-54"/>
      </g>
     </g>
    </g>
    <g id="xtick_5">
     <g id="line2d_5">
      <g>
       <use style="stroke:#000000;stroke-width:0.8;" x="405.233766" xlink:href="#mabbf42e353" y="378"/>
      </g>
     </g>
     <g id="text_5">
      <!-- 8 -->
      <defs>
       <path d="M 46.578125 19.921875 
Q 46.578125 27.734375 42.6875 32.046875 
Q 38.8125 36.375 31.78125 36.375 
Q 24.75 36.375 20.875 32.046875 
Q 17 27.734375 17 19.921875 
Q 17 12.0625 20.875 7.734375 
Q 24.75 3.421875 31.78125 3.421875 
Q 38.8125 3.421875 42.6875 7.734375 
Q 46.578125 12.0625 46.578125 19.921875 
z
M 44.578125 55.328125 
Q 44.578125 61.96875 41.203125 65.671875 
Q 37.84375 69.390625 31.78125 69.390625 
Q 25.78125 69.390625 22.390625 65.671875 
Q 19 61.96875 19 55.328125 
Q 19 48.640625 22.390625 44.921875 
Q 25.78125 41.21875 31.78125 41.21875 
Q 37.84375 41.21875 41.203125 44.921875 
Q 44.578125 48.640625 44.578125 55.328125 
z
M 39.3125 38.8125 
Q 47.609375 37.703125 52.25 32.6875 
Q 56.890625 27.6875 56.890625 19.921875 
Q 56.890625 9.671875 50.390625 4.125 
Q 43.890625 -1.421875 31.78125 -1.421875 
Q 19.734375 -1.421875 13.203125 4.125 
Q 6.6875 9.671875 6.6875 19.921875 
Q 6.6875 27.6875 11.328125 32.6875 
Q 15.96875 37.703125 24.3125 38.8125 
Q 16.9375 40.140625 13 44.40625 
Q 9.078125 48.6875 9.078125 55.328125 
Q 9.078125 64.109375 15.125 69.15625 
Q 21.1875 74.21875 31.78125 74.21875 
Q 42.390625 74.21875 48.4375 69.15625 
Q 54.5 64.109375 54.5 55.328125 
Q 54.5 48.6875 50.5625 44.40625 
Q 46.625 40.140625 39.3125 38.8125 
z
" id="DejaVuSerif-56"/>
      </defs>
      <g transform="translate(401.416266 394.118125)scale(0.12 -0.12)">
       <use xlink:href="#DejaVuSerif-56"/>
      </g>
     </g>
    </g>
    <g id="xtick_6">
     <g id="line2d_6">
      <g>
       <use style="stroke:#000000;stroke-width:0.8;" x="477.701299" xlink:href="#mabbf42e353" y="378"/>
      </g>
     </g>
     <g id="text_6">
      <!-- 10 -->
      <defs>
       <path d="M 14.203125 0 
L 14.203125 5.171875 
L 26.90625 5.171875 
L 26.90625 65.828125 
L 12.203125 56.296875 
L 12.203125 62.703125 
L 29.984375 74.21875 
L 36.71875 74.21875 
L 36.71875 5.171875 
L 49.421875 5.171875 
L 49.421875 0 
z
" id="DejaVuSerif-49"/>
      </defs>
      <g transform="translate(470.066299 394.118125)scale(0.12 -0.12)">
       <use xlink:href="#DejaVuSerif-49"/>
       <use x="63.623047" xlink:href="#DejaVuSerif-48"/>
      </g>
     </g>
    </g>
    <g id="xtick_7">
     <g id="line2d_7">
      <g>
       <use style="stroke:#000000;stroke-width:0.8;" x="550.168831" xlink:href="#mabbf42e353" y="378"/>
      </g>
     </g>
     <g id="text_7">
      <!-- 12 -->
      <g transform="translate(542.533831 394.118125)scale(0.12 -0.12)">
       <use xlink:href="#DejaVuSerif-49"/>
       <use x="63.623047" xlink:href="#DejaVuSerif-50"/>
      </g>
     </g>
    </g>
    <g id="xtick_8">
     <g id="line2d_8">
      <g>
       <use style="stroke:#000000;stroke-width:0.8;" x="622.636364" xlink:href="#mabbf42e353" y="378"/>
      </g>
     </g>
     <g id="text_8">
      <!-- 14 -->
      <g transform="translate(615.001364 394.118125)scale(0.12 -0.12)">
       <use xlink:href="#DejaVuSerif-49"/>
       <use x="63.623047" xlink:href="#DejaVuSerif-52"/>
      </g>
     </g>
    </g>
    <g id="text_9">
     <!-- Time [d] -->
     <defs>
      <path d="M 19.09375 0 
L 19.09375 5.171875 
L 28.421875 5.171875 
L 28.421875 67.09375 
L 6.984375 67.09375 
L 6.984375 55.71875 
L 0.984375 55.71875 
L 0.984375 72.90625 
L 65.71875 72.90625 
L 65.71875 55.71875 
L 59.71875 55.71875 
L 59.71875 67.09375 
L 38.28125 67.09375 
L 38.28125 5.171875 
L 47.609375 5.171875 
L 47.609375 0 
z
" id="DejaVuSerif-84"/>
      <path d="M 9.71875 68.015625 
Q 9.71875 70.265625 11.34375 71.921875 
Q 12.984375 73.578125 15.28125 73.578125 
Q 17.53125 73.578125 19.15625 71.921875 
Q 20.796875 70.265625 20.796875 68.015625 
Q 20.796875 65.71875 19.1875 64.109375 
Q 17.578125 62.5 15.28125 62.5 
Q 12.984375 62.5 11.34375 64.109375 
Q 9.71875 65.71875 9.71875 68.015625 
z
M 21.1875 5.171875 
L 29.6875 5.171875 
L 29.6875 0 
L 3.609375 0 
L 3.609375 5.171875 
L 12.203125 5.171875 
L 12.203125 46.6875 
L 3.609375 46.6875 
L 3.609375 51.90625 
L 21.1875 51.90625 
z
" id="DejaVuSerif-105"/>
      <path d="M 51.8125 41.796875 
Q 54.390625 47.515625 58.421875 50.421875 
Q 62.453125 53.328125 67.828125 53.328125 
Q 75.984375 53.328125 79.984375 48.265625 
Q 83.984375 43.21875 83.984375 33.015625 
L 83.984375 5.171875 
L 92.09375 5.171875 
L 92.09375 0 
L 67.1875 0 
L 67.1875 5.171875 
L 75 5.171875 
L 75 31.984375 
Q 75 39.9375 72.65625 43.3125 
Q 70.3125 46.6875 64.890625 46.6875 
Q 58.890625 46.6875 55.734375 42.140625 
Q 52.59375 37.59375 52.59375 28.90625 
L 52.59375 5.171875 
L 60.40625 5.171875 
L 60.40625 0 
L 35.796875 0 
L 35.796875 5.171875 
L 43.609375 5.171875 
L 43.609375 32.328125 
Q 43.609375 40.09375 41.265625 43.390625 
Q 38.921875 46.6875 33.5 46.6875 
Q 27.484375 46.6875 24.328125 42.140625 
Q 21.1875 37.59375 21.1875 28.90625 
L 21.1875 5.171875 
L 29 5.171875 
L 29 0 
L 4.109375 0 
L 4.109375 5.171875 
L 12.203125 5.171875 
L 12.203125 46.78125 
L 3.609375 46.78125 
L 3.609375 51.90625 
L 21.1875 51.90625 
L 21.1875 42.671875 
Q 23.6875 47.859375 27.53125 50.59375 
Q 31.390625 53.328125 36.28125 53.328125 
Q 42.328125 53.328125 46.375 50.3125 
Q 50.4375 47.3125 51.8125 41.796875 
z
" id="DejaVuSerif-109"/>
      <path d="M 54.203125 25 
L 15.484375 25 
L 15.484375 24.609375 
Q 15.484375 14.109375 19.4375 8.765625 
Q 23.390625 3.421875 31.109375 3.421875 
Q 37.015625 3.421875 40.796875 6.515625 
Q 44.578125 9.625 46.09375 15.71875 
L 53.328125 15.71875 
Q 51.171875 7.171875 45.375 2.875 
Q 39.59375 -1.421875 30.171875 -1.421875 
Q 18.796875 -1.421875 11.890625 6.078125 
Q 4.984375 13.578125 4.984375 25.984375 
Q 4.984375 38.28125 11.765625 45.796875 
Q 18.5625 53.328125 29.59375 53.328125 
Q 41.359375 53.328125 47.65625 46.0625 
Q 53.953125 38.8125 54.203125 25 
z
M 43.609375 30.171875 
Q 43.3125 39.265625 39.765625 43.875 
Q 36.234375 48.484375 29.59375 48.484375 
Q 23.390625 48.484375 19.828125 43.84375 
Q 16.265625 39.203125 15.484375 30.171875 
z
" id="DejaVuSerif-101"/>
      <path id="DejaVuSerif-32"/>
      <path d="M 8.59375 75.984375 
L 31.296875 75.984375 
L 31.296875 70.796875 
L 17.921875 70.796875 
L 17.921875 -8.015625 
L 31.296875 -8.015625 
L 31.296875 -13.1875 
L 8.59375 -13.1875 
z
" id="DejaVuSerif-91"/>
      <path d="M 52.484375 5.171875 
L 61.078125 5.171875 
L 61.078125 0 
L 43.5 0 
L 43.5 8.109375 
Q 40.875 3.21875 36.796875 0.890625 
Q 32.71875 -1.421875 26.703125 -1.421875 
Q 17.140625 -1.421875 11.0625 6.171875 
Q 4.984375 13.765625 4.984375 25.984375 
Q 4.984375 38.1875 11.03125 45.75 
Q 17.09375 53.328125 26.703125 53.328125 
Q 32.71875 53.328125 36.796875 51 
Q 40.875 48.6875 43.5 43.796875 
L 43.5 70.796875 
L 35.015625 70.796875 
L 35.015625 75.984375 
L 52.484375 75.984375 
z
M 43.5 23.390625 
L 43.5 28.515625 
Q 43.5 37.84375 39.90625 42.765625 
Q 36.328125 47.703125 29.5 47.703125 
Q 22.5625 47.703125 19.015625 42.234375 
Q 15.484375 36.765625 15.484375 25.984375 
Q 15.484375 15.234375 19.015625 9.71875 
Q 22.5625 4.203125 29.5 4.203125 
Q 36.328125 4.203125 39.90625 9.109375 
Q 43.5 14.015625 43.5 23.390625 
z
" id="DejaVuSerif-100"/>
      <path d="M 30.421875 75.984375 
L 30.421875 -13.1875 
L 7.71875 -13.1875 
L 7.71875 -8.015625 
L 21.09375 -8.015625 
L 21.09375 70.796875 
L 7.71875 70.796875 
L 7.71875 75.984375 
z
" id="DejaVuSerif-93"/>
     </defs>
     <g transform="translate(332.744844 413.531094)scale(0.17 -0.17)">
      <use xlink:href="#DejaVuSerif-84"/>
      <use x="66.699219" xlink:href="#DejaVuSerif-105"/>
      <use x="98.681641" xlink:href="#DejaVuSerif-109"/>
      <use x="193.505859" xlink:href="#DejaVuSerif-101"/>
      <use x="252.685547" xlink:href="#DejaVuSerif-32"/>
      <use x="284.472656" xlink:href="#DejaVuSerif-91"/>
      <use x="323.486328" xlink:href="#DejaVuSerif-100"/>
      <use x="387.5" xlink:href="#DejaVuSerif-93"/>
     </g>
    </g>
   </g>
   <g id="matplotlib.axis_2">
    <g id="ytick_1">
     <g id="line2d_9">
      <defs>
       <path d="M 0 0 
L -3.5 0 
" id="m967480c684" style="stroke:#000000;stroke-width:0.8;"/>
      </defs>
      <g>
       <use style="stroke:#000000;stroke-width:0.8;" x="90" xlink:href="#m967480c684" y="362.468571"/>
      </g>
     </g>
     <g id="text_10">
      <!-- 0.0 -->
      <defs>
       <path d="M 9.421875 5.078125 
Q 9.421875 7.8125 11.28125 9.71875 
Q 13.140625 11.625 15.921875 11.625 
Q 18.609375 11.625 20.5 9.71875 
Q 22.40625 7.8125 22.40625 5.078125 
Q 22.40625 2.390625 20.5 0.484375 
Q 18.609375 -1.421875 15.921875 -1.421875 
Q 13.140625 -1.421875 11.28125 0.453125 
Q 9.421875 2.34375 9.421875 5.078125 
z
" id="DejaVuSerif-46"/>
      </defs>
      <g transform="translate(63.91625 367.027634)scale(0.12 -0.12)">
       <use xlink:href="#DejaVuSerif-48"/>
       <use x="63.623047" xlink:href="#DejaVuSerif-46"/>
       <use x="95.410156" xlink:href="#DejaVuSerif-48"/>
      </g>
     </g>
    </g>
    <g id="ytick_2">
     <g id="line2d_10">
      <g>
       <use style="stroke:#000000;stroke-width:0.8;" x="90" xlink:href="#m967480c684" y="300.342857"/>
      </g>
     </g>
     <g id="text_11">
      <!-- 0.2 -->
      <g transform="translate(63.91625 304.90192)scale(0.12 -0.12)">
       <use xlink:href="#DejaVuSerif-48"/>
       <use x="63.623047" xlink:href="#DejaVuSerif-46"/>
       <use x="95.410156" xlink:href="#DejaVuSerif-50"/>
      </g>
     </g>
    </g>
    <g id="ytick_3">
     <g id="line2d_11">
      <g>
       <use style="stroke:#000000;stroke-width:0.8;" x="90" xlink:href="#m967480c684" y="238.217143"/>
      </g>
     </g>
     <g id="text_12">
      <!-- 0.4 -->
      <g transform="translate(63.91625 242.776205)scale(0.12 -0.12)">
       <use xlink:href="#DejaVuSerif-48"/>
       <use x="63.623047" xlink:href="#DejaVuSerif-46"/>
       <use x="95.410156" xlink:href="#DejaVuSerif-52"/>
      </g>
     </g>
    </g>
    <g id="ytick_4">
     <g id="line2d_12">
      <g>
       <use style="stroke:#000000;stroke-width:0.8;" x="90" xlink:href="#m967480c684" y="176.091429"/>
      </g>
     </g>
     <g id="text_13">
      <!-- 0.6 -->
      <g transform="translate(63.91625 180.650491)scale(0.12 -0.12)">
       <use xlink:href="#DejaVuSerif-48"/>
       <use x="63.623047" xlink:href="#DejaVuSerif-46"/>
       <use x="95.410156" xlink:href="#DejaVuSerif-54"/>
      </g>
     </g>
    </g>
    <g id="ytick_5">
     <g id="line2d_13">
      <g>
       <use style="stroke:#000000;stroke-width:0.8;" x="90" xlink:href="#m967480c684" y="113.965714"/>
      </g>
     </g>
     <g id="text_14">
      <!-- 0.8 -->
      <g transform="translate(63.91625 118.524777)scale(0.12 -0.12)">
       <use xlink:href="#DejaVuSerif-48"/>
       <use x="63.623047" xlink:href="#DejaVuSerif-46"/>
       <use x="95.410156" xlink:href="#DejaVuSerif-56"/>
      </g>
     </g>
    </g>
    <g id="ytick_6">
     <g id="line2d_14">
      <g>
       <use style="stroke:#000000;stroke-width:0.8;" x="90" xlink:href="#m967480c684" y="51.84"/>
      </g>
     </g>
     <g id="text_15">
      <!-- 1.0 -->
      <g transform="translate(63.91625 56.399062)scale(0.12 -0.12)">
       <use xlink:href="#DejaVuSerif-49"/>
       <use x="63.623047" xlink:href="#DejaVuSerif-46"/>
       <use x="95.410156" xlink:href="#DejaVuSerif-48"/>
      </g>
     </g>
    </g>
   </g>
   <g id="line2d_15">
    <path clip-path="url(#p5bade63067)" d="M 115.363636 362.468571 
L 115.617273 140.79041 
L 115.870909 111.027506 
L 116.124545 97.508639 
L 116.378182 91.39616 
L 116.631818 89.730076 
L 116.885455 91.171451 
L 117.392727 99.782441 
L 118.153636 119.294404 
L 120.436364 180.740562 
L 121.704545 209.09584 
L 122.972727 233.100065 
L 124.240909 253.345541 
L 125.509091 270.408687 
L 126.777273 284.786163 
L 128.045455 296.901064 
L 129.313636 307.109509 
L 130.581818 315.711378 
L 131.85 322.960021 
L 133.118182 329.068743 
L 134.386364 334.216836 
L 135.654545 338.555389 
L 136.922727 342.211912 
L 138.190909 345.294066 
L 139.459091 347.89243 
L 140.980909 350.478137 
L 142.502727 352.585167 
L 144.024545 354.302468 
L 145.546364 355.702541 
L 147.321818 357.013015 
L 149.097273 358.046446 
L 151.126364 358.963436 
L 151.38 359.061618 
L 152.140909 105.208552 
L 152.394545 93.293461 
L 152.648182 87.913778 
L 152.901818 86.852148 
L 153.155455 88.750288 
L 153.662727 97.918986 
L 154.677273 125.038755 
L 156.452727 173.403395 
L 157.720909 202.774361 
L 158.989091 227.679547 
L 160.257273 248.701587 
L 161.525455 266.408794 
L 162.793636 281.335109 
L 164.061818 293.910404 
L 165.33 304.509591 
L 166.598182 313.442504 
L 167.866364 320.969976 
L 169.134545 327.313766 
L 170.402727 332.661504 
L 171.670909 337.17007 
L 172.939091 340.970874 
L 174.207273 344.175092 
L 175.475455 346.876902 
L 176.997273 349.566828 
L 178.519091 351.760482 
L 180.040909 353.549717 
L 181.562727 355.009499 
L 183.338182 356.377369 
L 185.113636 357.457819 
L 187.142727 358.418405 
L 187.65 358.620994 
L 188.157273 125.214768 
L 188.410909 102.488384 
L 188.664545 91.742129 
L 188.918182 87.094327 
L 189.171818 86.524706 
L 189.425455 88.762418 
L 189.932727 98.31467 
L 190.947273 125.640302 
L 192.722727 173.887712 
L 193.990909 203.132699 
L 195.259091 227.925494 
L 196.527273 248.850254 
L 197.795455 266.477859 
L 199.063636 281.340188 
L 200.331818 293.863465 
L 201.6 304.412373 
L 202.868182 313.303563 
L 204.136364 320.800671 
L 205.404545 327.119504 
L 206.672727 332.446141 
L 207.940909 336.937902 
L 209.209091 340.725187 
L 210.477273 343.918858 
L 211.745455 346.612933 
L 213.267273 349.296013 
L 214.789091 351.484443 
L 216.310909 353.269974 
L 217.832727 354.727709 
L 219.608182 356.094979 
L 221.383636 357.176084 
L 223.412727 358.138555 
L 223.92 358.341808 
L 224.173636 186.857452 
L 224.427273 120.32847 
L 224.680909 100.151522 
L 224.934545 90.468223 
L 225.188182 86.510863 
L 225.441818 86.405898 
L 225.695455 88.96602 
L 226.202727 98.880362 
L 227.217273 126.391275 
L 228.992727 174.511924 
L 230.260909 203.626765 
L 231.529091 228.304789 
L 232.797273 249.130479 
L 234.065455 266.676052 
L 235.333636 281.469521 
L 236.601818 293.935549 
L 237.87 304.436279 
L 239.138182 313.287285 
L 240.406364 320.751283 
L 241.674545 327.042765 
L 242.942727 332.346691 
L 244.210909 336.819846 
L 245.479091 340.592003 
L 246.747273 343.77331 
L 248.015455 346.457412 
L 249.537273 349.131231 
L 251.059091 351.312749 
L 252.580909 353.09322 
L 254.102727 354.547411 
L 255.878182 355.912137 
L 257.653636 356.992037 
L 259.682727 357.954358 
L 260.19 358.157738 
L 260.443636 167.674071 
L 260.697273 116.160921 
L 260.950909 98.10959 
L 261.204545 89.403745 
L 261.458182 86.098327 
L 261.711818 86.435168 
L 261.965455 89.299126 
L 262.472727 99.554685 
L 263.740909 134.460693 
L 265.262727 175.22228 
L 266.530909 204.205947 
L 267.799091 228.768294 
L 269.067273 249.494494 
L 270.335455 266.957246 
L 271.603636 281.68096 
L 272.871818 294.088821 
L 274.14 304.540497 
L 275.408182 313.350631 
L 276.676364 320.780607 
L 277.944545 327.043737 
L 279.212727 332.324063 
L 280.480909 336.777682 
L 281.749091 340.533716 
L 283.017273 343.70172 
L 284.539091 346.857262 
L 286.060909 349.431877 
L 287.582727 351.532993 
L 289.104545 353.24843 
L 290.626364 354.65012 
L 292.401818 355.966276 
L 294.177273 357.008445 
L 296.206364 357.937994 
L 296.46 358.03791 
L 296.713636 154.154701 
L 296.967273 112.547737 
L 297.220909 96.312538 
L 297.474545 88.513028 
L 297.728182 85.822046 
L 297.981818 86.581093 
L 298.235455 89.730376 
L 298.742727 100.307195 
L 300.010909 135.359879 
L 301.532727 175.989377 
L 302.800909 204.840968 
L 304.069091 229.286755 
L 305.337273 249.914453 
L 306.605455 267.293509 
L 307.873636 281.947077 
L 309.141818 294.295525 
L 310.41 304.698076 
L 311.678182 313.467451 
L 312.946364 320.862807 
L 314.214545 327.096859 
L 315.482727 332.353173 
L 316.750909 336.786681 
L 318.019091 340.525845 
L 319.287273 343.679976 
L 320.809091 346.821986 
L 322.330909 349.385758 
L 323.852727 351.478356 
L 325.374545 353.187223 
L 326.896364 354.583846 
L 328.671818 355.895568 
L 330.447273 356.934585 
L 332.476364 357.861784 
L 332.73 357.961484 
L 332.983636 144.091984 
L 333.237273 109.359652 
L 333.490909 94.720587 
L 333.744545 87.772847 
L 333.998182 85.659547 
L 334.251818 86.816889 
L 334.505455 90.235703 
L 335.012727 101.115516 
L 336.534545 143.430077 
L 338.056364 182.915749 
L 339.324545 210.711389 
L 340.592727 234.235499 
L 341.860909 254.070209 
L 343.129091 270.785865 
L 344.397273 284.878937 
L 345.665455 296.754518 
L 346.933636 306.758746 
L 348.201818 315.194206 
L 349.47 322.307654 
L 350.738182 328.304055 
L 352.006364 333.360629 
L 353.274545 337.625918 
L 354.542727 341.223313 
L 355.810909 344.258283 
L 357.332727 347.281985 
L 358.854545 349.749559 
L 360.376364 351.763978 
L 361.898182 353.409376 
L 363.42 354.754567 
L 365.195455 356.018451 
L 366.970909 357.020005 
L 369 357.914346 
L 369.253636 136.209173 
L 369.507273 106.509219 
L 369.760909 93.300424 
L 370.014545 87.160911 
L 370.268182 85.589776 
L 370.521818 87.129447 
L 371.029091 95.903371 
L 371.79 115.637387 
L 374.072727 177.622569 
L 375.340909 206.211085 
L 376.609091 230.424716 
L 377.877273 250.851618 
L 379.145455 268.064482 
L 380.413636 282.57706 
L 381.681818 294.808296 
L 382.95 305.110724 
L 384.218182 313.79627 
L 385.486364 321.121692 
L 386.754545 327.297018 
L 388.022727 332.503918 
L 389.290909 336.896177 
L 390.559091 340.600907 
L 391.827273 343.726136 
L 393.349091 346.83974 
L 394.870909 349.380826 
L 396.392727 351.455234 
L 397.914545 353.149508 
L 399.436364 354.534559 
L 401.211818 355.83589 
L 402.987273 356.867143 
L 405.016364 357.787925 
L 405.777273 103.947148 
L 406.030909 92.036064 
L 406.284545 86.660385 
L 406.538182 85.602751 
L 406.791818 87.505056 
L 407.299091 96.68011 
L 408.313636 123.816395 
L 410.089091 172.207032 
L 411.357273 201.597786 
L 412.625455 226.520154 
L 413.893636 247.556704 
L 415.161818 265.28104 
L 416.43 280.226251 
L 417.698182 292.821428 
L 418.966364 303.431834 
L 420.234545 312.375125 
L 421.502727 319.918269 
L 422.770909 326.277696 
L 424.039091 331.63929 
L 425.307273 336.162002 
L 426.575455 339.976951 
L 427.843636 343.194985 
L 429.111818 345.910812 
L 430.633636 348.61732 
L 432.155455 350.826625 
L 433.677273 352.630782 
L 435.199091 354.10528 
L 436.974545 355.490314 
L 438.75 356.587646 
L 440.779091 357.567052 
L 441.286364 357.774291 
L 441.793636 124.372738 
L 442.047273 101.648617 
L 442.300909 90.904692 
L 442.554545 86.259161 
L 442.808182 85.691795 
L 443.061818 87.931913 
L 443.569091 97.488097 
L 444.583636 124.823421 
L 446.359091 173.086423 
L 447.627273 202.342931 
L 448.895455 227.146654 
L 450.163636 248.080874 
L 451.431818 265.719301 
L 452.7 280.592041 
L 453.968182 293.126202 
L 455.236364 303.685036 
L 456.504545 312.585214 
L 457.772727 320.092042 
L 459.040909 326.420814 
L 460.309091 331.756694 
L 461.577273 336.257783 
L 462.845455 340.054526 
L 464.113636 343.25728 
L 465.635455 346.448075 
L 467.157273 349.052241 
L 468.679091 351.178188 
L 470.200909 352.914531 
L 471.722727 354.333937 
L 473.498182 355.667576 
L 475.273636 356.724473 
L 477.302727 357.668167 
L 477.556364 357.769675 
L 477.81 186.286901 
L 478.063636 119.759472 
L 478.317273 99.584063 
L 478.570909 89.902358 
L 478.824545 85.946523 
L 479.078182 85.843105 
L 479.331818 88.404818 
L 479.839091 98.321937 
L 480.853636 125.839292 
L 482.629091 173.970442 
L 483.897273 203.092985 
L 485.165455 227.778336 
L 486.433636 248.610581 
L 487.701818 266.163451 
L 488.97 280.963917 
L 490.238182 293.437283 
L 491.506364 303.944695 
L 492.774545 312.80188 
L 494.042727 320.27246 
L 495.310909 326.570622 
L 496.579091 331.880819 
L 497.847273 336.360287 
L 499.115455 340.138813 
L 500.383636 343.326267 
L 501.905455 346.501885 
L 503.427273 349.09373 
L 504.949091 351.209677 
L 506.470909 352.937919 
L 507.992727 354.350774 
L 509.768182 355.678339 
L 511.543636 356.730499 
L 513.572727 357.670059 
L 513.826364 357.771131 
L 514.08 167.288537 
L 514.333636 115.776394 
L 514.587273 97.726122 
L 514.840909 89.021374 
L 515.094545 85.716985 
L 515.348182 86.054865 
L 515.601818 88.919906 
L 516.109091 99.177397 
L 517.377273 134.08883 
L 518.899091 174.856375 
L 520.167273 203.845237 
L 521.435455 228.412496 
L 522.703636 249.143189 
L 523.971818 266.610861 
L 525.24 281.339279 
L 526.508182 293.752109 
L 527.776364 304.208288 
L 529.044545 313.022629 
L 530.312727 320.45706 
L 531.580909 326.724692 
L 532.849091 332.00927 
L 534.117273 336.467151 
L 535.385455 340.227482 
L 536.653636 343.399646 
L 538.175455 346.560085 
L 539.697273 349.139591 
L 541.219091 351.245511 
L 542.740909 352.965619 
L 544.262727 354.371885 
L 546.038182 355.693321 
L 547.813636 356.740687 
L 549.842727 357.676043 
L 550.096364 357.77667 
L 550.35 153.89417 
L 550.603636 112.287892 
L 550.857273 96.053435 
L 551.110909 88.254644 
L 551.364545 85.564365 
L 551.618182 86.324101 
L 551.871818 89.474119 
L 552.379091 100.052237 
L 553.647273 135.108605 
L 555.169091 175.742119 
L 556.437273 204.597224 
L 557.705455 229.046332 
L 558.973636 249.677069 
L 560.241818 267.059444 
L 561.51 281.716199 
L 562.778182 294.067949 
L 564.046364 304.473551 
L 565.314545 313.245812 
L 566.582727 320.644189 
L 567.850909 326.881263 
L 569.119091 332.140465 
L 570.387273 336.576859 
L 571.655455 340.318915 
L 572.923636 343.475851 
L 574.445455 346.621184 
L 575.967273 349.188263 
L 577.489091 351.284101 
L 579.010909 352.996117 
L 580.532727 354.395841 
L 582.308182 355.711126 
L 584.083636 356.753654 
L 586.112727 357.684774 
L 586.366364 357.784959 
L 586.62 143.915938 
L 586.873636 109.184083 
L 587.127273 94.545491 
L 587.380909 87.598248 
L 587.634545 85.48543 
L 587.888182 86.643241 
L 588.141818 90.062549 
L 588.649091 100.943245 
L 590.170909 143.260767 
L 591.692727 182.749128 
L 592.960909 210.547142 
L 594.229091 234.073459 
L 595.497273 253.910247 
L 596.765455 270.628127 
L 598.033636 284.723414 
L 599.301818 296.601189 
L 600.57 306.60742 
L 601.838182 315.044837 
L 603.106364 322.160347 
L 604.374545 328.15877 
L 605.642727 333.217282 
L 606.910909 337.484533 
L 608.179091 341.083871 
L 609.447273 344.120723 
L 610.969091 347.146663 
L 612.490909 349.616457 
L 614.012727 351.633061 
L 615.534545 353.280594 
L 617.056364 354.627873 
L 618.831818 355.89416 
L 620.607273 356.89808 
L 622.636364 357.795065 
L 622.636364 357.795065 
" style="fill:none;stroke:#f57938;stroke-linecap:square;stroke-width:1.5;"/>
   </g>
   <g id="line2d_16">
    <path clip-path="url(#p5bade63067)" d="M 115.363636 362.468571 
L 115.617273 140.79041 
L 115.870909 111.027506 
L 116.124545 97.508639 
L 116.378182 91.39616 
L 116.631818 89.730076 
L 116.885455 91.171451 
L 117.392727 99.782441 
L 118.153636 119.294404 
L 120.436364 180.740562 
L 121.704545 209.09584 
L 122.972727 233.100065 
L 124.240909 253.345541 
L 125.509091 270.408687 
L 126.777273 284.786163 
L 128.045455 296.901064 
L 129.313636 307.109509 
L 130.581818 315.711378 
L 131.85 322.960021 
L 133.118182 329.068743 
L 134.386364 334.216836 
L 135.654545 338.555389 
L 136.922727 342.211912 
L 138.190909 345.294066 
L 139.459091 347.89243 
L 140.980909 350.478137 
L 142.502727 352.585167 
L 144.024545 354.302468 
L 145.546364 355.702541 
L 147.321818 357.013015 
L 149.097273 358.046446 
L 151.126364 358.963436 
L 153.409091 359.738599 
L 155.945455 360.366964 
L 158.989091 360.890405 
L 162.793636 361.30994 
L 167.866364 361.633063 
L 175.221818 361.861716 
L 188.664545 362.02154 
L 228.739091 362.190173 
L 325.628182 362.371002 
L 511.036364 362.455489 
L 622.636364 362.464686 
L 622.636364 362.464686 
" style="fill:none;stroke:#f57938;stroke-dasharray:5.55,2.4;stroke-dashoffset:0;stroke-width:1.5;"/>
   </g>
   <g id="line2d_17">
    <path clip-path="url(#p5bade63067)" d="M 115.363636 292.662199 
L 120.487603 292.520558 
L 125.61157 292.378918 
L 130.735537 292.237277 
L 135.859504 292.095637 
L 140.983471 291.953996 
L 146.107438 291.812356 
L 151.231405 291.670715 
L 156.355372 291.559466 
L 161.479339 291.496844 
L 166.603306 291.434222 
L 171.727273 291.371599 
L 176.85124 291.308977 
L 181.975207 291.246355 
L 187.099174 291.183732 
L 192.22314 291.12111 
L 197.347107 291.083873 
L 202.471074 291.054252 
L 207.595041 291.024631 
L 212.719008 290.99501 
L 217.842975 290.965389 
L 222.966942 290.935768 
L 228.090909 290.906147 
L 233.214876 290.879615 
L 238.338843 290.870075 
L 243.46281 290.860535 
L 248.586777 290.850995 
L 253.710744 290.841454 
L 258.834711 290.831914 
L 263.958678 290.822374 
L 269.082645 290.812834 
L 274.206612 290.810229 
L 279.330579 290.81357 
L 284.454545 290.816911 
L 289.578512 290.820251 
L 294.702479 290.823592 
L 299.826446 290.826933 
L 304.950413 290.830273 
L 310.07438 290.833614 
L 315.198347 290.787629 
L 320.322314 290.737533 
L 325.446281 290.687437 
L 330.570248 290.637342 
L 335.694215 290.587246 
L 340.818182 290.53715 
L 345.942149 290.487055 
L 351.066116 290.457826 
L 356.190083 290.475549 
L 361.31405 290.493272 
L 366.438017 290.510995 
L 371.561983 290.528718 
L 376.68595 290.54644 
L 381.809917 290.564163 
L 386.933884 290.581886 
L 392.057851 290.583487 
L 397.181818 290.577923 
L 402.305785 290.572358 
L 407.429752 290.566794 
L 412.553719 290.56123 
L 417.677686 290.555665 
L 422.801653 290.550101 
L 427.92562 290.543574 
L 433.049587 290.5255 
L 438.173554 290.507426 
L 443.297521 290.489352 
L 448.421488 290.471278 
L 453.545455 290.453204 
L 458.669421 290.43513 
L 463.793388 290.417056 
L 468.917355 290.407395 
L 474.041322 290.40755 
L 479.165289 290.407705 
L 484.289256 290.40786 
L 489.413223 290.408015 
L 494.53719 290.40817 
L 499.661157 290.408325 
L 504.785124 290.40848 
L 509.909091 290.417458 
L 515.033058 290.42804 
L 520.157025 290.438622 
L 525.280992 290.449203 
L 530.404959 290.459785 
L 535.528926 290.470367 
L 540.652893 290.480949 
L 545.77686 290.492998 
L 550.900826 290.509936 
L 556.024793 290.526874 
L 561.14876 290.543812 
L 566.272727 290.560751 
L 571.396694 290.577689 
L 576.520661 290.594627 
L 581.644628 290.611565 
L 586.768595 290.592891 
L 591.892562 290.55196 
L 597.016529 290.511028 
L 602.140496 290.470097 
L 607.264463 290.429166 
L 612.38843 290.388234 
L 617.512397 290.347303 
L 622.636364 290.306372 
" style="fill:none;stroke:#000000;stroke-linecap:square;stroke-width:1.5;"/>
   </g>
   <g id="patch_3">
    <path d="M 90 378 
L 90 51.84 
" style="fill:none;stroke:#000000;stroke-linecap:square;stroke-linejoin:miter;stroke-width:0.8;"/>
   </g>
   <g id="patch_4">
    <path d="M 648 378 
L 648 51.84 
" style="fill:none;stroke:#000000;stroke-linecap:square;stroke-linejoin:miter;stroke-width:0.8;"/>
   </g>
   <g id="patch_5">
    <path d="M 90 378 
L 648 378 
" style="fill:none;stroke:#000000;stroke-linecap:square;stroke-linejoin:miter;stroke-width:0.8;"/>
   </g>
   <g id="patch_6">
    <path d="M 90 51.84 
L 648 51.84 
" style="fill:none;stroke:#000000;stroke-linecap:square;stroke-linejoin:miter;stroke-width:0.8;"/>
   </g>
  </g>
 </g>
 <defs>
  <clipPath id="p5bade63067">
   <rect height="326.16" width="558" x="90" y="51.84"/>
  </clipPath>
 </defs>
</svg>
