<?xml version="1.0" encoding="utf-8" standalone="no"?>
<!DOCTYPE svg PUBLIC "-//W3C//DTD SVG 1.1//EN"
  "http://www.w3.org/Graphics/SVG/1.1/DTD/svg11.dtd">
<!-- Created with matplotlib (https://matplotlib.org/) -->
<svg height="432pt" version="1.1" viewBox="0 0 1080 432" width="1080pt" xmlns="http://www.w3.org/2000/svg" xmlns:xlink="http://www.w3.org/1999/xlink">
 <defs>
  <style type="text/css">
*{stroke-linecap:butt;stroke-linejoin:round;}
  </style>
 </defs>
 <g id="figure_1">
  <g id="patch_1">
   <path d="M 0 432 
L 1080 432 
L 1080 0 
L 0 0 
z
" style="fill:#ffffff;"/>
  </g>
  <g id="axes_1">
   <g id="patch_2">
    <path d="M 65.425 379.2 
L 545.1 379.2 
L 545.1 16.3 
L 65.425 16.3 
z
" style="fill:#ffffff;"/>
   </g>
   <g id="matplotlib.axis_1">
    <g id="xtick_1">
     <g id="line2d_1">
      <defs>
       <path d="M 0 0 
L 0 3.5 
" id="m61f11f2ebc" style="stroke:#000000;stroke-width:0.8;"/>
      </defs>
      <g>
       <use style="stroke:#000000;stroke-width:0.8;" x="87.228409" xlink:href="#m61f11f2ebc" y="379.2"/>
      </g>
     </g>
     <g id="text_1">
      <!-- 0 -->
      <defs>
       <path d="M 31.78125 3.421875 
Q 39.265625 3.421875 42.96875 11.625 
Q 46.6875 19.828125 46.6875 36.375 
Q 46.6875 52.984375 42.96875 61.1875 
Q 39.265625 69.390625 31.78125 69.390625 
Q 24.3125 69.390625 20.59375 61.1875 
Q 16.890625 52.984375 16.890625 36.375 
Q 16.890625 19.828125 20.59375 11.625 
Q 24.3125 3.421875 31.78125 3.421875 
z
M 31.78125 -1.421875 
Q 19.921875 -1.421875 13.25 8.53125 
Q 6.59375 18.5 6.59375 36.375 
Q 6.59375 54.296875 13.25 64.25 
Q 19.921875 74.21875 31.78125 74.21875 
Q 43.703125 74.21875 50.34375 64.25 
Q 56.984375 54.296875 56.984375 36.375 
Q 56.984375 18.5 50.34375 8.53125 
Q 43.703125 -1.421875 31.78125 -1.421875 
z
" id="DejaVuSerif-48"/>
      </defs>
      <g transform="translate(82.774659 396.837812)scale(0.14 -0.14)">
       <use xlink:href="#DejaVuSerif-48"/>
      </g>
     </g>
    </g>
    <g id="xtick_2">
     <g id="line2d_2">
      <g>
       <use style="stroke:#000000;stroke-width:0.8;" x="146.156542" xlink:href="#m61f11f2ebc" y="379.2"/>
      </g>
     </g>
     <g id="text_2">
      <!-- 10 -->
      <defs>
       <path d="M 14.203125 0 
L 14.203125 5.171875 
L 26.90625 5.171875 
L 26.90625 65.828125 
L 12.203125 56.296875 
L 12.203125 62.703125 
L 29.984375 74.21875 
L 36.71875 74.21875 
L 36.71875 5.171875 
L 49.421875 5.171875 
L 49.421875 0 
z
" id="DejaVuSerif-49"/>
      </defs>
      <g transform="translate(137.249042 396.837812)scale(0.14 -0.14)">
       <use xlink:href="#DejaVuSerif-49"/>
       <use x="63.623047" xlink:href="#DejaVuSerif-48"/>
      </g>
     </g>
    </g>
    <g id="xtick_3">
     <g id="line2d_3">
      <g>
       <use style="stroke:#000000;stroke-width:0.8;" x="205.084674" xlink:href="#m61f11f2ebc" y="379.2"/>
      </g>
     </g>
     <g id="text_3">
      <!-- 20 -->
      <defs>
       <path d="M 12.796875 55.515625 
L 7.328125 55.515625 
L 7.328125 68.5 
Q 12.546875 71.296875 17.84375 72.75 
Q 23.140625 74.21875 28.21875 74.21875 
Q 39.59375 74.21875 46.1875 68.703125 
Q 52.78125 63.1875 52.78125 53.71875 
Q 52.78125 43.015625 37.84375 28.125 
Q 36.671875 27 36.078125 26.421875 
L 17.671875 8.015625 
L 48.09375 8.015625 
L 48.09375 17 
L 53.8125 17 
L 53.8125 0 
L 6.78125 0 
L 6.78125 5.328125 
L 28.90625 27.390625 
Q 36.234375 34.71875 39.359375 40.84375 
Q 42.484375 46.96875 42.484375 53.71875 
Q 42.484375 61.078125 38.640625 65.234375 
Q 34.8125 69.390625 28.078125 69.390625 
Q 21.09375 69.390625 17.28125 65.921875 
Q 13.484375 62.453125 12.796875 55.515625 
z
" id="DejaVuSerif-50"/>
      </defs>
      <g transform="translate(196.177174 396.837812)scale(0.14 -0.14)">
       <use xlink:href="#DejaVuSerif-50"/>
       <use x="63.623047" xlink:href="#DejaVuSerif-48"/>
      </g>
     </g>
    </g>
    <g id="xtick_4">
     <g id="line2d_4">
      <g>
       <use style="stroke:#000000;stroke-width:0.8;" x="264.012807" xlink:href="#m61f11f2ebc" y="379.2"/>
      </g>
     </g>
     <g id="text_4">
      <!-- 30 -->
      <defs>
       <path d="M 9.71875 69.828125 
Q 15.4375 71.96875 20.671875 73.09375 
Q 25.921875 74.21875 30.515625 74.21875 
Q 41.21875 74.21875 47.21875 69.59375 
Q 53.21875 64.984375 53.21875 56.78125 
Q 53.21875 50.203125 49.0625 45.78125 
Q 44.921875 41.359375 37.3125 39.796875 
Q 46.296875 38.53125 51.25 33.28125 
Q 56.203125 28.03125 56.203125 19.671875 
Q 56.203125 9.46875 49.34375 4.015625 
Q 42.484375 -1.421875 29.59375 -1.421875 
Q 23.875 -1.421875 18.421875 -0.1875 
Q 12.984375 1.03125 7.625 3.515625 
L 7.625 17.671875 
L 13.09375 17.671875 
Q 13.578125 10.640625 17.828125 7.03125 
Q 22.078125 3.421875 29.78125 3.421875 
Q 37.25 3.421875 41.578125 7.734375 
Q 45.90625 12.0625 45.90625 19.578125 
Q 45.90625 28.171875 41.453125 32.59375 
Q 37.015625 37.015625 28.421875 37.015625 
L 23.78125 37.015625 
L 23.78125 42 
L 26.21875 42 
Q 34.765625 42 39.03125 45.53125 
Q 43.3125 49.078125 43.3125 56.203125 
Q 43.3125 62.59375 39.796875 65.984375 
Q 36.28125 69.390625 29.6875 69.390625 
Q 23.09375 69.390625 19.453125 66.265625 
Q 15.828125 63.140625 15.1875 56.984375 
L 9.71875 56.984375 
z
" id="DejaVuSerif-51"/>
      </defs>
      <g transform="translate(255.105307 396.837812)scale(0.14 -0.14)">
       <use xlink:href="#DejaVuSerif-51"/>
       <use x="63.623047" xlink:href="#DejaVuSerif-48"/>
      </g>
     </g>
    </g>
    <g id="xtick_5">
     <g id="line2d_5">
      <g>
       <use style="stroke:#000000;stroke-width:0.8;" x="322.94094" xlink:href="#m61f11f2ebc" y="379.2"/>
      </g>
     </g>
     <g id="text_5">
      <!-- 40 -->
      <defs>
       <path d="M 34.90625 24.703125 
L 34.90625 63.484375 
L 10.015625 24.703125 
z
M 56.390625 0 
L 23.1875 0 
L 23.1875 5.171875 
L 34.90625 5.171875 
L 34.90625 19.484375 
L 3.078125 19.484375 
L 3.078125 24.8125 
L 35.015625 74.21875 
L 44.671875 74.21875 
L 44.671875 24.703125 
L 58.59375 24.703125 
L 58.59375 19.484375 
L 44.671875 19.484375 
L 44.671875 5.171875 
L 56.390625 5.171875 
z
" id="DejaVuSerif-52"/>
      </defs>
      <g transform="translate(314.03344 396.837812)scale(0.14 -0.14)">
       <use xlink:href="#DejaVuSerif-52"/>
       <use x="63.623047" xlink:href="#DejaVuSerif-48"/>
      </g>
     </g>
    </g>
    <g id="xtick_6">
     <g id="line2d_6">
      <g>
       <use style="stroke:#000000;stroke-width:0.8;" x="381.869072" xlink:href="#m61f11f2ebc" y="379.2"/>
      </g>
     </g>
     <g id="text_6">
      <!-- 50 -->
      <defs>
       <path d="M 50.296875 72.90625 
L 50.296875 64.890625 
L 16.890625 64.890625 
L 16.890625 44 
Q 19.4375 45.75 22.828125 46.625 
Q 26.21875 47.515625 30.421875 47.515625 
Q 42.234375 47.515625 49.0625 40.96875 
Q 55.90625 34.421875 55.90625 23.09375 
Q 55.90625 11.53125 49 5.046875 
Q 42.09375 -1.421875 29.59375 -1.421875 
Q 24.5625 -1.421875 19.28125 -0.1875 
Q 14.015625 1.03125 8.5 3.515625 
L 8.5 17.671875 
L 14.015625 17.671875 
Q 14.453125 10.75 18.421875 7.078125 
Q 22.40625 3.421875 29.59375 3.421875 
Q 37.3125 3.421875 41.453125 8.5 
Q 45.609375 13.578125 45.609375 23.09375 
Q 45.609375 32.5625 41.484375 37.609375 
Q 37.359375 42.671875 29.59375 42.671875 
Q 25.203125 42.671875 21.84375 41.109375 
Q 18.5 39.546875 15.921875 36.28125 
L 11.71875 36.28125 
L 11.71875 72.90625 
z
" id="DejaVuSerif-53"/>
      </defs>
      <g transform="translate(372.961572 396.837812)scale(0.14 -0.14)">
       <use xlink:href="#DejaVuSerif-53"/>
       <use x="63.623047" xlink:href="#DejaVuSerif-48"/>
      </g>
     </g>
    </g>
    <g id="xtick_7">
     <g id="line2d_7">
      <g>
       <use style="stroke:#000000;stroke-width:0.8;" x="440.797205" xlink:href="#m61f11f2ebc" y="379.2"/>
      </g>
     </g>
     <g id="text_7">
      <!-- 60 -->
      <defs>
       <path d="M 32.71875 3.421875 
Q 39.59375 3.421875 43.296875 8.46875 
Q 47.015625 13.53125 47.015625 23 
Q 47.015625 32.46875 43.296875 37.515625 
Q 39.59375 42.578125 32.71875 42.578125 
Q 25.734375 42.578125 22.0625 37.6875 
Q 18.40625 32.8125 18.40625 23.578125 
Q 18.40625 13.875 22.109375 8.640625 
Q 25.828125 3.421875 32.71875 3.421875 
z
M 16.796875 40.140625 
Q 20.125 43.796875 24.3125 45.59375 
Q 28.515625 47.40625 33.796875 47.40625 
Q 44.671875 47.40625 51 40.859375 
Q 57.328125 34.328125 57.328125 23 
Q 57.328125 11.921875 50.515625 5.25 
Q 43.703125 -1.421875 32.328125 -1.421875 
Q 19.96875 -1.421875 13.328125 7.78125 
Q 6.6875 17 6.6875 34.078125 
Q 6.6875 53.21875 14.546875 63.71875 
Q 22.40625 74.21875 36.71875 74.21875 
Q 40.578125 74.21875 44.828125 73.484375 
Q 49.078125 72.75 53.515625 71.296875 
L 53.515625 59.28125 
L 48 59.28125 
Q 47.40625 64.203125 44.234375 66.796875 
Q 41.0625 69.390625 35.6875 69.390625 
Q 26.21875 69.390625 21.578125 62.203125 
Q 16.9375 55.03125 16.796875 40.140625 
z
" id="DejaVuSerif-54"/>
      </defs>
      <g transform="translate(431.889705 396.837812)scale(0.14 -0.14)">
       <use xlink:href="#DejaVuSerif-54"/>
       <use x="63.623047" xlink:href="#DejaVuSerif-48"/>
      </g>
     </g>
    </g>
    <g id="xtick_8">
     <g id="line2d_8">
      <g>
       <use style="stroke:#000000;stroke-width:0.8;" x="499.725338" xlink:href="#m61f11f2ebc" y="379.2"/>
      </g>
     </g>
     <g id="text_8">
      <!-- 70 -->
      <defs>
       <path d="M 56.390625 67.921875 
L 27.875 0 
L 20.609375 0 
L 47.796875 64.890625 
L 14.109375 64.890625 
L 14.109375 55.90625 
L 8.40625 55.90625 
L 8.40625 72.90625 
L 56.390625 72.90625 
z
" id="DejaVuSerif-55"/>
      </defs>
      <g transform="translate(490.817838 396.837812)scale(0.14 -0.14)">
       <use xlink:href="#DejaVuSerif-55"/>
       <use x="63.623047" xlink:href="#DejaVuSerif-48"/>
      </g>
     </g>
    </g>
    <g id="text_9">
     <!-- Time [h] -->
     <defs>
      <path d="M 19.09375 0 
L 19.09375 5.171875 
L 28.421875 5.171875 
L 28.421875 67.09375 
L 6.984375 67.09375 
L 6.984375 55.71875 
L 0.984375 55.71875 
L 0.984375 72.90625 
L 65.71875 72.90625 
L 65.71875 55.71875 
L 59.71875 55.71875 
L 59.71875 67.09375 
L 38.28125 67.09375 
L 38.28125 5.171875 
L 47.609375 5.171875 
L 47.609375 0 
z
" id="DejaVuSerif-84"/>
      <path d="M 9.71875 68.015625 
Q 9.71875 70.265625 11.34375 71.921875 
Q 12.984375 73.578125 15.28125 73.578125 
Q 17.53125 73.578125 19.15625 71.921875 
Q 20.796875 70.265625 20.796875 68.015625 
Q 20.796875 65.71875 19.1875 64.109375 
Q 17.578125 62.5 15.28125 62.5 
Q 12.984375 62.5 11.34375 64.109375 
Q 9.71875 65.71875 9.71875 68.015625 
z
M 21.1875 5.171875 
L 29.6875 5.171875 
L 29.6875 0 
L 3.609375 0 
L 3.609375 5.171875 
L 12.203125 5.171875 
L 12.203125 46.6875 
L 3.609375 46.6875 
L 3.609375 51.90625 
L 21.1875 51.90625 
z
" id="DejaVuSerif-105"/>
      <path d="M 51.8125 41.796875 
Q 54.390625 47.515625 58.421875 50.421875 
Q 62.453125 53.328125 67.828125 53.328125 
Q 75.984375 53.328125 79.984375 48.265625 
Q 83.984375 43.21875 83.984375 33.015625 
L 83.984375 5.171875 
L 92.09375 5.171875 
L 92.09375 0 
L 67.1875 0 
L 67.1875 5.171875 
L 75 5.171875 
L 75 31.984375 
Q 75 39.9375 72.65625 43.3125 
Q 70.3125 46.6875 64.890625 46.6875 
Q 58.890625 46.6875 55.734375 42.140625 
Q 52.59375 37.59375 52.59375 28.90625 
L 52.59375 5.171875 
L 60.40625 5.171875 
L 60.40625 0 
L 35.796875 0 
L 35.796875 5.171875 
L 43.609375 5.171875 
L 43.609375 32.328125 
Q 43.609375 40.09375 41.265625 43.390625 
Q 38.921875 46.6875 33.5 46.6875 
Q 27.484375 46.6875 24.328125 42.140625 
Q 21.1875 37.59375 21.1875 28.90625 
L 21.1875 5.171875 
L 29 5.171875 
L 29 0 
L 4.109375 0 
L 4.109375 5.171875 
L 12.203125 5.171875 
L 12.203125 46.78125 
L 3.609375 46.78125 
L 3.609375 51.90625 
L 21.1875 51.90625 
L 21.1875 42.671875 
Q 23.6875 47.859375 27.53125 50.59375 
Q 31.390625 53.328125 36.28125 53.328125 
Q 42.328125 53.328125 46.375 50.3125 
Q 50.4375 47.3125 51.8125 41.796875 
z
" id="DejaVuSerif-109"/>
      <path d="M 54.203125 25 
L 15.484375 25 
L 15.484375 24.609375 
Q 15.484375 14.109375 19.4375 8.765625 
Q 23.390625 3.421875 31.109375 3.421875 
Q 37.015625 3.421875 40.796875 6.515625 
Q 44.578125 9.625 46.09375 15.71875 
L 53.328125 15.71875 
Q 51.171875 7.171875 45.375 2.875 
Q 39.59375 -1.421875 30.171875 -1.421875 
Q 18.796875 -1.421875 11.890625 6.078125 
Q 4.984375 13.578125 4.984375 25.984375 
Q 4.984375 38.28125 11.765625 45.796875 
Q 18.5625 53.328125 29.59375 53.328125 
Q 41.359375 53.328125 47.65625 46.0625 
Q 53.953125 38.8125 54.203125 25 
z
M 43.609375 30.171875 
Q 43.3125 39.265625 39.765625 43.875 
Q 36.234375 48.484375 29.59375 48.484375 
Q 23.390625 48.484375 19.828125 43.84375 
Q 16.265625 39.203125 15.484375 30.171875 
z
" id="DejaVuSerif-101"/>
      <path id="DejaVuSerif-32"/>
      <path d="M 8.59375 75.984375 
L 31.296875 75.984375 
L 31.296875 70.796875 
L 17.921875 70.796875 
L 17.921875 -8.015625 
L 31.296875 -8.015625 
L 31.296875 -13.1875 
L 8.59375 -13.1875 
z
" id="DejaVuSerif-91"/>
      <path d="M 4.109375 0 
L 4.109375 5.171875 
L 12.203125 5.171875 
L 12.203125 70.796875 
L 3.609375 70.796875 
L 3.609375 75.984375 
L 21.1875 75.984375 
L 21.1875 42.671875 
Q 23.6875 47.953125 27.65625 50.640625 
Q 31.640625 53.328125 36.921875 53.328125 
Q 45.515625 53.328125 49.5625 48.390625 
Q 53.609375 43.453125 53.609375 33.015625 
L 53.609375 5.171875 
L 61.625 5.171875 
L 61.625 0 
L 36.8125 0 
L 36.8125 5.171875 
L 44.578125 5.171875 
L 44.578125 30.171875 
Q 44.578125 39.703125 42.25 43.1875 
Q 39.9375 46.6875 33.984375 46.6875 
Q 27.734375 46.6875 24.453125 42.140625 
Q 21.1875 37.59375 21.1875 28.90625 
L 21.1875 5.171875 
L 29 5.171875 
L 29 0 
z
" id="DejaVuSerif-104"/>
      <path d="M 30.421875 75.984375 
L 30.421875 -13.1875 
L 7.71875 -13.1875 
L 7.71875 -8.015625 
L 21.09375 -8.015625 
L 21.09375 70.796875 
L 7.71875 70.796875 
L 7.71875 75.984375 
z
" id="DejaVuSerif-93"/>
     </defs>
     <g transform="translate(268.974141 416.666719)scale(0.17 -0.17)">
      <use xlink:href="#DejaVuSerif-84"/>
      <use x="66.699219" xlink:href="#DejaVuSerif-105"/>
      <use x="98.681641" xlink:href="#DejaVuSerif-109"/>
      <use x="193.505859" xlink:href="#DejaVuSerif-101"/>
      <use x="252.685547" xlink:href="#DejaVuSerif-32"/>
      <use x="284.472656" xlink:href="#DejaVuSerif-91"/>
      <use x="323.486328" xlink:href="#DejaVuSerif-104"/>
      <use x="387.890625" xlink:href="#DejaVuSerif-93"/>
     </g>
    </g>
   </g>
   <g id="matplotlib.axis_2">
    <g id="ytick_1">
     <g id="line2d_9">
      <defs>
       <path d="M 0 0 
L -3.5 0 
" id="m76f6d9ac53" style="stroke:#000000;stroke-width:0.8;"/>
      </defs>
      <g>
       <use style="stroke:#000000;stroke-width:0.8;" x="65.425" xlink:href="#m76f6d9ac53" y="346.209091"/>
      </g>
     </g>
     <g id="text_10">
      <!-- 0 -->
      <g transform="translate(49.5175 351.527997)scale(0.14 -0.14)">
       <use xlink:href="#DejaVuSerif-48"/>
      </g>
     </g>
    </g>
    <g id="ytick_2">
     <g id="line2d_10">
      <g>
       <use style="stroke:#000000;stroke-width:0.8;" x="65.425" xlink:href="#m76f6d9ac53" y="263.731818"/>
      </g>
     </g>
     <g id="text_11">
      <!-- 25 -->
      <g transform="translate(40.61 269.050724)scale(0.14 -0.14)">
       <use xlink:href="#DejaVuSerif-50"/>
       <use x="63.623047" xlink:href="#DejaVuSerif-53"/>
      </g>
     </g>
    </g>
    <g id="ytick_3">
     <g id="line2d_11">
      <g>
       <use style="stroke:#000000;stroke-width:0.8;" x="65.425" xlink:href="#m76f6d9ac53" y="181.254545"/>
      </g>
     </g>
     <g id="text_12">
      <!-- 50 -->
      <g transform="translate(40.61 186.573452)scale(0.14 -0.14)">
       <use xlink:href="#DejaVuSerif-53"/>
       <use x="63.623047" xlink:href="#DejaVuSerif-48"/>
      </g>
     </g>
    </g>
    <g id="ytick_4">
     <g id="line2d_12">
      <g>
       <use style="stroke:#000000;stroke-width:0.8;" x="65.425" xlink:href="#m76f6d9ac53" y="98.777273"/>
      </g>
     </g>
     <g id="text_13">
      <!-- 75 -->
      <g transform="translate(40.61 104.096179)scale(0.14 -0.14)">
       <use xlink:href="#DejaVuSerif-55"/>
       <use x="63.623047" xlink:href="#DejaVuSerif-53"/>
      </g>
     </g>
    </g>
    <g id="ytick_5">
     <g id="line2d_13">
      <g>
       <use style="stroke:#000000;stroke-width:0.8;" x="65.425" xlink:href="#m76f6d9ac53" y="16.3"/>
      </g>
     </g>
     <g id="text_14">
      <!-- 100 -->
      <g transform="translate(31.7025 21.618906)scale(0.14 -0.14)">
       <use xlink:href="#DejaVuSerif-49"/>
       <use x="63.623047" xlink:href="#DejaVuSerif-48"/>
       <use x="127.246094" xlink:href="#DejaVuSerif-48"/>
      </g>
     </g>
    </g>
    <g id="text_15">
     <!-- BPA [ng/ml] -->
     <defs>
      <path d="M 24.703125 5.171875 
L 39.3125 5.171875 
Q 48.09375 5.171875 52.140625 8.984375 
Q 56.203125 12.796875 56.203125 21.09375 
Q 56.203125 29.34375 52.171875 33.125 
Q 48.140625 36.921875 39.3125 36.921875 
L 24.703125 36.921875 
z
M 24.703125 42.09375 
L 37.109375 42.09375 
Q 45.125 42.09375 48.796875 45.171875 
Q 52.484375 48.25 52.484375 54.890625 
Q 52.484375 61.578125 48.796875 64.625 
Q 45.125 67.671875 37.109375 67.671875 
L 24.703125 67.671875 
z
M 5.515625 0 
L 5.515625 5.171875 
L 14.796875 5.171875 
L 14.796875 67.671875 
L 5.515625 67.671875 
L 5.515625 72.90625 
L 41.5 72.90625 
Q 52.546875 72.90625 58.125 68.390625 
Q 63.71875 63.875 63.71875 54.890625 
Q 63.71875 48.390625 59.828125 44.53125 
Q 55.953125 40.671875 48.484375 39.796875 
Q 57.765625 38.625 62.578125 33.859375 
Q 67.390625 29.109375 67.390625 21.09375 
Q 67.390625 10.25 60.546875 5.125 
Q 53.71875 0 39.203125 0 
z
" id="DejaVuSerif-66"/>
      <path d="M 24.703125 37.109375 
L 37.59375 37.109375 
Q 44.875 37.109375 48.671875 41.03125 
Q 52.484375 44.96875 52.484375 52.390625 
Q 52.484375 59.859375 48.671875 63.765625 
Q 44.875 67.671875 37.59375 67.671875 
L 24.703125 67.671875 
z
M 5.515625 0 
L 5.515625 5.171875 
L 14.796875 5.171875 
L 14.796875 67.671875 
L 5.515625 67.671875 
L 5.515625 72.90625 
L 39.984375 72.90625 
Q 50.921875 72.90625 57.3125 67.359375 
Q 63.71875 61.8125 63.71875 52.390625 
Q 63.71875 43.015625 57.3125 37.453125 
Q 50.921875 31.890625 39.984375 31.890625 
L 24.703125 31.890625 
L 24.703125 5.171875 
L 35.984375 5.171875 
L 35.984375 0 
z
" id="DejaVuSerif-80"/>
      <path d="M 20.015625 26.421875 
L 46.78125 26.421875 
L 33.40625 61.078125 
z
M -0.59375 0 
L -0.59375 5.171875 
L 5.8125 5.171875 
L 31.78125 72.90625 
L 39.984375 72.90625 
L 66.015625 5.171875 
L 73.1875 5.171875 
L 73.1875 0 
L 46.6875 0 
L 46.6875 5.171875 
L 54.78125 5.171875 
L 48.6875 21.1875 
L 18.015625 21.1875 
L 11.921875 5.171875 
L 19.921875 5.171875 
L 19.921875 0 
z
" id="DejaVuSerif-65"/>
      <path d="M 4.109375 0 
L 4.109375 5.171875 
L 12.203125 5.171875 
L 12.203125 46.6875 
L 3.609375 46.6875 
L 3.609375 51.90625 
L 21.1875 51.90625 
L 21.1875 42.671875 
Q 23.6875 47.953125 27.65625 50.640625 
Q 31.640625 53.328125 36.921875 53.328125 
Q 45.515625 53.328125 49.5625 48.390625 
Q 53.609375 43.453125 53.609375 33.015625 
L 53.609375 5.171875 
L 61.625 5.171875 
L 61.625 0 
L 36.8125 0 
L 36.8125 5.171875 
L 44.578125 5.171875 
L 44.578125 30.171875 
Q 44.578125 39.703125 42.234375 43.234375 
Q 39.890625 46.78125 33.984375 46.78125 
Q 27.734375 46.78125 24.453125 42.203125 
Q 21.1875 37.640625 21.1875 28.90625 
L 21.1875 5.171875 
L 29 5.171875 
L 29 0 
z
" id="DejaVuSerif-110"/>
      <path d="M 52.484375 46.6875 
L 52.484375 1.125 
Q 52.484375 -10.0625 46.328125 -16.140625 
Q 40.1875 -22.21875 28.8125 -22.21875 
Q 23.6875 -22.21875 19 -21.28125 
Q 14.3125 -20.359375 10.015625 -18.5 
L 10.015625 -7.625 
L 14.703125 -7.625 
Q 15.578125 -12.703125 18.84375 -15.046875 
Q 22.125 -17.390625 28.21875 -17.390625 
Q 36.140625 -17.390625 39.8125 -12.921875 
Q 43.5 -8.453125 43.5 1.125 
L 43.5 8.109375 
Q 40.875 3.21875 36.796875 0.890625 
Q 32.71875 -1.421875 26.703125 -1.421875 
Q 17.140625 -1.421875 11.0625 6.171875 
Q 4.984375 13.765625 4.984375 25.984375 
Q 4.984375 38.1875 11.03125 45.75 
Q 17.09375 53.328125 26.703125 53.328125 
Q 32.71875 53.328125 36.796875 51 
Q 40.875 48.6875 43.5 43.796875 
L 43.5 51.90625 
L 61.078125 51.90625 
L 61.078125 46.6875 
z
M 43.5 28.515625 
Q 43.5 37.84375 39.90625 42.765625 
Q 36.328125 47.703125 29.5 47.703125 
Q 22.5625 47.703125 19.015625 42.234375 
Q 15.484375 36.765625 15.484375 25.984375 
Q 15.484375 15.234375 19.015625 9.71875 
Q 22.5625 4.203125 29.5 4.203125 
Q 36.328125 4.203125 39.90625 9.109375 
Q 43.5 14.015625 43.5 23.390625 
z
" id="DejaVuSerif-103"/>
      <path d="M 25.875 72.90625 
L 33.6875 72.90625 
L 7.8125 -9.28125 
L 0 -9.28125 
z
" id="DejaVuSerif-47"/>
      <path d="M 20.515625 5.171875 
L 29 5.171875 
L 29 0 
L 2.875 0 
L 2.875 5.171875 
L 11.53125 5.171875 
L 11.53125 70.796875 
L 2.875 70.796875 
L 2.875 75.984375 
L 20.515625 75.984375 
z
" id="DejaVuSerif-108"/>
     </defs>
     <g transform="translate(23.925312 249.734141)rotate(-90)scale(0.17 -0.17)">
      <use xlink:href="#DejaVuSerif-66"/>
      <use x="73.486328" xlink:href="#DejaVuSerif-80"/>
      <use x="140.630859" xlink:href="#DejaVuSerif-65"/>
      <use x="212.847656" xlink:href="#DejaVuSerif-32"/>
      <use x="244.634766" xlink:href="#DejaVuSerif-91"/>
      <use x="283.648438" xlink:href="#DejaVuSerif-110"/>
      <use x="348.052734" xlink:href="#DejaVuSerif-103"/>
      <use x="412.066406" xlink:href="#DejaVuSerif-47"/>
      <use x="445.757812" xlink:href="#DejaVuSerif-109"/>
      <use x="540.582031" xlink:href="#DejaVuSerif-108"/>
      <use x="572.564453" xlink:href="#DejaVuSerif-93"/>
     </g>
    </g>
   </g>
   <g id="line2d_14">
    <path clip-path="url(#pdbfc116522)" d="M 87.228409 346.209091 
L 87.664477 324.826161 
L 88.972682 290.863864 
L 90.934989 244.696557 
L 92.461227 214.149526 
L 93.769432 192.126221 
L 95.077636 173.863011 
L 96.167807 161.342922 
L 97.257977 151.080005 
L 98.348148 142.87223 
L 99.438318 136.514133 
L 100.310455 132.625101 
L 101.182591 129.694739 
L 102.054727 127.630985 
L 102.70883 126.599685 
L 103.362932 125.972874 
L 104.017034 125.718201 
L 104.671136 125.80519 
L 105.325239 126.205204 
L 105.979341 126.891383 
L 106.851477 128.208201 
L 107.723614 129.934097 
L 108.813784 132.590628 
L 110.121989 136.39566 
L 111.648227 141.519322 
L 113.610534 148.91724 
L 116.226943 159.70982 
L 121.241727 181.600457 
L 126.474545 204.054171 
L 130.181125 218.945939 
L 133.451636 231.16819 
L 136.504114 241.738671 
L 139.556591 251.490496 
L 142.391034 259.826568 
L 145.225477 267.496349 
L 148.05992 274.533334 
L 150.894364 280.97522 
L 153.728807 286.861559 
L 156.56325 292.232347 
L 159.397693 297.127025 
L 162.232136 301.583648 
L 165.06658 305.638331 
L 167.901023 309.325007 
L 170.9535 312.920025 
L 174.005977 316.161651 
L 177.058455 319.083567 
L 180.328966 321.894333 
L 183.599477 324.407705 
L 187.088023 326.795718 
L 190.576568 328.914388 
L 194.283148 330.904037 
L 198.207761 332.752068 
L 202.350409 334.450444 
L 206.711091 335.995325 
L 211.289807 337.386648 
L 216.304591 338.679315 
L 221.755443 339.853756 
L 227.860398 340.933292 
L 234.619455 341.892942 
L 242.250648 342.741266 
L 250.972011 343.476072 
L 261.00158 344.092499 
L 273.211489 344.611089 
L 288.473875 345.025331 
L 308.751045 345.340371 
L 339.057784 345.567163 
L 395.31058 345.728399 
L 523.296591 345.881282 
L 523.296591 345.881282 
" style="fill:none;stroke:#0f2080;stroke-linecap:square;stroke-width:3;"/>
   </g>
   <g id="line2d_15">
    <path clip-path="url(#pdbfc116522)" d="M 87.228409 346.209091 
L 87.446443 332.964249 
L 87.882511 325.033234 
L 88.31858 322.161114 
L 88.754648 320.577068 
L 89.40875 319.115193 
L 90.062852 318.210968 
L 90.716955 317.654188 
L 91.371057 317.350355 
L 92.243193 317.239801 
L 93.11533 317.378418 
L 94.2055 317.796697 
L 95.731739 318.673817 
L 97.91208 320.225208 
L 106.197375 326.353839 
L 109.903955 328.717263 
L 113.610534 330.808648 
L 117.317114 332.651766 
L 121.241727 334.363163 
L 125.384375 335.934736 
L 129.963091 337.42885 
L 134.759841 338.759926 
L 139.992659 339.981017 
L 145.661545 341.076825 
L 151.984534 342.070582 
L 158.961625 342.942302 
L 167.028886 343.720141 
L 176.404352 344.389766 
L 187.306057 344.93937 
L 200.82417 345.38825 
L 218.266898 345.730525 
L 242.468682 345.966891 
L 282.150886 346.105685 
L 380.702295 346.162965 
L 523.296591 346.178994 
L 523.296591 346.178994 
" style="fill:none;stroke:#f57938;stroke-linecap:square;stroke-width:3;"/>
   </g>
   <g id="line2d_16">
    <path clip-path="url(#pdbfc116522)" d="M 87.228409 346.209091 
L 87.446443 345.521055 
L 87.882511 339.911677 
L 88.754648 321.98026 
L 91.807125 255.558426 
L 93.333364 227.806883 
L 94.641568 207.735082 
L 95.949773 191.051704 
L 97.039943 179.591107 
L 98.130114 170.178613 
L 99.220284 162.633749 
L 100.310455 156.772186 
L 101.182591 153.174086 
L 102.054727 150.450283 
L 102.926864 148.517241 
L 103.580966 147.539004 
L 104.235068 146.930198 
L 104.88917 146.661401 
L 105.543273 146.704881 
L 106.197375 147.034557 
L 106.851477 147.625954 
L 107.723614 148.782179 
L 108.59575 150.312824 
L 109.68592 152.683358 
L 110.994125 156.093688 
L 112.520364 160.700278 
L 114.48267 167.367477 
L 117.09908 177.112978 
L 121.89583 196.049137 
L 127.128648 216.432422 
L 130.835227 229.984093 
L 134.105739 241.120154 
L 137.158216 250.75904 
L 140.210693 259.656691 
L 143.045136 267.265947 
L 145.87958 274.269376 
L 148.714023 280.696725 
L 151.548466 286.581764 
L 154.382909 291.960159 
L 157.217352 296.86816 
L 160.051795 301.341597 
L 162.886239 305.415062 
L 165.720682 309.121412 
L 168.773159 312.737721 
L 171.825636 316.000099 
L 174.878114 318.941828 
L 178.148625 321.772506 
L 181.419136 324.304351 
L 184.907682 326.710405 
L 188.396227 328.845374 
L 192.102807 330.850529 
L 196.02742 332.713065 
L 200.170068 334.42482 
L 204.53075 335.981887 
L 209.109466 337.384152 
L 214.12425 338.686895 
L 219.575102 339.870355 
L 225.462023 340.922962 
L 232.003045 341.868733 
L 239.416205 342.713996 
L 247.919534 343.454032 
L 257.731068 344.080785 
L 269.504909 344.605312 
L 284.331227 345.032097 
L 303.954295 345.358857 
L 332.516761 345.591511 
L 383.754773 345.752 
L 523.296591 345.911379 
L 523.296591 345.911379 
" style="fill:none;stroke:#85c0f9;stroke-dasharray:11.1,4.8;stroke-dashoffset:0;stroke-width:3;"/>
   </g>
   <g id="patch_3">
    <path d="M 65.425 379.2 
L 65.425 16.3 
" style="fill:none;stroke:#000000;stroke-linecap:square;stroke-linejoin:miter;stroke-width:0.8;"/>
   </g>
   <g id="patch_4">
    <path d="M 545.1 379.2 
L 545.1 16.3 
" style="fill:none;stroke:#000000;stroke-linecap:square;stroke-linejoin:miter;stroke-width:0.8;"/>
   </g>
   <g id="patch_5">
    <path d="M 65.425 379.2 
L 545.1 379.2 
" style="fill:none;stroke:#000000;stroke-linecap:square;stroke-linejoin:miter;stroke-width:0.8;"/>
   </g>
   <g id="patch_6">
    <path d="M 65.425 16.3 
L 545.1 16.3 
" style="fill:none;stroke:#000000;stroke-linecap:square;stroke-linejoin:miter;stroke-width:0.8;"/>
   </g>
  </g>
  <g id="axes_2">
   <g id="patch_7">
    <path d="M 589.525 379.2 
L 1069.2 379.2 
L 1069.2 16.3 
L 589.525 16.3 
z
" style="fill:#ffffff;"/>
   </g>
   <g id="matplotlib.axis_3">
    <g id="xtick_9">
     <g id="line2d_17">
      <g>
       <use style="stroke:#000000;stroke-width:0.8;" x="611.328409" xlink:href="#m61f11f2ebc" y="379.2"/>
      </g>
     </g>
     <g id="text_16">
      <!-- 0 -->
      <g transform="translate(606.874659 396.837812)scale(0.14 -0.14)">
       <use xlink:href="#DejaVuSerif-48"/>
      </g>
     </g>
    </g>
    <g id="xtick_10">
     <g id="line2d_18">
      <g>
       <use style="stroke:#000000;stroke-width:0.8;" x="670.256542" xlink:href="#m61f11f2ebc" y="379.2"/>
      </g>
     </g>
     <g id="text_17">
      <!-- 10 -->
      <g transform="translate(661.349042 396.837812)scale(0.14 -0.14)">
       <use xlink:href="#DejaVuSerif-49"/>
       <use x="63.623047" xlink:href="#DejaVuSerif-48"/>
      </g>
     </g>
    </g>
    <g id="xtick_11">
     <g id="line2d_19">
      <g>
       <use style="stroke:#000000;stroke-width:0.8;" x="729.184674" xlink:href="#m61f11f2ebc" y="379.2"/>
      </g>
     </g>
     <g id="text_18">
      <!-- 20 -->
      <g transform="translate(720.277174 396.837812)scale(0.14 -0.14)">
       <use xlink:href="#DejaVuSerif-50"/>
       <use x="63.623047" xlink:href="#DejaVuSerif-48"/>
      </g>
     </g>
    </g>
    <g id="xtick_12">
     <g id="line2d_20">
      <g>
       <use style="stroke:#000000;stroke-width:0.8;" x="788.112807" xlink:href="#m61f11f2ebc" y="379.2"/>
      </g>
     </g>
     <g id="text_19">
      <!-- 30 -->
      <g transform="translate(779.205307 396.837812)scale(0.14 -0.14)">
       <use xlink:href="#DejaVuSerif-51"/>
       <use x="63.623047" xlink:href="#DejaVuSerif-48"/>
      </g>
     </g>
    </g>
    <g id="xtick_13">
     <g id="line2d_21">
      <g>
       <use style="stroke:#000000;stroke-width:0.8;" x="847.04094" xlink:href="#m61f11f2ebc" y="379.2"/>
      </g>
     </g>
     <g id="text_20">
      <!-- 40 -->
      <g transform="translate(838.13344 396.837812)scale(0.14 -0.14)">
       <use xlink:href="#DejaVuSerif-52"/>
       <use x="63.623047" xlink:href="#DejaVuSerif-48"/>
      </g>
     </g>
    </g>
    <g id="xtick_14">
     <g id="line2d_22">
      <g>
       <use style="stroke:#000000;stroke-width:0.8;" x="905.969072" xlink:href="#m61f11f2ebc" y="379.2"/>
      </g>
     </g>
     <g id="text_21">
      <!-- 50 -->
      <g transform="translate(897.061572 396.837812)scale(0.14 -0.14)">
       <use xlink:href="#DejaVuSerif-53"/>
       <use x="63.623047" xlink:href="#DejaVuSerif-48"/>
      </g>
     </g>
    </g>
    <g id="xtick_15">
     <g id="line2d_23">
      <g>
       <use style="stroke:#000000;stroke-width:0.8;" x="964.897205" xlink:href="#m61f11f2ebc" y="379.2"/>
      </g>
     </g>
     <g id="text_22">
      <!-- 60 -->
      <g transform="translate(955.989705 396.837812)scale(0.14 -0.14)">
       <use xlink:href="#DejaVuSerif-54"/>
       <use x="63.623047" xlink:href="#DejaVuSerif-48"/>
      </g>
     </g>
    </g>
    <g id="xtick_16">
     <g id="line2d_24">
      <g>
       <use style="stroke:#000000;stroke-width:0.8;" x="1023.825338" xlink:href="#m61f11f2ebc" y="379.2"/>
      </g>
     </g>
     <g id="text_23">
      <!-- 70 -->
      <g transform="translate(1014.917838 396.837812)scale(0.14 -0.14)">
       <use xlink:href="#DejaVuSerif-55"/>
       <use x="63.623047" xlink:href="#DejaVuSerif-48"/>
      </g>
     </g>
    </g>
    <g id="text_24">
     <!-- Time [h] -->
     <g transform="translate(793.074141 416.666719)scale(0.17 -0.17)">
      <use xlink:href="#DejaVuSerif-84"/>
      <use x="66.699219" xlink:href="#DejaVuSerif-105"/>
      <use x="98.681641" xlink:href="#DejaVuSerif-109"/>
      <use x="193.505859" xlink:href="#DejaVuSerif-101"/>
      <use x="252.685547" xlink:href="#DejaVuSerif-32"/>
      <use x="284.472656" xlink:href="#DejaVuSerif-91"/>
      <use x="323.486328" xlink:href="#DejaVuSerif-104"/>
      <use x="387.890625" xlink:href="#DejaVuSerif-93"/>
     </g>
    </g>
   </g>
   <g id="matplotlib.axis_4">
    <g id="ytick_6">
     <g id="line2d_25">
      <g>
       <use style="stroke:#000000;stroke-width:0.8;" x="589.525" xlink:href="#m76f6d9ac53" y="346.209091"/>
      </g>
     </g>
     <g id="text_25">
      <!-- 0 -->
      <g transform="translate(573.6175 351.527997)scale(0.14 -0.14)">
       <use xlink:href="#DejaVuSerif-48"/>
      </g>
     </g>
    </g>
    <g id="ytick_7">
     <g id="line2d_26">
      <g>
       <use style="stroke:#000000;stroke-width:0.8;" x="589.525" xlink:href="#m76f6d9ac53" y="263.731818"/>
      </g>
     </g>
     <g id="text_26">
      <!-- 25 -->
      <g transform="translate(564.71 269.050724)scale(0.14 -0.14)">
       <use xlink:href="#DejaVuSerif-50"/>
       <use x="63.623047" xlink:href="#DejaVuSerif-53"/>
      </g>
     </g>
    </g>
    <g id="ytick_8">
     <g id="line2d_27">
      <g>
       <use style="stroke:#000000;stroke-width:0.8;" x="589.525" xlink:href="#m76f6d9ac53" y="181.254545"/>
      </g>
     </g>
     <g id="text_27">
      <!-- 50 -->
      <g transform="translate(564.71 186.573452)scale(0.14 -0.14)">
       <use xlink:href="#DejaVuSerif-53"/>
       <use x="63.623047" xlink:href="#DejaVuSerif-48"/>
      </g>
     </g>
    </g>
    <g id="ytick_9">
     <g id="line2d_28">
      <g>
       <use style="stroke:#000000;stroke-width:0.8;" x="589.525" xlink:href="#m76f6d9ac53" y="98.777273"/>
      </g>
     </g>
     <g id="text_28">
      <!-- 75 -->
      <g transform="translate(564.71 104.096179)scale(0.14 -0.14)">
       <use xlink:href="#DejaVuSerif-55"/>
       <use x="63.623047" xlink:href="#DejaVuSerif-53"/>
      </g>
     </g>
    </g>
    <g id="ytick_10">
     <g id="line2d_29">
      <g>
       <use style="stroke:#000000;stroke-width:0.8;" x="589.525" xlink:href="#m76f6d9ac53" y="16.3"/>
      </g>
     </g>
     <g id="text_29">
      <!-- 100 -->
      <g transform="translate(555.8025 21.618906)scale(0.14 -0.14)">
       <use xlink:href="#DejaVuSerif-49"/>
       <use x="63.623047" xlink:href="#DejaVuSerif-48"/>
       <use x="127.246094" xlink:href="#DejaVuSerif-48"/>
      </g>
     </g>
    </g>
   </g>
   <g id="line2d_30">
    <path clip-path="url(#p5e45252ada)" d="M 611.328409 346.209091 
L 611.546443 345.0179 
L 613.072682 323.717837 
L 615.034989 303.393416 
L 618.3055 271.45732 
L 620.921909 247.900874 
L 623.538318 226.353797 
L 625.936693 208.34421 
L 628.335068 191.913721 
L 630.733443 176.956828 
L 633.131818 163.364542 
L 635.530193 151.031182 
L 637.928568 139.857176 
L 640.326943 129.749834 
L 642.725318 120.623344 
L 645.123693 112.398557 
L 647.522068 105.002548 
L 649.920443 98.368154 
L 652.318818 92.433554 
L 654.499159 87.597765 
L 656.6795 83.253772 
L 658.859841 79.364972 
L 661.040182 75.897428 
L 663.220523 72.819677 
L 665.400864 70.102546 
L 667.581205 67.718991 
L 669.761545 65.643937 
L 671.941886 63.854141 
L 674.122227 62.328054 
L 676.520602 60.930139 
L 678.918977 59.802598 
L 681.317352 58.922833 
L 683.715727 58.270055 
L 686.332136 57.79438 
L 688.948545 57.543347 
L 691.782989 57.500839 
L 694.617432 57.673583 
L 697.669909 58.075412 
L 700.94042 58.727156 
L 704.428966 59.644896 
L 708.35358 60.916523 
L 712.496227 62.494853 
L 717.074943 64.477459 
L 722.307761 66.996187 
L 728.194682 70.087927 
L 734.953739 73.896255 
L 743.239034 78.834882 
L 753.922705 85.481103 
L 772.237568 97.183975 
L 795.567216 112.023701 
L 811.047636 121.599748 
L 825.219852 130.105789 
L 838.737966 137.963911 
L 852.25608 145.563606 
L 865.556159 152.786686 
L 878.856239 159.760149 
L 892.374352 166.597052 
L 905.674432 173.076555 
L 919.628614 179.632569 
L 933.582795 185.942922 
L 947.755011 192.108446 
L 962.145261 198.126478 
L 976.753545 203.995585 
L 991.579864 209.714638 
L 1006.84225 215.36188 
L 1022.32267 220.851255 
L 1038.021125 226.18271 
L 1047.396591 229.25784 
L 1047.396591 229.25784 
" style="fill:none;stroke:#0f2080;stroke-linecap:square;stroke-width:3;"/>
   </g>
   <g id="line2d_31">
    <path clip-path="url(#p5e45252ada)" d="M 611.328409 346.209091 
L 611.546443 345.039695 
L 612.200545 336.568772 
L 612.636614 333.409303 
L 613.072682 331.705368 
L 613.50875 330.704343 
L 614.162852 329.805035 
L 614.816955 329.263816 
L 615.689091 328.853785 
L 616.561227 328.680955 
L 617.651398 328.693354 
L 618.959602 328.930761 
L 620.921909 329.548147 
L 624.410455 330.944667 
L 630.733443 333.467981 
L 635.312159 335.048474 
L 640.108909 336.469463 
L 645.341727 337.779258 
L 651.010614 338.959774 
L 657.115568 340.002595 
L 664.092659 340.960288 
L 671.941886 341.802804 
L 680.881284 342.53149 
L 691.34692 343.155631 
L 703.992898 343.680734 
L 720.12742 344.116621 
L 741.93083 344.46751 
L 775.072011 344.755654 
L 837.429761 345.038623 
L 978.933886 345.423602 
L 1047.396591 345.559279 
L 1047.396591 345.559279 
" style="fill:none;stroke:#f57938;stroke-linecap:square;stroke-width:3;"/>
   </g>
   <g id="line2d_32">
    <path clip-path="url(#p5e45252ada)" d="M 611.328409 346.209091 
L 611.546443 346.187295 
L 611.764477 345.944399 
L 611.982511 345.319734 
L 612.41858 343.06065 
L 613.290716 336.40752 
L 615.034989 320.469012 
L 621.794045 256.825549 
L 624.410455 234.880459 
L 627.026864 214.86948 
L 629.425239 198.173536 
L 631.823614 182.959877 
L 634.221989 169.124865 
L 636.620364 156.564358 
L 639.018739 145.178853 
L 641.417114 134.874914 
L 643.815489 125.565783 
L 646.213864 117.17134 
L 648.612239 109.617681 
L 651.010614 102.836704 
L 653.408989 96.765726 
L 655.58933 91.814144 
L 657.76967 87.361579 
L 659.950011 83.370908 
L 662.130352 79.807714 
L 664.310693 76.640091 
L 666.491034 73.838452 
L 668.671375 71.37537 
L 670.851716 69.225417 
L 673.032057 67.36502 
L 675.212398 65.772321 
L 677.610773 64.305403 
L 680.009148 63.112998 
L 682.407523 62.172187 
L 684.805898 61.461886 
L 687.422307 60.927157 
L 690.038716 60.620615 
L 692.873159 60.521631 
L 695.707602 60.64137 
L 698.76008 60.989648 
L 702.030591 61.587687 
L 705.519136 62.451906 
L 709.225716 63.593782 
L 713.368364 65.105073 
L 717.94708 67.020116 
L 722.961864 69.361985 
L 728.63075 72.25762 
L 735.171773 75.853062 
L 743.021 80.430572 
L 753.050568 86.553573 
L 768.530989 96.302155 
L 797.965591 114.853851 
L 813.446011 124.318798 
L 827.618227 132.724406 
L 841.354375 140.611974 
L 854.872489 148.116311 
L 868.390602 155.363136 
L 881.908716 162.355111 
L 895.42683 169.096071 
L 909.599045 175.89793 
L 923.553227 182.347908 
L 937.725443 188.650814 
L 952.115693 194.803551 
L 966.723977 200.804153 
L 981.550295 206.651419 
L 996.594648 212.344526 
L 1011.857034 217.882984 
L 1027.555489 223.340795 
L 1043.471977 228.637163 
L 1047.396591 229.907652 
L 1047.396591 229.907652 
" style="fill:none;stroke:#85c0f9;stroke-dasharray:11.1,4.8;stroke-dashoffset:0;stroke-width:3;"/>
   </g>
   <g id="patch_8">
    <path d="M 589.525 379.2 
L 589.525 16.3 
" style="fill:none;stroke:#000000;stroke-linecap:square;stroke-linejoin:miter;stroke-width:0.8;"/>
   </g>
   <g id="patch_9">
    <path d="M 1069.2 379.2 
L 1069.2 16.3 
" style="fill:none;stroke:#000000;stroke-linecap:square;stroke-linejoin:miter;stroke-width:0.8;"/>
   </g>
   <g id="patch_10">
    <path d="M 589.525 379.2 
L 1069.2 379.2 
" style="fill:none;stroke:#000000;stroke-linecap:square;stroke-linejoin:miter;stroke-width:0.8;"/>
   </g>
   <g id="patch_11">
    <path d="M 589.525 16.3 
L 1069.2 16.3 
" style="fill:none;stroke:#000000;stroke-linecap:square;stroke-linejoin:miter;stroke-width:0.8;"/>
   </g>
  </g>
 </g>
 <defs>
  <clipPath id="pdbfc116522">
   <rect height="362.9" width="479.675" x="65.425" y="16.3"/>
  </clipPath>
  <clipPath id="p5e45252ada">
   <rect height="362.9" width="479.675" x="589.525" y="16.3"/>
  </clipPath>
 </defs>
</svg>
