<?xml version="1.0" encoding="utf-8" standalone="no"?>
<!DOCTYPE svg PUBLIC "-//W3C//DTD SVG 1.1//EN"
  "http://www.w3.org/Graphics/SVG/1.1/DTD/svg11.dtd">
<!-- Created with matplotlib (https://matplotlib.org/) -->
<svg height="432pt" version="1.1" viewBox="0 0 720 432" width="720pt" xmlns="http://www.w3.org/2000/svg" xmlns:xlink="http://www.w3.org/1999/xlink">
 <defs>
  <style type="text/css">
*{stroke-linecap:butt;stroke-linejoin:round;}
  </style>
 </defs>
 <g id="figure_1">
  <g id="patch_1">
   <path d="M 0 432 
L 720 432 
L 720 0 
L 0 0 
z
" style="fill:#ffffff;"/>
  </g>
  <g id="axes_1">
   <g id="patch_2">
    <path d="M 90 378 
L 648 378 
L 648 51.84 
L 90 51.84 
z
" style="fill:#ffffff;"/>
   </g>
   <g id="matplotlib.axis_1">
    <g id="xtick_1">
     <g id="line2d_1">
      <defs>
       <path d="M 0 0 
L 0 3.5 
" id="mbdc9c7a99d" style="stroke:#000000;stroke-width:0.8;"/>
      </defs>
      <g>
       <use style="stroke:#000000;stroke-width:0.8;" x="115.363636" xlink:href="#mbdc9c7a99d" y="378"/>
      </g>
     </g>
     <g id="text_1">
      <!-- 0 -->
      <defs>
       <path d="M 31.78125 3.421875 
Q 39.265625 3.421875 42.96875 11.625 
Q 46.6875 19.828125 46.6875 36.375 
Q 46.6875 52.984375 42.96875 61.1875 
Q 39.265625 69.390625 31.78125 69.390625 
Q 24.3125 69.390625 20.59375 61.1875 
Q 16.890625 52.984375 16.890625 36.375 
Q 16.890625 19.828125 20.59375 11.625 
Q 24.3125 3.421875 31.78125 3.421875 
z
M 31.78125 -1.421875 
Q 19.921875 -1.421875 13.25 8.53125 
Q 6.59375 18.5 6.59375 36.375 
Q 6.59375 54.296875 13.25 64.25 
Q 19.921875 74.21875 31.78125 74.21875 
Q 43.703125 74.21875 50.34375 64.25 
Q 56.984375 54.296875 56.984375 36.375 
Q 56.984375 18.5 50.34375 8.53125 
Q 43.703125 -1.421875 31.78125 -1.421875 
z
" id="DejaVuSerif-48"/>
      </defs>
      <g transform="translate(111.546136 394.118125)scale(0.12 -0.12)">
       <use xlink:href="#DejaVuSerif-48"/>
      </g>
     </g>
    </g>
    <g id="xtick_2">
     <g id="line2d_2">
      <g>
       <use style="stroke:#000000;stroke-width:0.8;" x="187.831169" xlink:href="#mbdc9c7a99d" y="378"/>
      </g>
     </g>
     <g id="text_2">
      <!-- 2 -->
      <defs>
       <path d="M 12.796875 55.515625 
L 7.328125 55.515625 
L 7.328125 68.5 
Q 12.546875 71.296875 17.84375 72.75 
Q 23.140625 74.21875 28.21875 74.21875 
Q 39.59375 74.21875 46.1875 68.703125 
Q 52.78125 63.1875 52.78125 53.71875 
Q 52.78125 43.015625 37.84375 28.125 
Q 36.671875 27 36.078125 26.421875 
L 17.671875 8.015625 
L 48.09375 8.015625 
L 48.09375 17 
L 53.8125 17 
L 53.8125 0 
L 6.78125 0 
L 6.78125 5.328125 
L 28.90625 27.390625 
Q 36.234375 34.71875 39.359375 40.84375 
Q 42.484375 46.96875 42.484375 53.71875 
Q 42.484375 61.078125 38.640625 65.234375 
Q 34.8125 69.390625 28.078125 69.390625 
Q 21.09375 69.390625 17.28125 65.921875 
Q 13.484375 62.453125 12.796875 55.515625 
z
" id="DejaVuSerif-50"/>
      </defs>
      <g transform="translate(184.013669 394.118125)scale(0.12 -0.12)">
       <use xlink:href="#DejaVuSerif-50"/>
      </g>
     </g>
    </g>
    <g id="xtick_3">
     <g id="line2d_3">
      <g>
       <use style="stroke:#000000;stroke-width:0.8;" x="260.298701" xlink:href="#mbdc9c7a99d" y="378"/>
      </g>
     </g>
     <g id="text_3">
      <!-- 4 -->
      <defs>
       <path d="M 34.90625 24.703125 
L 34.90625 63.484375 
L 10.015625 24.703125 
z
M 56.390625 0 
L 23.1875 0 
L 23.1875 5.171875 
L 34.90625 5.171875 
L 34.90625 19.484375 
L 3.078125 19.484375 
L 3.078125 24.8125 
L 35.015625 74.21875 
L 44.671875 74.21875 
L 44.671875 24.703125 
L 58.59375 24.703125 
L 58.59375 19.484375 
L 44.671875 19.484375 
L 44.671875 5.171875 
L 56.390625 5.171875 
z
" id="DejaVuSerif-52"/>
      </defs>
      <g transform="translate(256.481201 394.118125)scale(0.12 -0.12)">
       <use xlink:href="#DejaVuSerif-52"/>
      </g>
     </g>
    </g>
    <g id="xtick_4">
     <g id="line2d_4">
      <g>
       <use style="stroke:#000000;stroke-width:0.8;" x="332.766234" xlink:href="#mbdc9c7a99d" y="378"/>
      </g>
     </g>
     <g id="text_4">
      <!-- 6 -->
      <defs>
       <path d="M 32.71875 3.421875 
Q 39.59375 3.421875 43.296875 8.46875 
Q 47.015625 13.53125 47.015625 23 
Q 47.015625 32.46875 43.296875 37.515625 
Q 39.59375 42.578125 32.71875 42.578125 
Q 25.734375 42.578125 22.0625 37.6875 
Q 18.40625 32.8125 18.40625 23.578125 
Q 18.40625 13.875 22.109375 8.640625 
Q 25.828125 3.421875 32.71875 3.421875 
z
M 16.796875 40.140625 
Q 20.125 43.796875 24.3125 45.59375 
Q 28.515625 47.40625 33.796875 47.40625 
Q 44.671875 47.40625 51 40.859375 
Q 57.328125 34.328125 57.328125 23 
Q 57.328125 11.921875 50.515625 5.25 
Q 43.703125 -1.421875 32.328125 -1.421875 
Q 19.96875 -1.421875 13.328125 7.78125 
Q 6.6875 17 6.6875 34.078125 
Q 6.6875 53.21875 14.546875 63.71875 
Q 22.40625 74.21875 36.71875 74.21875 
Q 40.578125 74.21875 44.828125 73.484375 
Q 49.078125 72.75 53.515625 71.296875 
L 53.515625 59.28125 
L 48 59.28125 
Q 47.40625 64.203125 44.234375 66.796875 
Q 41.0625 69.390625 35.6875 69.390625 
Q 26.21875 69.390625 21.578125 62.203125 
Q 16.9375 55.03125 16.796875 40.140625 
z
" id="DejaVuSerif-54"/>
      </defs>
      <g transform="translate(328.948734 394.118125)scale(0.12 -0.12)">
       <use xlink:href="#DejaVuSerif-54"/>
      </g>
     </g>
    </g>
    <g id="xtick_5">
     <g id="line2d_5">
      <g>
       <use style="stroke:#000000;stroke-width:0.8;" x="405.233766" xlink:href="#mbdc9c7a99d" y="378"/>
      </g>
     </g>
     <g id="text_5">
      <!-- 8 -->
      <defs>
       <path d="M 46.578125 19.921875 
Q 46.578125 27.734375 42.6875 32.046875 
Q 38.8125 36.375 31.78125 36.375 
Q 24.75 36.375 20.875 32.046875 
Q 17 27.734375 17 19.921875 
Q 17 12.0625 20.875 7.734375 
Q 24.75 3.421875 31.78125 3.421875 
Q 38.8125 3.421875 42.6875 7.734375 
Q 46.578125 12.0625 46.578125 19.921875 
z
M 44.578125 55.328125 
Q 44.578125 61.96875 41.203125 65.671875 
Q 37.84375 69.390625 31.78125 69.390625 
Q 25.78125 69.390625 22.390625 65.671875 
Q 19 61.96875 19 55.328125 
Q 19 48.640625 22.390625 44.921875 
Q 25.78125 41.21875 31.78125 41.21875 
Q 37.84375 41.21875 41.203125 44.921875 
Q 44.578125 48.640625 44.578125 55.328125 
z
M 39.3125 38.8125 
Q 47.609375 37.703125 52.25 32.6875 
Q 56.890625 27.6875 56.890625 19.921875 
Q 56.890625 9.671875 50.390625 4.125 
Q 43.890625 -1.421875 31.78125 -1.421875 
Q 19.734375 -1.421875 13.203125 4.125 
Q 6.6875 9.671875 6.6875 19.921875 
Q 6.6875 27.6875 11.328125 32.6875 
Q 15.96875 37.703125 24.3125 38.8125 
Q 16.9375 40.140625 13 44.40625 
Q 9.078125 48.6875 9.078125 55.328125 
Q 9.078125 64.109375 15.125 69.15625 
Q 21.1875 74.21875 31.78125 74.21875 
Q 42.390625 74.21875 48.4375 69.15625 
Q 54.5 64.109375 54.5 55.328125 
Q 54.5 48.6875 50.5625 44.40625 
Q 46.625 40.140625 39.3125 38.8125 
z
" id="DejaVuSerif-56"/>
      </defs>
      <g transform="translate(401.416266 394.118125)scale(0.12 -0.12)">
       <use xlink:href="#DejaVuSerif-56"/>
      </g>
     </g>
    </g>
    <g id="xtick_6">
     <g id="line2d_6">
      <g>
       <use style="stroke:#000000;stroke-width:0.8;" x="477.701299" xlink:href="#mbdc9c7a99d" y="378"/>
      </g>
     </g>
     <g id="text_6">
      <!-- 10 -->
      <defs>
       <path d="M 14.203125 0 
L 14.203125 5.171875 
L 26.90625 5.171875 
L 26.90625 65.828125 
L 12.203125 56.296875 
L 12.203125 62.703125 
L 29.984375 74.21875 
L 36.71875 74.21875 
L 36.71875 5.171875 
L 49.421875 5.171875 
L 49.421875 0 
z
" id="DejaVuSerif-49"/>
      </defs>
      <g transform="translate(470.066299 394.118125)scale(0.12 -0.12)">
       <use xlink:href="#DejaVuSerif-49"/>
       <use x="63.623047" xlink:href="#DejaVuSerif-48"/>
      </g>
     </g>
    </g>
    <g id="xtick_7">
     <g id="line2d_7">
      <g>
       <use style="stroke:#000000;stroke-width:0.8;" x="550.168831" xlink:href="#mbdc9c7a99d" y="378"/>
      </g>
     </g>
     <g id="text_7">
      <!-- 12 -->
      <g transform="translate(542.533831 394.118125)scale(0.12 -0.12)">
       <use xlink:href="#DejaVuSerif-49"/>
       <use x="63.623047" xlink:href="#DejaVuSerif-50"/>
      </g>
     </g>
    </g>
    <g id="xtick_8">
     <g id="line2d_8">
      <g>
       <use style="stroke:#000000;stroke-width:0.8;" x="622.636364" xlink:href="#mbdc9c7a99d" y="378"/>
      </g>
     </g>
     <g id="text_8">
      <!-- 14 -->
      <g transform="translate(615.001364 394.118125)scale(0.12 -0.12)">
       <use xlink:href="#DejaVuSerif-49"/>
       <use x="63.623047" xlink:href="#DejaVuSerif-52"/>
      </g>
     </g>
    </g>
    <g id="text_9">
     <!-- Time [d] -->
     <defs>
      <path d="M 19.09375 0 
L 19.09375 5.171875 
L 28.421875 5.171875 
L 28.421875 67.09375 
L 6.984375 67.09375 
L 6.984375 55.71875 
L 0.984375 55.71875 
L 0.984375 72.90625 
L 65.71875 72.90625 
L 65.71875 55.71875 
L 59.71875 55.71875 
L 59.71875 67.09375 
L 38.28125 67.09375 
L 38.28125 5.171875 
L 47.609375 5.171875 
L 47.609375 0 
z
" id="DejaVuSerif-84"/>
      <path d="M 9.71875 68.015625 
Q 9.71875 70.265625 11.34375 71.921875 
Q 12.984375 73.578125 15.28125 73.578125 
Q 17.53125 73.578125 19.15625 71.921875 
Q 20.796875 70.265625 20.796875 68.015625 
Q 20.796875 65.71875 19.1875 64.109375 
Q 17.578125 62.5 15.28125 62.5 
Q 12.984375 62.5 11.34375 64.109375 
Q 9.71875 65.71875 9.71875 68.015625 
z
M 21.1875 5.171875 
L 29.6875 5.171875 
L 29.6875 0 
L 3.609375 0 
L 3.609375 5.171875 
L 12.203125 5.171875 
L 12.203125 46.6875 
L 3.609375 46.6875 
L 3.609375 51.90625 
L 21.1875 51.90625 
z
" id="DejaVuSerif-105"/>
      <path d="M 51.8125 41.796875 
Q 54.390625 47.515625 58.421875 50.421875 
Q 62.453125 53.328125 67.828125 53.328125 
Q 75.984375 53.328125 79.984375 48.265625 
Q 83.984375 43.21875 83.984375 33.015625 
L 83.984375 5.171875 
L 92.09375 5.171875 
L 92.09375 0 
L 67.1875 0 
L 67.1875 5.171875 
L 75 5.171875 
L 75 31.984375 
Q 75 39.9375 72.65625 43.3125 
Q 70.3125 46.6875 64.890625 46.6875 
Q 58.890625 46.6875 55.734375 42.140625 
Q 52.59375 37.59375 52.59375 28.90625 
L 52.59375 5.171875 
L 60.40625 5.171875 
L 60.40625 0 
L 35.796875 0 
L 35.796875 5.171875 
L 43.609375 5.171875 
L 43.609375 32.328125 
Q 43.609375 40.09375 41.265625 43.390625 
Q 38.921875 46.6875 33.5 46.6875 
Q 27.484375 46.6875 24.328125 42.140625 
Q 21.1875 37.59375 21.1875 28.90625 
L 21.1875 5.171875 
L 29 5.171875 
L 29 0 
L 4.109375 0 
L 4.109375 5.171875 
L 12.203125 5.171875 
L 12.203125 46.78125 
L 3.609375 46.78125 
L 3.609375 51.90625 
L 21.1875 51.90625 
L 21.1875 42.671875 
Q 23.6875 47.859375 27.53125 50.59375 
Q 31.390625 53.328125 36.28125 53.328125 
Q 42.328125 53.328125 46.375 50.3125 
Q 50.4375 47.3125 51.8125 41.796875 
z
" id="DejaVuSerif-109"/>
      <path d="M 54.203125 25 
L 15.484375 25 
L 15.484375 24.609375 
Q 15.484375 14.109375 19.4375 8.765625 
Q 23.390625 3.421875 31.109375 3.421875 
Q 37.015625 3.421875 40.796875 6.515625 
Q 44.578125 9.625 46.09375 15.71875 
L 53.328125 15.71875 
Q 51.171875 7.171875 45.375 2.875 
Q 39.59375 -1.421875 30.171875 -1.421875 
Q 18.796875 -1.421875 11.890625 6.078125 
Q 4.984375 13.578125 4.984375 25.984375 
Q 4.984375 38.28125 11.765625 45.796875 
Q 18.5625 53.328125 29.59375 53.328125 
Q 41.359375 53.328125 47.65625 46.0625 
Q 53.953125 38.8125 54.203125 25 
z
M 43.609375 30.171875 
Q 43.3125 39.265625 39.765625 43.875 
Q 36.234375 48.484375 29.59375 48.484375 
Q 23.390625 48.484375 19.828125 43.84375 
Q 16.265625 39.203125 15.484375 30.171875 
z
" id="DejaVuSerif-101"/>
      <path id="DejaVuSerif-32"/>
      <path d="M 8.59375 75.984375 
L 31.296875 75.984375 
L 31.296875 70.796875 
L 17.921875 70.796875 
L 17.921875 -8.015625 
L 31.296875 -8.015625 
L 31.296875 -13.1875 
L 8.59375 -13.1875 
z
" id="DejaVuSerif-91"/>
      <path d="M 52.484375 5.171875 
L 61.078125 5.171875 
L 61.078125 0 
L 43.5 0 
L 43.5 8.109375 
Q 40.875 3.21875 36.796875 0.890625 
Q 32.71875 -1.421875 26.703125 -1.421875 
Q 17.140625 -1.421875 11.0625 6.171875 
Q 4.984375 13.765625 4.984375 25.984375 
Q 4.984375 38.1875 11.03125 45.75 
Q 17.09375 53.328125 26.703125 53.328125 
Q 32.71875 53.328125 36.796875 51 
Q 40.875 48.6875 43.5 43.796875 
L 43.5 70.796875 
L 35.015625 70.796875 
L 35.015625 75.984375 
L 52.484375 75.984375 
z
M 43.5 23.390625 
L 43.5 28.515625 
Q 43.5 37.84375 39.90625 42.765625 
Q 36.328125 47.703125 29.5 47.703125 
Q 22.5625 47.703125 19.015625 42.234375 
Q 15.484375 36.765625 15.484375 25.984375 
Q 15.484375 15.234375 19.015625 9.71875 
Q 22.5625 4.203125 29.5 4.203125 
Q 36.328125 4.203125 39.90625 9.109375 
Q 43.5 14.015625 43.5 23.390625 
z
" id="DejaVuSerif-100"/>
      <path d="M 30.421875 75.984375 
L 30.421875 -13.1875 
L 7.71875 -13.1875 
L 7.71875 -8.015625 
L 21.09375 -8.015625 
L 21.09375 70.796875 
L 7.71875 70.796875 
L 7.71875 75.984375 
z
" id="DejaVuSerif-93"/>
     </defs>
     <g transform="translate(332.744844 413.531094)scale(0.17 -0.17)">
      <use xlink:href="#DejaVuSerif-84"/>
      <use x="66.699219" xlink:href="#DejaVuSerif-105"/>
      <use x="98.681641" xlink:href="#DejaVuSerif-109"/>
      <use x="193.505859" xlink:href="#DejaVuSerif-101"/>
      <use x="252.685547" xlink:href="#DejaVuSerif-32"/>
      <use x="284.472656" xlink:href="#DejaVuSerif-91"/>
      <use x="323.486328" xlink:href="#DejaVuSerif-100"/>
      <use x="387.5" xlink:href="#DejaVuSerif-93"/>
     </g>
    </g>
   </g>
   <g id="matplotlib.axis_2">
    <g id="ytick_1">
     <g id="line2d_9">
      <defs>
       <path d="M 0 0 
L -3.5 0 
" id="md10223755a" style="stroke:#000000;stroke-width:0.8;"/>
      </defs>
      <g>
       <use style="stroke:#000000;stroke-width:0.8;" x="90" xlink:href="#md10223755a" y="362.468571"/>
      </g>
     </g>
     <g id="text_10">
      <!-- 0.0 -->
      <defs>
       <path d="M 9.421875 5.078125 
Q 9.421875 7.8125 11.28125 9.71875 
Q 13.140625 11.625 15.921875 11.625 
Q 18.609375 11.625 20.5 9.71875 
Q 22.40625 7.8125 22.40625 5.078125 
Q 22.40625 2.390625 20.5 0.484375 
Q 18.609375 -1.421875 15.921875 -1.421875 
Q 13.140625 -1.421875 11.28125 0.453125 
Q 9.421875 2.34375 9.421875 5.078125 
z
" id="DejaVuSerif-46"/>
      </defs>
      <g transform="translate(63.91625 367.027634)scale(0.12 -0.12)">
       <use xlink:href="#DejaVuSerif-48"/>
       <use x="63.623047" xlink:href="#DejaVuSerif-46"/>
       <use x="95.410156" xlink:href="#DejaVuSerif-48"/>
      </g>
     </g>
    </g>
    <g id="ytick_2">
     <g id="line2d_10">
      <g>
       <use style="stroke:#000000;stroke-width:0.8;" x="90" xlink:href="#md10223755a" y="300.342857"/>
      </g>
     </g>
     <g id="text_11">
      <!-- 0.2 -->
      <g transform="translate(63.91625 304.90192)scale(0.12 -0.12)">
       <use xlink:href="#DejaVuSerif-48"/>
       <use x="63.623047" xlink:href="#DejaVuSerif-46"/>
       <use x="95.410156" xlink:href="#DejaVuSerif-50"/>
      </g>
     </g>
    </g>
    <g id="ytick_3">
     <g id="line2d_11">
      <g>
       <use style="stroke:#000000;stroke-width:0.8;" x="90" xlink:href="#md10223755a" y="238.217143"/>
      </g>
     </g>
     <g id="text_12">
      <!-- 0.4 -->
      <g transform="translate(63.91625 242.776205)scale(0.12 -0.12)">
       <use xlink:href="#DejaVuSerif-48"/>
       <use x="63.623047" xlink:href="#DejaVuSerif-46"/>
       <use x="95.410156" xlink:href="#DejaVuSerif-52"/>
      </g>
     </g>
    </g>
    <g id="ytick_4">
     <g id="line2d_12">
      <g>
       <use style="stroke:#000000;stroke-width:0.8;" x="90" xlink:href="#md10223755a" y="176.091429"/>
      </g>
     </g>
     <g id="text_13">
      <!-- 0.6 -->
      <g transform="translate(63.91625 180.650491)scale(0.12 -0.12)">
       <use xlink:href="#DejaVuSerif-48"/>
       <use x="63.623047" xlink:href="#DejaVuSerif-46"/>
       <use x="95.410156" xlink:href="#DejaVuSerif-54"/>
      </g>
     </g>
    </g>
    <g id="ytick_5">
     <g id="line2d_13">
      <g>
       <use style="stroke:#000000;stroke-width:0.8;" x="90" xlink:href="#md10223755a" y="113.965714"/>
      </g>
     </g>
     <g id="text_14">
      <!-- 0.8 -->
      <g transform="translate(63.91625 118.524777)scale(0.12 -0.12)">
       <use xlink:href="#DejaVuSerif-48"/>
       <use x="63.623047" xlink:href="#DejaVuSerif-46"/>
       <use x="95.410156" xlink:href="#DejaVuSerif-56"/>
      </g>
     </g>
    </g>
    <g id="ytick_6">
     <g id="line2d_14">
      <g>
       <use style="stroke:#000000;stroke-width:0.8;" x="90" xlink:href="#md10223755a" y="51.84"/>
      </g>
     </g>
     <g id="text_15">
      <!-- 1.0 -->
      <g transform="translate(63.91625 56.399062)scale(0.12 -0.12)">
       <use xlink:href="#DejaVuSerif-49"/>
       <use x="63.623047" xlink:href="#DejaVuSerif-46"/>
       <use x="95.410156" xlink:href="#DejaVuSerif-48"/>
      </g>
     </g>
    </g>
   </g>
   <g id="line2d_15">
    <path clip-path="url(#pdb3be74f5c)" d="M 115.363636 362.468571 
L 115.617273 261.755173 
L 115.870909 220.282999 
L 116.124545 206.799166 
L 116.378182 200.55444 
L 116.631818 197.786502 
L 116.885455 197.308546 
L 117.139091 198.370238 
L 117.646364 203.353119 
L 118.660909 217.924089 
L 120.436364 243.874922 
L 121.704545 259.669618 
L 122.972727 273.093847 
L 124.240909 284.45532 
L 125.509091 294.067535 
L 126.777273 302.202313 
L 128.045455 309.091934 
L 129.313636 314.931879 
L 130.581818 319.886731 
L 131.85 324.095639 
L 133.371818 328.325289 
L 134.893636 331.815974 
L 136.415455 334.70415 
L 137.937273 337.101215 
L 139.459091 339.097899 
L 140.980909 340.767856 
L 142.756364 342.382474 
L 144.531818 343.709922 
L 146.560909 344.95202 
L 148.843636 346.080543 
L 151.38 347.086267 
L 151.633636 342.878585 
L 151.887273 236.614134 
L 152.140909 202.395616 
L 152.394545 190.512251 
L 152.648182 184.985258 
L 152.901818 182.708824 
L 153.155455 182.563443 
L 153.409091 183.89021 
L 153.916364 189.227389 
L 154.930909 204.187998 
L 156.706364 230.529005 
L 157.974545 246.541921 
L 159.242727 260.18092 
L 160.510909 271.749163 
L 161.779091 281.554809 
L 163.047273 289.87925 
L 164.315455 296.95129 
L 165.583636 302.970148 
L 166.851818 308.099499 
L 168.373636 313.274113 
L 169.895455 317.567119 
L 171.417273 321.141818 
L 172.939091 324.129875 
L 174.460909 326.638628 
L 175.982727 328.756188 
L 177.758182 330.827362 
L 179.533636 332.554189 
L 181.562727 334.196839 
L 183.591818 335.565526 
L 185.874545 336.855862 
L 187.65 337.718409 
L 187.903636 319.40708 
L 188.157273 219.242191 
L 188.410909 190.722342 
L 188.664545 180.182816 
L 188.918182 175.241571 
L 189.171818 173.348522 
L 189.425455 173.476207 
L 189.679091 174.995089 
L 190.186364 180.572545 
L 191.454545 199.697624 
L 193.23 225.586534 
L 194.498182 241.151598 
L 195.766364 254.411319 
L 197.034545 265.66506 
L 198.302727 275.226156 
L 199.570909 283.362507 
L 200.839091 290.290659 
L 202.360909 297.274193 
L 203.882727 303.067288 
L 205.404545 307.886697 
L 206.926364 311.911418 
L 208.448182 315.288421 
L 209.97 318.135488 
L 211.491818 320.55004 
L 213.267273 322.92476 
L 215.042727 324.917508 
L 217.071818 326.827889 
L 219.100909 328.434064 
L 221.383636 329.963486 
L 223.92 331.403638 
L 224.173636 294.222142 
L 224.427273 206.381526 
L 224.680909 182.36269 
L 224.934545 172.97569 
L 225.188182 168.571163 
L 225.441818 167.031527 
L 225.695455 167.409398 
L 225.949091 169.104027 
L 226.456364 174.893834 
L 227.724545 194.18683 
L 229.5 220.105229 
L 230.768182 235.681484 
L 232.036364 248.959665 
L 233.304545 260.239517 
L 234.572727 269.834333 
L 235.840909 278.010462 
L 237.109091 284.982818 
L 238.630909 292.024282 
L 240.152727 297.879848 
L 241.674545 302.765138 
L 243.196364 306.858018 
L 244.718182 310.305021 
L 246.24 313.22324 
L 247.761818 315.709628 
L 249.537273 318.168663 
L 251.312727 320.245781 
L 253.341818 322.252105 
L 255.370909 323.953438 
L 257.653636 325.58863 
L 260.19 327.144328 
L 260.950909 176.281309 
L 261.204545 167.890618 
L 261.458182 163.985356 
L 261.711818 162.77498 
L 261.965455 163.385715 
L 262.219091 165.241826 
L 262.726364 171.22303 
L 264.248182 194.598751 
L 265.77 216.557024 
L 267.038182 232.11822 
L 268.306364 245.389178 
L 269.574545 256.66994 
L 270.842727 266.27347 
L 272.110909 274.464421 
L 273.379091 281.456436 
L 274.900909 288.527059 
L 276.422727 294.416698 
L 277.944545 299.339778 
L 279.466364 303.47327 
L 280.988182 306.963094 
L 282.51 309.925734 
L 284.031818 312.457679 
L 285.807273 314.970862 
L 287.582727 317.102736 
L 289.611818 319.171894 
L 291.640909 320.935979 
L 293.923636 322.641301 
L 296.46 324.273961 
L 296.967273 189.341146 
L 297.220909 171.780465 
L 297.474545 164.262034 
L 297.728182 160.823283 
L 297.981818 159.921027 
L 298.235455 160.750327 
L 298.742727 165.569245 
L 299.503636 176.463276 
L 301.786364 210.908234 
L 303.054545 226.930328 
L 304.322727 240.607723 
L 305.590909 252.244217 
L 306.859091 262.150349 
L 308.127273 270.601487 
L 309.395455 277.820092 
L 310.917273 285.122044 
L 312.439091 291.206592 
L 313.960909 296.295763 
L 315.482727 300.571457 
L 317.004545 304.183934 
L 318.526364 307.253279 
L 320.048182 309.878745 
L 321.823636 312.487489 
L 323.599091 314.703227 
L 325.628182 316.856828 
L 327.657273 318.695721 
L 329.94 320.476296 
L 332.476364 322.184078 
L 332.73 322.342149 
L 333.237273 183.63438 
L 333.490909 168.387903 
L 333.744545 161.636763 
L 333.998182 158.635978 
L 334.251818 158.02556 
L 334.505455 159.058727 
L 335.012727 164.113643 
L 336.027273 179.124605 
L 338.056364 209.556907 
L 339.324545 225.53286 
L 340.592727 239.172811 
L 341.860909 250.779768 
L 343.129091 260.664962 
L 344.397273 269.101841 
L 345.665455 276.311555 
L 347.187273 283.60911 
L 348.709091 289.694826 
L 350.230909 294.789465 
L 351.752727 299.074122 
L 353.274545 302.698317 
L 354.796364 305.781542 
L 356.318182 308.422593 
L 358.093636 311.051157 
L 359.869091 313.288008 
L 361.898182 315.466842 
L 363.927273 317.331735 
L 366.21 319.142062 
L 368.746364 320.883125 
L 369 321.044524 
L 369.253636 220.484887 
L 369.507273 179.145608 
L 369.760909 165.78095 
L 370.014545 159.711364 
L 370.268182 157.123068 
L 370.521818 156.788737 
L 370.775455 158.010898 
L 371.282727 163.286377 
L 372.297273 178.423581 
L 374.326364 208.802275 
L 375.594545 224.72445 
L 376.862727 238.319419 
L 378.130909 249.88849 
L 379.399091 259.745339 
L 380.667273 268.160939 
L 381.935455 275.354363 
L 383.457273 282.63814 
L 384.979091 288.7161 
L 386.500909 293.807748 
L 388.022727 298.092764 
L 389.544545 301.720341 
L 391.066364 304.809263 
L 392.588182 307.457731 
L 394.363636 310.096846 
L 396.139091 312.345741 
L 398.168182 314.539548 
L 400.197273 316.420394 
L 402.48 318.249463 
L 405.016364 320.011872 
L 405.27 315.878653 
L 405.523636 209.688285 
L 405.777273 175.543688 
L 406.030909 163.7341 
L 406.284545 158.280708 
L 406.538182 156.077626 
L 406.791818 156.005583 
L 407.045455 157.405082 
L 407.552727 162.887116 
L 408.567273 178.136708 
L 410.342727 204.973906 
L 411.864545 224.312927 
L 413.132727 237.857342 
L 414.400909 249.38425 
L 415.669091 259.20739 
L 416.937273 267.59623 
L 418.459091 276.073432 
L 419.980909 283.120345 
L 421.502727 289.007589 
L 423.024545 293.944845 
L 424.546364 298.106154 
L 426.068182 301.634519 
L 427.59 304.644166 
L 429.365455 307.625139 
L 431.140909 310.148216 
L 432.916364 312.307228 
L 434.945455 314.423476 
L 437.228182 316.458224 
L 439.764545 318.395181 
L 441.286364 319.430972 
L 441.54 301.1697 
L 441.793636 201.054589 
L 442.047273 172.584497 
L 442.300909 162.094563 
L 442.554545 157.202837 
L 442.808182 155.359167 
L 443.061818 155.536132 
L 443.315455 157.103898 
L 443.822727 162.779153 
L 445.090909 182.146969 
L 446.866364 208.36917 
L 448.134545 224.169207 
L 449.402727 237.659605 
L 450.670909 249.14103 
L 451.939091 258.927142 
L 453.207273 267.285821 
L 454.729091 275.733914 
L 456.250909 282.758906 
L 457.772727 288.629683 
L 459.294545 293.554803 
L 460.816364 297.70762 
L 462.338182 301.230383 
L 463.86 304.236758 
L 465.635455 307.216289 
L 467.410909 309.739899 
L 469.186364 311.900983 
L 471.215455 314.021015 
L 473.498182 316.061356 
L 476.034545 318.005658 
L 477.556364 319.046255 
L 477.81 281.89857 
L 478.063636 194.091612 
L 478.317273 170.106396 
L 478.570909 160.7529 
L 478.824545 156.381828 
L 479.078182 154.875553 
L 479.331818 155.28673 
L 479.585455 157.014434 
L 480.092727 162.870274 
L 481.360909 182.327214 
L 483.136364 208.470904 
L 484.404545 224.205852 
L 485.672727 237.639952 
L 486.940909 249.073752 
L 488.209091 258.820672 
L 489.477273 267.146929 
L 490.999091 275.563318 
L 492.520909 282.563744 
L 494.042727 288.415447 
L 495.564545 293.325851 
L 497.086364 297.467621 
L 498.608182 300.982255 
L 500.13 303.982862 
L 501.905455 306.958078 
L 503.680909 309.479391 
L 505.456364 311.639767 
L 507.485455 313.760462 
L 509.768182 315.802958 
L 512.304545 317.750878 
L 513.826364 318.794091 
L 514.587273 167.999391 
L 514.840909 159.631333 
L 515.094545 155.748678 
L 515.348182 154.560841 
L 515.601818 155.194082 
L 515.855455 157.072523 
L 516.362727 163.098372 
L 517.884545 186.606815 
L 519.406364 208.695376 
L 520.674545 224.363785 
L 521.942727 237.740099 
L 523.210909 249.124931 
L 524.479091 258.831227 
L 525.747273 267.123618 
L 527.269091 275.506625 
L 528.790909 282.480731 
L 530.312727 288.311636 
L 531.834545 293.205613 
L 533.356364 297.334635 
L 534.878182 300.839451 
L 536.4 303.83262 
L 538.175455 306.801596 
L 539.950909 309.318712 
L 541.726364 311.476511 
L 543.755455 313.59577 
L 546.038182 315.638105 
L 548.574545 317.58713 
L 550.096364 318.631481 
L 550.603636 183.729486 
L 550.857273 166.184133 
L 551.110909 158.681018 
L 551.364545 155.257534 
L 551.618182 154.370514 
L 551.871818 155.215013 
L 552.379091 160.064118 
L 553.14 171.003282 
L 555.422727 205.581312 
L 556.690909 221.676017 
L 557.959091 235.424916 
L 559.227273 247.131819 
L 560.495455 257.107594 
L 561.763636 265.627433 
L 563.285455 274.240185 
L 564.807273 281.400769 
L 566.329091 287.38389 
L 567.850909 292.402979 
L 569.372727 296.634555 
L 570.894545 300.223558 
L 572.416364 303.286078 
L 574.191818 306.320732 
L 575.967273 308.890462 
L 577.742727 311.090614 
L 579.771818 313.248502 
L 582.054545 315.324673 
L 584.590909 317.302532 
L 586.366364 318.52938 
L 586.873636 179.842426 
L 587.127273 164.606327 
L 587.380909 157.865532 
L 587.634545 154.875059 
L 587.888182 154.274933 
L 588.141818 155.318376 
L 588.649091 160.393693 
L 589.663636 175.445283 
L 591.692727 205.95737 
L 592.960909 221.982393 
L 594.229091 235.670652 
L 595.497273 247.325191 
L 596.765455 257.257442 
L 598.033636 265.740752 
L 599.555455 274.317062 
L 601.077273 281.448465 
L 602.599091 287.408111 
L 604.120909 292.408235 
L 605.642727 296.624654 
L 607.164545 300.201532 
L 608.686364 303.254404 
L 610.461818 306.280339 
L 612.237273 308.843489 
L 614.012727 311.038763 
L 616.041818 313.192674 
L 618.324545 315.265928 
L 620.860909 317.241939 
L 622.636364 318.468141 
L 622.636364 318.468141 
" style="fill:none;stroke:#f57938;stroke-linecap:square;stroke-width:3;"/>
   </g>
   <g id="line2d_16">
    <path clip-path="url(#pdb3be74f5c)" d="M 115.363636 362.468571 
L 115.617273 261.755173 
L 115.870909 220.282999 
L 116.124545 206.799166 
L 116.378182 200.55444 
L 116.631818 197.786502 
L 116.885455 197.308546 
L 117.139091 198.370238 
L 117.646364 203.353119 
L 118.660909 217.924089 
L 120.436364 243.874922 
L 121.704545 259.669618 
L 122.972727 273.093847 
L 124.240909 284.45532 
L 125.509091 294.067535 
L 126.777273 302.202313 
L 128.045455 309.091934 
L 129.313636 314.931879 
L 130.581818 319.886731 
L 131.85 324.095639 
L 133.371818 328.325289 
L 134.893636 331.815974 
L 136.415455 334.70415 
L 137.937273 337.101215 
L 139.459091 339.097899 
L 140.980909 340.767856 
L 142.756364 342.382474 
L 144.531818 343.709922 
L 146.560909 344.95202 
L 148.843636 346.080543 
L 151.38 347.086267 
L 154.423636 348.046705 
L 158.228182 348.992624 
L 163.047273 349.932673 
L 169.388182 350.922351 
L 178.011818 352.029542 
L 189.679091 353.293771 
L 204.39 354.648262 
L 220.369091 355.889105 
L 237.87 357.022057 
L 257.146364 358.048929 
L 278.451818 358.957228 
L 302.547273 359.763036 
L 330.954545 360.479474 
L 363.166364 361.063975 
L 402.733636 361.553839 
L 451.431818 361.928627 
L 518.391818 362.207566 
L 620.1 362.382183 
L 622.636364 362.384637 
L 622.636364 362.384637 
" style="fill:none;stroke:#f57938;stroke-dasharray:11.1,4.8;stroke-dashoffset:0;stroke-width:3;"/>
   </g>
   <g id="line2d_17">
    <path clip-path="url(#pdb3be74f5c)" d="M 115.363636 308.284971 
L 120.487603 306.792831 
L 125.61157 305.300691 
L 130.735537 303.808551 
L 135.859504 302.316411 
L 140.983471 300.824271 
L 146.107438 299.332131 
L 151.231405 297.839991 
L 156.355372 296.529291 
L 161.479339 295.508894 
L 166.603306 294.488496 
L 171.727273 293.468099 
L 176.85124 292.447702 
L 181.975207 291.427305 
L 187.099174 290.406908 
L 192.22314 289.386511 
L 197.347107 288.61819 
L 202.471074 287.925491 
L 207.595041 287.232793 
L 212.719008 286.540094 
L 217.842975 285.847395 
L 222.966942 285.154697 
L 228.090909 284.461998 
L 233.214876 283.803787 
L 238.338843 283.335255 
L 243.46281 282.866723 
L 248.586777 282.398191 
L 253.710744 281.929659 
L 258.834711 281.461127 
L 263.958678 280.992596 
L 269.082645 280.524064 
L 274.206612 280.138227 
L 279.330579 279.823272 
L 284.454545 279.508317 
L 289.578512 279.193362 
L 294.702479 278.878407 
L 299.826446 278.563452 
L 304.950413 278.248497 
L 310.07438 277.933542 
L 315.198347 277.677465 
L 320.322314 277.426296 
L 325.446281 277.175126 
L 330.570248 276.923956 
L 335.694215 276.672787 
L 340.818182 276.421617 
L 345.942149 276.170447 
L 351.066116 275.954097 
L 356.190083 275.816093 
L 361.31405 275.678088 
L 366.438017 275.540083 
L 371.561983 275.402078 
L 376.68595 275.264074 
L 381.809917 275.126069 
L 386.933884 274.988064 
L 392.057851 274.910643 
L 397.181818 274.860148 
L 402.305785 274.809652 
L 407.429752 274.759157 
L 412.553719 274.708662 
L 417.677686 274.658166 
L 422.801653 274.607671 
L 427.92562 274.555822 
L 433.049587 274.487729 
L 438.173554 274.419636 
L 443.297521 274.351543 
L 448.421488 274.28345 
L 453.545455 274.215357 
L 458.669421 274.147264 
L 463.793388 274.079172 
L 468.917355 274.019722 
L 474.041322 273.970357 
L 479.165289 273.920992 
L 484.289256 273.871627 
L 489.413223 273.822262 
L 494.53719 273.772896 
L 499.661157 273.723531 
L 504.785124 273.674166 
L 509.909091 273.637964 
L 515.033058 273.604156 
L 520.157025 273.570348 
L 525.280992 273.536539 
L 530.404959 273.502731 
L 535.528926 273.468923 
L 540.652893 273.435115 
L 545.77686 273.404216 
L 550.900826 273.383017 
L 556.024793 273.361818 
L 561.14876 273.340619 
L 566.272727 273.319421 
L 571.396694 273.298222 
L 576.520661 273.277023 
L 581.644628 273.255824 
L 586.768595 273.214932 
L 591.892562 273.161732 
L 597.016529 273.108531 
L 602.140496 273.055331 
L 607.264463 273.002131 
L 612.38843 272.948931 
L 617.512397 272.89573 
L 622.636364 272.84253 
" style="fill:none;stroke:#000000;stroke-linecap:square;stroke-width:3;"/>
   </g>
   <g id="patch_3">
    <path d="M 90 378 
L 90 51.84 
" style="fill:none;stroke:#000000;stroke-linecap:square;stroke-linejoin:miter;stroke-width:0.8;"/>
   </g>
   <g id="patch_4">
    <path d="M 648 378 
L 648 51.84 
" style="fill:none;stroke:#000000;stroke-linecap:square;stroke-linejoin:miter;stroke-width:0.8;"/>
   </g>
   <g id="patch_5">
    <path d="M 90 378 
L 648 378 
" style="fill:none;stroke:#000000;stroke-linecap:square;stroke-linejoin:miter;stroke-width:0.8;"/>
   </g>
   <g id="patch_6">
    <path d="M 90 51.84 
L 648 51.84 
" style="fill:none;stroke:#000000;stroke-linecap:square;stroke-linejoin:miter;stroke-width:0.8;"/>
   </g>
  </g>
 </g>
 <defs>
  <clipPath id="pdb3be74f5c">
   <rect height="326.16" width="558" x="90" y="51.84"/>
  </clipPath>
 </defs>
</svg>
