<?xml version="1.0" encoding="utf-8" standalone="no"?>
<!DOCTYPE svg PUBLIC "-//W3C//DTD SVG 1.1//EN"
  "http://www.w3.org/Graphics/SVG/1.1/DTD/svg11.dtd">
<!-- Created with matplotlib (https://matplotlib.org/) -->
<svg height="432pt" version="1.1" viewBox="0 0 720 432" width="720pt" xmlns="http://www.w3.org/2000/svg" xmlns:xlink="http://www.w3.org/1999/xlink">
 <defs>
  <style type="text/css">
*{stroke-linecap:butt;stroke-linejoin:round;}
  </style>
 </defs>
 <g id="figure_1">
  <g id="patch_1">
   <path d="M 0 432 
L 720 432 
L 720 0 
L 0 0 
z
" style="fill:#ffffff;"/>
  </g>
  <g id="axes_1">
   <g id="patch_2">
    <path d="M 90 378 
L 648 378 
L 648 51.84 
L 90 51.84 
z
" style="fill:#ffffff;"/>
   </g>
   <g id="matplotlib.axis_1">
    <g id="xtick_1">
     <g id="line2d_1">
      <defs>
       <path d="M 0 0 
L 0 3.5 
" id="m9530bca4ce" style="stroke:#000000;stroke-width:0.8;"/>
      </defs>
      <g>
       <use style="stroke:#000000;stroke-width:0.8;" x="115.363636" xlink:href="#m9530bca4ce" y="378"/>
      </g>
     </g>
     <g id="text_1">
      <!-- 0 -->
      <defs>
       <path d="M 31.78125 3.421875 
Q 39.265625 3.421875 42.96875 11.625 
Q 46.6875 19.828125 46.6875 36.375 
Q 46.6875 52.984375 42.96875 61.1875 
Q 39.265625 69.390625 31.78125 69.390625 
Q 24.3125 69.390625 20.59375 61.1875 
Q 16.890625 52.984375 16.890625 36.375 
Q 16.890625 19.828125 20.59375 11.625 
Q 24.3125 3.421875 31.78125 3.421875 
z
M 31.78125 -1.421875 
Q 19.921875 -1.421875 13.25 8.53125 
Q 6.59375 18.5 6.59375 36.375 
Q 6.59375 54.296875 13.25 64.25 
Q 19.921875 74.21875 31.78125 74.21875 
Q 43.703125 74.21875 50.34375 64.25 
Q 56.984375 54.296875 56.984375 36.375 
Q 56.984375 18.5 50.34375 8.53125 
Q 43.703125 -1.421875 31.78125 -1.421875 
z
" id="DejaVuSerif-48"/>
      </defs>
      <g transform="translate(111.546136 394.118125)scale(0.12 -0.12)">
       <use xlink:href="#DejaVuSerif-48"/>
      </g>
     </g>
    </g>
    <g id="xtick_2">
     <g id="line2d_2">
      <g>
       <use style="stroke:#000000;stroke-width:0.8;" x="187.831169" xlink:href="#m9530bca4ce" y="378"/>
      </g>
     </g>
     <g id="text_2">
      <!-- 2 -->
      <defs>
       <path d="M 12.796875 55.515625 
L 7.328125 55.515625 
L 7.328125 68.5 
Q 12.546875 71.296875 17.84375 72.75 
Q 23.140625 74.21875 28.21875 74.21875 
Q 39.59375 74.21875 46.1875 68.703125 
Q 52.78125 63.1875 52.78125 53.71875 
Q 52.78125 43.015625 37.84375 28.125 
Q 36.671875 27 36.078125 26.421875 
L 17.671875 8.015625 
L 48.09375 8.015625 
L 48.09375 17 
L 53.8125 17 
L 53.8125 0 
L 6.78125 0 
L 6.78125 5.328125 
L 28.90625 27.390625 
Q 36.234375 34.71875 39.359375 40.84375 
Q 42.484375 46.96875 42.484375 53.71875 
Q 42.484375 61.078125 38.640625 65.234375 
Q 34.8125 69.390625 28.078125 69.390625 
Q 21.09375 69.390625 17.28125 65.921875 
Q 13.484375 62.453125 12.796875 55.515625 
z
" id="DejaVuSerif-50"/>
      </defs>
      <g transform="translate(184.013669 394.118125)scale(0.12 -0.12)">
       <use xlink:href="#DejaVuSerif-50"/>
      </g>
     </g>
    </g>
    <g id="xtick_3">
     <g id="line2d_3">
      <g>
       <use style="stroke:#000000;stroke-width:0.8;" x="260.298701" xlink:href="#m9530bca4ce" y="378"/>
      </g>
     </g>
     <g id="text_3">
      <!-- 4 -->
      <defs>
       <path d="M 34.90625 24.703125 
L 34.90625 63.484375 
L 10.015625 24.703125 
z
M 56.390625 0 
L 23.1875 0 
L 23.1875 5.171875 
L 34.90625 5.171875 
L 34.90625 19.484375 
L 3.078125 19.484375 
L 3.078125 24.8125 
L 35.015625 74.21875 
L 44.671875 74.21875 
L 44.671875 24.703125 
L 58.59375 24.703125 
L 58.59375 19.484375 
L 44.671875 19.484375 
L 44.671875 5.171875 
L 56.390625 5.171875 
z
" id="DejaVuSerif-52"/>
      </defs>
      <g transform="translate(256.481201 394.118125)scale(0.12 -0.12)">
       <use xlink:href="#DejaVuSerif-52"/>
      </g>
     </g>
    </g>
    <g id="xtick_4">
     <g id="line2d_4">
      <g>
       <use style="stroke:#000000;stroke-width:0.8;" x="332.766234" xlink:href="#m9530bca4ce" y="378"/>
      </g>
     </g>
     <g id="text_4">
      <!-- 6 -->
      <defs>
       <path d="M 32.71875 3.421875 
Q 39.59375 3.421875 43.296875 8.46875 
Q 47.015625 13.53125 47.015625 23 
Q 47.015625 32.46875 43.296875 37.515625 
Q 39.59375 42.578125 32.71875 42.578125 
Q 25.734375 42.578125 22.0625 37.6875 
Q 18.40625 32.8125 18.40625 23.578125 
Q 18.40625 13.875 22.109375 8.640625 
Q 25.828125 3.421875 32.71875 3.421875 
z
M 16.796875 40.140625 
Q 20.125 43.796875 24.3125 45.59375 
Q 28.515625 47.40625 33.796875 47.40625 
Q 44.671875 47.40625 51 40.859375 
Q 57.328125 34.328125 57.328125 23 
Q 57.328125 11.921875 50.515625 5.25 
Q 43.703125 -1.421875 32.328125 -1.421875 
Q 19.96875 -1.421875 13.328125 7.78125 
Q 6.6875 17 6.6875 34.078125 
Q 6.6875 53.21875 14.546875 63.71875 
Q 22.40625 74.21875 36.71875 74.21875 
Q 40.578125 74.21875 44.828125 73.484375 
Q 49.078125 72.75 53.515625 71.296875 
L 53.515625 59.28125 
L 48 59.28125 
Q 47.40625 64.203125 44.234375 66.796875 
Q 41.0625 69.390625 35.6875 69.390625 
Q 26.21875 69.390625 21.578125 62.203125 
Q 16.9375 55.03125 16.796875 40.140625 
z
" id="DejaVuSerif-54"/>
      </defs>
      <g transform="translate(328.948734 394.118125)scale(0.12 -0.12)">
       <use xlink:href="#DejaVuSerif-54"/>
      </g>
     </g>
    </g>
    <g id="xtick_5">
     <g id="line2d_5">
      <g>
       <use style="stroke:#000000;stroke-width:0.8;" x="405.233766" xlink:href="#m9530bca4ce" y="378"/>
      </g>
     </g>
     <g id="text_5">
      <!-- 8 -->
      <defs>
       <path d="M 46.578125 19.921875 
Q 46.578125 27.734375 42.6875 32.046875 
Q 38.8125 36.375 31.78125 36.375 
Q 24.75 36.375 20.875 32.046875 
Q 17 27.734375 17 19.921875 
Q 17 12.0625 20.875 7.734375 
Q 24.75 3.421875 31.78125 3.421875 
Q 38.8125 3.421875 42.6875 7.734375 
Q 46.578125 12.0625 46.578125 19.921875 
z
M 44.578125 55.328125 
Q 44.578125 61.96875 41.203125 65.671875 
Q 37.84375 69.390625 31.78125 69.390625 
Q 25.78125 69.390625 22.390625 65.671875 
Q 19 61.96875 19 55.328125 
Q 19 48.640625 22.390625 44.921875 
Q 25.78125 41.21875 31.78125 41.21875 
Q 37.84375 41.21875 41.203125 44.921875 
Q 44.578125 48.640625 44.578125 55.328125 
z
M 39.3125 38.8125 
Q 47.609375 37.703125 52.25 32.6875 
Q 56.890625 27.6875 56.890625 19.921875 
Q 56.890625 9.671875 50.390625 4.125 
Q 43.890625 -1.421875 31.78125 -1.421875 
Q 19.734375 -1.421875 13.203125 4.125 
Q 6.6875 9.671875 6.6875 19.921875 
Q 6.6875 27.6875 11.328125 32.6875 
Q 15.96875 37.703125 24.3125 38.8125 
Q 16.9375 40.140625 13 44.40625 
Q 9.078125 48.6875 9.078125 55.328125 
Q 9.078125 64.109375 15.125 69.15625 
Q 21.1875 74.21875 31.78125 74.21875 
Q 42.390625 74.21875 48.4375 69.15625 
Q 54.5 64.109375 54.5 55.328125 
Q 54.5 48.6875 50.5625 44.40625 
Q 46.625 40.140625 39.3125 38.8125 
z
" id="DejaVuSerif-56"/>
      </defs>
      <g transform="translate(401.416266 394.118125)scale(0.12 -0.12)">
       <use xlink:href="#DejaVuSerif-56"/>
      </g>
     </g>
    </g>
    <g id="xtick_6">
     <g id="line2d_6">
      <g>
       <use style="stroke:#000000;stroke-width:0.8;" x="477.701299" xlink:href="#m9530bca4ce" y="378"/>
      </g>
     </g>
     <g id="text_6">
      <!-- 10 -->
      <defs>
       <path d="M 14.203125 0 
L 14.203125 5.171875 
L 26.90625 5.171875 
L 26.90625 65.828125 
L 12.203125 56.296875 
L 12.203125 62.703125 
L 29.984375 74.21875 
L 36.71875 74.21875 
L 36.71875 5.171875 
L 49.421875 5.171875 
L 49.421875 0 
z
" id="DejaVuSerif-49"/>
      </defs>
      <g transform="translate(470.066299 394.118125)scale(0.12 -0.12)">
       <use xlink:href="#DejaVuSerif-49"/>
       <use x="63.623047" xlink:href="#DejaVuSerif-48"/>
      </g>
     </g>
    </g>
    <g id="xtick_7">
     <g id="line2d_7">
      <g>
       <use style="stroke:#000000;stroke-width:0.8;" x="550.168831" xlink:href="#m9530bca4ce" y="378"/>
      </g>
     </g>
     <g id="text_7">
      <!-- 12 -->
      <g transform="translate(542.533831 394.118125)scale(0.12 -0.12)">
       <use xlink:href="#DejaVuSerif-49"/>
       <use x="63.623047" xlink:href="#DejaVuSerif-50"/>
      </g>
     </g>
    </g>
    <g id="xtick_8">
     <g id="line2d_8">
      <g>
       <use style="stroke:#000000;stroke-width:0.8;" x="622.636364" xlink:href="#m9530bca4ce" y="378"/>
      </g>
     </g>
     <g id="text_8">
      <!-- 14 -->
      <g transform="translate(615.001364 394.118125)scale(0.12 -0.12)">
       <use xlink:href="#DejaVuSerif-49"/>
       <use x="63.623047" xlink:href="#DejaVuSerif-52"/>
      </g>
     </g>
    </g>
    <g id="text_9">
     <!-- Time [d] -->
     <defs>
      <path d="M 19.09375 0 
L 19.09375 5.171875 
L 28.421875 5.171875 
L 28.421875 67.09375 
L 6.984375 67.09375 
L 6.984375 55.71875 
L 0.984375 55.71875 
L 0.984375 72.90625 
L 65.71875 72.90625 
L 65.71875 55.71875 
L 59.71875 55.71875 
L 59.71875 67.09375 
L 38.28125 67.09375 
L 38.28125 5.171875 
L 47.609375 5.171875 
L 47.609375 0 
z
" id="DejaVuSerif-84"/>
      <path d="M 9.71875 68.015625 
Q 9.71875 70.265625 11.34375 71.921875 
Q 12.984375 73.578125 15.28125 73.578125 
Q 17.53125 73.578125 19.15625 71.921875 
Q 20.796875 70.265625 20.796875 68.015625 
Q 20.796875 65.71875 19.1875 64.109375 
Q 17.578125 62.5 15.28125 62.5 
Q 12.984375 62.5 11.34375 64.109375 
Q 9.71875 65.71875 9.71875 68.015625 
z
M 21.1875 5.171875 
L 29.6875 5.171875 
L 29.6875 0 
L 3.609375 0 
L 3.609375 5.171875 
L 12.203125 5.171875 
L 12.203125 46.6875 
L 3.609375 46.6875 
L 3.609375 51.90625 
L 21.1875 51.90625 
z
" id="DejaVuSerif-105"/>
      <path d="M 51.8125 41.796875 
Q 54.390625 47.515625 58.421875 50.421875 
Q 62.453125 53.328125 67.828125 53.328125 
Q 75.984375 53.328125 79.984375 48.265625 
Q 83.984375 43.21875 83.984375 33.015625 
L 83.984375 5.171875 
L 92.09375 5.171875 
L 92.09375 0 
L 67.1875 0 
L 67.1875 5.171875 
L 75 5.171875 
L 75 31.984375 
Q 75 39.9375 72.65625 43.3125 
Q 70.3125 46.6875 64.890625 46.6875 
Q 58.890625 46.6875 55.734375 42.140625 
Q 52.59375 37.59375 52.59375 28.90625 
L 52.59375 5.171875 
L 60.40625 5.171875 
L 60.40625 0 
L 35.796875 0 
L 35.796875 5.171875 
L 43.609375 5.171875 
L 43.609375 32.328125 
Q 43.609375 40.09375 41.265625 43.390625 
Q 38.921875 46.6875 33.5 46.6875 
Q 27.484375 46.6875 24.328125 42.140625 
Q 21.1875 37.59375 21.1875 28.90625 
L 21.1875 5.171875 
L 29 5.171875 
L 29 0 
L 4.109375 0 
L 4.109375 5.171875 
L 12.203125 5.171875 
L 12.203125 46.78125 
L 3.609375 46.78125 
L 3.609375 51.90625 
L 21.1875 51.90625 
L 21.1875 42.671875 
Q 23.6875 47.859375 27.53125 50.59375 
Q 31.390625 53.328125 36.28125 53.328125 
Q 42.328125 53.328125 46.375 50.3125 
Q 50.4375 47.3125 51.8125 41.796875 
z
" id="DejaVuSerif-109"/>
      <path d="M 54.203125 25 
L 15.484375 25 
L 15.484375 24.609375 
Q 15.484375 14.109375 19.4375 8.765625 
Q 23.390625 3.421875 31.109375 3.421875 
Q 37.015625 3.421875 40.796875 6.515625 
Q 44.578125 9.625 46.09375 15.71875 
L 53.328125 15.71875 
Q 51.171875 7.171875 45.375 2.875 
Q 39.59375 -1.421875 30.171875 -1.421875 
Q 18.796875 -1.421875 11.890625 6.078125 
Q 4.984375 13.578125 4.984375 25.984375 
Q 4.984375 38.28125 11.765625 45.796875 
Q 18.5625 53.328125 29.59375 53.328125 
Q 41.359375 53.328125 47.65625 46.0625 
Q 53.953125 38.8125 54.203125 25 
z
M 43.609375 30.171875 
Q 43.3125 39.265625 39.765625 43.875 
Q 36.234375 48.484375 29.59375 48.484375 
Q 23.390625 48.484375 19.828125 43.84375 
Q 16.265625 39.203125 15.484375 30.171875 
z
" id="DejaVuSerif-101"/>
      <path id="DejaVuSerif-32"/>
      <path d="M 8.59375 75.984375 
L 31.296875 75.984375 
L 31.296875 70.796875 
L 17.921875 70.796875 
L 17.921875 -8.015625 
L 31.296875 -8.015625 
L 31.296875 -13.1875 
L 8.59375 -13.1875 
z
" id="DejaVuSerif-91"/>
      <path d="M 52.484375 5.171875 
L 61.078125 5.171875 
L 61.078125 0 
L 43.5 0 
L 43.5 8.109375 
Q 40.875 3.21875 36.796875 0.890625 
Q 32.71875 -1.421875 26.703125 -1.421875 
Q 17.140625 -1.421875 11.0625 6.171875 
Q 4.984375 13.765625 4.984375 25.984375 
Q 4.984375 38.1875 11.03125 45.75 
Q 17.09375 53.328125 26.703125 53.328125 
Q 32.71875 53.328125 36.796875 51 
Q 40.875 48.6875 43.5 43.796875 
L 43.5 70.796875 
L 35.015625 70.796875 
L 35.015625 75.984375 
L 52.484375 75.984375 
z
M 43.5 23.390625 
L 43.5 28.515625 
Q 43.5 37.84375 39.90625 42.765625 
Q 36.328125 47.703125 29.5 47.703125 
Q 22.5625 47.703125 19.015625 42.234375 
Q 15.484375 36.765625 15.484375 25.984375 
Q 15.484375 15.234375 19.015625 9.71875 
Q 22.5625 4.203125 29.5 4.203125 
Q 36.328125 4.203125 39.90625 9.109375 
Q 43.5 14.015625 43.5 23.390625 
z
" id="DejaVuSerif-100"/>
      <path d="M 30.421875 75.984375 
L 30.421875 -13.1875 
L 7.71875 -13.1875 
L 7.71875 -8.015625 
L 21.09375 -8.015625 
L 21.09375 70.796875 
L 7.71875 70.796875 
L 7.71875 75.984375 
z
" id="DejaVuSerif-93"/>
     </defs>
     <g transform="translate(332.744844 413.531094)scale(0.17 -0.17)">
      <use xlink:href="#DejaVuSerif-84"/>
      <use x="66.699219" xlink:href="#DejaVuSerif-105"/>
      <use x="98.681641" xlink:href="#DejaVuSerif-109"/>
      <use x="193.505859" xlink:href="#DejaVuSerif-101"/>
      <use x="252.685547" xlink:href="#DejaVuSerif-32"/>
      <use x="284.472656" xlink:href="#DejaVuSerif-91"/>
      <use x="323.486328" xlink:href="#DejaVuSerif-100"/>
      <use x="387.5" xlink:href="#DejaVuSerif-93"/>
     </g>
    </g>
   </g>
   <g id="matplotlib.axis_2">
    <g id="ytick_1">
     <g id="line2d_9">
      <defs>
       <path d="M 0 0 
L -3.5 0 
" id="mc96834e86c" style="stroke:#000000;stroke-width:0.8;"/>
      </defs>
      <g>
       <use style="stroke:#000000;stroke-width:0.8;" x="90" xlink:href="#mc96834e86c" y="362.946462"/>
      </g>
     </g>
     <g id="text_10">
      <!-- 0 -->
      <g transform="translate(75.365 367.505524)scale(0.12 -0.12)">
       <use xlink:href="#DejaVuSerif-48"/>
      </g>
     </g>
    </g>
    <g id="ytick_2">
     <g id="line2d_10">
      <g>
       <use style="stroke:#000000;stroke-width:0.8;" x="90" xlink:href="#mc96834e86c" y="312.768"/>
      </g>
     </g>
     <g id="text_11">
      <!-- 5 -->
      <defs>
       <path d="M 50.296875 72.90625 
L 50.296875 64.890625 
L 16.890625 64.890625 
L 16.890625 44 
Q 19.4375 45.75 22.828125 46.625 
Q 26.21875 47.515625 30.421875 47.515625 
Q 42.234375 47.515625 49.0625 40.96875 
Q 55.90625 34.421875 55.90625 23.09375 
Q 55.90625 11.53125 49 5.046875 
Q 42.09375 -1.421875 29.59375 -1.421875 
Q 24.5625 -1.421875 19.28125 -0.1875 
Q 14.015625 1.03125 8.5 3.515625 
L 8.5 17.671875 
L 14.015625 17.671875 
Q 14.453125 10.75 18.421875 7.078125 
Q 22.40625 3.421875 29.59375 3.421875 
Q 37.3125 3.421875 41.453125 8.5 
Q 45.609375 13.578125 45.609375 23.09375 
Q 45.609375 32.5625 41.484375 37.609375 
Q 37.359375 42.671875 29.59375 42.671875 
Q 25.203125 42.671875 21.84375 41.109375 
Q 18.5 39.546875 15.921875 36.28125 
L 11.71875 36.28125 
L 11.71875 72.90625 
z
" id="DejaVuSerif-53"/>
      </defs>
      <g transform="translate(75.365 317.327063)scale(0.12 -0.12)">
       <use xlink:href="#DejaVuSerif-53"/>
      </g>
     </g>
    </g>
    <g id="ytick_3">
     <g id="line2d_11">
      <g>
       <use style="stroke:#000000;stroke-width:0.8;" x="90" xlink:href="#mc96834e86c" y="262.589538"/>
      </g>
     </g>
     <g id="text_12">
      <!-- 10 -->
      <g transform="translate(67.73 267.148601)scale(0.12 -0.12)">
       <use xlink:href="#DejaVuSerif-49"/>
       <use x="63.623047" xlink:href="#DejaVuSerif-48"/>
      </g>
     </g>
    </g>
    <g id="ytick_4">
     <g id="line2d_12">
      <g>
       <use style="stroke:#000000;stroke-width:0.8;" x="90" xlink:href="#mc96834e86c" y="212.411077"/>
      </g>
     </g>
     <g id="text_13">
      <!-- 15 -->
      <g transform="translate(67.73 216.970139)scale(0.12 -0.12)">
       <use xlink:href="#DejaVuSerif-49"/>
       <use x="63.623047" xlink:href="#DejaVuSerif-53"/>
      </g>
     </g>
    </g>
    <g id="ytick_5">
     <g id="line2d_13">
      <g>
       <use style="stroke:#000000;stroke-width:0.8;" x="90" xlink:href="#mc96834e86c" y="162.232615"/>
      </g>
     </g>
     <g id="text_14">
      <!-- 20 -->
      <g transform="translate(67.73 166.791678)scale(0.12 -0.12)">
       <use xlink:href="#DejaVuSerif-50"/>
       <use x="63.623047" xlink:href="#DejaVuSerif-48"/>
      </g>
     </g>
    </g>
    <g id="ytick_6">
     <g id="line2d_14">
      <g>
       <use style="stroke:#000000;stroke-width:0.8;" x="90" xlink:href="#mc96834e86c" y="112.054154"/>
      </g>
     </g>
     <g id="text_15">
      <!-- 25 -->
      <g transform="translate(67.73 116.613216)scale(0.12 -0.12)">
       <use xlink:href="#DejaVuSerif-50"/>
       <use x="63.623047" xlink:href="#DejaVuSerif-53"/>
      </g>
     </g>
    </g>
    <g id="ytick_7">
     <g id="line2d_15">
      <g>
       <use style="stroke:#000000;stroke-width:0.8;" x="90" xlink:href="#mc96834e86c" y="61.875692"/>
      </g>
     </g>
     <g id="text_16">
      <!-- 30 -->
      <defs>
       <path d="M 9.71875 69.828125 
Q 15.4375 71.96875 20.671875 73.09375 
Q 25.921875 74.21875 30.515625 74.21875 
Q 41.21875 74.21875 47.21875 69.59375 
Q 53.21875 64.984375 53.21875 56.78125 
Q 53.21875 50.203125 49.0625 45.78125 
Q 44.921875 41.359375 37.3125 39.796875 
Q 46.296875 38.53125 51.25 33.28125 
Q 56.203125 28.03125 56.203125 19.671875 
Q 56.203125 9.46875 49.34375 4.015625 
Q 42.484375 -1.421875 29.59375 -1.421875 
Q 23.875 -1.421875 18.421875 -0.1875 
Q 12.984375 1.03125 7.625 3.515625 
L 7.625 17.671875 
L 13.09375 17.671875 
Q 13.578125 10.640625 17.828125 7.03125 
Q 22.078125 3.421875 29.78125 3.421875 
Q 37.25 3.421875 41.578125 7.734375 
Q 45.90625 12.0625 45.90625 19.578125 
Q 45.90625 28.171875 41.453125 32.59375 
Q 37.015625 37.015625 28.421875 37.015625 
L 23.78125 37.015625 
L 23.78125 42 
L 26.21875 42 
Q 34.765625 42 39.03125 45.53125 
Q 43.3125 49.078125 43.3125 56.203125 
Q 43.3125 62.59375 39.796875 65.984375 
Q 36.28125 69.390625 29.6875 69.390625 
Q 23.09375 69.390625 19.453125 66.265625 
Q 15.828125 63.140625 15.1875 56.984375 
L 9.71875 56.984375 
z
" id="DejaVuSerif-51"/>
      </defs>
      <g transform="translate(67.73 66.434755)scale(0.12 -0.12)">
       <use xlink:href="#DejaVuSerif-51"/>
       <use x="63.623047" xlink:href="#DejaVuSerif-48"/>
      </g>
     </g>
    </g>
    <g id="text_17">
     <!-- BPA in maternal blood [ng/ml] -->
     <defs>
      <path d="M 24.703125 5.171875 
L 39.3125 5.171875 
Q 48.09375 5.171875 52.140625 8.984375 
Q 56.203125 12.796875 56.203125 21.09375 
Q 56.203125 29.34375 52.171875 33.125 
Q 48.140625 36.921875 39.3125 36.921875 
L 24.703125 36.921875 
z
M 24.703125 42.09375 
L 37.109375 42.09375 
Q 45.125 42.09375 48.796875 45.171875 
Q 52.484375 48.25 52.484375 54.890625 
Q 52.484375 61.578125 48.796875 64.625 
Q 45.125 67.671875 37.109375 67.671875 
L 24.703125 67.671875 
z
M 5.515625 0 
L 5.515625 5.171875 
L 14.796875 5.171875 
L 14.796875 67.671875 
L 5.515625 67.671875 
L 5.515625 72.90625 
L 41.5 72.90625 
Q 52.546875 72.90625 58.125 68.390625 
Q 63.71875 63.875 63.71875 54.890625 
Q 63.71875 48.390625 59.828125 44.53125 
Q 55.953125 40.671875 48.484375 39.796875 
Q 57.765625 38.625 62.578125 33.859375 
Q 67.390625 29.109375 67.390625 21.09375 
Q 67.390625 10.25 60.546875 5.125 
Q 53.71875 0 39.203125 0 
z
" id="DejaVuSerif-66"/>
      <path d="M 24.703125 37.109375 
L 37.59375 37.109375 
Q 44.875 37.109375 48.671875 41.03125 
Q 52.484375 44.96875 52.484375 52.390625 
Q 52.484375 59.859375 48.671875 63.765625 
Q 44.875 67.671875 37.59375 67.671875 
L 24.703125 67.671875 
z
M 5.515625 0 
L 5.515625 5.171875 
L 14.796875 5.171875 
L 14.796875 67.671875 
L 5.515625 67.671875 
L 5.515625 72.90625 
L 39.984375 72.90625 
Q 50.921875 72.90625 57.3125 67.359375 
Q 63.71875 61.8125 63.71875 52.390625 
Q 63.71875 43.015625 57.3125 37.453125 
Q 50.921875 31.890625 39.984375 31.890625 
L 24.703125 31.890625 
L 24.703125 5.171875 
L 35.984375 5.171875 
L 35.984375 0 
z
" id="DejaVuSerif-80"/>
      <path d="M 20.015625 26.421875 
L 46.78125 26.421875 
L 33.40625 61.078125 
z
M -0.59375 0 
L -0.59375 5.171875 
L 5.8125 5.171875 
L 31.78125 72.90625 
L 39.984375 72.90625 
L 66.015625 5.171875 
L 73.1875 5.171875 
L 73.1875 0 
L 46.6875 0 
L 46.6875 5.171875 
L 54.78125 5.171875 
L 48.6875 21.1875 
L 18.015625 21.1875 
L 11.921875 5.171875 
L 19.921875 5.171875 
L 19.921875 0 
z
" id="DejaVuSerif-65"/>
      <path d="M 4.109375 0 
L 4.109375 5.171875 
L 12.203125 5.171875 
L 12.203125 46.6875 
L 3.609375 46.6875 
L 3.609375 51.90625 
L 21.1875 51.90625 
L 21.1875 42.671875 
Q 23.6875 47.953125 27.65625 50.640625 
Q 31.640625 53.328125 36.921875 53.328125 
Q 45.515625 53.328125 49.5625 48.390625 
Q 53.609375 43.453125 53.609375 33.015625 
L 53.609375 5.171875 
L 61.625 5.171875 
L 61.625 0 
L 36.8125 0 
L 36.8125 5.171875 
L 44.578125 5.171875 
L 44.578125 30.171875 
Q 44.578125 39.703125 42.234375 43.234375 
Q 39.890625 46.78125 33.984375 46.78125 
Q 27.734375 46.78125 24.453125 42.203125 
Q 21.1875 37.640625 21.1875 28.90625 
L 21.1875 5.171875 
L 29 5.171875 
L 29 0 
z
" id="DejaVuSerif-110"/>
      <path d="M 39.796875 16.3125 
L 39.796875 27.296875 
L 28.21875 27.296875 
Q 21.53125 27.296875 18.25 24.40625 
Q 14.984375 21.53125 14.984375 15.578125 
Q 14.984375 10.15625 18.296875 6.984375 
Q 21.625 3.8125 27.296875 3.8125 
Q 32.90625 3.8125 36.34375 7.28125 
Q 39.796875 10.75 39.796875 16.3125 
z
M 48.78125 32.421875 
L 48.78125 5.171875 
L 56.78125 5.171875 
L 56.78125 0 
L 39.796875 0 
L 39.796875 5.609375 
Q 36.8125 2 32.90625 0.28125 
Q 29 -1.421875 23.78125 -1.421875 
Q 15.140625 -1.421875 10.0625 3.171875 
Q 4.984375 7.765625 4.984375 15.578125 
Q 4.984375 23.640625 10.796875 28.078125 
Q 16.609375 32.515625 27.203125 32.515625 
L 39.796875 32.515625 
L 39.796875 36.078125 
Q 39.796875 42 36.203125 45.234375 
Q 32.625 48.484375 26.125 48.484375 
Q 20.75 48.484375 17.578125 46.046875 
Q 14.40625 43.609375 13.625 38.8125 
L 8.984375 38.8125 
L 8.984375 49.3125 
Q 13.671875 51.3125 18.09375 52.3125 
Q 22.515625 53.328125 26.703125 53.328125 
Q 37.5 53.328125 43.140625 47.96875 
Q 48.78125 42.625 48.78125 32.421875 
z
" id="DejaVuSerif-97"/>
      <path d="M 10.796875 46.6875 
L 2.875 46.6875 
L 2.875 51.90625 
L 10.796875 51.90625 
L 10.796875 68.015625 
L 19.828125 68.015625 
L 19.828125 51.90625 
L 36.71875 51.90625 
L 36.71875 46.6875 
L 19.828125 46.6875 
L 19.828125 13.71875 
Q 19.828125 7.125 21.09375 5.265625 
Q 22.359375 3.421875 25.78125 3.421875 
Q 29.296875 3.421875 30.90625 5.484375 
Q 32.515625 7.5625 32.625 12.203125 
L 39.40625 12.203125 
Q 39.015625 5.125 35.546875 1.84375 
Q 32.078125 -1.421875 25 -1.421875 
Q 17.234375 -1.421875 14.015625 2.015625 
Q 10.796875 5.46875 10.796875 13.71875 
z
" id="DejaVuSerif-116"/>
      <path d="M 47.796875 52 
L 47.796875 39.015625 
L 42.625 39.015625 
Q 42.390625 42.875 40.484375 44.78125 
Q 38.578125 46.6875 34.90625 46.6875 
Q 28.265625 46.6875 24.71875 42.09375 
Q 21.1875 37.5 21.1875 28.90625 
L 21.1875 5.171875 
L 31.59375 5.171875 
L 31.59375 0 
L 4.109375 0 
L 4.109375 5.171875 
L 12.203125 5.171875 
L 12.203125 46.78125 
L 3.609375 46.78125 
L 3.609375 51.90625 
L 21.1875 51.90625 
L 21.1875 42.671875 
Q 23.828125 48.09375 27.96875 50.703125 
Q 32.125 53.328125 38.09375 53.328125 
Q 40.28125 53.328125 42.703125 52.984375 
Q 45.125 52.640625 47.796875 52 
z
" id="DejaVuSerif-114"/>
      <path d="M 20.515625 5.171875 
L 29 5.171875 
L 29 0 
L 2.875 0 
L 2.875 5.171875 
L 11.53125 5.171875 
L 11.53125 70.796875 
L 2.875 70.796875 
L 2.875 75.984375 
L 20.515625 75.984375 
z
" id="DejaVuSerif-108"/>
      <path d="M 11.53125 5.171875 
L 11.53125 70.796875 
L 2.875 70.796875 
L 2.875 75.984375 
L 20.515625 75.984375 
L 20.515625 43.796875 
Q 23.140625 48.6875 27.21875 51 
Q 31.296875 53.328125 37.3125 53.328125 
Q 46.875 53.328125 52.921875 45.75 
Q 58.984375 38.1875 58.984375 25.984375 
Q 58.984375 13.765625 52.921875 6.171875 
Q 46.875 -1.421875 37.3125 -1.421875 
Q 31.296875 -1.421875 27.21875 0.890625 
Q 23.140625 3.21875 20.515625 8.109375 
L 20.515625 0 
L 2.875 0 
L 2.875 5.171875 
z
M 20.515625 23.390625 
Q 20.515625 14.015625 24.09375 9.109375 
Q 27.6875 4.203125 34.515625 4.203125 
Q 41.40625 4.203125 44.9375 9.71875 
Q 48.484375 15.234375 48.484375 25.984375 
Q 48.484375 36.765625 44.9375 42.234375 
Q 41.40625 47.703125 34.515625 47.703125 
Q 27.6875 47.703125 24.09375 42.765625 
Q 20.515625 37.84375 20.515625 28.515625 
z
" id="DejaVuSerif-98"/>
      <path d="M 30.078125 3.421875 
Q 37.3125 3.421875 40.984375 9.125 
Q 44.671875 14.84375 44.671875 25.984375 
Q 44.671875 37.109375 40.984375 42.796875 
Q 37.3125 48.484375 30.078125 48.484375 
Q 22.859375 48.484375 19.171875 42.796875 
Q 15.484375 37.109375 15.484375 25.984375 
Q 15.484375 14.84375 19.1875 9.125 
Q 22.90625 3.421875 30.078125 3.421875 
z
M 30.078125 -1.421875 
Q 18.75 -1.421875 11.859375 6.078125 
Q 4.984375 13.578125 4.984375 25.984375 
Q 4.984375 38.375 11.84375 45.84375 
Q 18.703125 53.328125 30.078125 53.328125 
Q 41.453125 53.328125 48.3125 45.84375 
Q 55.171875 38.375 55.171875 25.984375 
Q 55.171875 13.578125 48.3125 6.078125 
Q 41.453125 -1.421875 30.078125 -1.421875 
z
" id="DejaVuSerif-111"/>
      <path d="M 52.484375 46.6875 
L 52.484375 1.125 
Q 52.484375 -10.0625 46.328125 -16.140625 
Q 40.1875 -22.21875 28.8125 -22.21875 
Q 23.6875 -22.21875 19 -21.28125 
Q 14.3125 -20.359375 10.015625 -18.5 
L 10.015625 -7.625 
L 14.703125 -7.625 
Q 15.578125 -12.703125 18.84375 -15.046875 
Q 22.125 -17.390625 28.21875 -17.390625 
Q 36.140625 -17.390625 39.8125 -12.921875 
Q 43.5 -8.453125 43.5 1.125 
L 43.5 8.109375 
Q 40.875 3.21875 36.796875 0.890625 
Q 32.71875 -1.421875 26.703125 -1.421875 
Q 17.140625 -1.421875 11.0625 6.171875 
Q 4.984375 13.765625 4.984375 25.984375 
Q 4.984375 38.1875 11.03125 45.75 
Q 17.09375 53.328125 26.703125 53.328125 
Q 32.71875 53.328125 36.796875 51 
Q 40.875 48.6875 43.5 43.796875 
L 43.5 51.90625 
L 61.078125 51.90625 
L 61.078125 46.6875 
z
M 43.5 28.515625 
Q 43.5 37.84375 39.90625 42.765625 
Q 36.328125 47.703125 29.5 47.703125 
Q 22.5625 47.703125 19.015625 42.234375 
Q 15.484375 36.765625 15.484375 25.984375 
Q 15.484375 15.234375 19.015625 9.71875 
Q 22.5625 4.203125 29.5 4.203125 
Q 36.328125 4.203125 39.90625 9.109375 
Q 43.5 14.015625 43.5 23.390625 
z
" id="DejaVuSerif-103"/>
      <path d="M 25.875 72.90625 
L 33.6875 72.90625 
L 7.8125 -9.28125 
L 0 -9.28125 
z
" id="DejaVuSerif-47"/>
     </defs>
     <g transform="translate(59.952812 345.936875)rotate(-90)scale(0.17 -0.17)">
      <use xlink:href="#DejaVuSerif-66"/>
      <use x="73.486328" xlink:href="#DejaVuSerif-80"/>
      <use x="140.630859" xlink:href="#DejaVuSerif-65"/>
      <use x="212.847656" xlink:href="#DejaVuSerif-32"/>
      <use x="244.634766" xlink:href="#DejaVuSerif-105"/>
      <use x="276.617188" xlink:href="#DejaVuSerif-110"/>
      <use x="341.021484" xlink:href="#DejaVuSerif-32"/>
      <use x="372.808594" xlink:href="#DejaVuSerif-109"/>
      <use x="467.632812" xlink:href="#DejaVuSerif-97"/>
      <use x="527.251953" xlink:href="#DejaVuSerif-116"/>
      <use x="567.4375" xlink:href="#DejaVuSerif-101"/>
      <use x="626.617188" xlink:href="#DejaVuSerif-114"/>
      <use x="674.419922" xlink:href="#DejaVuSerif-110"/>
      <use x="738.824219" xlink:href="#DejaVuSerif-97"/>
      <use x="798.443359" xlink:href="#DejaVuSerif-108"/>
      <use x="830.425781" xlink:href="#DejaVuSerif-32"/>
      <use x="862.212891" xlink:href="#DejaVuSerif-98"/>
      <use x="926.226562" xlink:href="#DejaVuSerif-108"/>
      <use x="958.208984" xlink:href="#DejaVuSerif-111"/>
      <use x="1018.414062" xlink:href="#DejaVuSerif-111"/>
      <use x="1078.619141" xlink:href="#DejaVuSerif-100"/>
      <use x="1142.632812" xlink:href="#DejaVuSerif-32"/>
      <use x="1174.419922" xlink:href="#DejaVuSerif-91"/>
      <use x="1213.433594" xlink:href="#DejaVuSerif-110"/>
      <use x="1277.837891" xlink:href="#DejaVuSerif-103"/>
      <use x="1341.851562" xlink:href="#DejaVuSerif-47"/>
      <use x="1375.542969" xlink:href="#DejaVuSerif-109"/>
      <use x="1470.367188" xlink:href="#DejaVuSerif-108"/>
      <use x="1502.349609" xlink:href="#DejaVuSerif-93"/>
     </g>
    </g>
   </g>
   <g id="line2d_16">
    <path clip-path="url(#pc948ea8eef)" d="M 115.363636 362.946462 
L 116.124545 352.198358 
L 117.646364 334.858852 
L 118.914545 322.668601 
L 120.182727 312.553362 
L 121.450909 304.241763 
L 122.719091 297.457832 
L 123.987273 291.960093 
L 125.255455 287.543403 
L 126.523636 284.034666 
L 127.791818 281.287967 
L 128.806364 279.556037 
L 129.820909 278.178988 
L 130.835455 277.109887 
L 131.85 276.307836 
L 132.864545 275.737203 
L 134.132727 275.302464 
L 135.400909 275.129133 
L 136.669091 275.173377 
L 138.190909 275.462128 
L 139.966364 276.058362 
L 141.995455 277.001178 
L 144.531818 278.461321 
L 147.575455 280.484774 
L 151.633636 283.297537 
L 152.140909 275.7386 
L 153.662727 259.186205 
L 154.930909 247.586135 
L 156.199091 238.098841 
L 157.467273 230.464264 
L 158.735455 224.400341 
L 159.75 220.51082 
L 160.764545 217.355697 
L 161.779091 214.838184 
L 162.793636 212.874042 
L 163.808182 211.389926 
L 164.822727 210.321777 
L 165.837273 209.613856 
L 166.851818 209.217596 
L 167.866364 209.090658 
L 168.880909 209.196133 
L 169.895455 209.501875 
L 171.163636 210.123397 
L 172.685455 211.159518 
L 174.460909 212.685286 
L 176.49 214.744307 
L 179.026364 217.65072 
L 182.577273 222.100886 
L 187.65 228.800421 
L 187.903636 228.525651 
L 188.410909 221.284349 
L 189.932727 205.675536 
L 191.200909 194.860628 
L 192.469091 186.143253 
L 193.483636 180.504308 
L 194.498182 175.893706 
L 195.512727 172.178016 
L 196.527273 169.240113 
L 197.541818 166.977242 
L 198.556364 165.29951 
L 199.570909 164.128791 
L 200.331818 163.542201 
L 201.092727 163.176875 
L 201.853636 163.009829 
L 202.868182 163.059979 
L 203.882727 163.382442 
L 204.897273 163.93933 
L 206.165455 164.915183 
L 207.687273 166.424688 
L 209.462727 168.554202 
L 211.491818 171.352827 
L 214.028182 175.233055 
L 217.579091 181.095472 
L 223.92 192.033944 
L 224.173636 191.194096 
L 224.680909 184.370625 
L 226.202727 169.418441 
L 227.470909 159.154596 
L 228.485455 152.456727 
L 229.5 146.960805 
L 230.514545 142.51953 
L 231.529091 138.996317 
L 232.543636 136.2706 
L 233.558182 134.236789 
L 234.572727 132.802348 
L 235.333636 132.071035 
L 236.094545 131.60137 
L 236.855455 131.366261 
L 237.616364 131.341216 
L 238.377273 131.504141 
L 239.391818 131.979649 
L 240.406364 132.712355 
L 241.674545 133.934951 
L 243.196364 135.772774 
L 244.971818 138.319643 
L 247.000909 141.628193 
L 249.790909 146.65196 
L 253.595455 154.012889 
L 260.19 167.219844 
L 260.443636 165.722885 
L 260.950909 159.314285 
L 262.472727 144.824244 
L 263.740909 134.952711 
L 264.755455 128.561354 
L 265.77 123.363808 
L 266.784545 119.212971 
L 267.799091 115.972822 
L 268.813636 113.523405 
L 269.828182 111.759642 
L 270.589091 110.830933 
L 271.35 110.201558 
L 272.110909 109.840611 
L 272.871818 109.720195 
L 273.632727 109.815116 
L 274.393636 110.102642 
L 275.408182 110.750463 
L 276.422727 111.661415 
L 277.690909 113.113558 
L 279.212727 115.234437 
L 280.988182 118.11884 
L 283.270909 122.305243 
L 286.060909 127.910493 
L 290.372727 137.138295 
L 296.46 150.482361 
L 296.713636 148.31725 
L 297.220909 142.270705 
L 298.742727 128.111684 
L 300.010909 118.525156 
L 301.025455 112.355374 
L 302.04 107.372174 
L 303.054545 103.428688 
L 304.069091 100.38944 
L 305.083636 98.135052 
L 305.844545 96.895949 
L 306.605455 95.99996 
L 307.366364 95.411731 
L 308.127273 95.099424 
L 308.888182 95.034312 
L 309.649091 95.190486 
L 310.41 95.544543 
L 311.424545 96.288226 
L 312.439091 97.302048 
L 313.707273 98.89096 
L 315.229091 101.185568 
L 317.004545 104.282605 
L 319.287273 108.753111 
L 322.330909 115.275813 
L 326.896364 125.673148 
L 332.73 139.202485 
L 334.251818 123.375093 
L 335.52 112.715912 
L 336.534545 105.731251 
L 337.549091 100.034535 
L 338.563636 95.480612 
L 339.578182 91.924952 
L 340.592727 89.236433 
L 341.353636 87.719522 
L 342.114545 86.582361 
L 342.875455 85.785852 
L 343.636364 85.29482 
L 344.397273 85.077594 
L 345.158182 85.105593 
L 345.919091 85.353031 
L 346.933636 85.984393 
L 347.948182 86.915751 
L 349.216364 88.437487 
L 350.738182 90.695542 
L 352.513636 93.798784 
L 354.542727 97.807758 
L 357.332727 103.870197 
L 361.137273 112.725147 
L 369 131.610466 
L 369.760909 122.672609 
L 371.282727 108.938942 
L 372.550909 99.728311 
L 373.565455 93.847886 
L 374.58 89.141274 
L 375.594545 85.462058 
L 376.609091 82.675869 
L 377.623636 80.664536 
L 378.384545 79.601719 
L 379.145455 78.877317 
L 379.906364 78.456343 
L 380.667273 78.307289 
L 381.428182 78.401719 
L 382.189091 78.71397 
L 383.203636 79.429437 
L 384.218182 80.442484 
L 385.486364 82.063251 
L 387.008182 84.436123 
L 388.783636 87.66844 
L 391.066364 92.365133 
L 393.856364 98.658845 
L 398.168182 109.026623 
L 405.27 126.370516 
L 405.777273 119.66908 
L 407.299091 105.661368 
L 408.567273 96.150243 
L 409.581818 90.053661 
L 410.596364 85.162052 
L 411.610909 81.327896 
L 412.625455 78.413665 
L 413.64 76.297707 
L 414.400909 75.170037 
L 415.161818 74.39116 
L 415.922727 73.925025 
L 416.683636 73.739169 
L 417.444545 73.804295 
L 418.205455 74.094024 
L 419.22 74.788799 
L 420.234545 75.790489 
L 421.502727 77.408255 
L 423.024545 79.791201 
L 424.8 83.050361 
L 426.829091 87.247139 
L 429.619091 93.578327 
L 433.677273 103.43779 
L 441.286364 122.464686 
L 441.54 122.480979 
L 442.047273 115.819419 
L 443.569091 101.930913 
L 444.837273 92.528125 
L 445.851818 86.513983 
L 446.866364 81.699133 
L 447.880909 77.936191 
L 448.895455 75.088151 
L 449.656364 73.479103 
L 450.417273 72.270889 
L 451.178182 71.422282 
L 451.939091 70.896119 
L 452.7 70.658941 
L 453.460909 70.680614 
L 454.221818 70.933954 
L 454.982727 71.394384 
L 455.997273 72.292433 
L 457.011818 73.472892 
L 458.28 75.284432 
L 459.801818 77.86311 
L 461.577273 81.309166 
L 463.86 86.247522 
L 466.903636 93.413022 
L 471.722727 105.428024 
L 477.556364 120.179977 
L 477.81 119.536809 
L 478.317273 113.105088 
L 479.839091 99.315367 
L 481.107273 90.005736 
L 482.121818 84.061885 
L 483.136364 79.31176 
L 484.150909 75.608146 
L 485.165455 72.814555 
L 485.926364 71.243502 
L 486.687273 70.071081 
L 487.448182 69.256258 
L 488.209091 68.762064 
L 488.97 68.555205 
L 489.730909 68.605693 
L 490.491818 68.886481 
L 491.252727 69.373113 
L 492.267273 70.304343 
L 493.535455 71.858162 
L 494.803636 73.773458 
L 496.325455 76.457977 
L 498.354545 80.54332 
L 500.890909 86.227006 
L 504.188182 94.205039 
L 510.275455 109.638894 
L 513.826364 118.666239 
L 514.08 117.302183 
L 514.587273 111.1583 
L 516.109091 97.453767 
L 517.377273 88.227025 
L 518.391818 82.34518 
L 519.406364 77.65159 
L 520.420909 73.999212 
L 521.435455 71.252089 
L 522.196364 69.713111 
L 522.957273 68.570622 
L 523.718182 67.78378 
L 524.479091 67.315805 
L 525.24 67.133572 
L 526.000909 67.207231 
L 526.761818 67.509877 
L 527.776364 68.227887 
L 528.790909 69.258793 
L 530.059091 70.92016 
L 531.580909 73.363944 
L 533.356364 76.703284 
L 535.385455 81.000663 
L 538.175455 87.480646 
L 542.233636 97.56815 
L 550.096364 117.67346 
L 550.35 115.598155 
L 550.857273 109.730487 
L 552.379091 96.102256 
L 553.647273 86.951429 
L 554.661818 81.125939 
L 555.676364 76.483276 
L 556.690909 72.876611 
L 557.705455 70.170514 
L 558.466364 68.659565 
L 559.227273 67.543009 
L 559.988182 66.780203 
L 560.749091 66.334539 
L 561.51 66.173054 
L 562.270909 66.266058 
L 563.031818 66.586762 
L 564.046364 67.327057 
L 565.060909 68.378436 
L 566.329091 70.063194 
L 567.850909 72.53229 
L 569.626364 75.897999 
L 571.909091 80.790904 
L 574.699091 87.349872 
L 578.757273 97.509548 
L 586.366364 117.032697 
L 587.888182 101.566932 
L 589.156364 91.204599 
L 590.170909 84.454503 
L 591.185455 78.989798 
L 592.2 74.665354 
L 593.214545 71.336669 
L 594.229091 68.872654 
L 594.99 67.522513 
L 595.750909 66.550755 
L 596.511818 65.918294 
L 597.272727 65.589966 
L 598.033636 65.534112 
L 598.794545 65.722162 
L 599.555455 66.12834 
L 600.57 66.969337 
L 601.584545 68.108043 
L 602.852727 69.885786 
L 604.374545 72.446452 
L 606.15 75.896509 
L 608.432727 80.870187 
L 611.476364 88.119979 
L 616.041818 99.667671 
L 622.636364 116.629799 
L 622.636364 116.629799 
" style="fill:none;stroke:#0f2080;stroke-linecap:square;stroke-width:3;"/>
   </g>
   <g id="line2d_17">
    <path clip-path="url(#pc948ea8eef)" d="M 115.363636 362.946462 
L 115.617273 359.692644 
L 115.870909 358.352774 
L 116.124545 357.917142 
L 116.631818 357.625964 
L 117.139091 357.644823 
L 118.153636 358.029683 
L 121.704545 359.625265 
L 123.987273 360.35745 
L 126.777273 360.999398 
L 130.074545 361.509836 
L 134.132727 361.902447 
L 139.712727 362.201077 
L 148.336364 362.40957 
L 151.38 362.449495 
L 151.633636 362.313554 
L 151.887273 358.880395 
L 152.140909 357.774874 
L 152.394545 357.39095 
L 152.901818 357.138839 
L 153.409091 357.177007 
L 154.423636 357.580753 
L 157.720909 359.104092 
L 160.003636 359.873454 
L 162.54 360.498949 
L 165.583636 361.024205 
L 169.388182 361.452382 
L 174.460909 361.788879 
L 182.07 362.044862 
L 187.65 362.146841 
L 187.903636 361.555244 
L 188.157273 358.319148 
L 188.410909 357.397737 
L 188.918182 356.897589 
L 189.425455 356.840554 
L 190.186364 357.069821 
L 195.766364 359.455381 
L 198.302727 360.12786 
L 201.346364 360.694548 
L 205.150909 361.159024 
L 210.223636 361.528058 
L 217.325455 361.801965 
L 223.92 361.942825 
L 224.173636 360.741577 
L 224.427273 357.903649 
L 224.680909 357.127656 
L 225.188182 356.682084 
L 225.695455 356.64455 
L 226.456364 356.886355 
L 231.782727 359.198923 
L 234.319091 359.895588 
L 237.362727 360.484001 
L 241.167273 360.968081 
L 245.986364 361.340791 
L 252.834545 361.631982 
L 260.19 361.805217 
L 260.950909 356.931181 
L 261.458182 356.533927 
L 261.965455 356.514554 
L 262.726364 356.767759 
L 267.799091 359.000647 
L 270.335455 359.720428 
L 273.379091 360.329146 
L 276.93 360.804052 
L 281.749091 361.202986 
L 288.343636 361.507189 
L 296.46 361.712482 
L 296.967273 357.353114 
L 297.220909 356.785769 
L 297.728182 356.431768 
L 298.235455 356.429411 
L 298.996364 356.693067 
L 303.815455 358.841097 
L 306.351818 359.583479 
L 309.141818 360.167898 
L 312.692727 360.673616 
L 317.258182 361.081071 
L 323.599091 361.403273 
L 332.73 361.650069 
L 333.237273 357.168742 
L 333.490909 356.676163 
L 333.998182 356.361101 
L 334.505455 356.374759 
L 335.266364 356.648092 
L 339.831818 358.707133 
L 342.368182 359.47193 
L 345.158182 360.074099 
L 348.709091 360.59531 
L 353.274545 361.015423 
L 359.615455 361.347898 
L 369 361.608146 
L 369.253636 358.359296 
L 369.507273 357.02372 
L 369.760909 356.591938 
L 370.268182 356.312222 
L 370.775455 356.340906 
L 371.79 356.744553 
L 375.340909 358.399751 
L 377.623636 359.166961 
L 380.413636 359.848575 
L 383.710909 360.402541 
L 387.769091 360.845145 
L 393.349091 361.207464 
L 401.719091 361.499085 
L 405.016364 361.574784 
L 405.27 361.441249 
L 405.523636 358.010483 
L 405.777273 356.90735 
L 406.030909 356.525809 
L 406.538182 356.278446 
L 407.045455 356.321333 
L 408.06 356.734434 
L 411.357273 358.287534 
L 413.64 359.07678 
L 416.176364 359.723893 
L 419.22 360.274247 
L 423.024545 360.732618 
L 428.097273 361.107522 
L 435.452727 361.409759 
L 441.286364 361.556016 
L 441.54 360.966036 
L 441.793636 357.731548 
L 442.047273 356.811745 
L 442.554545 356.314799 
L 443.061818 356.260952 
L 443.822727 356.494957 
L 449.402727 358.914172 
L 451.939091 359.601277 
L 454.982727 360.185024 
L 458.787273 360.670008 
L 463.606364 361.04996 
L 470.708182 361.365088 
L 477.556364 361.543587 
L 477.81 360.343431 
L 478.063636 357.506591 
L 478.317273 356.731684 
L 478.824545 356.288274 
L 479.331818 356.252894 
L 480.092727 356.497901 
L 485.419091 358.83221 
L 487.955455 359.538783 
L 490.999091 360.138753 
L 494.803636 360.63673 
L 499.622727 361.026256 
L 506.470909 361.339885 
L 513.826364 361.53544 
L 514.587273 356.663611 
L 515.094545 356.267819 
L 515.601818 356.249901 
L 516.362727 356.50527 
L 521.435455 358.752168 
L 523.971818 359.478664 
L 527.015455 360.095213 
L 530.566364 360.578917 
L 535.131818 360.972544 
L 541.726364 361.299026 
L 550.096364 361.530186 
L 550.603636 357.171814 
L 550.857273 356.604964 
L 551.364545 356.251951 
L 551.871818 356.250577 
L 552.632727 356.515696 
L 557.451818 358.672734 
L 559.988182 359.419663 
L 562.778182 360.008952 
L 566.329091 360.520649 
L 570.894545 360.935469 
L 577.235455 361.267316 
L 586.366364 361.526888 
L 586.873636 357.046232 
L 587.127273 356.553989 
L 587.634545 356.239594 
L 588.141818 356.253917 
L 588.902727 356.528238 
L 593.468182 358.593053 
L 596.004545 359.360931 
L 598.794545 359.966399 
L 602.345455 360.491662 
L 606.910909 360.916766 
L 613.251818 361.255776 
L 622.636364 361.524909 
L 622.636364 361.524909 
" style="fill:none;stroke:#f57938;stroke-linecap:square;stroke-width:3;"/>
   </g>
   <g id="line2d_18">
    <path clip-path="url(#pc948ea8eef)" d="M 115.363636 362.946462 
L 115.617273 362.175438 
L 116.124545 357.227678 
L 118.660909 329.603229 
L 119.929091 318.481068 
L 121.197273 309.289154 
L 122.465455 301.756917 
L 123.733636 295.627017 
L 125.001818 290.676895 
L 126.27 286.718108 
L 127.538182 283.591655 
L 128.806364 281.163599 
L 129.820909 279.647594 
L 130.835455 278.456615 
L 131.85 277.547577 
L 132.864545 276.882947 
L 134.132727 276.346479 
L 135.400909 276.086374 
L 136.669091 276.056459 
L 138.190909 276.27011 
L 139.712727 276.703952 
L 141.488182 277.428668 
L 143.770909 278.620221 
L 146.560909 280.351491 
L 150.365455 283.003897 
L 151.633636 283.930444 
L 151.887273 283.08003 
L 152.648182 275.701916 
L 154.677273 254.971651 
L 155.945455 244.451023 
L 157.213636 235.902776 
L 158.481818 229.060526 
L 159.496364 224.635143 
L 160.510909 221.012072 
L 161.525455 218.086017 
L 162.54 215.764889 
L 163.554545 213.968942 
L 164.569091 212.628278 
L 165.583636 211.682091 
L 166.598182 211.077467 
L 167.612727 210.768261 
L 168.627273 210.714232 
L 169.641818 210.880301 
L 170.91 211.35127 
L 172.178182 212.067667 
L 173.7 213.1913 
L 175.475455 214.789634 
L 177.758182 217.182023 
L 180.548182 220.455934 
L 184.606364 225.604613 
L 187.903636 229.916868 
L 188.157273 228.938641 
L 188.918182 221.879212 
L 190.693636 204.565553 
L 191.961818 194.399955 
L 193.23 186.234436 
L 194.244545 180.97123 
L 195.259091 176.683845 
L 196.273636 173.245947 
L 197.288182 170.546456 
L 198.302727 168.487145 
L 199.317273 166.982815 
L 200.331818 165.959366 
L 201.092727 165.46815 
L 201.853636 165.186646 
L 202.614545 165.092942 
L 203.629091 165.226411 
L 204.643636 165.617729 
L 205.658182 166.2309 
L 206.926364 167.261859 
L 208.448182 168.818758 
L 210.223636 170.982721 
L 212.506364 174.171676 
L 215.296364 178.488424 
L 219.354545 185.2233 
L 224.173636 193.398981 
L 224.427273 192.26405 
L 225.188182 185.399667 
L 226.963636 168.820275 
L 228.231818 159.196417 
L 229.246364 152.94009 
L 230.260909 147.826725 
L 231.275455 143.714171 
L 232.29 140.472755 
L 233.304545 137.988441 
L 234.319091 136.160226 
L 235.08 135.16635 
L 235.840909 134.459234 
L 236.601818 134.009375 
L 237.362727 133.790094 
L 238.123636 133.777291 
L 238.884545 133.949184 
L 239.899091 134.432137 
L 240.913636 135.167854 
L 242.181818 136.388902 
L 243.703636 138.218318 
L 245.479091 140.74821 
L 247.508182 144.030144 
L 250.298182 149.008396 
L 254.102727 156.296938 
L 260.443636 168.684608 
L 260.697273 167.394402 
L 261.458182 160.643557 
L 263.233636 144.578081 
L 264.501818 135.339357 
L 265.516364 129.383774 
L 266.530909 124.563222 
L 267.545455 120.735803 
L 268.56 117.772461 
L 269.574545 115.559665 
L 270.335455 114.331655 
L 271.096364 113.431564 
L 271.857273 112.825739 
L 272.618182 112.483791 
L 273.379091 112.378312 
L 274.14 112.484536 
L 274.900909 112.779992 
L 275.915455 113.433753 
L 276.93 114.346077 
L 278.198182 115.794501 
L 279.72 117.904221 
L 281.495455 120.768259 
L 283.778182 124.919762 
L 286.821818 130.996187 
L 291.387273 140.705581 
L 296.46 151.716341 
L 296.713636 151.930246 
L 296.967273 150.499443 
L 297.981818 141.431136 
L 299.503636 128.109513 
L 300.771818 119.150067 
L 301.786364 113.411449 
L 302.800909 108.800855 
L 303.815455 105.176649 
L 304.83 102.410305 
L 305.844545 100.388882 
L 306.605455 99.301007 
L 307.366364 98.538353 
L 308.127273 98.067438 
L 308.888182 97.858025 
L 309.649091 97.882866 
L 310.41 98.117289 
L 311.424545 98.717611 
L 312.439091 99.604358 
L 313.707273 101.054281 
L 315.229091 103.20674 
L 317.004545 106.165647 
L 319.033636 109.988934 
L 321.823636 115.771372 
L 325.628182 124.218293 
L 332.73 140.498877 
L 332.983636 140.544065 
L 333.490909 136.912275 
L 336.027273 114.97777 
L 337.041818 108.142531 
L 338.056364 102.564229 
L 339.070909 98.10753 
L 340.085455 94.631098 
L 341.1 92.006987 
L 341.860909 90.530128 
L 342.621818 89.426483 
L 343.382727 88.657618 
L 344.143636 88.188991 
L 344.904545 87.989523 
L 345.665455 88.031189 
L 346.426364 88.288549 
L 347.440909 88.927871 
L 348.455455 89.861921 
L 349.723636 91.380802 
L 351.245455 93.627864 
L 353.020909 96.709868 
L 355.05 100.686186 
L 357.84 106.69333 
L 361.898182 116.058774 
L 369 132.948781 
L 369.253636 132.777833 
L 369.760909 129.027132 
L 372.297273 107.345098 
L 373.311818 100.636949 
L 374.326364 95.180632 
L 375.340909 90.839861 
L 376.355455 87.473704 
L 377.37 84.954789 
L 378.130909 83.553759 
L 378.891818 82.523515 
L 379.652727 81.825863 
L 380.413636 81.426472 
L 381.174545 81.294327 
L 381.935455 81.401618 
L 382.696364 81.723032 
L 383.710909 82.445474 
L 384.725455 83.460247 
L 385.993636 85.076999 
L 387.515455 87.437553 
L 389.290909 90.647148 
L 391.573636 95.30478 
L 394.363636 101.540218 
L 398.675455 111.804573 
L 405.27 127.875729 
L 405.523636 127.452255 
L 406.030909 123.59685 
L 408.313636 103.964235 
L 409.328182 97.028512 
L 410.342727 91.368433 
L 411.357273 86.85402 
L 412.371818 83.342942 
L 413.386364 80.704445 
L 414.147273 79.228529 
L 414.908182 78.13481 
L 415.669091 77.383862 
L 416.43 76.94026 
L 417.190909 76.772188 
L 417.951818 76.850917 
L 418.712727 77.15041 
L 419.727273 77.85284 
L 420.741818 78.856783 
L 422.01 80.470969 
L 423.531818 82.841894 
L 425.307273 86.078428 
L 427.59 90.788424 
L 430.38 97.106912 
L 434.438182 106.899575 
L 441.54 124.461404 
L 441.793636 123.771835 
L 442.554545 117.57365 
L 444.33 102.242242 
L 445.598182 93.469405 
L 446.612727 87.889041 
L 447.627273 83.448868 
L 448.641818 80.006687 
L 449.656364 77.43234 
L 450.417273 76.00173 
L 451.178182 74.951122 
L 451.939091 74.241304 
L 452.7 73.837029 
L 453.460909 73.70663 
L 454.221818 73.821533 
L 454.982727 74.155822 
L 455.997273 74.902696 
L 457.011818 75.949085 
L 458.28 77.613854 
L 459.801818 80.04231 
L 461.577273 83.342239 
L 463.86 88.128858 
L 466.65 94.534958 
L 470.961818 105.077677 
L 477.81 122.13984 
L 478.063636 121.199964 
L 478.824545 114.917551 
L 480.6 99.677626 
L 481.868182 90.994905 
L 482.882727 85.482273 
L 483.897273 81.104475 
L 484.911818 77.719474 
L 485.926364 75.197705 
L 486.687273 73.803813 
L 487.448182 72.787808 
L 488.209091 72.110688 
L 488.97 71.73739 
L 489.730909 71.636385 
L 490.491818 71.779256 
L 491.252727 72.140208 
L 492.267273 72.920794 
L 493.281818 73.999021 
L 494.55 75.701283 
L 496.071818 78.17181 
L 497.847273 81.517428 
L 500.13 86.358412 
L 502.92 92.825675 
L 507.231818 103.45441 
L 514.08 120.532945 
L 514.333636 119.374543 
L 515.094545 113.016952 
L 516.87 97.856592 
L 518.138182 89.253822 
L 519.152727 83.800775 
L 520.167273 79.477266 
L 521.181818 76.141477 
L 522.196364 73.664418 
L 522.957273 72.301411 
L 523.718182 71.314232 
L 524.479091 70.664088 
L 525.24 70.316101 
L 526.000909 70.238875 
L 526.761818 70.40415 
L 527.522727 70.786253 
L 528.537273 71.593277 
L 529.551818 72.696156 
L 530.82 74.42705 
L 532.341818 76.929182 
L 534.117273 80.308506 
L 536.4 85.1888 
L 539.443636 92.311964 
L 544.009091 103.669617 
L 550.096364 119.089735 
L 550.35 119.392948 
L 550.603636 118.05121 
L 551.618182 109.336727 
L 553.14 96.538622 
L 554.154545 89.550819 
L 555.169091 83.848615 
L 556.183636 79.306279 
L 557.198182 75.781327 
L 558.212727 73.141131 
L 558.973636 71.671065 
L 559.734545 70.588691 
L 560.495455 69.853926 
L 561.256364 69.430841 
L 562.017273 69.287133 
L 562.778182 69.393621 
L 563.539091 69.723915 
L 564.553636 70.471588 
L 565.568182 71.524875 
L 566.836364 73.205529 
L 568.358182 75.661862 
L 570.133636 79.003971 
L 572.416364 83.856221 
L 575.206364 90.354491 
L 579.518182 101.054365 
L 586.366364 118.452271 
L 586.62 118.557806 
L 587.127273 115.046218 
L 589.663636 93.702931 
L 590.678182 87.09968 
L 591.692727 81.750838 
L 592.707273 77.521092 
L 593.721818 74.269142 
L 594.736364 71.867071 
L 595.497273 70.555149 
L 596.258182 69.615086 
L 597.019091 69.008465 
L 597.78 68.700755 
L 598.540909 68.660883 
L 599.301818 68.860839 
L 600.062727 69.275195 
L 601.077273 70.12185 
L 602.091818 71.260969 
L 603.36 73.033041 
L 604.881818 75.579389 
L 606.657273 79.004395 
L 608.94 83.936027 
L 611.983636 91.117897 
L 616.549091 102.549318 
L 622.636364 118.051351 
L 622.636364 118.051351 
" style="fill:none;stroke:#85c0f9;stroke-dasharray:11.1,4.8;stroke-dashoffset:0;stroke-width:3;"/>
   </g>
   <g id="patch_3">
    <path d="M 90 378 
L 90 51.84 
" style="fill:none;stroke:#000000;stroke-linecap:square;stroke-linejoin:miter;stroke-width:0.8;"/>
   </g>
   <g id="patch_4">
    <path d="M 648 378 
L 648 51.84 
" style="fill:none;stroke:#000000;stroke-linecap:square;stroke-linejoin:miter;stroke-width:0.8;"/>
   </g>
   <g id="patch_5">
    <path d="M 90 378 
L 648 378 
" style="fill:none;stroke:#000000;stroke-linecap:square;stroke-linejoin:miter;stroke-width:0.8;"/>
   </g>
   <g id="patch_6">
    <path d="M 90 51.84 
L 648 51.84 
" style="fill:none;stroke:#000000;stroke-linecap:square;stroke-linejoin:miter;stroke-width:0.8;"/>
   </g>
  </g>
 </g>
 <defs>
  <clipPath id="pc948ea8eef">
   <rect height="326.16" width="558" x="90" y="51.84"/>
  </clipPath>
 </defs>
</svg>
