<?xml version="1.0" encoding="utf-8" standalone="no"?>
<!DOCTYPE svg PUBLIC "-//W3C//DTD SVG 1.1//EN"
  "http://www.w3.org/Graphics/SVG/1.1/DTD/svg11.dtd">
<!-- Created with matplotlib (https://matplotlib.org/) -->
<svg height="432pt" version="1.1" viewBox="0 0 720 432" width="720pt" xmlns="http://www.w3.org/2000/svg" xmlns:xlink="http://www.w3.org/1999/xlink">
 <defs>
  <style type="text/css">
*{stroke-linecap:butt;stroke-linejoin:round;}
  </style>
 </defs>
 <g id="figure_1">
  <g id="patch_1">
   <path d="M 0 432 
L 720 432 
L 720 0 
L 0 0 
z
" style="fill:#ffffff;"/>
  </g>
  <g id="axes_1">
   <g id="patch_2">
    <path d="M 90 378 
L 648 378 
L 648 51.84 
L 90 51.84 
z
" style="fill:#ffffff;"/>
   </g>
   <g id="matplotlib.axis_1">
    <g id="xtick_1">
     <g id="line2d_1">
      <defs>
       <path d="M 0 0 
L 0 3.5 
" id="m7f373e270a" style="stroke:#000000;stroke-width:0.8;"/>
      </defs>
      <g>
       <use style="stroke:#000000;stroke-width:0.8;" x="115.363636" xlink:href="#m7f373e270a" y="378"/>
      </g>
     </g>
     <g id="text_1">
      <!-- 0 -->
      <defs>
       <path d="M 31.78125 3.421875 
Q 39.265625 3.421875 42.96875 11.625 
Q 46.6875 19.828125 46.6875 36.375 
Q 46.6875 52.984375 42.96875 61.1875 
Q 39.265625 69.390625 31.78125 69.390625 
Q 24.3125 69.390625 20.59375 61.1875 
Q 16.890625 52.984375 16.890625 36.375 
Q 16.890625 19.828125 20.59375 11.625 
Q 24.3125 3.421875 31.78125 3.421875 
z
M 31.78125 -1.421875 
Q 19.921875 -1.421875 13.25 8.53125 
Q 6.59375 18.5 6.59375 36.375 
Q 6.59375 54.296875 13.25 64.25 
Q 19.921875 74.21875 31.78125 74.21875 
Q 43.703125 74.21875 50.34375 64.25 
Q 56.984375 54.296875 56.984375 36.375 
Q 56.984375 18.5 50.34375 8.53125 
Q 43.703125 -1.421875 31.78125 -1.421875 
z
" id="DejaVuSerif-48"/>
      </defs>
      <g transform="translate(111.546136 394.118125)scale(0.12 -0.12)">
       <use xlink:href="#DejaVuSerif-48"/>
      </g>
     </g>
    </g>
    <g id="xtick_2">
     <g id="line2d_2">
      <g>
       <use style="stroke:#000000;stroke-width:0.8;" x="187.831169" xlink:href="#m7f373e270a" y="378"/>
      </g>
     </g>
     <g id="text_2">
      <!-- 2 -->
      <defs>
       <path d="M 12.796875 55.515625 
L 7.328125 55.515625 
L 7.328125 68.5 
Q 12.546875 71.296875 17.84375 72.75 
Q 23.140625 74.21875 28.21875 74.21875 
Q 39.59375 74.21875 46.1875 68.703125 
Q 52.78125 63.1875 52.78125 53.71875 
Q 52.78125 43.015625 37.84375 28.125 
Q 36.671875 27 36.078125 26.421875 
L 17.671875 8.015625 
L 48.09375 8.015625 
L 48.09375 17 
L 53.8125 17 
L 53.8125 0 
L 6.78125 0 
L 6.78125 5.328125 
L 28.90625 27.390625 
Q 36.234375 34.71875 39.359375 40.84375 
Q 42.484375 46.96875 42.484375 53.71875 
Q 42.484375 61.078125 38.640625 65.234375 
Q 34.8125 69.390625 28.078125 69.390625 
Q 21.09375 69.390625 17.28125 65.921875 
Q 13.484375 62.453125 12.796875 55.515625 
z
" id="DejaVuSerif-50"/>
      </defs>
      <g transform="translate(184.013669 394.118125)scale(0.12 -0.12)">
       <use xlink:href="#DejaVuSerif-50"/>
      </g>
     </g>
    </g>
    <g id="xtick_3">
     <g id="line2d_3">
      <g>
       <use style="stroke:#000000;stroke-width:0.8;" x="260.298701" xlink:href="#m7f373e270a" y="378"/>
      </g>
     </g>
     <g id="text_3">
      <!-- 4 -->
      <defs>
       <path d="M 34.90625 24.703125 
L 34.90625 63.484375 
L 10.015625 24.703125 
z
M 56.390625 0 
L 23.1875 0 
L 23.1875 5.171875 
L 34.90625 5.171875 
L 34.90625 19.484375 
L 3.078125 19.484375 
L 3.078125 24.8125 
L 35.015625 74.21875 
L 44.671875 74.21875 
L 44.671875 24.703125 
L 58.59375 24.703125 
L 58.59375 19.484375 
L 44.671875 19.484375 
L 44.671875 5.171875 
L 56.390625 5.171875 
z
" id="DejaVuSerif-52"/>
      </defs>
      <g transform="translate(256.481201 394.118125)scale(0.12 -0.12)">
       <use xlink:href="#DejaVuSerif-52"/>
      </g>
     </g>
    </g>
    <g id="xtick_4">
     <g id="line2d_4">
      <g>
       <use style="stroke:#000000;stroke-width:0.8;" x="332.766234" xlink:href="#m7f373e270a" y="378"/>
      </g>
     </g>
     <g id="text_4">
      <!-- 6 -->
      <defs>
       <path d="M 32.71875 3.421875 
Q 39.59375 3.421875 43.296875 8.46875 
Q 47.015625 13.53125 47.015625 23 
Q 47.015625 32.46875 43.296875 37.515625 
Q 39.59375 42.578125 32.71875 42.578125 
Q 25.734375 42.578125 22.0625 37.6875 
Q 18.40625 32.8125 18.40625 23.578125 
Q 18.40625 13.875 22.109375 8.640625 
Q 25.828125 3.421875 32.71875 3.421875 
z
M 16.796875 40.140625 
Q 20.125 43.796875 24.3125 45.59375 
Q 28.515625 47.40625 33.796875 47.40625 
Q 44.671875 47.40625 51 40.859375 
Q 57.328125 34.328125 57.328125 23 
Q 57.328125 11.921875 50.515625 5.25 
Q 43.703125 -1.421875 32.328125 -1.421875 
Q 19.96875 -1.421875 13.328125 7.78125 
Q 6.6875 17 6.6875 34.078125 
Q 6.6875 53.21875 14.546875 63.71875 
Q 22.40625 74.21875 36.71875 74.21875 
Q 40.578125 74.21875 44.828125 73.484375 
Q 49.078125 72.75 53.515625 71.296875 
L 53.515625 59.28125 
L 48 59.28125 
Q 47.40625 64.203125 44.234375 66.796875 
Q 41.0625 69.390625 35.6875 69.390625 
Q 26.21875 69.390625 21.578125 62.203125 
Q 16.9375 55.03125 16.796875 40.140625 
z
" id="DejaVuSerif-54"/>
      </defs>
      <g transform="translate(328.948734 394.118125)scale(0.12 -0.12)">
       <use xlink:href="#DejaVuSerif-54"/>
      </g>
     </g>
    </g>
    <g id="xtick_5">
     <g id="line2d_5">
      <g>
       <use style="stroke:#000000;stroke-width:0.8;" x="405.233766" xlink:href="#m7f373e270a" y="378"/>
      </g>
     </g>
     <g id="text_5">
      <!-- 8 -->
      <defs>
       <path d="M 46.578125 19.921875 
Q 46.578125 27.734375 42.6875 32.046875 
Q 38.8125 36.375 31.78125 36.375 
Q 24.75 36.375 20.875 32.046875 
Q 17 27.734375 17 19.921875 
Q 17 12.0625 20.875 7.734375 
Q 24.75 3.421875 31.78125 3.421875 
Q 38.8125 3.421875 42.6875 7.734375 
Q 46.578125 12.0625 46.578125 19.921875 
z
M 44.578125 55.328125 
Q 44.578125 61.96875 41.203125 65.671875 
Q 37.84375 69.390625 31.78125 69.390625 
Q 25.78125 69.390625 22.390625 65.671875 
Q 19 61.96875 19 55.328125 
Q 19 48.640625 22.390625 44.921875 
Q 25.78125 41.21875 31.78125 41.21875 
Q 37.84375 41.21875 41.203125 44.921875 
Q 44.578125 48.640625 44.578125 55.328125 
z
M 39.3125 38.8125 
Q 47.609375 37.703125 52.25 32.6875 
Q 56.890625 27.6875 56.890625 19.921875 
Q 56.890625 9.671875 50.390625 4.125 
Q 43.890625 -1.421875 31.78125 -1.421875 
Q 19.734375 -1.421875 13.203125 4.125 
Q 6.6875 9.671875 6.6875 19.921875 
Q 6.6875 27.6875 11.328125 32.6875 
Q 15.96875 37.703125 24.3125 38.8125 
Q 16.9375 40.140625 13 44.40625 
Q 9.078125 48.6875 9.078125 55.328125 
Q 9.078125 64.109375 15.125 69.15625 
Q 21.1875 74.21875 31.78125 74.21875 
Q 42.390625 74.21875 48.4375 69.15625 
Q 54.5 64.109375 54.5 55.328125 
Q 54.5 48.6875 50.5625 44.40625 
Q 46.625 40.140625 39.3125 38.8125 
z
" id="DejaVuSerif-56"/>
      </defs>
      <g transform="translate(401.416266 394.118125)scale(0.12 -0.12)">
       <use xlink:href="#DejaVuSerif-56"/>
      </g>
     </g>
    </g>
    <g id="xtick_6">
     <g id="line2d_6">
      <g>
       <use style="stroke:#000000;stroke-width:0.8;" x="477.701299" xlink:href="#m7f373e270a" y="378"/>
      </g>
     </g>
     <g id="text_6">
      <!-- 10 -->
      <defs>
       <path d="M 14.203125 0 
L 14.203125 5.171875 
L 26.90625 5.171875 
L 26.90625 65.828125 
L 12.203125 56.296875 
L 12.203125 62.703125 
L 29.984375 74.21875 
L 36.71875 74.21875 
L 36.71875 5.171875 
L 49.421875 5.171875 
L 49.421875 0 
z
" id="DejaVuSerif-49"/>
      </defs>
      <g transform="translate(470.066299 394.118125)scale(0.12 -0.12)">
       <use xlink:href="#DejaVuSerif-49"/>
       <use x="63.623047" xlink:href="#DejaVuSerif-48"/>
      </g>
     </g>
    </g>
    <g id="xtick_7">
     <g id="line2d_7">
      <g>
       <use style="stroke:#000000;stroke-width:0.8;" x="550.168831" xlink:href="#m7f373e270a" y="378"/>
      </g>
     </g>
     <g id="text_7">
      <!-- 12 -->
      <g transform="translate(542.533831 394.118125)scale(0.12 -0.12)">
       <use xlink:href="#DejaVuSerif-49"/>
       <use x="63.623047" xlink:href="#DejaVuSerif-50"/>
      </g>
     </g>
    </g>
    <g id="xtick_8">
     <g id="line2d_8">
      <g>
       <use style="stroke:#000000;stroke-width:0.8;" x="622.636364" xlink:href="#m7f373e270a" y="378"/>
      </g>
     </g>
     <g id="text_8">
      <!-- 14 -->
      <g transform="translate(615.001364 394.118125)scale(0.12 -0.12)">
       <use xlink:href="#DejaVuSerif-49"/>
       <use x="63.623047" xlink:href="#DejaVuSerif-52"/>
      </g>
     </g>
    </g>
    <g id="text_9">
     <!-- Time [d] -->
     <defs>
      <path d="M 19.09375 0 
L 19.09375 5.171875 
L 28.421875 5.171875 
L 28.421875 67.09375 
L 6.984375 67.09375 
L 6.984375 55.71875 
L 0.984375 55.71875 
L 0.984375 72.90625 
L 65.71875 72.90625 
L 65.71875 55.71875 
L 59.71875 55.71875 
L 59.71875 67.09375 
L 38.28125 67.09375 
L 38.28125 5.171875 
L 47.609375 5.171875 
L 47.609375 0 
z
" id="DejaVuSerif-84"/>
      <path d="M 9.71875 68.015625 
Q 9.71875 70.265625 11.34375 71.921875 
Q 12.984375 73.578125 15.28125 73.578125 
Q 17.53125 73.578125 19.15625 71.921875 
Q 20.796875 70.265625 20.796875 68.015625 
Q 20.796875 65.71875 19.1875 64.109375 
Q 17.578125 62.5 15.28125 62.5 
Q 12.984375 62.5 11.34375 64.109375 
Q 9.71875 65.71875 9.71875 68.015625 
z
M 21.1875 5.171875 
L 29.6875 5.171875 
L 29.6875 0 
L 3.609375 0 
L 3.609375 5.171875 
L 12.203125 5.171875 
L 12.203125 46.6875 
L 3.609375 46.6875 
L 3.609375 51.90625 
L 21.1875 51.90625 
z
" id="DejaVuSerif-105"/>
      <path d="M 51.8125 41.796875 
Q 54.390625 47.515625 58.421875 50.421875 
Q 62.453125 53.328125 67.828125 53.328125 
Q 75.984375 53.328125 79.984375 48.265625 
Q 83.984375 43.21875 83.984375 33.015625 
L 83.984375 5.171875 
L 92.09375 5.171875 
L 92.09375 0 
L 67.1875 0 
L 67.1875 5.171875 
L 75 5.171875 
L 75 31.984375 
Q 75 39.9375 72.65625 43.3125 
Q 70.3125 46.6875 64.890625 46.6875 
Q 58.890625 46.6875 55.734375 42.140625 
Q 52.59375 37.59375 52.59375 28.90625 
L 52.59375 5.171875 
L 60.40625 5.171875 
L 60.40625 0 
L 35.796875 0 
L 35.796875 5.171875 
L 43.609375 5.171875 
L 43.609375 32.328125 
Q 43.609375 40.09375 41.265625 43.390625 
Q 38.921875 46.6875 33.5 46.6875 
Q 27.484375 46.6875 24.328125 42.140625 
Q 21.1875 37.59375 21.1875 28.90625 
L 21.1875 5.171875 
L 29 5.171875 
L 29 0 
L 4.109375 0 
L 4.109375 5.171875 
L 12.203125 5.171875 
L 12.203125 46.78125 
L 3.609375 46.78125 
L 3.609375 51.90625 
L 21.1875 51.90625 
L 21.1875 42.671875 
Q 23.6875 47.859375 27.53125 50.59375 
Q 31.390625 53.328125 36.28125 53.328125 
Q 42.328125 53.328125 46.375 50.3125 
Q 50.4375 47.3125 51.8125 41.796875 
z
" id="DejaVuSerif-109"/>
      <path d="M 54.203125 25 
L 15.484375 25 
L 15.484375 24.609375 
Q 15.484375 14.109375 19.4375 8.765625 
Q 23.390625 3.421875 31.109375 3.421875 
Q 37.015625 3.421875 40.796875 6.515625 
Q 44.578125 9.625 46.09375 15.71875 
L 53.328125 15.71875 
Q 51.171875 7.171875 45.375 2.875 
Q 39.59375 -1.421875 30.171875 -1.421875 
Q 18.796875 -1.421875 11.890625 6.078125 
Q 4.984375 13.578125 4.984375 25.984375 
Q 4.984375 38.28125 11.765625 45.796875 
Q 18.5625 53.328125 29.59375 53.328125 
Q 41.359375 53.328125 47.65625 46.0625 
Q 53.953125 38.8125 54.203125 25 
z
M 43.609375 30.171875 
Q 43.3125 39.265625 39.765625 43.875 
Q 36.234375 48.484375 29.59375 48.484375 
Q 23.390625 48.484375 19.828125 43.84375 
Q 16.265625 39.203125 15.484375 30.171875 
z
" id="DejaVuSerif-101"/>
      <path id="DejaVuSerif-32"/>
      <path d="M 8.59375 75.984375 
L 31.296875 75.984375 
L 31.296875 70.796875 
L 17.921875 70.796875 
L 17.921875 -8.015625 
L 31.296875 -8.015625 
L 31.296875 -13.1875 
L 8.59375 -13.1875 
z
" id="DejaVuSerif-91"/>
      <path d="M 52.484375 5.171875 
L 61.078125 5.171875 
L 61.078125 0 
L 43.5 0 
L 43.5 8.109375 
Q 40.875 3.21875 36.796875 0.890625 
Q 32.71875 -1.421875 26.703125 -1.421875 
Q 17.140625 -1.421875 11.0625 6.171875 
Q 4.984375 13.765625 4.984375 25.984375 
Q 4.984375 38.1875 11.03125 45.75 
Q 17.09375 53.328125 26.703125 53.328125 
Q 32.71875 53.328125 36.796875 51 
Q 40.875 48.6875 43.5 43.796875 
L 43.5 70.796875 
L 35.015625 70.796875 
L 35.015625 75.984375 
L 52.484375 75.984375 
z
M 43.5 23.390625 
L 43.5 28.515625 
Q 43.5 37.84375 39.90625 42.765625 
Q 36.328125 47.703125 29.5 47.703125 
Q 22.5625 47.703125 19.015625 42.234375 
Q 15.484375 36.765625 15.484375 25.984375 
Q 15.484375 15.234375 19.015625 9.71875 
Q 22.5625 4.203125 29.5 4.203125 
Q 36.328125 4.203125 39.90625 9.109375 
Q 43.5 14.015625 43.5 23.390625 
z
" id="DejaVuSerif-100"/>
      <path d="M 30.421875 75.984375 
L 30.421875 -13.1875 
L 7.71875 -13.1875 
L 7.71875 -8.015625 
L 21.09375 -8.015625 
L 21.09375 70.796875 
L 7.71875 70.796875 
L 7.71875 75.984375 
z
" id="DejaVuSerif-93"/>
     </defs>
     <g transform="translate(332.744844 413.531094)scale(0.17 -0.17)">
      <use xlink:href="#DejaVuSerif-84"/>
      <use x="66.699219" xlink:href="#DejaVuSerif-105"/>
      <use x="98.681641" xlink:href="#DejaVuSerif-109"/>
      <use x="193.505859" xlink:href="#DejaVuSerif-101"/>
      <use x="252.685547" xlink:href="#DejaVuSerif-32"/>
      <use x="284.472656" xlink:href="#DejaVuSerif-91"/>
      <use x="323.486328" xlink:href="#DejaVuSerif-100"/>
      <use x="387.5" xlink:href="#DejaVuSerif-93"/>
     </g>
    </g>
   </g>
   <g id="matplotlib.axis_2">
    <g id="ytick_1">
     <g id="line2d_9">
      <defs>
       <path d="M 0 0 
L -3.5 0 
" id="m922c7d49c8" style="stroke:#000000;stroke-width:0.8;"/>
      </defs>
      <g>
       <use style="stroke:#000000;stroke-width:0.8;" x="90" xlink:href="#m922c7d49c8" y="356.820779"/>
      </g>
     </g>
     <g id="text_10">
      <!-- 0 -->
      <g transform="translate(75.365 361.379842)scale(0.12 -0.12)">
       <use xlink:href="#DejaVuSerif-48"/>
      </g>
     </g>
    </g>
    <g id="ytick_2">
     <g id="line2d_10">
      <g>
       <use style="stroke:#000000;stroke-width:0.8;" x="90" xlink:href="#m922c7d49c8" y="314.462338"/>
      </g>
     </g>
     <g id="text_11">
      <!-- 1 -->
      <g transform="translate(75.365 319.0214)scale(0.12 -0.12)">
       <use xlink:href="#DejaVuSerif-49"/>
      </g>
     </g>
    </g>
    <g id="ytick_3">
     <g id="line2d_11">
      <g>
       <use style="stroke:#000000;stroke-width:0.8;" x="90" xlink:href="#m922c7d49c8" y="272.103896"/>
      </g>
     </g>
     <g id="text_12">
      <!-- 2 -->
      <g transform="translate(75.365 276.662959)scale(0.12 -0.12)">
       <use xlink:href="#DejaVuSerif-50"/>
      </g>
     </g>
    </g>
    <g id="ytick_4">
     <g id="line2d_12">
      <g>
       <use style="stroke:#000000;stroke-width:0.8;" x="90" xlink:href="#m922c7d49c8" y="229.745455"/>
      </g>
     </g>
     <g id="text_13">
      <!-- 3 -->
      <defs>
       <path d="M 9.71875 69.828125 
Q 15.4375 71.96875 20.671875 73.09375 
Q 25.921875 74.21875 30.515625 74.21875 
Q 41.21875 74.21875 47.21875 69.59375 
Q 53.21875 64.984375 53.21875 56.78125 
Q 53.21875 50.203125 49.0625 45.78125 
Q 44.921875 41.359375 37.3125 39.796875 
Q 46.296875 38.53125 51.25 33.28125 
Q 56.203125 28.03125 56.203125 19.671875 
Q 56.203125 9.46875 49.34375 4.015625 
Q 42.484375 -1.421875 29.59375 -1.421875 
Q 23.875 -1.421875 18.421875 -0.1875 
Q 12.984375 1.03125 7.625 3.515625 
L 7.625 17.671875 
L 13.09375 17.671875 
Q 13.578125 10.640625 17.828125 7.03125 
Q 22.078125 3.421875 29.78125 3.421875 
Q 37.25 3.421875 41.578125 7.734375 
Q 45.90625 12.0625 45.90625 19.578125 
Q 45.90625 28.171875 41.453125 32.59375 
Q 37.015625 37.015625 28.421875 37.015625 
L 23.78125 37.015625 
L 23.78125 42 
L 26.21875 42 
Q 34.765625 42 39.03125 45.53125 
Q 43.3125 49.078125 43.3125 56.203125 
Q 43.3125 62.59375 39.796875 65.984375 
Q 36.28125 69.390625 29.6875 69.390625 
Q 23.09375 69.390625 19.453125 66.265625 
Q 15.828125 63.140625 15.1875 56.984375 
L 9.71875 56.984375 
z
" id="DejaVuSerif-51"/>
      </defs>
      <g transform="translate(75.365 234.304517)scale(0.12 -0.12)">
       <use xlink:href="#DejaVuSerif-51"/>
      </g>
     </g>
    </g>
    <g id="ytick_5">
     <g id="line2d_13">
      <g>
       <use style="stroke:#000000;stroke-width:0.8;" x="90" xlink:href="#m922c7d49c8" y="187.387013"/>
      </g>
     </g>
     <g id="text_14">
      <!-- 4 -->
      <g transform="translate(75.365 191.946075)scale(0.12 -0.12)">
       <use xlink:href="#DejaVuSerif-52"/>
      </g>
     </g>
    </g>
    <g id="ytick_6">
     <g id="line2d_14">
      <g>
       <use style="stroke:#000000;stroke-width:0.8;" x="90" xlink:href="#m922c7d49c8" y="145.028571"/>
      </g>
     </g>
     <g id="text_15">
      <!-- 5 -->
      <defs>
       <path d="M 50.296875 72.90625 
L 50.296875 64.890625 
L 16.890625 64.890625 
L 16.890625 44 
Q 19.4375 45.75 22.828125 46.625 
Q 26.21875 47.515625 30.421875 47.515625 
Q 42.234375 47.515625 49.0625 40.96875 
Q 55.90625 34.421875 55.90625 23.09375 
Q 55.90625 11.53125 49 5.046875 
Q 42.09375 -1.421875 29.59375 -1.421875 
Q 24.5625 -1.421875 19.28125 -0.1875 
Q 14.015625 1.03125 8.5 3.515625 
L 8.5 17.671875 
L 14.015625 17.671875 
Q 14.453125 10.75 18.421875 7.078125 
Q 22.40625 3.421875 29.59375 3.421875 
Q 37.3125 3.421875 41.453125 8.5 
Q 45.609375 13.578125 45.609375 23.09375 
Q 45.609375 32.5625 41.484375 37.609375 
Q 37.359375 42.671875 29.59375 42.671875 
Q 25.203125 42.671875 21.84375 41.109375 
Q 18.5 39.546875 15.921875 36.28125 
L 11.71875 36.28125 
L 11.71875 72.90625 
z
" id="DejaVuSerif-53"/>
      </defs>
      <g transform="translate(75.365 149.587634)scale(0.12 -0.12)">
       <use xlink:href="#DejaVuSerif-53"/>
      </g>
     </g>
    </g>
    <g id="ytick_7">
     <g id="line2d_15">
      <g>
       <use style="stroke:#000000;stroke-width:0.8;" x="90" xlink:href="#m922c7d49c8" y="102.67013"/>
      </g>
     </g>
     <g id="text_16">
      <!-- 6 -->
      <g transform="translate(75.365 107.229192)scale(0.12 -0.12)">
       <use xlink:href="#DejaVuSerif-54"/>
      </g>
     </g>
    </g>
    <g id="ytick_8">
     <g id="line2d_16">
      <g>
       <use style="stroke:#000000;stroke-width:0.8;" x="90" xlink:href="#m922c7d49c8" y="60.311688"/>
      </g>
     </g>
     <g id="text_17">
      <!-- 7 -->
      <defs>
       <path d="M 56.390625 67.921875 
L 27.875 0 
L 20.609375 0 
L 47.796875 64.890625 
L 14.109375 64.890625 
L 14.109375 55.90625 
L 8.40625 55.90625 
L 8.40625 72.90625 
L 56.390625 72.90625 
z
" id="DejaVuSerif-55"/>
      </defs>
      <g transform="translate(75.365 64.870751)scale(0.12 -0.12)">
       <use xlink:href="#DejaVuSerif-55"/>
      </g>
     </g>
    </g>
    <g id="text_18">
     <!-- BPA in maternal blood [ng/ml] -->
     <defs>
      <path d="M 24.703125 5.171875 
L 39.3125 5.171875 
Q 48.09375 5.171875 52.140625 8.984375 
Q 56.203125 12.796875 56.203125 21.09375 
Q 56.203125 29.34375 52.171875 33.125 
Q 48.140625 36.921875 39.3125 36.921875 
L 24.703125 36.921875 
z
M 24.703125 42.09375 
L 37.109375 42.09375 
Q 45.125 42.09375 48.796875 45.171875 
Q 52.484375 48.25 52.484375 54.890625 
Q 52.484375 61.578125 48.796875 64.625 
Q 45.125 67.671875 37.109375 67.671875 
L 24.703125 67.671875 
z
M 5.515625 0 
L 5.515625 5.171875 
L 14.796875 5.171875 
L 14.796875 67.671875 
L 5.515625 67.671875 
L 5.515625 72.90625 
L 41.5 72.90625 
Q 52.546875 72.90625 58.125 68.390625 
Q 63.71875 63.875 63.71875 54.890625 
Q 63.71875 48.390625 59.828125 44.53125 
Q 55.953125 40.671875 48.484375 39.796875 
Q 57.765625 38.625 62.578125 33.859375 
Q 67.390625 29.109375 67.390625 21.09375 
Q 67.390625 10.25 60.546875 5.125 
Q 53.71875 0 39.203125 0 
z
" id="DejaVuSerif-66"/>
      <path d="M 24.703125 37.109375 
L 37.59375 37.109375 
Q 44.875 37.109375 48.671875 41.03125 
Q 52.484375 44.96875 52.484375 52.390625 
Q 52.484375 59.859375 48.671875 63.765625 
Q 44.875 67.671875 37.59375 67.671875 
L 24.703125 67.671875 
z
M 5.515625 0 
L 5.515625 5.171875 
L 14.796875 5.171875 
L 14.796875 67.671875 
L 5.515625 67.671875 
L 5.515625 72.90625 
L 39.984375 72.90625 
Q 50.921875 72.90625 57.3125 67.359375 
Q 63.71875 61.8125 63.71875 52.390625 
Q 63.71875 43.015625 57.3125 37.453125 
Q 50.921875 31.890625 39.984375 31.890625 
L 24.703125 31.890625 
L 24.703125 5.171875 
L 35.984375 5.171875 
L 35.984375 0 
z
" id="DejaVuSerif-80"/>
      <path d="M 20.015625 26.421875 
L 46.78125 26.421875 
L 33.40625 61.078125 
z
M -0.59375 0 
L -0.59375 5.171875 
L 5.8125 5.171875 
L 31.78125 72.90625 
L 39.984375 72.90625 
L 66.015625 5.171875 
L 73.1875 5.171875 
L 73.1875 0 
L 46.6875 0 
L 46.6875 5.171875 
L 54.78125 5.171875 
L 48.6875 21.1875 
L 18.015625 21.1875 
L 11.921875 5.171875 
L 19.921875 5.171875 
L 19.921875 0 
z
" id="DejaVuSerif-65"/>
      <path d="M 4.109375 0 
L 4.109375 5.171875 
L 12.203125 5.171875 
L 12.203125 46.6875 
L 3.609375 46.6875 
L 3.609375 51.90625 
L 21.1875 51.90625 
L 21.1875 42.671875 
Q 23.6875 47.953125 27.65625 50.640625 
Q 31.640625 53.328125 36.921875 53.328125 
Q 45.515625 53.328125 49.5625 48.390625 
Q 53.609375 43.453125 53.609375 33.015625 
L 53.609375 5.171875 
L 61.625 5.171875 
L 61.625 0 
L 36.8125 0 
L 36.8125 5.171875 
L 44.578125 5.171875 
L 44.578125 30.171875 
Q 44.578125 39.703125 42.234375 43.234375 
Q 39.890625 46.78125 33.984375 46.78125 
Q 27.734375 46.78125 24.453125 42.203125 
Q 21.1875 37.640625 21.1875 28.90625 
L 21.1875 5.171875 
L 29 5.171875 
L 29 0 
z
" id="DejaVuSerif-110"/>
      <path d="M 39.796875 16.3125 
L 39.796875 27.296875 
L 28.21875 27.296875 
Q 21.53125 27.296875 18.25 24.40625 
Q 14.984375 21.53125 14.984375 15.578125 
Q 14.984375 10.15625 18.296875 6.984375 
Q 21.625 3.8125 27.296875 3.8125 
Q 32.90625 3.8125 36.34375 7.28125 
Q 39.796875 10.75 39.796875 16.3125 
z
M 48.78125 32.421875 
L 48.78125 5.171875 
L 56.78125 5.171875 
L 56.78125 0 
L 39.796875 0 
L 39.796875 5.609375 
Q 36.8125 2 32.90625 0.28125 
Q 29 -1.421875 23.78125 -1.421875 
Q 15.140625 -1.421875 10.0625 3.171875 
Q 4.984375 7.765625 4.984375 15.578125 
Q 4.984375 23.640625 10.796875 28.078125 
Q 16.609375 32.515625 27.203125 32.515625 
L 39.796875 32.515625 
L 39.796875 36.078125 
Q 39.796875 42 36.203125 45.234375 
Q 32.625 48.484375 26.125 48.484375 
Q 20.75 48.484375 17.578125 46.046875 
Q 14.40625 43.609375 13.625 38.8125 
L 8.984375 38.8125 
L 8.984375 49.3125 
Q 13.671875 51.3125 18.09375 52.3125 
Q 22.515625 53.328125 26.703125 53.328125 
Q 37.5 53.328125 43.140625 47.96875 
Q 48.78125 42.625 48.78125 32.421875 
z
" id="DejaVuSerif-97"/>
      <path d="M 10.796875 46.6875 
L 2.875 46.6875 
L 2.875 51.90625 
L 10.796875 51.90625 
L 10.796875 68.015625 
L 19.828125 68.015625 
L 19.828125 51.90625 
L 36.71875 51.90625 
L 36.71875 46.6875 
L 19.828125 46.6875 
L 19.828125 13.71875 
Q 19.828125 7.125 21.09375 5.265625 
Q 22.359375 3.421875 25.78125 3.421875 
Q 29.296875 3.421875 30.90625 5.484375 
Q 32.515625 7.5625 32.625 12.203125 
L 39.40625 12.203125 
Q 39.015625 5.125 35.546875 1.84375 
Q 32.078125 -1.421875 25 -1.421875 
Q 17.234375 -1.421875 14.015625 2.015625 
Q 10.796875 5.46875 10.796875 13.71875 
z
" id="DejaVuSerif-116"/>
      <path d="M 47.796875 52 
L 47.796875 39.015625 
L 42.625 39.015625 
Q 42.390625 42.875 40.484375 44.78125 
Q 38.578125 46.6875 34.90625 46.6875 
Q 28.265625 46.6875 24.71875 42.09375 
Q 21.1875 37.5 21.1875 28.90625 
L 21.1875 5.171875 
L 31.59375 5.171875 
L 31.59375 0 
L 4.109375 0 
L 4.109375 5.171875 
L 12.203125 5.171875 
L 12.203125 46.78125 
L 3.609375 46.78125 
L 3.609375 51.90625 
L 21.1875 51.90625 
L 21.1875 42.671875 
Q 23.828125 48.09375 27.96875 50.703125 
Q 32.125 53.328125 38.09375 53.328125 
Q 40.28125 53.328125 42.703125 52.984375 
Q 45.125 52.640625 47.796875 52 
z
" id="DejaVuSerif-114"/>
      <path d="M 20.515625 5.171875 
L 29 5.171875 
L 29 0 
L 2.875 0 
L 2.875 5.171875 
L 11.53125 5.171875 
L 11.53125 70.796875 
L 2.875 70.796875 
L 2.875 75.984375 
L 20.515625 75.984375 
z
" id="DejaVuSerif-108"/>
      <path d="M 11.53125 5.171875 
L 11.53125 70.796875 
L 2.875 70.796875 
L 2.875 75.984375 
L 20.515625 75.984375 
L 20.515625 43.796875 
Q 23.140625 48.6875 27.21875 51 
Q 31.296875 53.328125 37.3125 53.328125 
Q 46.875 53.328125 52.921875 45.75 
Q 58.984375 38.1875 58.984375 25.984375 
Q 58.984375 13.765625 52.921875 6.171875 
Q 46.875 -1.421875 37.3125 -1.421875 
Q 31.296875 -1.421875 27.21875 0.890625 
Q 23.140625 3.21875 20.515625 8.109375 
L 20.515625 0 
L 2.875 0 
L 2.875 5.171875 
z
M 20.515625 23.390625 
Q 20.515625 14.015625 24.09375 9.109375 
Q 27.6875 4.203125 34.515625 4.203125 
Q 41.40625 4.203125 44.9375 9.71875 
Q 48.484375 15.234375 48.484375 25.984375 
Q 48.484375 36.765625 44.9375 42.234375 
Q 41.40625 47.703125 34.515625 47.703125 
Q 27.6875 47.703125 24.09375 42.765625 
Q 20.515625 37.84375 20.515625 28.515625 
z
" id="DejaVuSerif-98"/>
      <path d="M 30.078125 3.421875 
Q 37.3125 3.421875 40.984375 9.125 
Q 44.671875 14.84375 44.671875 25.984375 
Q 44.671875 37.109375 40.984375 42.796875 
Q 37.3125 48.484375 30.078125 48.484375 
Q 22.859375 48.484375 19.171875 42.796875 
Q 15.484375 37.109375 15.484375 25.984375 
Q 15.484375 14.84375 19.1875 9.125 
Q 22.90625 3.421875 30.078125 3.421875 
z
M 30.078125 -1.421875 
Q 18.75 -1.421875 11.859375 6.078125 
Q 4.984375 13.578125 4.984375 25.984375 
Q 4.984375 38.375 11.84375 45.84375 
Q 18.703125 53.328125 30.078125 53.328125 
Q 41.453125 53.328125 48.3125 45.84375 
Q 55.171875 38.375 55.171875 25.984375 
Q 55.171875 13.578125 48.3125 6.078125 
Q 41.453125 -1.421875 30.078125 -1.421875 
z
" id="DejaVuSerif-111"/>
      <path d="M 52.484375 46.6875 
L 52.484375 1.125 
Q 52.484375 -10.0625 46.328125 -16.140625 
Q 40.1875 -22.21875 28.8125 -22.21875 
Q 23.6875 -22.21875 19 -21.28125 
Q 14.3125 -20.359375 10.015625 -18.5 
L 10.015625 -7.625 
L 14.703125 -7.625 
Q 15.578125 -12.703125 18.84375 -15.046875 
Q 22.125 -17.390625 28.21875 -17.390625 
Q 36.140625 -17.390625 39.8125 -12.921875 
Q 43.5 -8.453125 43.5 1.125 
L 43.5 8.109375 
Q 40.875 3.21875 36.796875 0.890625 
Q 32.71875 -1.421875 26.703125 -1.421875 
Q 17.140625 -1.421875 11.0625 6.171875 
Q 4.984375 13.765625 4.984375 25.984375 
Q 4.984375 38.1875 11.03125 45.75 
Q 17.09375 53.328125 26.703125 53.328125 
Q 32.71875 53.328125 36.796875 51 
Q 40.875 48.6875 43.5 43.796875 
L 43.5 51.90625 
L 61.078125 51.90625 
L 61.078125 46.6875 
z
M 43.5 28.515625 
Q 43.5 37.84375 39.90625 42.765625 
Q 36.328125 47.703125 29.5 47.703125 
Q 22.5625 47.703125 19.015625 42.234375 
Q 15.484375 36.765625 15.484375 25.984375 
Q 15.484375 15.234375 19.015625 9.71875 
Q 22.5625 4.203125 29.5 4.203125 
Q 36.328125 4.203125 39.90625 9.109375 
Q 43.5 14.015625 43.5 23.390625 
z
" id="DejaVuSerif-103"/>
      <path d="M 25.875 72.90625 
L 33.6875 72.90625 
L 7.8125 -9.28125 
L 0 -9.28125 
z
" id="DejaVuSerif-47"/>
     </defs>
     <g transform="translate(67.587812 345.936875)rotate(-90)scale(0.17 -0.17)">
      <use xlink:href="#DejaVuSerif-66"/>
      <use x="73.486328" xlink:href="#DejaVuSerif-80"/>
      <use x="140.630859" xlink:href="#DejaVuSerif-65"/>
      <use x="212.847656" xlink:href="#DejaVuSerif-32"/>
      <use x="244.634766" xlink:href="#DejaVuSerif-105"/>
      <use x="276.617188" xlink:href="#DejaVuSerif-110"/>
      <use x="341.021484" xlink:href="#DejaVuSerif-32"/>
      <use x="372.808594" xlink:href="#DejaVuSerif-109"/>
      <use x="467.632812" xlink:href="#DejaVuSerif-97"/>
      <use x="527.251953" xlink:href="#DejaVuSerif-116"/>
      <use x="567.4375" xlink:href="#DejaVuSerif-101"/>
      <use x="626.617188" xlink:href="#DejaVuSerif-114"/>
      <use x="674.419922" xlink:href="#DejaVuSerif-110"/>
      <use x="738.824219" xlink:href="#DejaVuSerif-97"/>
      <use x="798.443359" xlink:href="#DejaVuSerif-108"/>
      <use x="830.425781" xlink:href="#DejaVuSerif-32"/>
      <use x="862.212891" xlink:href="#DejaVuSerif-98"/>
      <use x="926.226562" xlink:href="#DejaVuSerif-108"/>
      <use x="958.208984" xlink:href="#DejaVuSerif-111"/>
      <use x="1018.414062" xlink:href="#DejaVuSerif-111"/>
      <use x="1078.619141" xlink:href="#DejaVuSerif-100"/>
      <use x="1142.632812" xlink:href="#DejaVuSerif-32"/>
      <use x="1174.419922" xlink:href="#DejaVuSerif-91"/>
      <use x="1213.433594" xlink:href="#DejaVuSerif-110"/>
      <use x="1277.837891" xlink:href="#DejaVuSerif-103"/>
      <use x="1341.851562" xlink:href="#DejaVuSerif-47"/>
      <use x="1375.542969" xlink:href="#DejaVuSerif-109"/>
      <use x="1470.367188" xlink:href="#DejaVuSerif-108"/>
      <use x="1502.349609" xlink:href="#DejaVuSerif-93"/>
     </g>
    </g>
   </g>
   <g id="line2d_17">
    <path clip-path="url(#p36b8b5e8a8)" d="M 115.363636 356.820779 
L 115.870909 278.24806 
L 116.631818 194.059029 
L 117.392727 134.429308 
L 117.9 107.732009 
L 118.407273 89.839712 
L 118.914545 79.198459 
L 119.421818 74.368303 
L 119.675455 73.733578 
L 119.929091 74.098789 
L 120.182727 75.33901 
L 120.69 80.002329 
L 121.450909 91.070636 
L 122.465455 110.467738 
L 127.538182 215.005871 
L 129.06 239.588176 
L 130.581818 260.334218 
L 131.85 274.954954 
L 133.118182 287.4385 
L 134.386364 298.058523 
L 135.654545 307.069736 
L 136.922727 314.696227 
L 138.190909 321.139552 
L 139.459091 326.580216 
L 140.727273 331.174277 
L 141.995455 335.052889 
L 143.263636 338.325938 
L 144.531818 341.086666 
L 146.053636 343.834976 
L 147.575455 346.076279 
L 149.097273 347.904771 
L 150.619091 349.396356 
L 151.38 350.035705 
L 151.633636 336.721916 
L 152.394545 237.495288 
L 153.155455 162.84126 
L 153.916364 112.914069 
L 154.423636 91.722269 
L 154.930909 78.423074 
L 155.438182 71.513975 
L 155.691818 70.029981 
L 155.945455 69.658632 
L 156.199091 70.265002 
L 156.452727 71.726172 
L 156.96 76.777094 
L 157.720909 88.307091 
L 158.735455 108.156098 
L 163.554545 209.209539 
L 165.076364 234.576102 
L 166.598182 256.035031 
L 168.12 273.93886 
L 169.388182 286.472158 
L 170.656364 297.130146 
L 171.924545 306.17295 
L 173.192727 313.831422 
L 174.460909 320.306673 
L 175.729091 325.775101 
L 176.997273 330.391007 
L 178.265455 334.287543 
L 179.533636 337.577602 
L 180.801818 340.355524 
L 182.323636 343.123098 
L 183.845455 345.381002 
L 185.367273 347.224339 
L 186.889091 348.730365 
L 187.65 349.376817 
L 187.903636 328.513956 
L 188.918182 205.450188 
L 189.679091 140.354739 
L 190.186364 110.447378 
L 190.693636 89.876718 
L 191.200909 77.087394 
L 191.708182 70.586486 
L 191.961818 69.272807 
L 192.215455 69.051668 
L 192.469091 69.789899 
L 192.722727 71.366268 
L 193.23 76.603891 
L 193.990909 88.325761 
L 195.005455 108.312974 
L 199.824545 209.297795 
L 201.346364 234.589773 
L 202.868182 255.958875 
L 204.39 273.784955 
L 205.658182 286.269037 
L 206.926364 296.884649 
L 208.194545 305.889455 
L 209.462727 313.515513 
L 210.730909 319.965027 
L 211.999091 325.414906 
L 213.267273 330.018241 
L 214.535455 333.905488 
L 215.803636 337.187462 
L 217.071818 339.958285 
L 218.593636 342.720126 
L 220.115455 344.975357 
L 221.637273 346.817817 
L 223.159091 348.323867 
L 223.92 348.970677 
L 224.680909 257.62483 
L 225.441818 177.231794 
L 226.202727 121.608631 
L 226.71 97.226205 
L 227.217273 81.294422 
L 227.724545 72.274156 
L 227.978182 69.909805 
L 228.231818 68.762004 
L 228.485455 68.686942 
L 228.739091 69.553216 
L 229.246364 73.6427 
L 229.753636 80.202946 
L 230.514545 93.251216 
L 231.782727 119.685084 
L 235.08 190.537597 
L 236.601818 218.415405 
L 238.123636 242.285161 
L 239.645455 262.34194 
L 240.913636 276.455411 
L 242.181818 288.493835 
L 243.45 298.723958 
L 244.718182 307.398809 
L 245.986364 314.743815 
L 247.254545 320.95478 
L 248.522727 326.203096 
L 249.790909 330.63644 
L 251.059091 334.380633 
L 252.327273 337.542449 
L 253.849091 340.694499 
L 255.370909 343.268545 
L 256.892727 345.371624 
L 258.414545 347.090946 
L 259.936364 348.497488 
L 260.19 348.705741 
L 261.458182 197.438802 
L 262.219091 134.74098 
L 262.726364 106.263227 
L 263.233636 86.903682 
L 263.740909 75.104623 
L 264.248182 69.393256 
L 264.501818 68.408027 
L 264.755455 68.475974 
L 265.009091 69.467465 
L 265.516364 73.760445 
L 266.023636 80.471582 
L 266.784545 93.669234 
L 268.052727 120.213948 
L 271.35 190.986282 
L 272.871818 218.77471 
L 274.393636 242.554177 
L 275.915455 262.528831 
L 277.183636 276.582371 
L 278.451818 288.5688 
L 279.72 298.75429 
L 280.988182 307.391262 
L 282.256364 314.704444 
L 283.524545 320.888815 
L 284.792727 326.11499 
L 286.060909 330.530015 
L 287.329091 334.25917 
L 288.597273 337.408737 
L 290.119091 340.549158 
L 291.640909 343.114316 
L 293.162727 345.210731 
L 294.684545 346.925198 
L 296.206364 348.328355 
L 296.46 348.536165 
L 297.220909 248.506145 
L 297.981818 170.378033 
L 298.742727 117.069641 
L 299.25 93.992796 
L 299.757273 79.142899 
L 300.264545 70.99332 
L 300.518182 68.993349 
L 300.771818 68.16745 
L 301.025455 68.375404 
L 301.279091 69.489348 
L 301.786364 73.981017 
L 302.293636 80.838972 
L 303.054545 94.181092 
L 304.322727 120.829723 
L 307.62 191.516197 
L 309.141818 219.211775 
L 310.663636 242.899431 
L 312.185455 262.792425 
L 313.453636 276.785942 
L 314.721818 288.71964 
L 315.99 298.859945 
L 317.258182 307.458648 
L 318.526364 314.739233 
L 319.794545 320.896065 
L 321.062727 326.099322 
L 322.330909 330.495323 
L 323.599091 334.20863 
L 324.867273 337.34504 
L 326.389091 340.472686 
L 327.910909 343.027843 
L 329.432727 345.116529 
L 330.954545 346.825089 
L 332.476364 348.223806 
L 332.73 348.431 
L 333.237273 274.738288 
L 333.998182 190.047322 
L 334.759091 129.733168 
L 335.266364 102.653098 
L 335.773636 84.470185 
L 336.280909 73.628999 
L 336.788182 68.678281 
L 337.041818 68.008783 
L 337.295455 68.354071 
L 337.549091 69.588025 
L 338.056364 74.274094 
L 338.817273 85.438328 
L 339.831818 105.038606 
L 344.904545 210.949723 
L 346.426364 235.874493 
L 347.948182 256.901879 
L 349.47 274.428957 
L 350.738182 286.698022 
L 352.006364 297.128803 
L 353.274545 305.976478 
L 354.542727 313.469899 
L 355.810909 319.808111 
L 357.079091 325.165198 
L 358.347273 329.691556 
L 359.615455 333.515293 
L 360.883636 336.745183 
L 362.405455 339.966213 
L 363.927273 342.597751 
L 365.449091 344.748934 
L 366.970909 346.508694 
L 368.492727 347.949404 
L 369 348.369287 
L 369.507273 270.1617 
L 370.268182 186.512656 
L 371.029091 127.380409 
L 371.536364 100.987939 
L 372.043636 83.381316 
L 372.550909 73.007911 
L 373.058182 68.4277 
L 373.311818 67.911684 
L 373.565455 68.391745 
L 373.819091 69.743353 
L 374.326364 74.619665 
L 375.087273 85.977952 
L 376.101818 105.716973 
L 381.174545 211.512809 
L 382.696364 236.344581 
L 384.218182 257.283385 
L 385.74 274.732866 
L 387.008182 286.946604 
L 388.276364 297.329495 
L 389.544545 306.135963 
L 390.812727 313.594584 
L 392.080909 319.903509 
L 393.349091 325.235733 
L 394.617273 329.741133 
L 395.885455 333.547319 
L 397.153636 336.762595 
L 398.675455 339.969299 
L 400.197273 342.589344 
L 401.719091 344.73131 
L 403.240909 346.48373 
L 404.762727 347.918648 
L 405.016364 348.131227 
L 405.27 334.824037 
L 406.030909 235.616763 
L 406.791818 160.98191 
L 407.552727 111.072375 
L 408.06 89.892494 
L 408.567273 76.604954 
L 409.074545 69.707317 
L 409.328182 68.229252 
L 409.581818 67.863761 
L 409.835455 68.475869 
L 410.089091 69.942656 
L 410.596364 75.004939 
L 411.357273 86.55237 
L 412.371818 106.424473 
L 417.190909 207.58221 
L 418.712727 232.989268 
L 420.234545 254.464546 
L 421.756364 272.384585 
L 423.024545 284.939743 
L 424.292727 295.618484 
L 425.560909 304.678712 
L 426.829091 312.354239 
L 428.097273 318.84795 
L 429.365455 324.336949 
L 430.633636 328.975095 
L 431.901818 332.893598 
L 433.17 336.203847 
L 434.691818 339.50531 
L 436.213636 342.20273 
L 437.735455 344.40786 
L 439.257273 346.211873 
L 440.779091 347.688965 
L 441.286364 348.119471 
L 441.54 327.260025 
L 442.554545 204.20995 
L 443.315455 139.124775 
L 443.822727 109.223901 
L 444.33 88.65993 
L 444.837273 75.877227 
L 445.344545 69.382855 
L 445.598182 68.07255 
L 445.851818 67.85478 
L 446.105455 68.596348 
L 446.359091 70.176023 
L 446.866364 75.420248 
L 447.627273 87.152256 
L 448.641818 107.153249 
L 453.460909 208.197787 
L 454.982727 233.509555 
L 456.504545 254.895534 
L 458.026364 272.737144 
L 459.294545 285.235444 
L 460.562727 295.864912 
L 461.830909 304.882923 
L 463.099091 312.522447 
L 464.367273 318.985562 
L 465.635455 324.448666 
L 466.903636 329.06496 
L 468.171818 332.965049 
L 469.44 336.259806 
L 470.961818 339.54591 
L 472.483636 342.230893 
L 474.005455 344.425971 
L 475.527273 346.221875 
L 477.049091 347.692437 
L 477.556364 348.121066 
L 478.317273 256.782185 
L 479.078182 176.396054 
L 479.839091 120.779693 
L 480.346364 96.401775 
L 480.853636 80.474462 
L 481.360909 71.45866 
L 481.614545 69.096536 
L 481.868182 67.950999 
L 482.121818 67.8782 
L 482.375455 68.746719 
L 482.882727 72.840649 
L 483.39 79.405362 
L 484.150909 92.460426 
L 485.419091 118.90565 
L 488.716364 189.785093 
L 490.238182 217.676328 
L 491.76 241.558919 
L 493.281818 261.626556 
L 494.55 275.749141 
L 495.818182 287.797107 
L 497.086364 298.036586 
L 498.354545 306.720426 
L 499.622727 314.074557 
L 500.890909 320.294712 
L 502.159091 325.551918 
L 503.427273 329.994023 
L 504.695455 333.746899 
L 505.963636 336.917344 
L 507.485455 340.079636 
L 509.007273 342.663741 
L 510.529091 344.776684 
L 512.050909 346.505709 
L 513.572727 347.921811 
L 513.826364 348.131638 
L 515.094545 196.872518 
L 515.855455 134.179356 
L 516.362727 105.704613 
L 516.87 86.348113 
L 517.377273 74.552053 
L 517.884545 68.843723 
L 518.138182 67.860017 
L 518.391818 67.929489 
L 518.645455 68.922495 
L 519.152727 73.218477 
L 519.66 79.932629 
L 520.420909 93.134859 
L 521.689091 119.687188 
L 524.986364 190.477762 
L 526.508182 218.275232 
L 528.03 242.0633 
L 529.551818 262.045336 
L 530.82 276.105082 
L 532.088182 288.097963 
L 533.356364 298.28978 
L 534.624545 306.932848 
L 535.892727 314.252204 
L 537.160909 320.442781 
L 538.429091 325.674964 
L 539.697273 330.095919 
L 540.965455 333.830946 
L 542.233636 336.986344 
L 543.755455 340.133681 
L 545.277273 342.705636 
L 546.799091 344.808715 
L 548.320909 346.529739 
L 549.842727 347.939356 
L 550.096364 348.14823 
L 550.857273 248.121386 
L 551.618182 169.996426 
L 552.379091 116.691155 
L 552.886364 93.61637 
L 553.393636 78.768511 
L 553.900909 70.620966 
L 554.154545 68.622029 
L 554.408182 67.797155 
L 554.661818 68.006137 
L 554.915455 69.121103 
L 555.422727 73.614798 
L 555.93 80.474789 
L 556.690909 93.820003 
L 557.959091 120.473772 
L 561.256364 191.172552 
L 562.778182 218.874133 
L 564.3 242.567536 
L 565.821818 262.465591 
L 567.09 276.463373 
L 568.358182 288.401437 
L 569.626364 298.546009 
L 570.894545 307.148863 
L 572.162727 314.433644 
L 573.430909 320.594656 
L 574.699091 325.801989 
L 575.967273 330.20199 
L 577.235455 333.91927 
L 578.503636 337.059621 
L 580.025455 340.191941 
L 581.547273 342.751687 
L 583.069091 344.844876 
L 584.590909 346.557867 
L 586.112727 347.960948 
L 586.366364 348.168864 
L 586.873636 274.477587 
L 587.634545 189.788757 
L 588.395455 129.476735 
L 588.902727 102.398044 
L 589.41 84.21652 
L 589.917273 73.376699 
L 590.424545 68.427371 
L 590.678182 67.75857 
L 590.931818 68.104551 
L 591.185455 69.339196 
L 591.692727 74.026635 
L 592.453636 85.192939 
L 593.468182 104.796041 
L 598.540909 210.72024 
L 600.062727 235.649002 
L 601.584545 256.679925 
L 603.106364 274.210395 
L 604.374545 286.482417 
L 605.642727 296.91611 
L 606.910909 305.766588 
L 608.179091 313.262836 
L 609.447273 319.603886 
L 610.715455 324.96373 
L 611.983636 329.492804 
L 613.251818 333.319229 
L 614.52 336.551789 
L 616.041818 339.775985 
L 617.563636 342.410634 
L 619.085455 344.564868 
L 620.607273 346.32763 
L 622.129091 347.771297 
L 622.636364 348.192155 
L 622.636364 348.192155 
" style="fill:none;stroke:#0f2080;stroke-linecap:square;stroke-width:3;"/>
   </g>
   <g id="line2d_18">
    <path clip-path="url(#p36b8b5e8a8)" d="M 115.363636 356.820779 
L 115.617273 326.591939 
L 115.870909 322.533361 
L 116.124545 320.689879 
L 116.378182 319.856359 
L 116.631818 319.629166 
L 116.885455 319.825717 
L 117.392727 320.999943 
L 118.407273 324.631289 
L 120.436364 332.039687 
L 121.958182 336.606005 
L 123.226364 339.770121 
L 124.494545 342.438112 
L 126.016364 345.091888 
L 127.538182 347.252665 
L 129.06 349.012145 
L 130.581818 350.444798 
L 132.357273 351.783643 
L 134.132727 352.83731 
L 136.161818 353.76962 
L 138.444545 354.554586 
L 140.980909 355.18572 
L 144.024545 355.70722 
L 147.829091 356.120569 
L 151.38 356.356195 
L 152.140909 321.739867 
L 152.394545 320.115082 
L 152.648182 319.381489 
L 152.901818 319.236721 
L 153.155455 319.495559 
L 153.662727 320.745836 
L 154.677273 324.443986 
L 156.706364 331.892157 
L 157.974545 335.769879 
L 159.242727 339.053722 
L 160.510909 341.823607 
L 162.032727 344.577941 
L 163.554545 346.820996 
L 165.076364 348.647641 
L 166.598182 350.135406 
L 168.373636 351.525736 
L 170.149091 352.620117 
L 172.178182 353.588971 
L 174.460909 354.405006 
L 176.997273 355.061451 
L 180.040909 355.604572 
L 183.845455 356.035853 
L 187.65 356.29611 
L 188.157273 324.467988 
L 188.410909 321.368935 
L 188.664545 319.903537 
L 188.918182 319.269746 
L 189.171818 319.19207 
L 189.425455 319.497213 
L 189.932727 320.799793 
L 190.947273 324.526015 
L 192.722727 331.105207 
L 194.244545 335.815487 
L 195.512727 339.084432 
L 196.780909 341.841528 
L 198.302727 344.583501 
L 199.824545 346.817468 
L 201.346364 348.635709 
L 202.868182 350.11646 
L 204.643636 351.501244 
L 206.419091 352.591269 
L 208.448182 353.556531 
L 210.730909 354.369827 
L 213.267273 355.024521 
L 216.310909 355.566425 
L 220.115455 355.997357 
L 223.92 356.258039 
L 224.173636 332.873808 
L 224.427273 323.801675 
L 224.680909 321.050272 
L 224.934545 319.729823 
L 225.188182 319.190183 
L 225.441818 319.175869 
L 225.695455 319.524977 
L 226.202727 320.876932 
L 227.217273 324.628421 
L 228.992727 331.190327 
L 230.514545 335.879511 
L 231.782727 339.133296 
L 233.050909 341.87732 
L 234.572727 344.606559 
L 236.094545 346.830271 
L 237.616364 348.64019 
L 239.138182 350.11424 
L 240.913636 351.492935 
L 242.689091 352.578278 
L 244.718182 353.539559 
L 247.000909 354.349682 
L 249.537273 355.002051 
L 252.580909 355.542322 
L 256.385455 355.972361 
L 260.19 356.232938 
L 260.443636 330.257893 
L 260.697273 323.233372 
L 260.950909 320.771827 
L 261.204545 319.584667 
L 261.458182 319.133928 
L 261.711818 319.179861 
L 261.965455 319.5704 
L 262.472727 320.968886 
L 263.740909 325.728796 
L 265.516364 332.129386 
L 266.784545 335.955105 
L 268.052727 339.193633 
L 269.320909 341.924527 
L 270.842727 344.640916 
L 272.364545 346.85419 
L 273.886364 348.655643 
L 275.408182 350.122878 
L 277.183636 351.495302 
L 278.959091 352.575789 
L 280.988182 353.532879 
L 283.270909 354.339598 
L 285.807273 354.989381 
L 288.850909 355.527712 
L 292.655455 355.956487 
L 296.46 356.216598 
L 296.713636 328.414342 
L 296.967273 322.740665 
L 297.220909 320.526775 
L 297.474545 319.463205 
L 297.728182 319.096253 
L 297.981818 319.199759 
L 298.489091 320.276514 
L 299.25 322.905589 
L 301.786364 332.230307 
L 303.054545 336.038319 
L 304.322727 339.261457 
L 305.590909 341.979357 
L 307.112727 344.682733 
L 308.634545 346.885427 
L 310.156364 348.67837 
L 311.678182 350.138808 
L 313.453636 351.504832 
L 315.229091 352.580369 
L 317.258182 353.533131 
L 319.540909 354.336297 
L 322.077273 354.983319 
L 325.120909 355.5195 
L 328.925455 355.946774 
L 332.73 356.206176 
L 332.983636 327.042154 
L 333.237273 322.305927 
L 333.490909 320.30969 
L 333.744545 319.362271 
L 333.998182 319.074094 
L 334.251818 319.231913 
L 334.759091 320.370439 
L 335.52 323.03157 
L 337.802727 331.501508 
L 339.070909 335.417822 
L 340.339091 338.735489 
L 341.607273 341.534761 
L 343.129091 344.318592 
L 344.650909 346.586922 
L 346.172727 348.433588 
L 347.694545 349.937505 
L 349.216364 351.163305 
L 350.991818 352.30943 
L 353.020909 353.324604 
L 355.05 354.097714 
L 357.586364 354.810817 
L 360.376364 355.361062 
L 363.927273 355.822278 
L 368.492727 356.172189 
L 369 356.199748 
L 369.253636 325.967225 
L 369.507273 321.917231 
L 369.760909 320.116032 
L 370.014545 319.278826 
L 370.268182 319.06458 
L 370.521818 319.274535 
L 371.029091 320.470979 
L 372.043636 324.141859 
L 374.072727 331.614506 
L 375.340909 335.51294 
L 376.609091 338.814799 
L 377.877273 341.600286 
L 379.399091 344.370752 
L 380.920909 346.628282 
L 382.442727 348.46599 
L 383.964545 349.962607 
L 385.74 351.362699 
L 387.515455 352.465085 
L 389.544545 353.441672 
L 391.827273 354.264993 
L 394.363636 354.928311 
L 397.407273 355.478108 
L 401.211818 355.916323 
L 405.016364 356.182509 
L 405.777273 321.567858 
L 406.030909 319.943619 
L 406.284545 319.210572 
L 406.538182 319.066349 
L 406.791818 319.325754 
L 407.299091 320.576898 
L 408.313636 324.277301 
L 410.342727 331.729505 
L 411.610909 335.609925 
L 412.879091 338.896015 
L 414.147273 341.667936 
L 415.669091 344.425005 
L 417.190909 346.671642 
L 418.712727 348.500436 
L 420.234545 349.989855 
L 422.01 351.383233 
L 423.785455 352.480345 
L 425.814545 353.452297 
L 428.097273 354.271737 
L 430.633636 354.931972 
L 433.677273 355.479262 
L 437.481818 355.915555 
L 441.286364 356.18065 
L 441.793636 324.353166 
L 442.047273 321.254422 
L 442.300909 319.789341 
L 442.554545 319.15586 
L 442.808182 319.078492 
L 443.061818 319.383962 
L 443.569091 320.687078 
L 444.583636 324.414622 
L 446.359091 330.995941 
L 447.880909 335.708089 
L 449.149091 338.978495 
L 450.417273 341.736893 
L 451.939091 344.480614 
L 453.460909 346.71637 
L 454.982727 348.536271 
L 456.504545 350.018503 
L 458.28 351.405169 
L 460.055455 352.497006 
L 462.084545 353.464312 
L 464.367273 354.279856 
L 466.903636 354.936986 
L 469.947273 355.481737 
L 473.751818 355.916063 
L 477.556364 356.180021 
L 477.81 332.796006 
L 478.063636 323.724084 
L 478.317273 320.972892 
L 478.570909 319.652659 
L 478.824545 319.113227 
L 479.078182 319.099125 
L 479.331818 319.448449 
L 479.839091 320.800784 
L 480.853636 324.55315 
L 482.629091 331.116489 
L 484.150909 335.806921 
L 485.419091 339.061693 
L 486.687273 341.80662 
L 488.209091 344.53705 
L 489.730909 346.761945 
L 491.252727 348.572982 
L 492.774545 350.048049 
L 494.55 351.428014 
L 496.325455 352.514583 
L 498.354545 353.477244 
L 500.637273 354.288887 
L 503.173636 354.9429 
L 506.217273 355.485094 
L 510.021818 355.917428 
L 513.826364 356.180219 
L 514.08 330.20532 
L 514.333636 323.180937 
L 514.587273 320.719536 
L 514.840909 319.532525 
L 515.094545 319.081927 
L 515.348182 319.128001 
L 515.601818 319.518688 
L 516.109091 320.917437 
L 517.377273 325.678087 
L 519.152727 332.079625 
L 520.420909 335.906051 
L 521.689091 339.145243 
L 522.957273 341.876755 
L 524.479091 344.593947 
L 526.000909 346.808017 
L 527.522727 348.610224 
L 529.044545 350.078151 
L 530.82 351.451433 
L 532.595455 352.532748 
L 534.624545 353.490772 
L 536.907273 354.298517 
L 539.443636 354.949411 
L 542.487273 355.489041 
L 546.291818 355.919368 
L 550.096364 356.180975 
L 550.35 328.378815 
L 550.603636 322.705232 
L 550.857273 320.491442 
L 551.110909 319.427971 
L 551.364545 319.061115 
L 551.618182 319.164715 
L 552.125455 320.241654 
L 552.886364 322.871018 
L 555.422727 332.196681 
L 556.690909 336.005171 
L 557.959091 339.228757 
L 559.227273 341.947075 
L 560.749091 344.650992 
L 562.270909 346.854221 
L 563.792727 348.647673 
L 565.314545 350.108585 
L 567.09 351.475189 
L 568.865455 352.551284 
L 570.894545 353.504678 
L 573.177273 354.308537 
L 575.713636 354.956311 
L 578.757273 355.493369 
L 582.561818 355.921691 
L 586.366364 356.182105 
L 586.62 327.018147 
L 586.873636 322.281985 
L 587.127273 320.285814 
L 587.380909 319.338462 
L 587.634545 319.050351 
L 587.888182 319.208234 
L 588.395455 320.346882 
L 589.156364 323.008212 
L 591.439091 331.478725 
L 592.707273 335.395364 
L 593.975455 338.713335 
L 595.243636 341.512888 
L 596.765455 344.297082 
L 598.287273 346.565777 
L 599.809091 348.41279 
L 601.330909 349.917028 
L 602.852727 351.143161 
L 604.628182 352.289672 
L 606.657273 353.30527 
L 608.686364 354.078802 
L 611.222727 354.792414 
L 614.012727 355.34321 
L 617.563636 355.805096 
L 622.129091 356.155834 
L 622.636364 356.183483 
L 622.636364 356.183483 
" style="fill:none;stroke:#f57938;stroke-linecap:square;stroke-width:3;"/>
   </g>
   <g id="line2d_19">
    <path clip-path="url(#p36b8b5e8a8)" d="M 115.363636 356.820779 
L 115.617273 340.571311 
L 116.885455 208.390081 
L 117.646364 154.887148 
L 118.153636 130.943749 
L 118.660909 114.917664 
L 119.168182 105.414539 
L 119.675455 101.140032 
L 119.929091 100.605071 
L 120.182727 100.96992 
L 120.436364 102.122066 
L 120.943636 106.390053 
L 121.704545 116.455599 
L 122.719091 134.044701 
L 127.791818 228.62768 
L 129.313636 250.852844 
L 130.835455 269.607341 
L 132.103636 282.823048 
L 133.371818 294.10772 
L 134.64 303.70813 
L 135.908182 311.852502 
L 137.176364 318.745357 
L 138.444545 324.568806 
L 139.712727 329.485961 
L 140.980909 333.638478 
L 142.249091 337.144441 
L 143.517273 340.102731 
L 145.039091 343.047755 
L 146.560909 345.448641 
L 148.082727 347.406996 
L 149.604545 349.004618 
L 151.126364 350.307741 
L 151.38 350.50029 
L 151.633636 350.373092 
L 151.887273 330.841717 
L 153.155455 200.166481 
L 153.916364 148.148793 
L 154.423636 125.080285 
L 154.930909 109.813619 
L 155.438182 100.956395 
L 155.691818 98.522748 
L 155.945455 97.223326 
L 156.199091 96.925527 
L 156.452727 97.507787 
L 156.706364 98.859249 
L 157.213636 103.476098 
L 157.974545 113.957031 
L 158.989091 131.954504 
L 163.808182 223.385806 
L 165.33 246.320056 
L 166.851818 265.720066 
L 168.373636 281.903866 
L 169.641818 293.232242 
L 170.91 302.865989 
L 172.178182 311.039968 
L 173.446364 317.962881 
L 174.714545 323.815486 
L 175.982727 328.757415 
L 177.250909 332.929045 
L 178.519091 336.451001 
L 179.787273 339.424924 
L 181.309091 342.388835 
L 182.830909 344.806777 
L 184.352727 346.779593 
L 185.874545 348.390509 
L 187.396364 349.706782 
L 187.65 349.901487 
L 187.903636 348.521465 
L 188.410909 297.886731 
L 189.425455 196.573637 
L 190.186364 145.614597 
L 190.693636 123.15454 
L 191.200909 108.395874 
L 191.708182 99.95021 
L 191.961818 97.689601 
L 192.215455 96.543502 
L 192.469091 96.380911 
L 192.722727 97.081839 
L 192.976364 98.536957 
L 193.483636 103.32178 
L 194.244545 113.975238 
L 195.259091 132.097035 
L 199.824545 219.301107 
L 201.346364 242.774843 
L 202.868182 262.663194 
L 204.39 279.282611 
L 205.658182 290.934008 
L 206.926364 300.847623 
L 208.194545 309.26045 
L 209.462727 316.387387 
L 210.730909 322.41598 
L 211.999091 327.510767 
L 213.267273 331.814499 
L 214.535455 335.448938 
L 215.803636 338.517548 
L 217.325455 341.575779 
L 218.847273 344.072096 
L 220.369091 346.11053 
L 221.890909 347.77589 
L 223.412727 349.137177 
L 223.92 349.533418 
L 224.173636 346.120545 
L 224.934545 265.31817 
L 225.695455 193.250831 
L 226.456364 143.340525 
L 226.963636 121.479037 
L 227.470909 107.218478 
L 227.978182 99.17524 
L 228.231818 97.083382 
L 228.485455 96.0866 
L 228.739091 96.055521 
L 228.992727 96.871694 
L 229.5 100.624062 
L 230.007273 106.598126 
L 230.768182 118.443025 
L 232.036364 142.398311 
L 235.333636 206.501722 
L 236.855455 231.711619 
L 238.377273 253.288009 
L 239.899091 271.418694 
L 241.167273 284.176776 
L 242.435455 295.058303 
L 243.703636 304.304836 
L 244.971818 312.146014 
L 246.24 318.785022 
L 247.508182 324.398727 
L 248.776364 329.142401 
L 250.044545 333.149556 
L 251.312727 336.533773 
L 252.580909 339.391616 
L 254.102727 342.240646 
L 255.624545 344.567239 
L 257.146364 346.468159 
L 258.668182 348.022226 
L 260.19 349.293582 
L 260.443636 343.261568 
L 262.219091 171.370492 
L 262.98 129.576041 
L 263.487273 112.23209 
L 263.994545 101.689409 
L 264.501818 96.622074 
L 264.755455 95.771613 
L 265.009091 95.869276 
L 265.262727 96.798146 
L 265.77 100.733497 
L 266.277273 106.842965 
L 267.038182 118.822666 
L 268.306364 142.877065 
L 271.603636 206.907002 
L 273.125455 232.036168 
L 274.647273 253.530798 
L 276.169091 271.587198 
L 277.437273 284.291138 
L 278.705455 295.125644 
L 279.973636 304.331818 
L 281.241818 312.138762 
L 282.51 318.749023 
L 283.778182 324.338687 
L 285.046364 329.062351 
L 286.314545 333.052956 
L 287.582727 336.423577 
L 288.850909 339.270358 
L 290.372727 342.108888 
L 291.894545 344.427454 
L 293.416364 346.322356 
L 294.938182 347.872043 
L 296.46 349.140346 
L 296.713636 340.054922 
L 298.235455 187.099257 
L 298.996364 139.265031 
L 299.503636 118.577574 
L 300.010909 105.290391 
L 300.518182 98.030211 
L 300.771818 96.266305 
L 301.025455 95.559227 
L 301.279091 95.782903 
L 301.532727 96.821969 
L 302.04 100.935982 
L 302.547273 107.177282 
L 303.308182 119.286827 
L 304.83 148.528897 
L 307.62 202.869179 
L 309.141818 228.508099 
L 310.663636 250.521483 
L 312.185455 269.050252 
L 313.453636 282.101889 
L 314.721818 293.24162 
L 315.99 302.71235 
L 317.258182 310.746296 
L 318.526364 317.550566 
L 319.794545 323.305537 
L 321.062727 328.169636 
L 322.330909 332.279343 
L 323.599091 335.750921 
L 324.867273 338.68318 
L 326.389091 341.607154 
L 327.910909 343.99574 
L 329.432727 345.948074 
L 330.954545 347.544923 
L 332.476364 348.852004 
L 332.73 349.045603 
L 332.983636 336.587748 
L 334.505455 184.200333 
L 335.266364 137.393251 
L 335.773636 117.281764 
L 336.280909 104.470289 
L 336.788182 97.591587 
L 337.041818 95.987218 
L 337.295455 95.420903 
L 337.549091 95.76819 
L 337.802727 96.915257 
L 338.31 101.204066 
L 339.070909 111.355436 
L 340.085455 129.130203 
L 345.158182 224.958378 
L 346.68 247.492766 
L 348.201818 266.500072 
L 349.723636 282.344069 
L 350.991818 293.434187 
L 352.26 302.862071 
L 353.528182 310.859452 
L 354.796364 317.632673 
L 356.064545 323.361406 
L 357.332727 328.203439 
L 358.600909 332.294653 
L 359.869091 335.750771 
L 361.137273 338.670157 
L 362.659091 341.581542 
L 364.180909 343.960111 
L 365.702727 345.904525 
L 367.224545 347.495157 
L 368.746364 348.797408 
L 369 348.990317 
L 369.253636 332.926759 
L 370.521818 201.568112 
L 371.282727 148.5118 
L 371.79 124.843418 
L 372.297273 109.07644 
L 372.804545 99.815838 
L 373.058182 97.214064 
L 373.311818 95.766305 
L 373.565455 95.338239 
L 373.819091 95.806816 
L 374.072727 97.059763 
L 374.58 101.51967 
L 375.340909 111.846352 
L 376.355455 129.74532 
L 381.174545 221.372145 
L 382.696364 244.428182 
L 384.218182 263.920517 
L 385.74 280.190946 
L 387.008182 291.590875 
L 388.276364 301.28751 
L 389.544545 309.51507 
L 390.812727 316.485415 
L 392.080909 322.382404 
L 393.349091 327.366937 
L 394.617273 331.5788 
L 395.885455 335.137131 
L 397.153636 338.143067 
L 398.675455 341.140907 
L 400.197273 343.590113 
L 401.719091 345.592205 
L 403.240909 347.230001 
L 404.762727 348.570872 
L 405.016364 348.769497 
L 405.27 348.648337 
L 405.523636 329.122916 
L 406.791818 198.476935 
L 407.552727 146.47544 
L 408.06 123.417768 
L 408.567273 108.161604 
L 409.074545 99.314707 
L 409.328182 96.886547 
L 409.581818 95.592537 
L 409.835455 95.300007 
L 410.089091 95.887411 
L 410.342727 97.243987 
L 410.85 101.871161 
L 411.610909 112.368006 
L 412.625455 130.386476 
L 417.444545 221.914683 
L 418.966364 244.884894 
L 420.488182 264.296563 
L 422.01 280.496073 
L 423.278182 291.844617 
L 424.546364 301.496705 
L 425.814545 309.686139 
L 427.082727 316.623991 
L 428.350909 322.493375 
L 429.619091 327.454587 
L 430.887273 331.646789 
L 432.155455 335.18858 
L 433.423636 338.180628 
L 434.945455 341.164736 
L 436.467273 343.602859 
L 437.989091 345.596031 
L 439.510909 347.226668 
L 441.032727 348.56181 
L 441.286364 348.759601 
L 441.54 347.382676 
L 442.047273 296.754179 
L 443.061818 195.453604 
L 443.822727 144.503484 
L 444.33 122.049491 
L 444.837273 107.296794 
L 445.344545 98.856986 
L 445.598182 96.599466 
L 445.851818 95.456455 
L 446.105455 95.296916 
L 446.359091 96.000862 
L 446.612727 97.458969 
L 447.12 102.249812 
L 447.880909 112.912473 
L 448.895455 131.046873 
L 453.460909 218.302197 
L 454.982727 241.794063 
L 456.504545 261.69781 
L 458.026364 278.331154 
L 459.294545 289.995436 
L 460.562727 299.921645 
L 461.830909 308.346401 
L 463.099091 315.485522 
L 464.367273 321.526485 
L 465.635455 326.633279 
L 466.903636 330.948754 
L 468.171818 334.594834 
L 469.44 337.675046 
L 470.961818 340.747098 
L 472.483636 343.257005 
L 474.005455 345.308736 
L 475.527273 346.987163 
L 477.049091 348.361338 
L 477.556364 348.761825 
L 477.81 345.351071 
L 478.570909 264.555 
L 479.331818 192.493993 
L 480.092727 142.589763 
L 480.6 120.732361 
L 481.107273 106.47581 
L 481.614545 98.436593 
L 481.868182 96.346801 
L 482.121818 95.352088 
L 482.375455 95.32306 
L 482.629091 96.141264 
L 483.136364 99.897672 
L 483.643636 105.875789 
L 484.404545 117.726968 
L 485.672727 141.692358 
L 488.97 205.82018 
L 490.491818 231.042618 
L 492.013636 252.630331 
L 493.535455 270.770735 
L 494.803636 283.537062 
L 496.071818 294.427357 
L 497.34 303.682263 
L 498.608182 311.531567 
L 499.876364 318.17891 
L 501.144545 323.800918 
L 502.412727 328.552665 
L 503.680909 332.567706 
L 504.949091 335.959772 
L 506.217273 338.825448 
L 507.739091 341.683766 
L 509.260909 344.019471 
L 510.782727 345.929322 
L 512.304545 347.492182 
L 513.826364 348.772198 
L 514.08 342.741613 
L 515.855455 170.860455 
L 516.616364 129.070118 
L 517.123636 111.728884 
L 517.630909 101.188958 
L 518.138182 96.124359 
L 518.391818 95.275292 
L 518.645455 95.374336 
L 518.899091 96.304577 
L 519.406364 100.242655 
L 519.913636 106.35486 
L 520.674545 118.338787 
L 521.942727 142.399957 
L 525.24 206.446417 
L 526.761818 231.584024 
L 528.283636 253.086259 
L 529.805455 271.149275 
L 531.073636 283.858827 
L 532.341818 294.699258 
L 533.61 303.911098 
L 534.878182 311.723554 
L 536.146364 318.33945 
L 537.414545 323.934724 
L 538.682727 328.663847 
L 539.950909 332.659787 
L 541.219091 336.035716 
L 542.487273 338.887791 
L 544.009091 341.732593 
L 545.530909 344.057315 
L 547.052727 345.958252 
L 548.574545 347.51388 
L 550.096364 348.788035 
L 550.35 339.703574 
L 551.871818 186.753689 
L 552.632727 138.922243 
L 553.14 118.236644 
L 553.647273 104.951279 
L 554.154545 97.692971 
L 554.408182 95.929998 
L 554.661818 95.223859 
L 554.915455 95.448466 
L 555.169091 96.488455 
L 555.676364 100.60431 
L 556.183636 106.847461 
L 556.944545 118.959857 
L 558.466364 148.207374 
L 561.256364 202.557097 
L 562.778182 228.201491 
L 564.3 250.220125 
L 565.821818 268.753479 
L 567.09 281.808963 
L 568.358182 292.952656 
L 569.626364 302.427263 
L 570.894545 310.464964 
L 572.162727 317.27304 
L 573.430909 323.031813 
L 574.699091 327.899612 
L 575.967273 332.012941 
L 577.235455 335.488124 
L 578.503636 338.423965 
L 580.025455 341.352187 
L 581.547273 343.744942 
L 583.069091 345.701366 
L 584.590909 347.302239 
L 586.112727 348.613284 
L 586.366364 348.807538 
L 586.62 336.350337 
L 588.141818 183.966828 
L 588.902727 137.161623 
L 589.41 117.051391 
L 589.917273 104.241142 
L 590.424545 97.363703 
L 590.678182 95.759971 
L 590.931818 95.19429 
L 591.185455 95.542206 
L 591.439091 96.689897 
L 591.946364 100.979951 
L 592.707273 111.133224 
L 593.721818 128.910549 
L 598.794545 224.750524 
L 600.316364 247.288598 
L 601.838182 266.299042 
L 603.36 282.146141 
L 604.628182 293.238935 
L 605.896364 302.669434 
L 607.164545 310.669347 
L 608.432727 317.445144 
L 609.700909 323.176444 
L 610.969091 328.020977 
L 612.237273 332.114637 
L 613.505455 335.573191 
L 614.773636 338.494997 
L 616.295455 341.409253 
L 617.817273 343.79064 
L 619.339091 345.737817 
L 620.860909 347.331169 
L 622.382727 348.636098 
L 622.636364 348.829452 
L 622.636364 348.829452 
" style="fill:none;stroke:#85c0f9;stroke-dasharray:11.1,4.8;stroke-dashoffset:0;stroke-width:3;"/>
   </g>
   <g id="patch_3">
    <path d="M 90 378 
L 90 51.84 
" style="fill:none;stroke:#000000;stroke-linecap:square;stroke-linejoin:miter;stroke-width:0.8;"/>
   </g>
   <g id="patch_4">
    <path d="M 648 378 
L 648 51.84 
" style="fill:none;stroke:#000000;stroke-linecap:square;stroke-linejoin:miter;stroke-width:0.8;"/>
   </g>
   <g id="patch_5">
    <path d="M 90 378 
L 648 378 
" style="fill:none;stroke:#000000;stroke-linecap:square;stroke-linejoin:miter;stroke-width:0.8;"/>
   </g>
   <g id="patch_6">
    <path d="M 90 51.84 
L 648 51.84 
" style="fill:none;stroke:#000000;stroke-linecap:square;stroke-linejoin:miter;stroke-width:0.8;"/>
   </g>
  </g>
 </g>
 <defs>
  <clipPath id="p36b8b5e8a8">
   <rect height="326.16" width="558" x="90" y="51.84"/>
  </clipPath>
 </defs>
</svg>
