<?xml version="1.0" encoding="utf-8" standalone="no"?>
<!DOCTYPE svg PUBLIC "-//W3C//DTD SVG 1.1//EN"
  "http://www.w3.org/Graphics/SVG/1.1/DTD/svg11.dtd">
<!-- Created with matplotlib (https://matplotlib.org/) -->
<svg height="504pt" version="1.1" viewBox="0 0 864 504" width="864pt" xmlns="http://www.w3.org/2000/svg" xmlns:xlink="http://www.w3.org/1999/xlink">
 <defs>
  <style type="text/css">
*{stroke-linecap:butt;stroke-linejoin:round;}
  </style>
 </defs>
 <g id="figure_1">
  <g id="patch_1">
   <path d="M 0 504 
L 864 504 
L 864 0 
L 0 0 
z
" style="fill:#ffffff;"/>
  </g>
  <g id="axes_1">
   <g id="patch_2">
    <path d="M 87.8 451.2 
L 853.2 451.2 
L 853.2 10.8 
L 87.8 10.8 
z
" style="fill:#ffffff;"/>
   </g>
   <g id="matplotlib.axis_1">
    <g id="xtick_1">
     <g id="line2d_1">
      <defs>
       <path d="M 0 0 
L 0 3.5 
" id="m0caf0f8feb" style="stroke:#000000;stroke-width:0.8;"/>
      </defs>
      <g>
       <use style="stroke:#000000;stroke-width:0.8;" x="122.590909" xlink:href="#m0caf0f8feb" y="451.2"/>
      </g>
     </g>
     <g id="text_1">
      <!-- 0 -->
      <defs>
       <path d="M 31.78125 3.421875 
Q 39.265625 3.421875 42.96875 11.625 
Q 46.6875 19.828125 46.6875 36.375 
Q 46.6875 52.984375 42.96875 61.1875 
Q 39.265625 69.390625 31.78125 69.390625 
Q 24.3125 69.390625 20.59375 61.1875 
Q 16.890625 52.984375 16.890625 36.375 
Q 16.890625 19.828125 20.59375 11.625 
Q 24.3125 3.421875 31.78125 3.421875 
z
M 31.78125 -1.421875 
Q 19.921875 -1.421875 13.25 8.53125 
Q 6.59375 18.5 6.59375 36.375 
Q 6.59375 54.296875 13.25 64.25 
Q 19.921875 74.21875 31.78125 74.21875 
Q 43.703125 74.21875 50.34375 64.25 
Q 56.984375 54.296875 56.984375 36.375 
Q 56.984375 18.5 50.34375 8.53125 
Q 43.703125 -1.421875 31.78125 -1.421875 
z
" id="DejaVuSerif-48"/>
      </defs>
      <g transform="translate(118.137159 468.837813)scale(0.14 -0.14)">
       <use xlink:href="#DejaVuSerif-48"/>
      </g>
     </g>
    </g>
    <g id="xtick_2">
     <g id="line2d_2">
      <g>
       <use style="stroke:#000000;stroke-width:0.8;" x="219.232323" xlink:href="#m0caf0f8feb" y="451.2"/>
      </g>
     </g>
     <g id="text_2">
      <!-- 10 -->
      <defs>
       <path d="M 14.203125 0 
L 14.203125 5.171875 
L 26.90625 5.171875 
L 26.90625 65.828125 
L 12.203125 56.296875 
L 12.203125 62.703125 
L 29.984375 74.21875 
L 36.71875 74.21875 
L 36.71875 5.171875 
L 49.421875 5.171875 
L 49.421875 0 
z
" id="DejaVuSerif-49"/>
      </defs>
      <g transform="translate(210.324823 468.837813)scale(0.14 -0.14)">
       <use xlink:href="#DejaVuSerif-49"/>
       <use x="63.623047" xlink:href="#DejaVuSerif-48"/>
      </g>
     </g>
    </g>
    <g id="xtick_3">
     <g id="line2d_3">
      <g>
       <use style="stroke:#000000;stroke-width:0.8;" x="315.873737" xlink:href="#m0caf0f8feb" y="451.2"/>
      </g>
     </g>
     <g id="text_3">
      <!-- 20 -->
      <defs>
       <path d="M 12.796875 55.515625 
L 7.328125 55.515625 
L 7.328125 68.5 
Q 12.546875 71.296875 17.84375 72.75 
Q 23.140625 74.21875 28.21875 74.21875 
Q 39.59375 74.21875 46.1875 68.703125 
Q 52.78125 63.1875 52.78125 53.71875 
Q 52.78125 43.015625 37.84375 28.125 
Q 36.671875 27 36.078125 26.421875 
L 17.671875 8.015625 
L 48.09375 8.015625 
L 48.09375 17 
L 53.8125 17 
L 53.8125 0 
L 6.78125 0 
L 6.78125 5.328125 
L 28.90625 27.390625 
Q 36.234375 34.71875 39.359375 40.84375 
Q 42.484375 46.96875 42.484375 53.71875 
Q 42.484375 61.078125 38.640625 65.234375 
Q 34.8125 69.390625 28.078125 69.390625 
Q 21.09375 69.390625 17.28125 65.921875 
Q 13.484375 62.453125 12.796875 55.515625 
z
" id="DejaVuSerif-50"/>
      </defs>
      <g transform="translate(306.966237 468.837813)scale(0.14 -0.14)">
       <use xlink:href="#DejaVuSerif-50"/>
       <use x="63.623047" xlink:href="#DejaVuSerif-48"/>
      </g>
     </g>
    </g>
    <g id="xtick_4">
     <g id="line2d_4">
      <g>
       <use style="stroke:#000000;stroke-width:0.8;" x="412.515152" xlink:href="#m0caf0f8feb" y="451.2"/>
      </g>
     </g>
     <g id="text_4">
      <!-- 30 -->
      <defs>
       <path d="M 9.71875 69.828125 
Q 15.4375 71.96875 20.671875 73.09375 
Q 25.921875 74.21875 30.515625 74.21875 
Q 41.21875 74.21875 47.21875 69.59375 
Q 53.21875 64.984375 53.21875 56.78125 
Q 53.21875 50.203125 49.0625 45.78125 
Q 44.921875 41.359375 37.3125 39.796875 
Q 46.296875 38.53125 51.25 33.28125 
Q 56.203125 28.03125 56.203125 19.671875 
Q 56.203125 9.46875 49.34375 4.015625 
Q 42.484375 -1.421875 29.59375 -1.421875 
Q 23.875 -1.421875 18.421875 -0.1875 
Q 12.984375 1.03125 7.625 3.515625 
L 7.625 17.671875 
L 13.09375 17.671875 
Q 13.578125 10.640625 17.828125 7.03125 
Q 22.078125 3.421875 29.78125 3.421875 
Q 37.25 3.421875 41.578125 7.734375 
Q 45.90625 12.0625 45.90625 19.578125 
Q 45.90625 28.171875 41.453125 32.59375 
Q 37.015625 37.015625 28.421875 37.015625 
L 23.78125 37.015625 
L 23.78125 42 
L 26.21875 42 
Q 34.765625 42 39.03125 45.53125 
Q 43.3125 49.078125 43.3125 56.203125 
Q 43.3125 62.59375 39.796875 65.984375 
Q 36.28125 69.390625 29.6875 69.390625 
Q 23.09375 69.390625 19.453125 66.265625 
Q 15.828125 63.140625 15.1875 56.984375 
L 9.71875 56.984375 
z
" id="DejaVuSerif-51"/>
      </defs>
      <g transform="translate(403.607652 468.837813)scale(0.14 -0.14)">
       <use xlink:href="#DejaVuSerif-51"/>
       <use x="63.623047" xlink:href="#DejaVuSerif-48"/>
      </g>
     </g>
    </g>
    <g id="xtick_5">
     <g id="line2d_5">
      <g>
       <use style="stroke:#000000;stroke-width:0.8;" x="509.156566" xlink:href="#m0caf0f8feb" y="451.2"/>
      </g>
     </g>
     <g id="text_5">
      <!-- 40 -->
      <defs>
       <path d="M 34.90625 24.703125 
L 34.90625 63.484375 
L 10.015625 24.703125 
z
M 56.390625 0 
L 23.1875 0 
L 23.1875 5.171875 
L 34.90625 5.171875 
L 34.90625 19.484375 
L 3.078125 19.484375 
L 3.078125 24.8125 
L 35.015625 74.21875 
L 44.671875 74.21875 
L 44.671875 24.703125 
L 58.59375 24.703125 
L 58.59375 19.484375 
L 44.671875 19.484375 
L 44.671875 5.171875 
L 56.390625 5.171875 
z
" id="DejaVuSerif-52"/>
      </defs>
      <g transform="translate(500.249066 468.837813)scale(0.14 -0.14)">
       <use xlink:href="#DejaVuSerif-52"/>
       <use x="63.623047" xlink:href="#DejaVuSerif-48"/>
      </g>
     </g>
    </g>
    <g id="xtick_6">
     <g id="line2d_6">
      <g>
       <use style="stroke:#000000;stroke-width:0.8;" x="605.79798" xlink:href="#m0caf0f8feb" y="451.2"/>
      </g>
     </g>
     <g id="text_6">
      <!-- 50 -->
      <defs>
       <path d="M 50.296875 72.90625 
L 50.296875 64.890625 
L 16.890625 64.890625 
L 16.890625 44 
Q 19.4375 45.75 22.828125 46.625 
Q 26.21875 47.515625 30.421875 47.515625 
Q 42.234375 47.515625 49.0625 40.96875 
Q 55.90625 34.421875 55.90625 23.09375 
Q 55.90625 11.53125 49 5.046875 
Q 42.09375 -1.421875 29.59375 -1.421875 
Q 24.5625 -1.421875 19.28125 -0.1875 
Q 14.015625 1.03125 8.5 3.515625 
L 8.5 17.671875 
L 14.015625 17.671875 
Q 14.453125 10.75 18.421875 7.078125 
Q 22.40625 3.421875 29.59375 3.421875 
Q 37.3125 3.421875 41.453125 8.5 
Q 45.609375 13.578125 45.609375 23.09375 
Q 45.609375 32.5625 41.484375 37.609375 
Q 37.359375 42.671875 29.59375 42.671875 
Q 25.203125 42.671875 21.84375 41.109375 
Q 18.5 39.546875 15.921875 36.28125 
L 11.71875 36.28125 
L 11.71875 72.90625 
z
" id="DejaVuSerif-53"/>
      </defs>
      <g transform="translate(596.89048 468.837813)scale(0.14 -0.14)">
       <use xlink:href="#DejaVuSerif-53"/>
       <use x="63.623047" xlink:href="#DejaVuSerif-48"/>
      </g>
     </g>
    </g>
    <g id="xtick_7">
     <g id="line2d_7">
      <g>
       <use style="stroke:#000000;stroke-width:0.8;" x="702.439394" xlink:href="#m0caf0f8feb" y="451.2"/>
      </g>
     </g>
     <g id="text_7">
      <!-- 60 -->
      <defs>
       <path d="M 32.71875 3.421875 
Q 39.59375 3.421875 43.296875 8.46875 
Q 47.015625 13.53125 47.015625 23 
Q 47.015625 32.46875 43.296875 37.515625 
Q 39.59375 42.578125 32.71875 42.578125 
Q 25.734375 42.578125 22.0625 37.6875 
Q 18.40625 32.8125 18.40625 23.578125 
Q 18.40625 13.875 22.109375 8.640625 
Q 25.828125 3.421875 32.71875 3.421875 
z
M 16.796875 40.140625 
Q 20.125 43.796875 24.3125 45.59375 
Q 28.515625 47.40625 33.796875 47.40625 
Q 44.671875 47.40625 51 40.859375 
Q 57.328125 34.328125 57.328125 23 
Q 57.328125 11.921875 50.515625 5.25 
Q 43.703125 -1.421875 32.328125 -1.421875 
Q 19.96875 -1.421875 13.328125 7.78125 
Q 6.6875 17 6.6875 34.078125 
Q 6.6875 53.21875 14.546875 63.71875 
Q 22.40625 74.21875 36.71875 74.21875 
Q 40.578125 74.21875 44.828125 73.484375 
Q 49.078125 72.75 53.515625 71.296875 
L 53.515625 59.28125 
L 48 59.28125 
Q 47.40625 64.203125 44.234375 66.796875 
Q 41.0625 69.390625 35.6875 69.390625 
Q 26.21875 69.390625 21.578125 62.203125 
Q 16.9375 55.03125 16.796875 40.140625 
z
" id="DejaVuSerif-54"/>
      </defs>
      <g transform="translate(693.531894 468.837813)scale(0.14 -0.14)">
       <use xlink:href="#DejaVuSerif-54"/>
       <use x="63.623047" xlink:href="#DejaVuSerif-48"/>
      </g>
     </g>
    </g>
    <g id="xtick_8">
     <g id="line2d_8">
      <g>
       <use style="stroke:#000000;stroke-width:0.8;" x="799.080808" xlink:href="#m0caf0f8feb" y="451.2"/>
      </g>
     </g>
     <g id="text_8">
      <!-- 70 -->
      <defs>
       <path d="M 56.390625 67.921875 
L 27.875 0 
L 20.609375 0 
L 47.796875 64.890625 
L 14.109375 64.890625 
L 14.109375 55.90625 
L 8.40625 55.90625 
L 8.40625 72.90625 
L 56.390625 72.90625 
z
" id="DejaVuSerif-55"/>
      </defs>
      <g transform="translate(790.173308 468.837813)scale(0.14 -0.14)">
       <use xlink:href="#DejaVuSerif-55"/>
       <use x="63.623047" xlink:href="#DejaVuSerif-48"/>
      </g>
     </g>
    </g>
    <g id="text_9">
     <!-- Time [h] -->
     <defs>
      <path d="M 19.09375 0 
L 19.09375 5.171875 
L 28.421875 5.171875 
L 28.421875 67.09375 
L 6.984375 67.09375 
L 6.984375 55.71875 
L 0.984375 55.71875 
L 0.984375 72.90625 
L 65.71875 72.90625 
L 65.71875 55.71875 
L 59.71875 55.71875 
L 59.71875 67.09375 
L 38.28125 67.09375 
L 38.28125 5.171875 
L 47.609375 5.171875 
L 47.609375 0 
z
" id="DejaVuSerif-84"/>
      <path d="M 9.71875 68.015625 
Q 9.71875 70.265625 11.34375 71.921875 
Q 12.984375 73.578125 15.28125 73.578125 
Q 17.53125 73.578125 19.15625 71.921875 
Q 20.796875 70.265625 20.796875 68.015625 
Q 20.796875 65.71875 19.1875 64.109375 
Q 17.578125 62.5 15.28125 62.5 
Q 12.984375 62.5 11.34375 64.109375 
Q 9.71875 65.71875 9.71875 68.015625 
z
M 21.1875 5.171875 
L 29.6875 5.171875 
L 29.6875 0 
L 3.609375 0 
L 3.609375 5.171875 
L 12.203125 5.171875 
L 12.203125 46.6875 
L 3.609375 46.6875 
L 3.609375 51.90625 
L 21.1875 51.90625 
z
" id="DejaVuSerif-105"/>
      <path d="M 51.8125 41.796875 
Q 54.390625 47.515625 58.421875 50.421875 
Q 62.453125 53.328125 67.828125 53.328125 
Q 75.984375 53.328125 79.984375 48.265625 
Q 83.984375 43.21875 83.984375 33.015625 
L 83.984375 5.171875 
L 92.09375 5.171875 
L 92.09375 0 
L 67.1875 0 
L 67.1875 5.171875 
L 75 5.171875 
L 75 31.984375 
Q 75 39.9375 72.65625 43.3125 
Q 70.3125 46.6875 64.890625 46.6875 
Q 58.890625 46.6875 55.734375 42.140625 
Q 52.59375 37.59375 52.59375 28.90625 
L 52.59375 5.171875 
L 60.40625 5.171875 
L 60.40625 0 
L 35.796875 0 
L 35.796875 5.171875 
L 43.609375 5.171875 
L 43.609375 32.328125 
Q 43.609375 40.09375 41.265625 43.390625 
Q 38.921875 46.6875 33.5 46.6875 
Q 27.484375 46.6875 24.328125 42.140625 
Q 21.1875 37.59375 21.1875 28.90625 
L 21.1875 5.171875 
L 29 5.171875 
L 29 0 
L 4.109375 0 
L 4.109375 5.171875 
L 12.203125 5.171875 
L 12.203125 46.78125 
L 3.609375 46.78125 
L 3.609375 51.90625 
L 21.1875 51.90625 
L 21.1875 42.671875 
Q 23.6875 47.859375 27.53125 50.59375 
Q 31.390625 53.328125 36.28125 53.328125 
Q 42.328125 53.328125 46.375 50.3125 
Q 50.4375 47.3125 51.8125 41.796875 
z
" id="DejaVuSerif-109"/>
      <path d="M 54.203125 25 
L 15.484375 25 
L 15.484375 24.609375 
Q 15.484375 14.109375 19.4375 8.765625 
Q 23.390625 3.421875 31.109375 3.421875 
Q 37.015625 3.421875 40.796875 6.515625 
Q 44.578125 9.625 46.09375 15.71875 
L 53.328125 15.71875 
Q 51.171875 7.171875 45.375 2.875 
Q 39.59375 -1.421875 30.171875 -1.421875 
Q 18.796875 -1.421875 11.890625 6.078125 
Q 4.984375 13.578125 4.984375 25.984375 
Q 4.984375 38.28125 11.765625 45.796875 
Q 18.5625 53.328125 29.59375 53.328125 
Q 41.359375 53.328125 47.65625 46.0625 
Q 53.953125 38.8125 54.203125 25 
z
M 43.609375 30.171875 
Q 43.3125 39.265625 39.765625 43.875 
Q 36.234375 48.484375 29.59375 48.484375 
Q 23.390625 48.484375 19.828125 43.84375 
Q 16.265625 39.203125 15.484375 30.171875 
z
" id="DejaVuSerif-101"/>
      <path id="DejaVuSerif-32"/>
      <path d="M 8.59375 75.984375 
L 31.296875 75.984375 
L 31.296875 70.796875 
L 17.921875 70.796875 
L 17.921875 -8.015625 
L 31.296875 -8.015625 
L 31.296875 -13.1875 
L 8.59375 -13.1875 
z
" id="DejaVuSerif-91"/>
      <path d="M 4.109375 0 
L 4.109375 5.171875 
L 12.203125 5.171875 
L 12.203125 70.796875 
L 3.609375 70.796875 
L 3.609375 75.984375 
L 21.1875 75.984375 
L 21.1875 42.671875 
Q 23.6875 47.953125 27.65625 50.640625 
Q 31.640625 53.328125 36.921875 53.328125 
Q 45.515625 53.328125 49.5625 48.390625 
Q 53.609375 43.453125 53.609375 33.015625 
L 53.609375 5.171875 
L 61.625 5.171875 
L 61.625 0 
L 36.8125 0 
L 36.8125 5.171875 
L 44.578125 5.171875 
L 44.578125 30.171875 
Q 44.578125 39.703125 42.25 43.1875 
Q 39.9375 46.6875 33.984375 46.6875 
Q 27.734375 46.6875 24.453125 42.140625 
Q 21.1875 37.59375 21.1875 28.90625 
L 21.1875 5.171875 
L 29 5.171875 
L 29 0 
z
" id="DejaVuSerif-104"/>
      <path d="M 30.421875 75.984375 
L 30.421875 -13.1875 
L 7.71875 -13.1875 
L 7.71875 -8.015625 
L 21.09375 -8.015625 
L 21.09375 70.796875 
L 7.71875 70.796875 
L 7.71875 75.984375 
z
" id="DejaVuSerif-93"/>
     </defs>
     <g transform="translate(434.211641 488.666719)scale(0.17 -0.17)">
      <use xlink:href="#DejaVuSerif-84"/>
      <use x="66.699219" xlink:href="#DejaVuSerif-105"/>
      <use x="98.681641" xlink:href="#DejaVuSerif-109"/>
      <use x="193.505859" xlink:href="#DejaVuSerif-101"/>
      <use x="252.685547" xlink:href="#DejaVuSerif-32"/>
      <use x="284.472656" xlink:href="#DejaVuSerif-91"/>
      <use x="323.486328" xlink:href="#DejaVuSerif-104"/>
      <use x="387.890625" xlink:href="#DejaVuSerif-93"/>
     </g>
    </g>
   </g>
   <g id="matplotlib.axis_2">
    <g id="ytick_1">
     <g id="line2d_9">
      <defs>
       <path d="M 0 0 
L -3.5 0 
" id="m5b19d5fc99" style="stroke:#000000;stroke-width:0.8;"/>
      </defs>
      <g>
       <use style="stroke:#000000;stroke-width:0.8;" x="87.8" xlink:href="#m5b19d5fc99" y="431.181818"/>
      </g>
     </g>
     <g id="text_10">
      <!-- 0 -->
      <g transform="translate(71.8925 436.500724)scale(0.14 -0.14)">
       <use xlink:href="#DejaVuSerif-48"/>
      </g>
     </g>
    </g>
    <g id="ytick_2">
     <g id="line2d_10">
      <g>
       <use style="stroke:#000000;stroke-width:0.8;" x="87.8" xlink:href="#m5b19d5fc99" y="355.279923"/>
      </g>
     </g>
     <g id="text_11">
      <!-- 8,000 -->
      <defs>
       <path d="M 46.578125 19.921875 
Q 46.578125 27.734375 42.6875 32.046875 
Q 38.8125 36.375 31.78125 36.375 
Q 24.75 36.375 20.875 32.046875 
Q 17 27.734375 17 19.921875 
Q 17 12.0625 20.875 7.734375 
Q 24.75 3.421875 31.78125 3.421875 
Q 38.8125 3.421875 42.6875 7.734375 
Q 46.578125 12.0625 46.578125 19.921875 
z
M 44.578125 55.328125 
Q 44.578125 61.96875 41.203125 65.671875 
Q 37.84375 69.390625 31.78125 69.390625 
Q 25.78125 69.390625 22.390625 65.671875 
Q 19 61.96875 19 55.328125 
Q 19 48.640625 22.390625 44.921875 
Q 25.78125 41.21875 31.78125 41.21875 
Q 37.84375 41.21875 41.203125 44.921875 
Q 44.578125 48.640625 44.578125 55.328125 
z
M 39.3125 38.8125 
Q 47.609375 37.703125 52.25 32.6875 
Q 56.890625 27.6875 56.890625 19.921875 
Q 56.890625 9.671875 50.390625 4.125 
Q 43.890625 -1.421875 31.78125 -1.421875 
Q 19.734375 -1.421875 13.203125 4.125 
Q 6.6875 9.671875 6.6875 19.921875 
Q 6.6875 27.6875 11.328125 32.6875 
Q 15.96875 37.703125 24.3125 38.8125 
Q 16.9375 40.140625 13 44.40625 
Q 9.078125 48.6875 9.078125 55.328125 
Q 9.078125 64.109375 15.125 69.15625 
Q 21.1875 74.21875 31.78125 74.21875 
Q 42.390625 74.21875 48.4375 69.15625 
Q 54.5 64.109375 54.5 55.328125 
Q 54.5 48.6875 50.5625 44.40625 
Q 46.625 40.140625 39.3125 38.8125 
z
" id="DejaVuSerif-56"/>
       <path d="M 3.609375 -9.71875 
Q 8.203125 -6.34375 10.34375 -1.78125 
Q 12.5 2.78125 12.5 9.28125 
L 12.5 11.078125 
L 22.125 11.078125 
Q 21.734375 2.734375 18.1875 -3.25 
Q 14.65625 -9.234375 7.515625 -13.625 
z
" id="DejaVuSerif-44"/>
      </defs>
      <g transform="translate(40.720625 360.59883)scale(0.14 -0.14)">
       <use xlink:href="#DejaVuSerif-56"/>
       <use x="63.623047" xlink:href="#DejaVuSerif-44"/>
       <use x="95.410156" xlink:href="#DejaVuSerif-48"/>
       <use x="159.033203" xlink:href="#DejaVuSerif-48"/>
       <use x="222.65625" xlink:href="#DejaVuSerif-48"/>
      </g>
     </g>
    </g>
    <g id="ytick_3">
     <g id="line2d_11">
      <g>
       <use style="stroke:#000000;stroke-width:0.8;" x="87.8" xlink:href="#m5b19d5fc99" y="279.378028"/>
      </g>
     </g>
     <g id="text_12">
      <!-- 16,000 -->
      <g transform="translate(31.813125 284.696935)scale(0.14 -0.14)">
       <use xlink:href="#DejaVuSerif-49"/>
       <use x="63.623047" xlink:href="#DejaVuSerif-54"/>
       <use x="127.246094" xlink:href="#DejaVuSerif-44"/>
       <use x="159.033203" xlink:href="#DejaVuSerif-48"/>
       <use x="222.65625" xlink:href="#DejaVuSerif-48"/>
       <use x="286.279297" xlink:href="#DejaVuSerif-48"/>
      </g>
     </g>
    </g>
    <g id="ytick_4">
     <g id="line2d_12">
      <g>
       <use style="stroke:#000000;stroke-width:0.8;" x="87.8" xlink:href="#m5b19d5fc99" y="203.476134"/>
      </g>
     </g>
     <g id="text_13">
      <!-- 24,000 -->
      <g transform="translate(31.813125 208.79504)scale(0.14 -0.14)">
       <use xlink:href="#DejaVuSerif-50"/>
       <use x="63.623047" xlink:href="#DejaVuSerif-52"/>
       <use x="127.246094" xlink:href="#DejaVuSerif-44"/>
       <use x="159.033203" xlink:href="#DejaVuSerif-48"/>
       <use x="222.65625" xlink:href="#DejaVuSerif-48"/>
       <use x="286.279297" xlink:href="#DejaVuSerif-48"/>
      </g>
     </g>
    </g>
    <g id="ytick_5">
     <g id="line2d_13">
      <g>
       <use style="stroke:#000000;stroke-width:0.8;" x="87.8" xlink:href="#m5b19d5fc99" y="127.574239"/>
      </g>
     </g>
     <g id="text_14">
      <!-- 32,000 -->
      <g transform="translate(31.813125 132.893145)scale(0.14 -0.14)">
       <use xlink:href="#DejaVuSerif-51"/>
       <use x="63.623047" xlink:href="#DejaVuSerif-50"/>
       <use x="127.246094" xlink:href="#DejaVuSerif-44"/>
       <use x="159.033203" xlink:href="#DejaVuSerif-48"/>
       <use x="222.65625" xlink:href="#DejaVuSerif-48"/>
       <use x="286.279297" xlink:href="#DejaVuSerif-48"/>
      </g>
     </g>
    </g>
    <g id="ytick_6">
     <g id="line2d_14">
      <g>
       <use style="stroke:#000000;stroke-width:0.8;" x="87.8" xlink:href="#m5b19d5fc99" y="51.672344"/>
      </g>
     </g>
     <g id="text_15">
      <!-- 40,000 -->
      <g transform="translate(31.813125 56.99125)scale(0.14 -0.14)">
       <use xlink:href="#DejaVuSerif-52"/>
       <use x="63.623047" xlink:href="#DejaVuSerif-48"/>
       <use x="127.246094" xlink:href="#DejaVuSerif-44"/>
       <use x="159.033203" xlink:href="#DejaVuSerif-48"/>
       <use x="222.65625" xlink:href="#DejaVuSerif-48"/>
       <use x="286.279297" xlink:href="#DejaVuSerif-48"/>
      </g>
     </g>
    </g>
    <g id="text_16">
     <!-- BPS [ng/ml] -->
     <defs>
      <path d="M 24.703125 5.171875 
L 39.3125 5.171875 
Q 48.09375 5.171875 52.140625 8.984375 
Q 56.203125 12.796875 56.203125 21.09375 
Q 56.203125 29.34375 52.171875 33.125 
Q 48.140625 36.921875 39.3125 36.921875 
L 24.703125 36.921875 
z
M 24.703125 42.09375 
L 37.109375 42.09375 
Q 45.125 42.09375 48.796875 45.171875 
Q 52.484375 48.25 52.484375 54.890625 
Q 52.484375 61.578125 48.796875 64.625 
Q 45.125 67.671875 37.109375 67.671875 
L 24.703125 67.671875 
z
M 5.515625 0 
L 5.515625 5.171875 
L 14.796875 5.171875 
L 14.796875 67.671875 
L 5.515625 67.671875 
L 5.515625 72.90625 
L 41.5 72.90625 
Q 52.546875 72.90625 58.125 68.390625 
Q 63.71875 63.875 63.71875 54.890625 
Q 63.71875 48.390625 59.828125 44.53125 
Q 55.953125 40.671875 48.484375 39.796875 
Q 57.765625 38.625 62.578125 33.859375 
Q 67.390625 29.109375 67.390625 21.09375 
Q 67.390625 10.25 60.546875 5.125 
Q 53.71875 0 39.203125 0 
z
" id="DejaVuSerif-66"/>
      <path d="M 24.703125 37.109375 
L 37.59375 37.109375 
Q 44.875 37.109375 48.671875 41.03125 
Q 52.484375 44.96875 52.484375 52.390625 
Q 52.484375 59.859375 48.671875 63.765625 
Q 44.875 67.671875 37.59375 67.671875 
L 24.703125 67.671875 
z
M 5.515625 0 
L 5.515625 5.171875 
L 14.796875 5.171875 
L 14.796875 67.671875 
L 5.515625 67.671875 
L 5.515625 72.90625 
L 39.984375 72.90625 
Q 50.921875 72.90625 57.3125 67.359375 
Q 63.71875 61.8125 63.71875 52.390625 
Q 63.71875 43.015625 57.3125 37.453125 
Q 50.921875 31.890625 39.984375 31.890625 
L 24.703125 31.890625 
L 24.703125 5.171875 
L 35.984375 5.171875 
L 35.984375 0 
z
" id="DejaVuSerif-80"/>
      <path d="M 9.28125 3.515625 
L 9.28125 20.125 
L 14.890625 20.0625 
Q 15.140625 11.765625 19.703125 7.78125 
Q 24.265625 3.8125 33.59375 3.8125 
Q 42.28125 3.8125 46.84375 7.25 
Q 51.421875 10.6875 51.421875 17.28125 
Q 51.421875 22.5625 48.65625 25.390625 
Q 45.90625 28.21875 37.015625 30.90625 
L 27.390625 33.796875 
Q 16.9375 36.96875 12.671875 41.703125 
Q 8.40625 46.4375 8.40625 54.6875 
Q 8.40625 63.96875 14.984375 69.09375 
Q 21.578125 74.21875 33.5 74.21875 
Q 38.578125 74.21875 44.625 73.109375 
Q 50.6875 72.015625 57.515625 69.921875 
L 57.515625 54.390625 
L 52 54.390625 
Q 51.171875 62.109375 46.84375 65.546875 
Q 42.53125 69 33.6875 69 
Q 25.984375 69 21.953125 65.84375 
Q 17.921875 62.703125 17.921875 56.6875 
Q 17.921875 51.46875 20.9375 48.484375 
Q 23.96875 45.515625 33.796875 42.578125 
L 42.828125 39.890625 
Q 52.734375 36.921875 56.953125 32.296875 
Q 61.1875 27.6875 61.1875 19.921875 
Q 61.1875 9.328125 54.390625 3.953125 
Q 47.609375 -1.421875 34.1875 -1.421875 
Q 28.171875 -1.421875 21.9375 -0.1875 
Q 15.71875 1.03125 9.28125 3.515625 
z
" id="DejaVuSerif-83"/>
      <path d="M 4.109375 0 
L 4.109375 5.171875 
L 12.203125 5.171875 
L 12.203125 46.6875 
L 3.609375 46.6875 
L 3.609375 51.90625 
L 21.1875 51.90625 
L 21.1875 42.671875 
Q 23.6875 47.953125 27.65625 50.640625 
Q 31.640625 53.328125 36.921875 53.328125 
Q 45.515625 53.328125 49.5625 48.390625 
Q 53.609375 43.453125 53.609375 33.015625 
L 53.609375 5.171875 
L 61.625 5.171875 
L 61.625 0 
L 36.8125 0 
L 36.8125 5.171875 
L 44.578125 5.171875 
L 44.578125 30.171875 
Q 44.578125 39.703125 42.234375 43.234375 
Q 39.890625 46.78125 33.984375 46.78125 
Q 27.734375 46.78125 24.453125 42.203125 
Q 21.1875 37.640625 21.1875 28.90625 
L 21.1875 5.171875 
L 29 5.171875 
L 29 0 
z
" id="DejaVuSerif-110"/>
      <path d="M 52.484375 46.6875 
L 52.484375 1.125 
Q 52.484375 -10.0625 46.328125 -16.140625 
Q 40.1875 -22.21875 28.8125 -22.21875 
Q 23.6875 -22.21875 19 -21.28125 
Q 14.3125 -20.359375 10.015625 -18.5 
L 10.015625 -7.625 
L 14.703125 -7.625 
Q 15.578125 -12.703125 18.84375 -15.046875 
Q 22.125 -17.390625 28.21875 -17.390625 
Q 36.140625 -17.390625 39.8125 -12.921875 
Q 43.5 -8.453125 43.5 1.125 
L 43.5 8.109375 
Q 40.875 3.21875 36.796875 0.890625 
Q 32.71875 -1.421875 26.703125 -1.421875 
Q 17.140625 -1.421875 11.0625 6.171875 
Q 4.984375 13.765625 4.984375 25.984375 
Q 4.984375 38.1875 11.03125 45.75 
Q 17.09375 53.328125 26.703125 53.328125 
Q 32.71875 53.328125 36.796875 51 
Q 40.875 48.6875 43.5 43.796875 
L 43.5 51.90625 
L 61.078125 51.90625 
L 61.078125 46.6875 
z
M 43.5 28.515625 
Q 43.5 37.84375 39.90625 42.765625 
Q 36.328125 47.703125 29.5 47.703125 
Q 22.5625 47.703125 19.015625 42.234375 
Q 15.484375 36.765625 15.484375 25.984375 
Q 15.484375 15.234375 19.015625 9.71875 
Q 22.5625 4.203125 29.5 4.203125 
Q 36.328125 4.203125 39.90625 9.109375 
Q 43.5 14.015625 43.5 23.390625 
z
" id="DejaVuSerif-103"/>
      <path d="M 25.875 72.90625 
L 33.6875 72.90625 
L 7.8125 -9.28125 
L 0 -9.28125 
z
" id="DejaVuSerif-47"/>
      <path d="M 20.515625 5.171875 
L 29 5.171875 
L 29 0 
L 2.875 0 
L 2.875 5.171875 
L 11.53125 5.171875 
L 11.53125 70.796875 
L 2.875 70.796875 
L 2.875 75.984375 
L 20.515625 75.984375 
z
" id="DejaVuSerif-108"/>
     </defs>
     <g transform="translate(24.035937 282.68)rotate(-90)scale(0.17 -0.17)">
      <use xlink:href="#DejaVuSerif-66"/>
      <use x="73.486328" xlink:href="#DejaVuSerif-80"/>
      <use x="140.771484" xlink:href="#DejaVuSerif-83"/>
      <use x="209.277344" xlink:href="#DejaVuSerif-32"/>
      <use x="241.064453" xlink:href="#DejaVuSerif-91"/>
      <use x="280.078125" xlink:href="#DejaVuSerif-110"/>
      <use x="344.482422" xlink:href="#DejaVuSerif-103"/>
      <use x="408.496094" xlink:href="#DejaVuSerif-47"/>
      <use x="442.1875" xlink:href="#DejaVuSerif-109"/>
      <use x="537.011719" xlink:href="#DejaVuSerif-108"/>
      <use x="568.994141" xlink:href="#DejaVuSerif-93"/>
     </g>
    </g>
   </g>
   <g id="LineCollection_1">
    <path clip-path="url(#p02cf386c0e)" d="M 123.879461 135.573092 
L 123.879461 51.771418 
" style="fill:none;stroke:#000000;stroke-width:1.5;"/>
    <path clip-path="url(#p02cf386c0e)" d="M 124.845875 138.501333 
L 124.845875 30.818182 
" style="fill:none;stroke:#000000;stroke-width:1.5;"/>
    <path clip-path="url(#p02cf386c0e)" d="M 127.342445 157.176701 
L 127.342445 65.579841 
" style="fill:none;stroke:#000000;stroke-width:1.5;"/>
    <path clip-path="url(#p02cf386c0e)" d="M 132.335585 194.610207 
L 132.335585 134.299276 
" style="fill:none;stroke:#000000;stroke-width:1.5;"/>
    <path clip-path="url(#p02cf386c0e)" d="M 142.080261 178.536573 
L 142.080261 162.937097 
" style="fill:none;stroke:#000000;stroke-width:1.5;"/>
    <path clip-path="url(#p02cf386c0e)" d="M 161.287742 199.261578 
L 161.287742 142.776979 
" style="fill:none;stroke:#000000;stroke-width:1.5;"/>
    <path clip-path="url(#p02cf386c0e)" d="M 180.897896 210.660701 
L 180.897896 134.912093 
" style="fill:none;stroke:#000000;stroke-width:1.5;"/>
    <path clip-path="url(#p02cf386c0e)" d="M 200.105377 204.71838 
L 200.105377 156.415373 
" style="fill:none;stroke:#000000;stroke-width:1.5;"/>
    <path clip-path="url(#p02cf386c0e)" d="M 219.192056 227.566398 
L 219.192056 156.299219 
" style="fill:none;stroke:#000000;stroke-width:1.5;"/>
    <path clip-path="url(#p02cf386c0e)" d="M 355.698053 242.482913 
L 355.698053 185.434307 
" style="fill:none;stroke:#000000;stroke-width:1.5;"/>
    <path clip-path="url(#p02cf386c0e)" d="M 452.339468 248.119832 
L 452.339468 197.948055 
" style="fill:none;stroke:#000000;stroke-width:1.5;"/>
    <path clip-path="url(#p02cf386c0e)" d="M 585.744886 268.694685 
L 585.744886 228.337161 
" style="fill:none;stroke:#000000;stroke-width:1.5;"/>
    <path clip-path="url(#p02cf386c0e)" d="M 683.151378 273.923746 
L 683.151378 233.120351 
" style="fill:none;stroke:#000000;stroke-width:1.5;"/>
    <path clip-path="url(#p02cf386c0e)" d="M 814.704503 296.642371 
L 814.704503 257.349425 
" style="fill:none;stroke:#000000;stroke-width:1.5;"/>
   </g>
   <g id="LineCollection_2">
    <path clip-path="url(#p02cf386c0e)" d="M 123.879461 135.573092 
L 123.879461 51.771418 
" style="fill:none;stroke:#000000;stroke-width:1.5;"/>
    <path clip-path="url(#p02cf386c0e)" d="M 124.845875 138.501333 
L 124.845875 30.818182 
" style="fill:none;stroke:#000000;stroke-width:1.5;"/>
    <path clip-path="url(#p02cf386c0e)" d="M 127.342445 157.176701 
L 127.342445 65.579841 
" style="fill:none;stroke:#000000;stroke-width:1.5;"/>
    <path clip-path="url(#p02cf386c0e)" d="M 132.335585 194.610207 
L 132.335585 134.299276 
" style="fill:none;stroke:#000000;stroke-width:1.5;"/>
    <path clip-path="url(#p02cf386c0e)" d="M 142.080261 178.536573 
L 142.080261 162.937097 
" style="fill:none;stroke:#000000;stroke-width:1.5;"/>
    <path clip-path="url(#p02cf386c0e)" d="M 161.287742 199.261578 
L 161.287742 142.776979 
" style="fill:none;stroke:#000000;stroke-width:1.5;"/>
    <path clip-path="url(#p02cf386c0e)" d="M 180.897896 210.660701 
L 180.897896 134.912093 
" style="fill:none;stroke:#000000;stroke-width:1.5;"/>
    <path clip-path="url(#p02cf386c0e)" d="M 200.105377 204.71838 
L 200.105377 156.415373 
" style="fill:none;stroke:#000000;stroke-width:1.5;"/>
    <path clip-path="url(#p02cf386c0e)" d="M 219.192056 227.566398 
L 219.192056 156.299219 
" style="fill:none;stroke:#000000;stroke-width:1.5;"/>
    <path clip-path="url(#p02cf386c0e)" d="M 355.698053 242.482913 
L 355.698053 185.434307 
" style="fill:none;stroke:#000000;stroke-width:1.5;"/>
    <path clip-path="url(#p02cf386c0e)" d="M 452.339468 248.119832 
L 452.339468 197.948055 
" style="fill:none;stroke:#000000;stroke-width:1.5;"/>
    <path clip-path="url(#p02cf386c0e)" d="M 585.744886 268.694685 
L 585.744886 228.337161 
" style="fill:none;stroke:#000000;stroke-width:1.5;"/>
    <path clip-path="url(#p02cf386c0e)" d="M 683.151378 273.923746 
L 683.151378 233.120351 
" style="fill:none;stroke:#000000;stroke-width:1.5;"/>
    <path clip-path="url(#p02cf386c0e)" d="M 814.704503 296.642371 
L 814.704503 257.349425 
" style="fill:none;stroke:#000000;stroke-width:1.5;"/>
   </g>
   <g id="LineCollection_3">
    <path clip-path="url(#p02cf386c0e)" d="M 123.879461 135.573092 
L 123.879461 51.771418 
" style="fill:none;stroke:#000000;stroke-width:1.5;"/>
    <path clip-path="url(#p02cf386c0e)" d="M 124.845875 138.501333 
L 124.845875 30.818182 
" style="fill:none;stroke:#000000;stroke-width:1.5;"/>
    <path clip-path="url(#p02cf386c0e)" d="M 127.342445 157.176701 
L 127.342445 65.579841 
" style="fill:none;stroke:#000000;stroke-width:1.5;"/>
    <path clip-path="url(#p02cf386c0e)" d="M 132.335585 194.610207 
L 132.335585 134.299276 
" style="fill:none;stroke:#000000;stroke-width:1.5;"/>
    <path clip-path="url(#p02cf386c0e)" d="M 142.080261 178.536573 
L 142.080261 162.937097 
" style="fill:none;stroke:#000000;stroke-width:1.5;"/>
    <path clip-path="url(#p02cf386c0e)" d="M 161.287742 199.261578 
L 161.287742 142.776979 
" style="fill:none;stroke:#000000;stroke-width:1.5;"/>
    <path clip-path="url(#p02cf386c0e)" d="M 180.897896 210.660701 
L 180.897896 134.912093 
" style="fill:none;stroke:#000000;stroke-width:1.5;"/>
    <path clip-path="url(#p02cf386c0e)" d="M 200.105377 204.71838 
L 200.105377 156.415373 
" style="fill:none;stroke:#000000;stroke-width:1.5;"/>
    <path clip-path="url(#p02cf386c0e)" d="M 219.192056 227.566398 
L 219.192056 156.299219 
" style="fill:none;stroke:#000000;stroke-width:1.5;"/>
    <path clip-path="url(#p02cf386c0e)" d="M 355.698053 242.482913 
L 355.698053 185.434307 
" style="fill:none;stroke:#000000;stroke-width:1.5;"/>
    <path clip-path="url(#p02cf386c0e)" d="M 452.339468 248.119832 
L 452.339468 197.948055 
" style="fill:none;stroke:#000000;stroke-width:1.5;"/>
    <path clip-path="url(#p02cf386c0e)" d="M 585.744886 268.694685 
L 585.744886 228.337161 
" style="fill:none;stroke:#000000;stroke-width:1.5;"/>
    <path clip-path="url(#p02cf386c0e)" d="M 683.151378 273.923746 
L 683.151378 233.120351 
" style="fill:none;stroke:#000000;stroke-width:1.5;"/>
    <path clip-path="url(#p02cf386c0e)" d="M 814.704503 296.642371 
L 814.704503 257.349425 
" style="fill:none;stroke:#000000;stroke-width:1.5;"/>
   </g>
   <g id="line2d_15">
    <path clip-path="url(#p02cf386c0e)" d="M 122.827366 -1 
L 122.938818 251.601204 
L 123.286727 253.848667 
L 123.634636 254.573407 
L 123.982545 254.967175 
L 124.678364 255.323932 
L 126.417909 255.686287 
L 174.429364 264.299146 
L 205.741182 269.622742 
L 238.096727 274.895435 
L 271.148091 280.056124 
L 305.243182 285.155273 
L 340.382 290.186123 
L 376.564545 295.142094 
L 414.138727 300.063396 
L 452.756636 304.895656 
L 492.766182 309.675589 
L 533.819455 314.355169 
L 576.264364 318.968461 
L 620.100909 323.507264 
L 665.329091 327.96613 
L 711.948909 332.337524 
L 759.960364 336.615605 
L 809.711364 340.824787 
L 818.409091 341.538348 
L 818.409091 341.538348 
" style="fill:none;stroke:#85c0f9;stroke-dasharray:5.55,2.4;stroke-dashoffset:0;stroke-width:1.5;"/>
   </g>
   <g id="line2d_16">
    <defs>
     <path d="M 4 0 
L -4 -0 
" id="m5365af712f" style="stroke:#000000;"/>
    </defs>
    <g clip-path="url(#p02cf386c0e)">
     <use style="stroke:#000000;" x="123.879461" xlink:href="#m5365af712f" y="135.573092"/>
     <use style="stroke:#000000;" x="124.845875" xlink:href="#m5365af712f" y="138.501333"/>
     <use style="stroke:#000000;" x="127.342445" xlink:href="#m5365af712f" y="157.176701"/>
     <use style="stroke:#000000;" x="132.335585" xlink:href="#m5365af712f" y="194.610207"/>
     <use style="stroke:#000000;" x="142.080261" xlink:href="#m5365af712f" y="178.536573"/>
     <use style="stroke:#000000;" x="161.287742" xlink:href="#m5365af712f" y="199.261578"/>
     <use style="stroke:#000000;" x="180.897896" xlink:href="#m5365af712f" y="210.660701"/>
     <use style="stroke:#000000;" x="200.105377" xlink:href="#m5365af712f" y="204.71838"/>
     <use style="stroke:#000000;" x="219.192056" xlink:href="#m5365af712f" y="227.566398"/>
     <use style="stroke:#000000;" x="355.698053" xlink:href="#m5365af712f" y="242.482913"/>
     <use style="stroke:#000000;" x="452.339468" xlink:href="#m5365af712f" y="248.119832"/>
     <use style="stroke:#000000;" x="585.744886" xlink:href="#m5365af712f" y="268.694685"/>
     <use style="stroke:#000000;" x="683.151378" xlink:href="#m5365af712f" y="273.923746"/>
     <use style="stroke:#000000;" x="814.704503" xlink:href="#m5365af712f" y="296.642371"/>
    </g>
   </g>
   <g id="line2d_17">
    <g clip-path="url(#p02cf386c0e)">
     <use style="stroke:#000000;" x="123.879461" xlink:href="#m5365af712f" y="51.771418"/>
     <use style="stroke:#000000;" x="124.845875" xlink:href="#m5365af712f" y="30.818182"/>
     <use style="stroke:#000000;" x="127.342445" xlink:href="#m5365af712f" y="65.579841"/>
     <use style="stroke:#000000;" x="132.335585" xlink:href="#m5365af712f" y="134.299276"/>
     <use style="stroke:#000000;" x="142.080261" xlink:href="#m5365af712f" y="162.937097"/>
     <use style="stroke:#000000;" x="161.287742" xlink:href="#m5365af712f" y="142.776979"/>
     <use style="stroke:#000000;" x="180.897896" xlink:href="#m5365af712f" y="134.912093"/>
     <use style="stroke:#000000;" x="200.105377" xlink:href="#m5365af712f" y="156.415373"/>
     <use style="stroke:#000000;" x="219.192056" xlink:href="#m5365af712f" y="156.299219"/>
     <use style="stroke:#000000;" x="355.698053" xlink:href="#m5365af712f" y="185.434307"/>
     <use style="stroke:#000000;" x="452.339468" xlink:href="#m5365af712f" y="197.948055"/>
     <use style="stroke:#000000;" x="585.744886" xlink:href="#m5365af712f" y="228.337161"/>
     <use style="stroke:#000000;" x="683.151378" xlink:href="#m5365af712f" y="233.120351"/>
     <use style="stroke:#000000;" x="814.704503" xlink:href="#m5365af712f" y="257.349425"/>
    </g>
   </g>
   <g id="line2d_18">
    <path clip-path="url(#p02cf386c0e)" d="M 122.846321 -1 
L 122.938818 232.038607 
L 123.286727 234.778471 
L 123.634636 235.740915 
L 123.982545 236.2796 
L 124.678364 236.782705 
L 126.07 237.207986 
L 163.296273 246.601695 
L 186.258273 252.08904 
L 209.916091 257.512015 
L 234.269727 262.865029 
L 259.319182 268.143055 
L 285.064455 273.341597 
L 311.853455 278.522503 
L 339.338273 283.610766 
L 367.866818 288.663633 
L 397.091182 293.613914 
L 427.359273 298.514492 
L 458.671091 303.356389 
L 491.026636 308.131357 
L 524.425909 312.83249 
L 558.868909 317.45338 
L 594.355636 321.988141 
L 630.886091 326.432078 
L 668.808182 330.820343 
L 707.774 335.104848 
L 748.131455 339.318102 
L 789.880545 343.452273 
L 818.409091 346.1538 
L 818.409091 346.1538 
" style="fill:none;stroke:#0000ff;stroke-dasharray:9.6,2.4,1.5,2.4;stroke-dashoffset:0;stroke-width:1.5;"/>
   </g>
   <g id="line2d_19">
    <g clip-path="url(#p02cf386c0e)">
     <use style="stroke:#000000;" x="123.879461" xlink:href="#m5365af712f" y="135.573092"/>
     <use style="stroke:#000000;" x="124.845875" xlink:href="#m5365af712f" y="138.501333"/>
     <use style="stroke:#000000;" x="127.342445" xlink:href="#m5365af712f" y="157.176701"/>
     <use style="stroke:#000000;" x="132.335585" xlink:href="#m5365af712f" y="194.610207"/>
     <use style="stroke:#000000;" x="142.080261" xlink:href="#m5365af712f" y="178.536573"/>
     <use style="stroke:#000000;" x="161.287742" xlink:href="#m5365af712f" y="199.261578"/>
     <use style="stroke:#000000;" x="180.897896" xlink:href="#m5365af712f" y="210.660701"/>
     <use style="stroke:#000000;" x="200.105377" xlink:href="#m5365af712f" y="204.71838"/>
     <use style="stroke:#000000;" x="219.192056" xlink:href="#m5365af712f" y="227.566398"/>
     <use style="stroke:#000000;" x="355.698053" xlink:href="#m5365af712f" y="242.482913"/>
     <use style="stroke:#000000;" x="452.339468" xlink:href="#m5365af712f" y="248.119832"/>
     <use style="stroke:#000000;" x="585.744886" xlink:href="#m5365af712f" y="268.694685"/>
     <use style="stroke:#000000;" x="683.151378" xlink:href="#m5365af712f" y="273.923746"/>
     <use style="stroke:#000000;" x="814.704503" xlink:href="#m5365af712f" y="296.642371"/>
    </g>
   </g>
   <g id="line2d_20">
    <g clip-path="url(#p02cf386c0e)">
     <use style="stroke:#000000;" x="123.879461" xlink:href="#m5365af712f" y="51.771418"/>
     <use style="stroke:#000000;" x="124.845875" xlink:href="#m5365af712f" y="30.818182"/>
     <use style="stroke:#000000;" x="127.342445" xlink:href="#m5365af712f" y="65.579841"/>
     <use style="stroke:#000000;" x="132.335585" xlink:href="#m5365af712f" y="134.299276"/>
     <use style="stroke:#000000;" x="142.080261" xlink:href="#m5365af712f" y="162.937097"/>
     <use style="stroke:#000000;" x="161.287742" xlink:href="#m5365af712f" y="142.776979"/>
     <use style="stroke:#000000;" x="180.897896" xlink:href="#m5365af712f" y="134.912093"/>
     <use style="stroke:#000000;" x="200.105377" xlink:href="#m5365af712f" y="156.415373"/>
     <use style="stroke:#000000;" x="219.192056" xlink:href="#m5365af712f" y="156.299219"/>
     <use style="stroke:#000000;" x="355.698053" xlink:href="#m5365af712f" y="185.434307"/>
     <use style="stroke:#000000;" x="452.339468" xlink:href="#m5365af712f" y="197.948055"/>
     <use style="stroke:#000000;" x="585.744886" xlink:href="#m5365af712f" y="228.337161"/>
     <use style="stroke:#000000;" x="683.151378" xlink:href="#m5365af712f" y="233.120351"/>
     <use style="stroke:#000000;" x="814.704503" xlink:href="#m5365af712f" y="257.349425"/>
    </g>
   </g>
   <g id="line2d_21">
    <path clip-path="url(#p02cf386c0e)" d="M 122.884009 -1 
L 122.938818 176.80104 
L 123.286727 181.508433 
L 123.634636 183.596127 
L 123.982545 184.894674 
L 124.678364 186.251199 
L 125.374182 186.923827 
L 127.113727 188.049563 
L 140.682182 196.262838 
L 151.119455 202.275943 
L 161.904636 208.226305 
L 173.037727 214.108424 
L 184.518727 219.917469 
L 196.347636 225.649495 
L 208.524455 231.299988 
L 221.049182 236.866567 
L 233.921818 242.346223 
L 247.490273 247.875402 
L 261.406636 253.301475 
L 275.670909 258.623333 
L 290.631 263.962462 
L 305.939 269.185851 
L 321.594909 274.294198 
L 337.946636 279.394235 
L 354.646273 284.371238 
L 372.041727 289.323056 
L 390.133 294.239732 
L 408.572182 299.021588 
L 427.707182 303.754994 
L 447.538 308.430807 
L 468.064636 313.041699 
L 489.287091 317.58046 
L 511.205364 322.040297 
L 533.819455 326.415826 
L 557.477273 330.764244 
L 581.830909 335.012652 
L 606.880364 339.157339 
L 632.973545 343.250398 
L 660.110455 347.280012 
L 687.943182 351.188846 
L 716.819636 355.0211 
L 747.087727 358.811347 
L 778.399545 362.50579 
L 810.755091 366.098226 
L 818.409091 366.916388 
L 818.409091 366.916388 
" style="fill:none;stroke:#0000ff;stroke-dasharray:1.5,2.475;stroke-dashoffset:0;stroke-width:1.5;"/>
   </g>
   <g id="line2d_22">
    <g clip-path="url(#p02cf386c0e)">
     <use style="stroke:#000000;" x="123.879461" xlink:href="#m5365af712f" y="135.573092"/>
     <use style="stroke:#000000;" x="124.845875" xlink:href="#m5365af712f" y="138.501333"/>
     <use style="stroke:#000000;" x="127.342445" xlink:href="#m5365af712f" y="157.176701"/>
     <use style="stroke:#000000;" x="132.335585" xlink:href="#m5365af712f" y="194.610207"/>
     <use style="stroke:#000000;" x="142.080261" xlink:href="#m5365af712f" y="178.536573"/>
     <use style="stroke:#000000;" x="161.287742" xlink:href="#m5365af712f" y="199.261578"/>
     <use style="stroke:#000000;" x="180.897896" xlink:href="#m5365af712f" y="210.660701"/>
     <use style="stroke:#000000;" x="200.105377" xlink:href="#m5365af712f" y="204.71838"/>
     <use style="stroke:#000000;" x="219.192056" xlink:href="#m5365af712f" y="227.566398"/>
     <use style="stroke:#000000;" x="355.698053" xlink:href="#m5365af712f" y="242.482913"/>
     <use style="stroke:#000000;" x="452.339468" xlink:href="#m5365af712f" y="248.119832"/>
     <use style="stroke:#000000;" x="585.744886" xlink:href="#m5365af712f" y="268.694685"/>
     <use style="stroke:#000000;" x="683.151378" xlink:href="#m5365af712f" y="273.923746"/>
     <use style="stroke:#000000;" x="814.704503" xlink:href="#m5365af712f" y="296.642371"/>
    </g>
   </g>
   <g id="line2d_23">
    <g clip-path="url(#p02cf386c0e)">
     <use style="stroke:#000000;" x="123.879461" xlink:href="#m5365af712f" y="51.771418"/>
     <use style="stroke:#000000;" x="124.845875" xlink:href="#m5365af712f" y="30.818182"/>
     <use style="stroke:#000000;" x="127.342445" xlink:href="#m5365af712f" y="65.579841"/>
     <use style="stroke:#000000;" x="132.335585" xlink:href="#m5365af712f" y="134.299276"/>
     <use style="stroke:#000000;" x="142.080261" xlink:href="#m5365af712f" y="162.937097"/>
     <use style="stroke:#000000;" x="161.287742" xlink:href="#m5365af712f" y="142.776979"/>
     <use style="stroke:#000000;" x="180.897896" xlink:href="#m5365af712f" y="134.912093"/>
     <use style="stroke:#000000;" x="200.105377" xlink:href="#m5365af712f" y="156.415373"/>
     <use style="stroke:#000000;" x="219.192056" xlink:href="#m5365af712f" y="156.299219"/>
     <use style="stroke:#000000;" x="355.698053" xlink:href="#m5365af712f" y="185.434307"/>
     <use style="stroke:#000000;" x="452.339468" xlink:href="#m5365af712f" y="197.948055"/>
     <use style="stroke:#000000;" x="585.744886" xlink:href="#m5365af712f" y="228.337161"/>
     <use style="stroke:#000000;" x="683.151378" xlink:href="#m5365af712f" y="233.120351"/>
     <use style="stroke:#000000;" x="814.704503" xlink:href="#m5365af712f" y="257.349425"/>
    </g>
   </g>
   <g id="line2d_24">
    <defs>
     <path d="M 0 6.363961 
L 3.818377 0 
L 0 -6.363961 
L -3.818377 0 
z
" id="m6a8b85c1b5" style="stroke:#000000;stroke-linejoin:miter;"/>
    </defs>
    <g clip-path="url(#p02cf386c0e)">
     <use style="fill-opacity:0;stroke:#000000;stroke-linejoin:miter;" x="123.879461" xlink:href="#m6a8b85c1b5" y="93.672255"/>
     <use style="fill-opacity:0;stroke:#000000;stroke-linejoin:miter;" x="124.845875" xlink:href="#m6a8b85c1b5" y="84.659757"/>
     <use style="fill-opacity:0;stroke:#000000;stroke-linejoin:miter;" x="127.342445" xlink:href="#m6a8b85c1b5" y="111.378271"/>
     <use style="fill-opacity:0;stroke:#000000;stroke-linejoin:miter;" x="132.335585" xlink:href="#m6a8b85c1b5" y="164.454741"/>
     <use style="fill-opacity:0;stroke:#000000;stroke-linejoin:miter;" x="142.080261" xlink:href="#m6a8b85c1b5" y="170.736835"/>
     <use style="fill-opacity:0;stroke:#000000;stroke-linejoin:miter;" x="161.287742" xlink:href="#m6a8b85c1b5" y="171.019278"/>
     <use style="fill-opacity:0;stroke:#000000;stroke-linejoin:miter;" x="180.897896" xlink:href="#m6a8b85c1b5" y="172.786397"/>
     <use style="fill-opacity:0;stroke:#000000;stroke-linejoin:miter;" x="200.105377" xlink:href="#m6a8b85c1b5" y="180.566876"/>
     <use style="fill-opacity:0;stroke:#000000;stroke-linejoin:miter;" x="219.192056" xlink:href="#m6a8b85c1b5" y="191.932808"/>
     <use style="fill-opacity:0;stroke:#000000;stroke-linejoin:miter;" x="355.698053" xlink:href="#m6a8b85c1b5" y="213.95861"/>
     <use style="fill-opacity:0;stroke:#000000;stroke-linejoin:miter;" x="452.339468" xlink:href="#m6a8b85c1b5" y="223.033943"/>
     <use style="fill-opacity:0;stroke:#000000;stroke-linejoin:miter;" x="585.744886" xlink:href="#m6a8b85c1b5" y="248.515923"/>
     <use style="fill-opacity:0;stroke:#000000;stroke-linejoin:miter;" x="683.151378" xlink:href="#m6a8b85c1b5" y="253.522048"/>
     <use style="fill-opacity:0;stroke:#000000;stroke-linejoin:miter;" x="814.704503" xlink:href="#m6a8b85c1b5" y="276.995898"/>
    </g>
   </g>
   <g id="line2d_25">
    <g clip-path="url(#p02cf386c0e)">
     <use style="fill-opacity:0;stroke:#000000;stroke-linejoin:miter;" x="123.879461" xlink:href="#m6a8b85c1b5" y="93.672255"/>
     <use style="fill-opacity:0;stroke:#000000;stroke-linejoin:miter;" x="124.845875" xlink:href="#m6a8b85c1b5" y="84.659757"/>
     <use style="fill-opacity:0;stroke:#000000;stroke-linejoin:miter;" x="127.342445" xlink:href="#m6a8b85c1b5" y="111.378271"/>
     <use style="fill-opacity:0;stroke:#000000;stroke-linejoin:miter;" x="132.335585" xlink:href="#m6a8b85c1b5" y="164.454741"/>
     <use style="fill-opacity:0;stroke:#000000;stroke-linejoin:miter;" x="142.080261" xlink:href="#m6a8b85c1b5" y="170.736835"/>
     <use style="fill-opacity:0;stroke:#000000;stroke-linejoin:miter;" x="161.287742" xlink:href="#m6a8b85c1b5" y="171.019278"/>
     <use style="fill-opacity:0;stroke:#000000;stroke-linejoin:miter;" x="180.897896" xlink:href="#m6a8b85c1b5" y="172.786397"/>
     <use style="fill-opacity:0;stroke:#000000;stroke-linejoin:miter;" x="200.105377" xlink:href="#m6a8b85c1b5" y="180.566876"/>
     <use style="fill-opacity:0;stroke:#000000;stroke-linejoin:miter;" x="219.192056" xlink:href="#m6a8b85c1b5" y="191.932808"/>
     <use style="fill-opacity:0;stroke:#000000;stroke-linejoin:miter;" x="355.698053" xlink:href="#m6a8b85c1b5" y="213.95861"/>
     <use style="fill-opacity:0;stroke:#000000;stroke-linejoin:miter;" x="452.339468" xlink:href="#m6a8b85c1b5" y="223.033943"/>
     <use style="fill-opacity:0;stroke:#000000;stroke-linejoin:miter;" x="585.744886" xlink:href="#m6a8b85c1b5" y="248.515923"/>
     <use style="fill-opacity:0;stroke:#000000;stroke-linejoin:miter;" x="683.151378" xlink:href="#m6a8b85c1b5" y="253.522048"/>
     <use style="fill-opacity:0;stroke:#000000;stroke-linejoin:miter;" x="814.704503" xlink:href="#m6a8b85c1b5" y="276.995898"/>
    </g>
   </g>
   <g id="line2d_26">
    <g clip-path="url(#p02cf386c0e)">
     <use style="fill-opacity:0;stroke:#000000;stroke-linejoin:miter;" x="123.879461" xlink:href="#m6a8b85c1b5" y="93.672255"/>
     <use style="fill-opacity:0;stroke:#000000;stroke-linejoin:miter;" x="124.845875" xlink:href="#m6a8b85c1b5" y="84.659757"/>
     <use style="fill-opacity:0;stroke:#000000;stroke-linejoin:miter;" x="127.342445" xlink:href="#m6a8b85c1b5" y="111.378271"/>
     <use style="fill-opacity:0;stroke:#000000;stroke-linejoin:miter;" x="132.335585" xlink:href="#m6a8b85c1b5" y="164.454741"/>
     <use style="fill-opacity:0;stroke:#000000;stroke-linejoin:miter;" x="142.080261" xlink:href="#m6a8b85c1b5" y="170.736835"/>
     <use style="fill-opacity:0;stroke:#000000;stroke-linejoin:miter;" x="161.287742" xlink:href="#m6a8b85c1b5" y="171.019278"/>
     <use style="fill-opacity:0;stroke:#000000;stroke-linejoin:miter;" x="180.897896" xlink:href="#m6a8b85c1b5" y="172.786397"/>
     <use style="fill-opacity:0;stroke:#000000;stroke-linejoin:miter;" x="200.105377" xlink:href="#m6a8b85c1b5" y="180.566876"/>
     <use style="fill-opacity:0;stroke:#000000;stroke-linejoin:miter;" x="219.192056" xlink:href="#m6a8b85c1b5" y="191.932808"/>
     <use style="fill-opacity:0;stroke:#000000;stroke-linejoin:miter;" x="355.698053" xlink:href="#m6a8b85c1b5" y="213.95861"/>
     <use style="fill-opacity:0;stroke:#000000;stroke-linejoin:miter;" x="452.339468" xlink:href="#m6a8b85c1b5" y="223.033943"/>
     <use style="fill-opacity:0;stroke:#000000;stroke-linejoin:miter;" x="585.744886" xlink:href="#m6a8b85c1b5" y="248.515923"/>
     <use style="fill-opacity:0;stroke:#000000;stroke-linejoin:miter;" x="683.151378" xlink:href="#m6a8b85c1b5" y="253.522048"/>
     <use style="fill-opacity:0;stroke:#000000;stroke-linejoin:miter;" x="814.704503" xlink:href="#m6a8b85c1b5" y="276.995898"/>
    </g>
   </g>
   <g id="patch_3">
    <path d="M 87.8 451.2 
L 87.8 10.8 
" style="fill:none;stroke:#000000;stroke-linecap:square;stroke-linejoin:miter;stroke-width:0.8;"/>
   </g>
   <g id="patch_4">
    <path d="M 853.2 451.2 
L 853.2 10.8 
" style="fill:none;stroke:#000000;stroke-linecap:square;stroke-linejoin:miter;stroke-width:0.8;"/>
   </g>
   <g id="patch_5">
    <path d="M 87.8 451.2 
L 853.2 451.2 
" style="fill:none;stroke:#000000;stroke-linecap:square;stroke-linejoin:miter;stroke-width:0.8;"/>
   </g>
   <g id="patch_6">
    <path d="M 87.8 10.8 
L 853.2 10.8 
" style="fill:none;stroke:#000000;stroke-linecap:square;stroke-linejoin:miter;stroke-width:0.8;"/>
   </g>
   <g id="legend_1">
    <g id="patch_7">
     <path d="M 674.8375 94.055 
L 842 94.055 
Q 845.2 94.055 845.2 90.855 
L 845.2 22 
Q 845.2 18.8 842 18.8 
L 674.8375 18.8 
Q 671.6375 18.8 671.6375 22 
L 671.6375 90.855 
Q 671.6375 94.055 674.8375 94.055 
z
" style="fill:#ffffff;opacity:0.8;stroke:#cccccc;stroke-linejoin:miter;"/>
    </g>
    <g id="line2d_27">
     <path d="M 678.0375 31.7575 
L 710.0375 31.7575 
" style="fill:none;stroke:#85c0f9;stroke-dasharray:5.55,2.4;stroke-dashoffset:0;stroke-width:1.5;"/>
    </g>
    <g id="line2d_28"/>
    <g id="text_17">
     <!-- VEFC = 0.05 -->
     <defs>
      <path d="M 17.484375 67.671875 
L 39.015625 11.71875 
L 60.5 67.671875 
L 52.296875 67.671875 
L 52.296875 72.90625 
L 73.6875 72.90625 
L 73.6875 67.671875 
L 66.609375 67.671875 
L 40.578125 0 
L 32.171875 0 
L 6.296875 67.671875 
L -0.984375 67.671875 
L -0.984375 72.90625 
L 25.59375 72.90625 
L 25.59375 67.671875 
z
" id="DejaVuSerif-86"/>
      <path d="M 5.515625 0 
L 5.515625 5.171875 
L 14.796875 5.171875 
L 14.796875 67.671875 
L 5.515625 67.671875 
L 5.515625 72.90625 
L 64.203125 72.90625 
L 64.203125 56.6875 
L 58.203125 56.6875 
L 58.203125 66.890625 
L 24.703125 66.890625 
L 24.703125 42.484375 
L 48.578125 42.484375 
L 48.578125 51.609375 
L 54.59375 51.609375 
L 54.59375 27.390625 
L 48.578125 27.390625 
L 48.578125 36.53125 
L 24.703125 36.53125 
L 24.703125 6 
L 58.984375 6 
L 58.984375 16.21875 
L 64.984375 16.21875 
L 64.984375 0 
z
" id="DejaVuSerif-69"/>
      <path d="M 5.515625 0 
L 5.515625 5.171875 
L 14.796875 5.171875 
L 14.796875 67.671875 
L 5.515625 67.671875 
L 5.515625 72.90625 
L 65.1875 72.90625 
L 65.1875 56.6875 
L 59.1875 56.6875 
L 59.1875 66.890625 
L 24.703125 66.890625 
L 24.703125 42.484375 
L 49.609375 42.484375 
L 49.609375 51.609375 
L 55.609375 51.609375 
L 55.609375 27.390625 
L 49.609375 27.390625 
L 49.609375 36.53125 
L 24.703125 36.53125 
L 24.703125 5.171875 
L 36.375 5.171875 
L 36.375 0 
z
" id="DejaVuSerif-70"/>
      <path d="M 70.515625 19.28125 
Q 67.28125 9.078125 59.6875 3.828125 
Q 52.09375 -1.421875 40.484375 -1.421875 
Q 33.34375 -1.421875 27.234375 1.015625 
Q 21.140625 3.46875 16.40625 8.203125 
Q 10.9375 13.671875 8.265625 20.625 
Q 5.609375 27.59375 5.609375 36.375 
Q 5.609375 53.375 15.421875 63.796875 
Q 25.25 74.21875 41.3125 74.21875 
Q 47.265625 74.21875 54 72.65625 
Q 60.75 71.09375 68.5 67.921875 
L 68.5 51.125 
L 62.984375 51.125 
Q 61.1875 60.296875 55.734375 64.640625 
Q 50.296875 69 40.484375 69 
Q 28.8125 69 22.796875 60.71875 
Q 16.796875 52.4375 16.796875 36.375 
Q 16.796875 20.359375 22.796875 12.078125 
Q 28.8125 3.8125 40.484375 3.8125 
Q 48.640625 3.8125 53.90625 7.6875 
Q 59.1875 11.578125 61.53125 19.28125 
z
" id="DejaVuSerif-67"/>
      <path d="M 10.59375 45.21875 
L 73.1875 45.21875 
L 73.1875 37.40625 
L 10.59375 37.40625 
z
M 10.59375 25.296875 
L 73.1875 25.296875 
L 73.1875 17.484375 
L 10.59375 17.484375 
z
" id="DejaVuSerif-61"/>
      <path d="M 9.421875 5.078125 
Q 9.421875 7.8125 11.28125 9.71875 
Q 13.140625 11.625 15.921875 11.625 
Q 18.609375 11.625 20.5 9.71875 
Q 22.40625 7.8125 22.40625 5.078125 
Q 22.40625 2.390625 20.5 0.484375 
Q 18.609375 -1.421875 15.921875 -1.421875 
Q 13.140625 -1.421875 11.28125 0.453125 
Q 9.421875 2.34375 9.421875 5.078125 
z
" id="DejaVuSerif-46"/>
     </defs>
     <g transform="translate(722.8375 37.3575)scale(0.16 -0.16)">
      <use xlink:href="#DejaVuSerif-86"/>
      <use x="72.216797" xlink:href="#DejaVuSerif-69"/>
      <use x="145.214844" xlink:href="#DejaVuSerif-70"/>
      <use x="214.599609" xlink:href="#DejaVuSerif-67"/>
      <use x="291.113281" xlink:href="#DejaVuSerif-32"/>
      <use x="322.900391" xlink:href="#DejaVuSerif-61"/>
      <use x="406.689453" xlink:href="#DejaVuSerif-32"/>
      <use x="438.476562" xlink:href="#DejaVuSerif-48"/>
      <use x="502.099609" xlink:href="#DejaVuSerif-46"/>
      <use x="533.886719" xlink:href="#DejaVuSerif-48"/>
      <use x="597.509766" xlink:href="#DejaVuSerif-53"/>
     </g>
    </g>
    <g id="line2d_29">
     <path d="M 678.0375 55.2425 
L 710.0375 55.2425 
" style="fill:none;stroke:#0000ff;stroke-dasharray:9.6,2.4,1.5,2.4;stroke-dashoffset:0;stroke-width:1.5;"/>
    </g>
    <g id="line2d_30"/>
    <g id="text_18">
     <!-- VEFC = 0.045 -->
     <g transform="translate(722.8375 60.8425)scale(0.16 -0.16)">
      <use xlink:href="#DejaVuSerif-86"/>
      <use x="72.216797" xlink:href="#DejaVuSerif-69"/>
      <use x="145.214844" xlink:href="#DejaVuSerif-70"/>
      <use x="214.599609" xlink:href="#DejaVuSerif-67"/>
      <use x="291.113281" xlink:href="#DejaVuSerif-32"/>
      <use x="322.900391" xlink:href="#DejaVuSerif-61"/>
      <use x="406.689453" xlink:href="#DejaVuSerif-32"/>
      <use x="438.476562" xlink:href="#DejaVuSerif-48"/>
      <use x="502.099609" xlink:href="#DejaVuSerif-46"/>
      <use x="533.886719" xlink:href="#DejaVuSerif-48"/>
      <use x="597.509766" xlink:href="#DejaVuSerif-52"/>
      <use x="661.132812" xlink:href="#DejaVuSerif-53"/>
     </g>
    </g>
    <g id="line2d_31">
     <path d="M 678.0375 78.7275 
L 710.0375 78.7275 
" style="fill:none;stroke:#0000ff;stroke-dasharray:1.5,2.475;stroke-dashoffset:0;stroke-width:1.5;"/>
    </g>
    <g id="line2d_32"/>
    <g id="text_19">
     <!-- VEFC = 0.035 -->
     <g transform="translate(722.8375 84.3275)scale(0.16 -0.16)">
      <use xlink:href="#DejaVuSerif-86"/>
      <use x="72.216797" xlink:href="#DejaVuSerif-69"/>
      <use x="145.214844" xlink:href="#DejaVuSerif-70"/>
      <use x="214.599609" xlink:href="#DejaVuSerif-67"/>
      <use x="291.113281" xlink:href="#DejaVuSerif-32"/>
      <use x="322.900391" xlink:href="#DejaVuSerif-61"/>
      <use x="406.689453" xlink:href="#DejaVuSerif-32"/>
      <use x="438.476562" xlink:href="#DejaVuSerif-48"/>
      <use x="502.099609" xlink:href="#DejaVuSerif-46"/>
      <use x="533.886719" xlink:href="#DejaVuSerif-48"/>
      <use x="597.509766" xlink:href="#DejaVuSerif-51"/>
      <use x="661.132812" xlink:href="#DejaVuSerif-53"/>
     </g>
    </g>
   </g>
  </g>
 </g>
 <defs>
  <clipPath id="p02cf386c0e">
   <rect height="440.4" width="765.4" x="87.8" y="10.8"/>
  </clipPath>
 </defs>
</svg>
